<?xml version="1.0" encoding="UTF-8"?>
<svg width="20px" height="20px" viewBox="0 0 20 20" version="1.1" xmlns="http://www.w3.org/2000/svg" xmlns:xlink="http://www.w3.org/1999/xlink">
    <title>音乐</title>
    <g id="空间里层页面优化" stroke="none" stroke-width="1" fill="none" fill-rule="evenodd" opacity="0.99">
        <g id="记忆验证-交互" transform="translate(-1082, -160)" fill="#8A8A8B" fill-rule="nonzero">
            <g id="编组-18" transform="translate(767, 80)">
                <g id="音乐" transform="translate(315, 80)">
                    <path d="M14.6073402,2.57262186 C15.6328161,2.25308272 16.6661263,3.02795625 16.6661263,4.11437435 L16.6661263,13.7003614 C16.6732874,14.7217062 15.8670354,15.7879695 14.6194537,16.2794568 C13.1069857,16.8752967 11.5186278,16.4007449 11.0717571,15.2195156 C10.7826864,14.455375 11.0375417,13.5436687 11.7403216,12.8278091 C12.4431014,12.1119495 13.4870367,11.7006926 14.4788871,11.7489549 C14.8184176,11.7654761 15.1341869,11.834986 15.4142713,11.9499225 L15.413623,5.87179282 C15.413623,5.66410268 15.2414169,5.52830743 15.0770266,5.52830743 C15.0457081,5.52830743 15.0143895,5.53628327 14.9830893,5.54427784 L8.45444767,7.66916538 C8.30570751,7.70911948 8.21177022,7.84491472 8.21177022,7.99669909 L8.21177022,15.5216989 C8.20753706,16.1135542 7.93358521,16.7332583 7.42564337,17.250655 C6.72286669,17.9665132 5.67893489,18.3777701 4.68708696,18.3295091 C3.69523903,18.2812482 2.90616029,17.7808014 2.61708906,17.0166822 C2.3280178,16.2525631 2.58287084,15.3408594 3.28564752,14.6250012 C3.98842419,13.909143 5.032356,13.4978861 6.02420393,13.546147 C6.36413873,13.5626875 6.68025567,13.632343 6.96058851,13.7475244 L6.95926656,6.2392619 C6.95880655,5.52546993 7.41686196,4.89574003 8.08651438,4.68953357 Z" id="形状结合"></path>
                </g>
            </g>
        </g>
    </g>
</svg>