<?xml version="1.0" encoding="UTF-8"?>
<svg width="24px" height="24px" viewBox="0 0 24 24" version="1.1" xmlns="http://www.w3.org/2000/svg" xmlns:xlink="http://www.w3.org/1999/xlink">
    <title>音乐</title>
    <g id="空间里层页面优化" stroke="none" stroke-width="1" fill="none" fill-rule="evenodd" opacity="0.99">
        <g id="工作台-知识库-创建数据集-本地文件-2" transform="translate(-949, -851)" fill="#369F21" fill-rule="nonzero">
            <g id="音乐" transform="translate(949, 851)">
                <path d="M20,16.455738 C19.9998747,17.6766961 19.0342058,18.9480203 17.5433445,19.5353482 C15.7283829,20.2503561 13.8223534,19.6808938 13.2861085,18.2634188 C12.9392237,17.34645 13.2450501,16.2524025 14.0883859,15.3933709 C14.9317216,14.5343394 16.184444,14.0408311 17.3746646,14.0987459 C17.7820128,14.118567 18.1608598,14.201947 18.4969068,14.3398172 L18.4963476,7.04615138 C18.4963476,6.79692321 18.2897002,6.63396892 18.0924319,6.63396892 C18.0548497,6.63396892 18.0172674,6.64353993 17.9797072,6.65313341 L10.1453372,9.20299846 C9.96684901,9.25094338 9.85412426,9.41389767 9.85412426,9.59603891 L9.85412426,18.6260387 C9.84879171,19.3368367 9.52006796,20.0801486 8.91077204,20.700786 C8.06744003,21.5598158 6.81472186,22.0533241 5.62450435,21.995411 C4.43428684,21.9374978 3.48739235,21.3369617 3.14050687,20.4200187 C2.79362136,19.5030757 3.09944501,18.4090313 3.94277702,17.5500015 C4.78610903,16.6909716 6.0388272,16.1974633 7.22904471,16.2553765 C7.63671921,16.2752129 8.0158469,16.3587103 8.35209443,16.496778 L8.35111987,7.48711428 C8.35056786,6.63056391 8.90023435,5.87488803 9.70381726,5.62744028 L17.5288082,3.08714624 C18.7593794,2.70369927 19.9993516,3.6335475 19.9993516,4.93724922 Z" id="形状结合"></path>
            </g>
        </g>
    </g>
</svg>