<?xml version="1.0" encoding="UTF-8"?>
<svg width="24px" height="24px" viewBox="0 0 24 24" version="1.1" xmlns="http://www.w3.org/2000/svg" xmlns:xlink="http://www.w3.org/1999/xlink">
    <title>编组 57</title>
    <g id="空间里层页面优化" stroke="none" stroke-width="1" fill="none" fill-rule="evenodd">
        <g id="工作台-知识库-创建数据集-本地文件-2" transform="translate(-443, -851)">
            <g id="编组-57" transform="translate(443, 851)">
                <path d="M6,1 L15.1715729,1 C15.7020059,1 16.2107137,1.21071368 16.5857864,1.58578644 L20.4142136,5.41421356 C20.7892863,5.78928632 21,6.29799415 21,6.82842712 L21,20 C21,21.6568542 19.6568542,23 18,23 L6,23 C4.34314575,23 3,21.6568542 3,20 L3,4 C3,2.34314575 4.34314575,1 6,1 Z" id="矩形" fill="#155EEF"></path>
                <g id="编组-11" transform="translate(4.5, 10)" fill="#FFFFFF" fill-rule="nonzero">
                    <path d="M3.74998106,1.31509018 C3.74735762,1.4334406 3.69649081,1.54592661 3.60857717,1.62778835 C3.52066353,1.70965009 3.40290911,1.75417757 3.28123343,1.75156962 L2.8124858,1.75156962 C2.30551317,1.74138936 1.88592101,2.13264132 1.87499054,2.62574433 L1.87499054,4.37409375 C1.88592099,4.86719677 2.30551316,5.25844875 2.8124858,5.24826849 L3.28123343,5.24826849 C3.40290911,5.24566054 3.52066353,5.29018802 3.60857717,5.37204975 C3.69649081,5.45391149 3.74735762,5.56639751 3.74998106,5.68474793 L3.74998106,6.55892264 C3.74735763,6.67727307 3.69649082,6.78975909 3.60857718,6.87162083 C3.52066354,6.95348258 3.40290911,6.99801006 3.28123343,6.99540211 L2.8124858,6.99540211 C2.08181824,7.01169692 1.37453656,6.74441594 0.846835274,6.25258491 C0.319133983,5.76075387 0.0144251536,5.08483394 0,4.37409375 L0,2.62574433 C0.0144251609,1.91500414 0.319133993,1.23908422 0.846835283,0.747253188 C1.37453657,0.255422158 2.08181824,-0.0118588152 2.8124858,0.00443599745 L3.28123343,0.00443599745 C3.40290911,0.00182804652 3.52066353,0.0463555261 3.60857717,0.128217263 C3.69649081,0.210078999 3.74735762,0.322565017 3.74998106,0.440915438 L3.74998106,1.31509018 Z" id="路径"></path>
                    <path d="M6.34371799,6.99540211 L5.6249716,6.99540211 C5.50329592,6.99801006 5.38554149,6.95348258 5.29762785,6.87162083 C5.20971421,6.78975909 5.1588474,6.67727307 5.15622397,6.55892264 L5.15622397,5.68474793 C5.15884741,5.56639751 5.20971422,5.45391149 5.29762786,5.37204975 C5.3855415,5.29018802 5.50329592,5.24566054 5.6249716,5.24826849 L6.34371799,5.24826849 C6.69246623,5.24826849 6.95371491,5.05738471 6.95371488,4.88352243 C6.94629613,4.7988134 6.90047953,4.72171762 6.82871553,4.67318553 L5.547472,3.65189656 C5.0625209,3.2801153 4.77555777,2.71562733 4.76622595,2.11509985 C4.85967193,0.868433381 5.96731214,-0.0728320292 7.24996338,0.00443599745 L7.96745977,0.00443599745 C8.08913545,0.00182804652 8.20688987,0.0463555261 8.29480351,0.128217263 C8.38271714,0.210078999 8.43358396,0.322565017 8.4362074,0.440915438 L8.4362074,1.31509018 C8.43358396,1.4334406 8.38271714,1.54592661 8.29480351,1.62778835 C8.20688987,1.70965009 8.08913545,1.75417757 7.96745977,1.75156962 L7.24996338,1.75156962 C6.90121515,1.75156962 6.63996646,1.94245339 6.63996649,2.11631568 C6.6477439,2.20058626 6.69352092,2.27717018 6.76496584,2.32543675 L8.04745938,3.35037315 C8.53241048,3.72215442 8.81937361,4.2866424 8.82870543,4.88716989 C8.73462185,6.13368729 7.62617195,7.0740823 6.34371799,6.99540211 L6.34371799,6.99540211 Z" id="路径"></path>
                    <path d="M11.2499432,0.440915438 L11.2499432,1.5764915 C11.2512026,2.67777506 11.5765122,3.75569874 12.1874385,4.68291209 C12.7984289,3.75572719 13.1237441,2.67778486 13.1249337,1.5764915 L13.1249337,0.440915438 C13.1275572,0.322565017 13.178424,0.210078999 13.2663376,0.128217263 C13.3542513,0.0463555261 13.4720057,0.00182804652 13.5936814,0.00443599745 L14.5311766,0.00443599745 C14.6528523,0.00182804652 14.7706067,0.0463555261 14.8585204,0.128217263 C14.946434,0.210078999 14.9973008,0.322565017 14.9999243,0.440915438 L14.9999243,1.5764915 C15.0087494,3.4937602 14.2460649,5.33830752 12.874935,6.71576346 C12.6935617,6.89486746 12.4459015,6.99571622 12.1874385,6.99571622 C11.9289755,6.99571622 11.6813152,6.89486746 11.4999419,6.71576346 C10.128812,5.33830752 9.36612749,3.4937602 9.37495266,1.5764915 L9.37495266,0.440915438 C9.37757609,0.322565012 9.42844291,0.21007899 9.51635656,0.128217253 C9.6042702,0.0463555155 9.72202463,0.00182803917 9.84370031,0.00443599745 L10.7811956,0.00443599745 C10.9028712,0.00182804652 11.0206257,0.0463555261 11.1085393,0.128217263 C11.1964529,0.210078999 11.2473198,0.322565017 11.2499432,0.440915438 L11.2499432,0.440915438 Z" id="路径"></path>
                </g>
            </g>
        </g>
    </g>
</svg>