<?xml version="1.0" encoding="UTF-8"?>
<svg width="20px" height="20px" viewBox="0 0 20 20" version="1.1" xmlns="http://www.w3.org/2000/svg" xmlns:xlink="http://www.w3.org/1999/xlink">
    <title>编组 57</title>
    <g id="空间里层页面优化" stroke="none" stroke-width="1" fill="none" fill-rule="evenodd">
        <g id="记忆验证-交互" transform="translate(-914, -120)">
            <g id="编组-18" transform="translate(767, 80)">
                <g id="编组-57" transform="translate(147, 40)">
                    <path d="M5.5,0.833333333 L12.5049062,0.833333333 C13.0353392,0.833333333 13.544047,1.04404701 13.9191198,1.41911977 L16.9142136,4.41421356 C17.2892863,4.78928632 17.5,5.29799415 17.5,5.82842712 L17.5,16.1666667 C17.5,17.8235209 16.1568542,19.1666667 14.5,19.1666667 L5.5,19.1666667 C3.84314575,19.1666667 2.5,17.8235209 2.5,16.1666667 L2.5,3.83333333 C2.5,2.17647908 3.84314575,0.833333333 5.5,0.833333333 Z" id="矩形" fill="#8A8A8B"></path>
                    <g id="编组-11" transform="translate(3.75, 8.3333)" fill="#FFFFFF" fill-rule="nonzero">
                        <path d="M3.12498421,1.09590848 C3.12279802,1.19453383 3.080409,1.28827218 3.00714764,1.35649029 C2.93388628,1.42470841 2.83575759,1.46181464 2.73436119,1.45964135 L2.34373817,1.45964135 C1.92126098,1.4511578 1.57160084,1.7772011 1.56249212,2.18812027 L1.56249212,3.64507813 C1.57160083,4.05599731 1.92126097,4.38204063 2.34373817,4.37355707 L2.73436119,4.37355707 C2.83575759,4.37138378 2.93388628,4.40849001 3.00714764,4.47670813 C3.080409,4.54492624 3.12279802,4.63866459 3.12498421,4.73728994 L3.12498421,5.46576887 C3.12279802,5.56439422 3.08040901,5.65813258 3.00714765,5.72635069 C2.93388628,5.79456881 2.83575759,5.83167505 2.73436119,5.82950176 L2.34373817,5.82950176 C1.73484853,5.84308077 1.14544714,5.62034662 0.705696061,5.21048742 C0.265944986,4.80062823 0.0120209613,4.23736162 0,3.64507813 L0,2.18812027 C0.0120209675,1.59583679 0.265944994,1.03257018 0.70569607,0.62271099 C1.14544714,0.212851798 1.73484854,-0.00988234604 2.34373817,0.00369666454 L2.73436119,0.00369666454 C2.83575759,0.0015233721 2.93388628,0.0386296051 3.00714764,0.106847719 C3.080409,0.175065833 3.12279802,0.268804181 3.12498421,0.367429531 L3.12498421,1.09590848 Z" id="路径"></path>
                        <path d="M5.28643166,5.82950176 L4.68747633,5.82950176 C4.58607993,5.83167505 4.48795124,5.79456881 4.41468988,5.72635069 C4.34142851,5.65813258 4.2990395,5.56439422 4.29685331,5.46576887 L4.29685331,4.73728994 C4.29903951,4.63866459 4.34142852,4.54492624 4.41468988,4.47670813 C4.48795125,4.40849001 4.58607993,4.37138378 4.68747633,4.37355707 L5.28643166,4.37355707 C5.57705519,4.37355707 5.79476243,4.21448726 5.7947624,4.06960202 C5.78858011,3.99901117 5.75039961,3.93476468 5.69059628,3.89432127 L4.62289333,3.04324713 C4.21876742,2.73342941 3.97963148,2.26302277 3.97185496,1.7625832 C4.04972661,0.723694484 4.97276012,-0.0606933577 6.04163615,0.00369666454 L6.63954981,0.00369666454 C6.7409462,0.0015233721 6.83907489,0.0386296051 6.91233626,0.106847719 C6.98559762,0.175065833 7.02798663,0.268804181 7.03017283,0.367429531 L7.03017283,1.09590848 C7.02798663,1.19453383 6.98559762,1.28827218 6.91233626,1.35649029 C6.83907489,1.42470841 6.7409462,1.46181464 6.63954981,1.45964135 L6.04163615,1.45964135 C5.75101262,1.45964135 5.53330538,1.61871116 5.53330541,1.7635964 C5.53978658,1.83382188 5.5779341,1.89764181 5.63747153,1.93786396 L6.70621615,2.79197763 C7.11034207,3.10179535 7.34947801,3.572202 7.35725452,4.07264158 C7.27885154,5.11140608 6.35514329,5.89506858 5.28643166,5.82950176 L5.28643166,5.82950176 Z" id="路径"></path>
                        <path d="M9.37495267,0.367429531 L9.37495267,1.31374292 C9.37600218,2.23147922 9.64709349,3.12974895 10.1561987,3.90242674 C10.6653574,3.12977266 10.9364534,2.23148738 10.9374448,1.31374292 L10.9374448,0.367429531 C10.939631,0.268804181 10.98202,0.175065833 11.0552814,0.106847719 C11.1285427,0.0386296051 11.2266714,0.0015233721 11.3280678,0.00369666454 L12.1093139,0.00369666454 C12.2107103,0.0015233721 12.3088389,0.0386296051 12.3821003,0.106847719 C12.4553617,0.175065833 12.4977507,0.268804181 12.4999369,0.367429531 L12.4999369,1.31374292 C12.5072912,2.91146684 11.8717207,4.4485896 10.7291125,5.59646955 C10.5779681,5.74572289 10.3715845,5.82976352 10.1561987,5.82976352 C9.94081288,5.82976352 9.73442934,5.74572289 9.58328494,5.59646955 C8.44067669,4.4485896 7.80510624,2.91146684 7.81246055,1.31374292 L7.81246055,0.367429531 C7.81464675,0.268804177 7.85703576,0.175065825 7.93029713,0.106847711 C8.0035585,0.0386295962 8.10168719,0.00152336598 8.2030836,0.00369666454 L8.98432964,0.00369666454 C9.08572604,0.0015233721 9.18385473,0.0386296051 9.25711609,0.106847719 C9.33037746,0.175065833 9.37276647,0.268804181 9.37495267,0.367429531 L9.37495267,0.367429531 Z" id="路径"></path>
                    </g>
                </g>
            </g>
        </g>
    </g>
</svg>