<?xml version="1.0" encoding="UTF-8"?>
<svg width="20px" height="20px" viewBox="0 0 20 20" version="1.1" xmlns="http://www.w3.org/2000/svg" xmlns:xlink="http://www.w3.org/1999/xlink">
    <title>Excel</title>
    <g id="空间里层页面优化" stroke="none" stroke-width="1" fill="none" fill-rule="evenodd">
        <g id="记忆验证-交互" transform="translate(-767, -120)">
            <g id="编组-18" transform="translate(767, 80)">
                <g id="Excel" transform="translate(0, 40)">
                    <g id="编组-9" transform="translate(2.5, 0.8333)">
                        <path d="M3,0 L10.4985967,0 L10.4985967,0 L15,4.58333333 L15,15.3333333 C15,16.9901876 13.6568542,18.3333333 12,18.3333333 L3,18.3333333 C1.34314575,18.3333333 0,16.9901876 0,15.3333333 L0,3 C0,1.34314575 1.34314575,0 3,0 Z" id="矩形" fill="#8A8A8B"></path>
                        <path d="M3.77012746,6.97784687 L6.58256881,10.695 L6.58256881,10.695 L3.56554701,14.6923338 C3.50166634,14.776971 3.51849286,14.8973686 3.60313009,14.9612493 C3.63644798,14.9863962 3.67705358,15 3.71879627,15 L4.91119321,15 C5.06466904,15 5.2088912,14.9266088 5.29923008,14.8025374 L7.5,11.78 L7.5,11.78 L9.70076992,14.8025374 C9.7911088,14.9266088 9.93533096,15 10.0888068,15 L11.2793807,15 C11.3854194,15 11.4713807,14.9140387 11.4713807,14.808 C11.4713807,14.7660102 11.4576156,14.7251781 11.4321939,14.6917583 L8.39194699,10.695 L8.39194699,10.695 L11.2274552,6.97846056 C11.2917746,6.89415626 11.2755736,6.77367294 11.1912693,6.70935355 C11.1578111,6.68382685 11.1168928,6.67 11.0748088,6.67 L9.88493319,6.67 C9.73145736,6.67 9.5872352,6.74339117 9.49689632,6.86746259 L7.5,9.61 L7.5,9.61 L5.50310368,6.86746259 C5.4127648,6.74339117 5.26854264,6.67 5.11506681,6.67 L3.92324018,6.67 C3.8172015,6.67 3.73124017,6.75596133 3.73124017,6.862 C3.73124017,6.9038202 3.74489445,6.94449685 3.77012746,6.97784687 Z" id="路径" fill="#FFFFFF" fill-rule="nonzero"></path>
                        <path d="M10.5,0 L15,4.58333333 L12.228,4.58333333 C11.273652,4.58333333 10.5,3.80968138 10.5,2.85533333 L10.5,0 L10.5,0 Z" id="矩形" fill-opacity="0.5" fill="#FFFFFF"></path>
                    </g>
                </g>
            </g>
        </g>
    </g>
</svg>