<?xml version="1.0" encoding="UTF-8"?>
<svg width="24px" height="24px" viewBox="0 0 24 24" version="1.1" xmlns="http://www.w3.org/2000/svg" xmlns:xlink="http://www.w3.org/1999/xlink">
    <title>Excel</title>
    <g id="空间里层页面优化" stroke="none" stroke-width="1" fill="none" fill-rule="evenodd">
        <g id="工作台-知识库-创建数据集-本地文件-2" transform="translate(-296, -851)">
            <g id="Excel" transform="translate(296, 851)">
                <g id="编组-9" transform="translate(3, 1)">
                    <path d="M3,0 L12.5983161,0 L12.5983161,0 L18,5.5 L18,19 C18,20.6568542 16.6568542,22 15,22 L3,22 C1.34314575,22 -4.4408921e-16,20.6568542 -4.4408921e-16,19 L0,3 C0,1.34314575 1.34314575,0 3,0 Z" id="矩形" fill="#369F21"></path>
                    <path d="M4.47756884,8.31184687 L7.89908257,12.834 L7.89908257,12.834 L4.23221368,17.6923338 C4.16833301,17.776971 4.18515952,17.8973686 4.26979675,17.9612493 C4.30311465,17.9863962 4.34372024,18 4.38546294,18 L5.94228393,18 C6.09575976,18 6.23998192,17.9266088 6.33032081,17.8025374 L9,14.136 L9,14.136 L11.6696792,17.8025374 C11.7600181,17.9266088 11.9042402,18 12.0577161,18 L13.6127141,18 C13.7187527,18 13.8047141,17.9140387 13.8047141,17.808 C13.8047141,17.7660102 13.790949,17.7251781 13.7655273,17.6917583 L10.0703364,12.834 L10.0703364,12.834 L13.5200138,8.31246056 C13.5843332,8.22815626 13.5681322,8.10767294 13.4838279,8.04335355 C13.4503697,8.01782685 13.4094514,8.004 13.3673674,8.004 L11.8130677,8.004 C11.6595919,8.004 11.5153698,8.07739117 11.4250309,8.20146259 L9,11.532 L9,11.532 L6.57496912,8.20146259 C6.48463024,8.07739117 6.34040808,8.004 6.18693225,8.004 L4.63068156,8.004 C4.52464289,8.004 4.43868156,8.08996133 4.43868156,8.196 C4.43868156,8.2378202 4.45233583,8.27849685 4.47756884,8.31184687 Z" id="路径" fill="#FFFFFF" fill-rule="nonzero"></path>
                    <path d="M12.6,0 L18,5.5 L14.328,5.5 C13.373652,5.5 12.6,4.72634805 12.6,3.772 L12.6,0 L12.6,0 Z" id="矩形" fill-opacity="0.5" fill="#FFFFFF"></path>
                </g>
            </g>
        </g>
    </g>
</svg>