<?xml version="1.0" encoding="UTF-8"?>
<svg width="20px" height="20px" viewBox="0 0 20 20" version="1.1" xmlns="http://www.w3.org/2000/svg" xmlns:xlink="http://www.w3.org/1999/xlink">
    <title>Word</title>
    <g id="空间里层页面优化" stroke="none" stroke-width="1" fill="none" fill-rule="evenodd">
        <g id="记忆验证-交互" transform="translate(-1082, -120)">
            <g id="编组-18" transform="translate(767, 80)">
                <g id="Word" transform="translate(315, 40)">
                    <g id="编组-9" transform="translate(2.5, 0.8333)">
                        <path d="M3,0 L10.4985967,0 L10.4985967,0 L15,4.58333333 L15,15.3333333 C15,16.9901876 13.6568542,18.3333333 12,18.3333333 L3,18.3333333 C1.34314575,18.3333333 0,16.9901876 0,15.3333333 L0,3 C0,1.34314575 1.34314575,0 3,0 Z" id="矩形" fill="#8A8A8B"></path>
                        <path d="M10.5,0 L15,4.58333333 L12.66,4.58333333 C11.4670649,4.58333333 10.5,3.61626839 10.5,2.42333333 L10.5,0 L10.5,0 Z" id="矩形" fill-opacity="0.5" fill="#FFFFFF"></path>
                        <path d="M5.25477293,8.43659104 L3.69136395,10 L5.25477293,11.563409 C5.51316277,11.8309401 5.5094673,12.2561938 5.24646711,12.519194 C4.98346693,12.7821942 4.55821317,12.7858897 4.29068209,12.5274998 L2.2452277,10.4820454 C1.97905823,10.2157955 1.97905823,9.78420448 2.2452277,9.51795461 L4.29068209,7.47250022 C4.55821317,7.21411037 4.98346693,7.21780584 5.24646711,7.48080602 C5.5094673,7.7438062 5.51316277,8.16905996 5.25477293,8.43659104 L5.25477293,8.43659104 Z M9.74522711,11.563409 L11.3086361,10 L9.74522711,8.43659104 C9.48683726,8.16905996 9.49053273,7.7438062 9.75353292,7.48080602 C10.0165331,7.21780584 10.4417869,7.21411037 10.7093179,7.47250022 L12.7547723,9.51795461 C13.0209418,9.78420448 13.0209418,10.2157955 12.7547723,10.4820454 L10.7093179,12.5274998 C10.4417869,12.7858897 10.0165331,12.7821942 9.75353292,12.519194 C9.49053273,12.2561938 9.48683726,11.8309401 9.74522711,11.563409 L9.74522711,11.563409 Z M7.89613634,7.34500023 C8.04788899,7.00451793 8.44495301,6.84902457 8.78756291,6.99591064 C9.13017281,7.14279671 9.29130774,7.53760496 9.14931807,7.88227291 L7.10386369,12.6549998 C6.95211104,12.9954821 6.55504702,13.1509755 6.21243712,13.0040894 C5.86982722,12.8572033 5.70869229,12.4623951 5.85068196,12.1177271 L7.89613634,7.34500023 Z" id="形状结合" fill="#FFFFFF" fill-rule="nonzero"></path>
                    </g>
                </g>
            </g>
        </g>
    </g>
</svg>