<?xml version="1.0" encoding="UTF-8"?>
<svg width="24px" height="24px" viewBox="0 0 24 24" version="1.1" xmlns="http://www.w3.org/2000/svg" xmlns:xlink="http://www.w3.org/1999/xlink">
    <title>Word</title>
    <g id="空间里层页面优化" stroke="none" stroke-width="1" fill="none" fill-rule="evenodd">
        <g id="工作台-知识库-创建数据集-本地文件-2" transform="translate(-555, -851)">
            <g id="Word" transform="translate(555, 851)">
                <g id="编组-9" transform="translate(3, 1)">
                    <path d="M3,0 L12.5983161,0 L12.5983161,0 L18,5.5 L18,19 C18,20.6568542 16.6568542,22 15,22 L3,22 C1.34314575,22 -4.4408921e-16,20.6568542 -4.4408921e-16,19 L0,3 C0,1.34314575 1.34314575,0 3,0 Z" id="矩形" fill="#155EEF"></path>
                    <path d="M12.6,0 L18,5.5 L14.76,5.5 C13.5670649,5.5 12.6,4.53293506 12.6,3.34 L12.6,0 L12.6,0 Z" id="矩形" fill-opacity="0.5" fill="#FFFFFF"></path>
                    <path d="M6.30572751,10.1239093 L4.42963674,12 L6.30572751,13.8760908 C6.61579533,14.1971281 6.61136076,14.7074326 6.29576054,15.0230328 C5.98016031,15.338633 5.4698558,15.3430676 5.14881851,15.0329998 L2.69427324,12.5784545 C2.37486988,12.2589547 2.37486988,11.7410454 2.69427324,11.4215455 L5.14881851,8.96700027 C5.4698558,8.65693244 5.98016031,8.661367 6.29576054,8.97696722 C6.61136076,9.29256744 6.61579533,9.80287195 6.30572751,10.1239093 L6.30572751,10.1239093 Z M11.6942725,13.8760908 L13.5703633,12 L11.6942725,10.1239093 C11.3842047,9.80287195 11.3886393,9.29256744 11.7042395,8.97696722 C12.0198397,8.661367 12.5301442,8.65693244 12.8511815,8.96700027 L15.3057268,11.4215455 C15.6251302,11.7410454 15.6251302,12.2589547 15.3057268,12.5784545 L12.8511815,15.0329998 C12.5301442,15.3430676 12.0198397,15.338633 11.7042395,15.0230328 C11.3886393,14.7074326 11.3842047,14.1971281 11.6942725,13.8760908 L11.6942725,13.8760908 Z M9.47536361,8.81400027 C9.65746679,8.40542152 10.1339436,8.21882948 10.5450755,8.39509277 C10.9562074,8.57135605 11.1495693,9.04512595 10.9791817,9.45872749 L8.52463643,15.1859998 C8.34253325,15.5945785 7.86605643,15.7811706 7.45492455,15.6049073 C7.04379267,15.428644 6.85043075,14.9548741 7.02081835,14.5412726 L9.47536361,8.81400027 Z" id="形状结合" fill="#FFFFFF" fill-rule="nonzero"></path>
                </g>
            </g>
        </g>
    </g>
</svg>