<?xml version="1.0" encoding="UTF-8"?>
<svg width="24px" height="24px" viewBox="0 0 24 24" version="1.1" xmlns="http://www.w3.org/2000/svg" xmlns:xlink="http://www.w3.org/1999/xlink">
    <title>编组 58</title>
    <g id="空间里层页面优化" stroke="none" stroke-width="1" fill="none" fill-rule="evenodd">
        <g id="工作台-知识库-创建数据集-本地文件-2" transform="translate(-823, -851)">
            <g id="编组-58" transform="translate(823, 851)">
                <g id="编组-14" transform="translate(2, 2)">
                    <rect id="矩形" fill="#9C6FFF" x="0" y="0" width="20" height="20" rx="4"></rect>
                    <circle id="椭圆形" fill="#FFFFFF" cx="6.7" cy="6.15" r="2.75"></circle>
                    <path d="M5.0161215,17.5 L12.9367104,17.5 C18.5091262,17.5 18.6712744,12.5070581 17.2413994,11.2815463 C16.8361052,10.9341783 16.4185445,10.5833222 15.9887171,10.2289779 L15.5545124,9.87379582 C14.8635955,9.31203668 13.8276109,9.39262388 13.2405761,10.0537924 C13.2084868,10.0899341 13.1781242,10.1274478 13.1495818,10.1662183 L11.2529579,12.7408093 C10.4310905,13.8557427 8.85224477,14.1797794 7.62487827,13.4854236 L6.18377361,12.6710243 C5.61174537,12.348034 4.87992638,12.4649012 4.44849452,12.9481383 L3.22751176,14.5162069 C2.11457779,15.8777759 2.497689,17.5 5.0161215,17.5 Z" id="路径-27" fill="#FFFFFF"></path>
                </g>
            </g>
        </g>
    </g>
</svg>