<?xml version="1.0" encoding="UTF-8"?>
<svg width="24px" height="24px" viewBox="0 0 24 24" version="1.1" xmlns="http://www.w3.org/2000/svg" xmlns:xlink="http://www.w3.org/1999/xlink">
    <title>JSON</title>
    <g id="空间里层页面优化" stroke="none" stroke-width="1" fill="none" fill-rule="evenodd">
        <g id="工作台-知识库-创建数据集-本地文件-2" transform="translate(-676, -851)" fill-rule="nonzero">
            <g id="JSON" transform="translate(676, 851)">
                <path d="M3,5.69333333 C3,4.05066667 3,3.22933333 3.30184615,2.6016 C3.56733763,2.04968249 3.990959,1.60095763 4.512,1.31973333 C5.10461538,1 5.88,1 7.43076923,1 L13.8595385,1 C14.7062308,1 15.1299231,1 15.528,1.1012 C15.8811528,1.19112104 16.2187447,1.33935687 16.5283846,1.54046667 C16.878,1.76706667 17.1770769,2.08386667 17.7759231,2.7182 L19.3779231,4.41513333 C19.9767692,5.04946667 20.2758462,5.36626667 20.4897692,5.7366 C20.6794615,6.0644 20.8193077,6.42226667 20.9044615,6.79626667 C21,7.21793333 21,7.66673333 21,8.5636 L21,18.3066667 C21,19.9493333 21,20.7706667 20.6981538,21.3984 C20.4326624,21.9503175 20.009041,22.3990424 19.488,22.6802667 C18.8953846,23 18.12,23 16.5692308,23 L7.43076923,23 C5.88,23 5.10461538,23 4.512,22.6802667 C3.990959,22.3990424 3.56733763,21.9503175 3.30184615,21.3984 C3,20.7706667 3,19.9493333 3,18.3066667 L3,5.69333333 Z" id="路径" fill="#369F21"></path>
                <path d="M8.84341209,9 C6.94273128,9 6.56627954,9.55244338 6.56627954,10.5255406 L6.56627954,11.8664226 C6.56627954,12.3951132 6.46455747,12.6065895 6,12.6065895 L6,14.0179636 C6.46455747,14.0179636 6.56627954,14.2294398 6.56627954,14.7581304 L6.56627954,16.0990124 C6.56627954,17.0667461 6.94273128,17.6268517 8.84421306,17.6268517 L8.84421306,16.4553039 C8.34120945,16.4553039 8.2659191,16.3181509 8.2659191,15.9771837 L8.2659191,14.6286395 C8.2659191,13.7750724 7.83259912,13.433339 7.14457349,13.3199387 C7.8494193,13.1743572 8.25790949,12.8655713 8.25790949,11.9951473 L8.25790949,10.6466031 C8.25790949,10.3064022 8.33239888,10.1684829 8.84421306,10.1684829 L8.84421306,9 L8.84341209,9 Z M12.0552663,11.8426698 C11.5274329,11.8426698 11.1045254,12.2487655 11.1045254,12.7437426 C11.1102202,13.2425271 11.5338357,13.6443537 12.0552663,13.6455815 C12.5735717,13.6401939 12.9923657,13.2395657 12.9979976,12.7437426 C12.9979976,12.2495318 12.5718863,11.8419036 12.0552663,11.8419036 L12.0552663,11.8426698 Z M12.0552663,14.7504682 C11.5106127,14.7504682 11.1045254,15.1389409 11.1045254,15.6438788 C11.1045254,15.9610931 11.256708,16.2285033 11.5274329,16.392474 L11.1293552,18 L12.0632759,18 L12.6327593,16.7732845 C12.8786544,16.2369317 12.9979976,15.9610931 12.9979976,15.6523072 C12.9979976,15.1389409 12.5887064,14.7504682 12.0552663,14.7504682 Z M15.1565879,9 L15.1565879,10.1684829 C15.6643973,10.1684829 15.7420905,10.3064022 15.7420905,10.6473693 L15.7420905,11.9959135 C15.7420905,12.8655713 16.1481778,13.1743572 16.8530236,13.3199387 C16.164998,13.4341052 15.7340809,13.7750724 15.7340809,14.6286395 L15.7340809,15.9771837 C15.7340809,16.3181509 15.6563877,16.4553039 15.1565879,16.4553039 L15.1565879,17.6276179 C17.0572687,17.6276179 17.4313176,17.0667461 17.4313176,16.0990124 L17.4313176,14.7581304 C17.4313176,14.2294398 17.5330396,14.0179636 18,14.0179636 L18,12.6065895 C17.5330396,12.6065895 17.4313176,12.394347 17.4313176,11.8656564 L17.4313176,10.5255406 C17.4313176,9.55244338 17.0572687,9 15.1565879,9 L15.1565879,9 Z" id="形状" fill="#FFFFFF" opacity="0.98"></path>
            </g>
        </g>
    </g>
</svg>