<?xml version="1.0" encoding="UTF-8"?>
<svg width="20px" height="20px" viewBox="0 0 20 20" version="1.1" xmlns="http://www.w3.org/2000/svg" xmlns:xlink="http://www.w3.org/1999/xlink">
    <title>JSON</title>
    <g id="空间里层页面优化" stroke="none" stroke-width="1" fill="none" fill-rule="evenodd">
        <g id="记忆验证-交互" transform="translate(-1249, -120)" fill-rule="nonzero">
            <g id="编组-18" transform="translate(767, 80)">
                <g id="JSON" transform="translate(482, 40)">
                    <path d="M2.5,4.74444444 C2.5,3.37555556 2.5,2.69111111 2.75153846,2.168 C2.97278135,1.70806874 3.32579916,1.33413136 3.76,1.09977778 C4.25384615,0.833333333 4.9,0.833333333 6.19230769,0.833333333 L11.5496154,0.833333333 C12.2551923,0.833333333 12.6082692,0.833333333 12.94,0.917666667 C13.234294,0.992600867 13.5156205,1.11613072 13.7736538,1.28372222 C14.065,1.47255556 14.3142308,1.73655556 14.8132692,2.26516667 L16.1482692,3.67927778 C16.6473077,4.20788889 16.8965385,4.47188889 17.0748077,4.7805 C17.2328846,5.05366667 17.3494231,5.35188889 17.4203846,5.66355556 C17.5,6.01494444 17.5,6.38894444 17.5,7.13633333 L17.5,15.2555556 C17.5,16.6244444 17.5,17.3088889 17.2484615,17.832 C17.0272186,18.2919313 16.6742008,18.6658686 16.24,18.9002222 C15.7461538,19.1666667 15.1,19.1666667 13.8076923,19.1666667 L6.19230769,19.1666667 C4.9,19.1666667 4.25384615,19.1666667 3.76,18.9002222 C3.32579916,18.6658686 2.97278135,18.2919313 2.75153846,17.832 C2.5,17.3088889 2.5,16.6244444 2.5,15.2555556 L2.5,4.74444444 Z" id="路径" fill="#8A8A8B"></path>
                    <path d="M7.36951008,7.5 C5.7856094,7.5 5.47189961,7.96036949 5.47189961,8.77128384 L5.47189961,9.88868551 C5.47189961,10.329261 5.38713122,10.5054912 5,10.5054912 L5,11.6816363 C5.38713122,11.6816363 5.47189961,11.8578665 5.47189961,12.298442 L5.47189961,13.4158437 C5.47189961,14.2222884 5.7856094,14.6890431 7.37017755,14.6890431 L7.37017755,13.7127533 C6.95100788,13.7127533 6.88826592,13.598459 6.88826592,13.3143198 L6.88826592,12.1905329 C6.88826592,11.479227 6.52716593,11.1944492 5.95381124,11.0999489 C6.54118275,10.978631 6.88159124,10.7213094 6.88159124,9.99595607 L6.88159124,8.87216925 C6.88159124,8.58866848 6.94366573,8.47373574 7.37017755,8.47373574 L7.37017755,7.5 L7.36951008,7.5 Z M10.0460553,9.86889154 C9.6061941,9.86889154 9.25377119,10.2073046 9.25377119,10.6197855 C9.25851681,11.0354392 9.61152977,11.3702948 10.0460553,11.3713179 C10.4779764,11.3668282 10.8269714,11.0329714 10.8316647,10.6197855 C10.8316647,10.2079431 10.4765719,9.86825302 10.0460553,9.86825302 L10.0460553,9.86889154 Z M10.0460553,12.2920569 C9.59217728,12.2920569 9.25377119,12.6157841 9.25377119,13.0365656 C9.25377119,13.3009109 9.38059004,13.5237528 9.6061941,13.660395 L9.27446269,15 L10.0527299,15 L10.5272994,13.9777371 C10.732212,13.5307764 10.8316647,13.3009109 10.8316647,13.0435893 C10.8316647,12.6157841 10.4905887,12.2920569 10.0460553,12.2920569 Z M12.6304899,7.5 L12.6304899,8.47373574 C13.0536644,8.47373574 13.1184088,8.58866848 13.1184088,8.87280776 L13.1184088,9.99659459 C13.1184088,10.7213094 13.4568148,10.978631 14.0441864,11.0999489 C13.4708317,11.1950877 13.1117341,11.479227 13.1117341,12.1905329 L13.1117341,13.3143198 C13.1117341,13.598459 13.0469897,13.7127533 12.6304899,13.7127533 L12.6304899,14.6896816 C14.2143906,14.6896816 14.526098,14.2222884 14.526098,13.4158437 L14.526098,12.298442 C14.526098,11.8578665 14.6108664,11.6816363 15,11.6816363 L15,10.5054912 C14.6108664,10.5054912 14.526098,10.3286225 14.526098,9.88804699 L14.526098,8.77128384 C14.526098,7.96036949 14.2143906,7.5 12.6304899,7.5 L12.6304899,7.5 Z" id="形状" fill="#FFFFFF" opacity="0.98"></path>
                </g>
            </g>
        </g>
    </g>
</svg>