<?xml version="1.0" encoding="UTF-8"?>
<svg width="24px" height="24px" viewBox="0 0 24 24" version="1.1" xmlns="http://www.w3.org/2000/svg" xmlns:xlink="http://www.w3.org/1999/xlink">
    <title>PDF</title>
    <g id="空间里层页面优化" stroke="none" stroke-width="1" fill="none" fill-rule="evenodd">
        <g id="工作台-知识库-创建数据集-本地文件-2" transform="translate(-443, -811)">
            <g id="PDF" transform="translate(443, 811)">
                <g id="编组-9" transform="translate(3, 1)">
                    <path d="M2.88,0 L12.5983161,0 L12.5983161,0 L18,5.5 L18,19.12 C18,20.7105801 16.7105801,22 15.12,22 L2.88,22 C1.28941992,22 1.33226763e-15,20.7105801 1.33226763e-15,19.12 L0,2.88 C0,1.28941992 1.28941992,-8.8817842e-16 2.88,-8.8817842e-16 Z" id="矩形" fill="#FF5D34"></path>
                    <path d="M12.6,0 L18,5.5 L14.328,5.5 C13.373652,5.5 12.6,4.72634805 12.6,3.772 L12.6,0 L12.6,0 Z" id="矩形" fill-opacity="0.5" fill="#FFFFFF"></path>
                    <g id="pdf" transform="translate(2.7, 5.5)" fill="#FFFFFF" fill-rule="nonzero">
                        <rect id="矩形" opacity="0" x="0" y="0" width="12.5969524" height="12.8333333"></rect>
                        <path d="M10.8473784,9.58129971 C9.90260697,9.50981236 8.9928216,9.152451 8.25799118,8.50919049 C6.82335331,8.83082074 5.45867526,9.29540057 4.09400952,9.86719885 C3.00926922,11.8326989 1.99451336,12.8333333 1.11972637,12.8333333 C0.944771429,12.8333333 0.734818122,12.7976022 0.594861552,12.6903838 C0.209941005,12.5117031 0,12.1186106 0,11.725493 C0,11.4038628 0.0699844356,10.5104594 3.39417747,9.0452451 C4.16399396,7.61577452 4.75884321,6.15057284 5.24873426,4.61389636 C4.82882765,3.7562115 3.91904228,1.64773675 4.5488899,0.575652663 C4.75884321,0.182535062 5.17873752,-0.0318767295 5.6336425,0.00385438127 C5.98355238,0.00385438127 6.33346226,0.182547626 6.54341556,0.468434203 C6.99830824,1.11169471 6.96330988,2.46970306 6.36846063,4.47094679 C6.92832381,5.54304344 7.66314193,6.5079342 8.53792892,7.32988795 C9.27275935,7.18693838 10.0075775,7.07971992 10.7423956,7.07971992 C12.3870114,7.11546359 12.6319384,7.90167366 12.5969524,8.36624092 C12.5969524,9.58129971 11.4422276,9.58129971 10.8473784,9.58129971 L10.8473784,9.58129971 Z M1.04974193,11.7969552 L1.15472474,11.7612241 C1.64460348,11.5825309 2.02949943,11.2251695 2.30943717,10.7605897 C1.78457235,10.975014 1.36466574,11.3323754 1.04974193,11.7969678 L1.04974193,11.7969552 Z M5.70361464,1.0759636 L5.59864414,1.0759636 C5.56365807,1.0759636 5.49367363,1.0759636 5.45867526,1.11169471 C5.31871869,1.7192241 5.4236892,2.3624846 5.66862857,2.93427032 C5.87858188,2.32674093 5.87858188,1.68348042 5.70361464,1.0759636 Z M5.94856631,6.25777873 L5.91356795,6.32926608 L5.87858188,6.29352241 C5.56365807,7.11546359 5.21373589,7.93740477 4.82882765,8.72361485 L4.89882438,8.68787117 L4.89882438,8.75935852 C5.66862857,8.47345938 6.5084295,8.22330392 7.27823369,8.04461067 L7.24324762,8.00887956 L7.34821812,8.00887956 C6.82335331,7.47282495 6.33346226,6.86530812 5.94856631,6.25777873 Z M10.7074095,8.15182913 C10.3924857,8.15182913 10.112548,8.15182913 9.79762416,8.22330392 C10.1475463,8.4019846 10.4974685,8.47344682 10.8473784,8.50919049 C11.0923055,8.54493417 11.3372571,8.50919049 11.5472104,8.43771571 C11.5472104,8.33050981 11.4072416,8.15182913 10.7074095,8.15182913 L10.7074095,8.15182913 Z" id="形状"></path>
                    </g>
                </g>
            </g>
        </g>
    </g>
</svg>