<?xml version="1.0" encoding="UTF-8"?>
<svg width="20px" height="20px" viewBox="0 0 20 20" version="1.1" xmlns="http://www.w3.org/2000/svg" xmlns:xlink="http://www.w3.org/1999/xlink">
    <title>PDF</title>
    <g id="空间里层页面优化" stroke="none" stroke-width="1" fill="none" fill-rule="evenodd">
        <g id="记忆验证-交互" transform="translate(-914, -80)">
            <g id="编组-18" transform="translate(767, 80)">
                <g id="PDF" transform="translate(147, 0)">
                    <g id="编组-9" transform="translate(2.5, 0.8333)">
                        <path d="M3,0 L10.4985967,0 L10.4985967,0 L15,4.58333333 L15,15.3333333 C15,16.9901876 13.6568542,18.3333333 12,18.3333333 L3,18.3333333 C1.34314575,18.3333333 0,16.9901876 0,15.3333333 L0,3 C0,1.34314575 1.34314575,0 3,0 Z" id="矩形" fill="#8A8A8B"></path>
                        <path d="M10.5,0 L15,4.58333333 L12.228,4.58333333 C11.273652,4.58333333 10.5,3.80968138 10.5,2.85533333 L10.5,0 L10.5,0 Z" id="矩形" fill-opacity="0.5" fill="#FFFFFF"></path>
                        <g id="pdf" transform="translate(2.25, 4.5833)" fill="#FFFFFF" fill-rule="nonzero">
                            <rect id="矩形" opacity="0" x="0" y="0" width="10.4974603" height="10.6944444"></rect>
                            <path d="M9.039482,7.98441642 C8.25217247,7.92484363 7.494018,7.6270425 6.88165932,7.09099208 C5.68612776,7.35901729 4.54889605,7.74616714 3.4116746,8.22266571 C2.50772435,9.86058242 1.66209447,10.6944444 0.933105306,10.6944444 C0.787309524,10.6944444 0.612348435,10.6646685 0.49571796,10.5753198 C0.174950838,10.4264192 0,10.0988422 0,9.77124417 C0,9.50321896 0.058320363,8.75871613 2.82848122,7.53770425 C3.46999497,6.34647877 3.96570267,5.12547736 4.37394522,3.84491364 C4.02402304,3.13017625 3.26586857,1.37311396 3.79074159,0.479710552 C3.96570267,0.152112552 4.3156146,-0.0265639412 4.69470209,0.00321198439 C4.98629365,0.00321198439 5.27788521,0.152123022 5.4528463,0.390361836 C5.83192354,0.926412255 5.80275823,2.05808588 5.30705052,3.72578899 C5.77360317,4.61920287 6.38595161,5.4232785 7.11494077,6.10823995 C7.72729946,5.98911531 8.33964789,5.8997666 8.95199633,5.8997666 C10.3225095,5.92955299 10.5266154,6.58472805 10.4974603,6.97186744 C10.4974603,7.98441642 9.5351897,7.98441642 9.039482,7.98441642 L9.039482,7.98441642 Z M0.874784943,9.83079602 L0.962270613,9.8010201 C1.3705029,9.65210906 1.69124952,9.35430793 1.92453097,8.96715807 C1.48714363,9.14584504 1.13722145,9.44364617 0.874784943,9.83080649 L0.874784943,9.83079602 Z M4.7530122,0.89663633 L4.66553678,0.89663633 C4.63638172,0.89663633 4.57806136,0.89663633 4.54889605,0.926412255 C4.43226558,1.43268675 4.519741,1.96873717 4.72385714,2.44522527 C4.89881823,1.93895077 4.89881823,1.40290035 4.7530122,0.89663633 Z M4.95713859,5.21481561 L4.92797329,5.2743884 L4.89881823,5.244602 C4.63638172,5.92955299 4.34477991,6.61450398 4.02402304,7.26967904 L4.08235365,7.23989264 L4.08235365,7.29946544 C4.72385714,7.06121615 5.42369125,6.85275326 6.06519474,6.70384223 L6.03603968,6.6740663 L6.1235151,6.6740663 C5.68612776,6.22735413 5.27788521,5.7210901 4.95713859,5.21481561 Z M8.92284127,6.79319094 C8.66040476,6.79319094 8.42712331,6.79319094 8.1646868,6.85275326 C8.45628862,7.00165383 8.74789043,7.06120568 9.039482,7.09099208 C9.24358789,7.12077847 9.44771429,7.09099208 9.62267537,7.03142976 C9.62267537,6.94209151 9.50603465,6.79319094 8.92284127,6.79319094 L8.92284127,6.79319094 Z" id="形状"></path>
                        </g>
                    </g>
                </g>
            </g>
        </g>
    </g>
</svg>