<?xml version="1.0" encoding="UTF-8"?>
<svg width="24px" height="24px" viewBox="0 0 24 24" version="1.1" xmlns="http://www.w3.org/2000/svg" xmlns:xlink="http://www.w3.org/1999/xlink">
    <title>file-ppt-2-fill</title>
    <g id="空间里层页面优化" stroke="none" stroke-width="1" fill="none" fill-rule="evenodd">
        <g id="工作台-知识库-创建数据集-本地文件-2" transform="translate(-676, -811)" fill-rule="nonzero">
            <g id="file-ppt-2-fill" transform="translate(676, 811)">
                <path d="M16.7502375,3.34859818 L20.5500475,3.34859818 C21.0746918,3.34859818 21.5,3.77897542 21.5,4.30987266 L21.5,19.6902643 C21.5,20.2211615 21.0746918,20.6515387 20.5500475,20.6515387 L16.7502375,20.6515387 L16.7502375,3.34859818 L16.7502375,3.34859818 Z M3.31695914,3.23036142 L15.2578621,1.50487373 C15.3940533,1.4851035 15.5320247,1.52606362 15.6360746,1.61715516 C15.7401245,1.7082467 15.8000282,1.84051837 15.800285,1.97974333 L15.800285,22.0203936 C15.7999894,22.1594252 15.7402137,22.2915157 15.6363863,22.382572 C15.5325589,22.4736282 15.3948533,22.514728 15.2588121,22.4952632 L3.31600918,20.7697755 C2.84783928,20.7023027 2.5,20.2966443 2.5,19.8181138 L2.5,4.18202315 C2.5,3.70349267 2.84783928,3.29783423 3.31600918,3.23036142 L3.31695914,3.23036142 Z" id="形状结合" fill="#FF5D34"></path>
                <path d="M12.4504275,8.15497055 C12.7265699,8.15497055 12.9504275,8.37882818 12.9504275,8.65497055 L12.9504275,13.4226174 C12.9504275,13.6987598 12.7265699,13.9226174 12.4504275,13.9226174 L7.25071246,13.9226174 L7.25071246,15.5 C7.25071246,15.7761424 7.02685484,16 6.75071246,16 L5.85080744,16 C5.57466507,16 5.35080744,15.7761424 5.35080744,15.5 L5.35080744,8.65497055 C5.35080744,8.37882818 5.57466507,8.15497055 5.85080744,8.15497055 Z M11.0505225,10.0775195 L7.25071246,10.0775195 L7.25071246,12.0000685 L11.0505225,12.0000685 L11.0505225,10.0775195 Z" id="形状结合" fill="#FFFFFF"></path>
            </g>
        </g>
    </g>
</svg>