<?xml version="1.0" encoding="UTF-8"?>
<svg width="20px" height="20px" viewBox="0 0 20 20" version="1.1" xmlns="http://www.w3.org/2000/svg" xmlns:xlink="http://www.w3.org/1999/xlink">
    <title>file-ppt-2-fill</title>
    <g id="空间里层页面优化" stroke="none" stroke-width="1" fill="none" fill-rule="evenodd">
        <g id="记忆验证-交互" transform="translate(-1249, -80)" fill-rule="nonzero">
            <g id="编组-18" transform="translate(767, 80)">
                <g id="file-ppt-2-fill" transform="translate(482, 0)">
                    <path d="M13.9585312,2.79049848 L17.1250396,2.79049848 C17.5622431,2.79049848 17.9166667,3.14914619 17.9166667,3.59156055 L17.9166667,16.4085535 C17.9166667,16.8509679 17.5622431,17.2096156 17.1250396,17.2096156 L13.9585312,17.2096156 L13.9585312,2.79049848 L13.9585312,2.79049848 Z M2.76413262,2.69196785 L12.7148851,1.25406144 C12.8283777,1.23758625 12.9433539,1.27171968 13.0300621,1.3476293 C13.1167704,1.42353891 13.1666902,1.53376531 13.1669042,1.64978611 L13.1669042,18.350328 C13.1666579,18.4661876 13.1168448,18.5762631 13.0303219,18.6521433 C12.9437991,18.7280235 12.8290444,18.7622733 12.7156767,18.7460527 L2.76334099,17.3081463 C2.3731994,17.2519189 2.08333333,16.9138702 2.08333333,16.5150948 L2.08333333,3.48501929 C2.08333333,3.08624389 2.3731994,2.74819519 2.76334099,2.69196785 L2.76413262,2.69196785 Z" id="形状结合" fill="#8A8A8B"></path>
                    <path d="M10.2920229,6.79580879 C10.5681653,6.79580879 10.7920229,7.01966642 10.7920229,7.29580879 L10.7920229,11.1021812 C10.7920229,11.3783235 10.5681653,11.6021812 10.2920229,11.6021812 L6.04226039,11.6021812 L6.04226039,12.8333333 C6.04226039,13.1094757 5.81840276,13.3333333 5.54226039,13.3333333 L4.9590062,13.3333333 C4.68286383,13.3333333 4.4590062,13.1094757 4.4590062,12.8333333 L4.4590062,7.29580879 C4.4590062,7.01966642 4.68286383,6.79580879 4.9590062,6.79580879 Z M9.20876872,8.39793293 L6.04226039,8.39793293 L6.04226039,10.0000571 L9.20876872,10.0000571 L9.20876872,8.39793293 Z" id="形状结合" fill="#FFFFFF"></path>
                </g>
            </g>
        </g>
    </g>
</svg>