<?xml version="1.0" encoding="UTF-8"?>
<svg width="20px" height="20px" viewBox="0 0 20 20" version="1.1" xmlns="http://www.w3.org/2000/svg" xmlns:xlink="http://www.w3.org/1999/xlink">
    <title>txt</title>
    <g id="空间里层页面优化" stroke="none" stroke-width="1" fill="none" fill-rule="evenodd">
        <g id="记忆验证-交互" transform="translate(-767, -160)">
            <g id="编组-18" transform="translate(767, 80)">
                <g id="txt" transform="translate(0, 80)">
                    <rect id="矩形" fill="#8A8A8B" x="1.66666667" y="1.66666667" width="16.6666667" height="16.6666667" rx="3"></rect>
                    <path d="M13.3333333,6.66666667 C13.7935706,6.66666667 14.1666667,7.03976271 14.1666667,7.5 C14.1666667,7.96023729 13.7935706,8.33333333 13.3333333,8.33333333 L10.8333333,8.33266667 L10.8333333,14.1666667 C10.8333333,14.626904 10.4602373,15 10,15 C9.53976271,15 9.16666667,14.626904 9.16666667,14.1666667 L9.16633333,8.33266667 L6.66666667,8.33333333 C6.20642938,8.33333333 5.83333333,7.96023729 5.83333333,7.5 C5.83333333,7.03976271 6.20642938,6.66666667 6.66666667,6.66666667 L13.3333333,6.66666667 Z" id="形状结合" fill="#FFFFFF"></path>
                </g>
            </g>
        </g>
    </g>
</svg>