<?xml version="1.0" encoding="UTF-8"?>
<svg width="24px" height="24px" viewBox="0 0 24 24" version="1.1" xmlns="http://www.w3.org/2000/svg" xmlns:xlink="http://www.w3.org/1999/xlink">
    <title>编组 59</title>
    <g id="空间里层页面优化" stroke="none" stroke-width="1" fill="none" fill-rule="evenodd">
        <g id="工作台-知识库-创建数据集-本地文件-2" transform="translate(-949, -811)">
            <g id="编组-59" transform="translate(949, 811)">
                <g id="编组-15" transform="translate(1, 4.5)">
                    <path d="M3.6,0 L12.9,0 C14.8882251,-4.4408921e-16 16.5,1.6117749 16.5,3.6 L16.5,11.4 C16.5,13.3882251 14.8882251,15 12.9,15 L3.6,15 C1.6117749,15 -4.4408921e-16,13.3882251 -4.4408921e-16,11.4 L0,3.6 C-4.4408921e-16,1.6117749 1.6117749,0 3.6,-4.4408921e-16 Z M17.879231,4.05647049 L20.3282054,2.69447403 C20.8712,2.39248768 21.5561925,2.58786354 21.8581788,3.13085821 C21.9511875,3.29809499 22,3.48629259 22,3.67765286 L22,5.5744503 L22,5.5744503 L22,11.3223471 C22,11.9436675 21.4963203,12.4473471 20.875,12.4473471 C20.6836397,12.4473471 20.4954421,12.3985347 20.3282054,12.305526 L17.879231,10.9435295 C17.5937122,10.7847383 17.4166667,10.4836906 17.4166667,10.1569864 L17.4166667,4.84301355 C17.4166667,4.51630942 17.5937122,4.21526166 17.879231,4.05647049 Z" id="形状结合" fill="#4DA8FF"></path>
                    <path d="M7.56036738,10.1956474 L10.0614601,8.64798876 C10.6954768,8.25566369 10.8914066,7.42364931 10.4990815,6.78963262 C10.389064,6.61183886 10.2392539,6.46202877 10.0614601,6.35201124 L7.56036738,4.80435262 C6.92635069,4.41202755 6.09433631,4.60795731 5.70201124,5.241974 C5.56995501,5.45538338 5.5,5.7013784 5.5,5.95234138 L5.5,9.04765862 C5.5,9.79324304 6.10441559,10.3976586 6.85,10.3976586 C7.10096297,10.3976586 7.34695799,10.3277036 7.56036738,10.1956474 Z" id="路径-30" fill="#FFFFFF"></path>
                </g>
            </g>
        </g>
    </g>
</svg>