<?xml version="1.0" encoding="UTF-8"?>
<svg width="20px" height="20px" viewBox="0 0 20 20" version="1.1" xmlns="http://www.w3.org/2000/svg" xmlns:xlink="http://www.w3.org/1999/xlink">
    <title>编组 59</title>
    <g id="空间里层页面优化" stroke="none" stroke-width="1" fill="none" fill-rule="evenodd">
        <g id="记忆验证-交互" transform="translate(-914, -160)">
            <g id="编组-18" transform="translate(767, 80)">
                <g id="编组-59" transform="translate(147, 80)">
                    <g id="编组-15" transform="translate(0.8333, 3.75)">
                        <path d="M3.6,0 L10.15,0 C12.1382251,-4.4408921e-16 13.75,1.6117749 13.75,3.6 L13.75,8.9 C13.75,10.8882251 12.1382251,12.5 10.15,12.5 L3.6,12.5 C1.6117749,12.5 0,10.8882251 0,8.9 L0,3.6 C-4.4408921e-16,1.6117749 1.6117749,4.4408921e-16 3.6,0 Z M14.9764532,3.33751624 L16.6615387,2.40035638 C17.2045334,2.09837004 17.8895258,2.29374589 18.1915122,2.83674057 C18.2845209,3.00397734 18.3333333,3.19217494 18.3333333,3.38353521 L18.3333333,4.64537525 L18.3333333,4.64537525 L18.3333333,9.11646479 C18.3333333,9.73778513 17.8296537,10.2414648 17.2083333,10.2414648 C17.0169731,10.2414648 16.8287755,10.1926523 16.6615387,10.0996436 L14.9764532,9.16248376 C14.6909344,9.00369259 14.5138889,8.70264483 14.5138889,8.3759407 L14.5138889,4.1240593 C14.5138889,3.79735517 14.6909344,3.49630741 14.9764532,3.33751624 Z" id="形状结合" fill="#8A8A8B"></path>
                        <path d="M6.64370071,8.28388268 L8.07534903,7.39798876 C8.70936571,7.00566369 8.90529548,6.17364931 8.51297041,5.53963262 C8.40295288,5.36183886 8.25314279,5.21202877 8.07534903,5.10201124 L6.64370071,4.21611732 C6.00968402,3.82379225 5.17766964,4.01972202 4.78534457,4.65373871 C4.65328835,4.86714809 4.58333333,5.11314311 4.58333333,5.36410608 L4.58333333,7.13589392 C4.58333333,7.88147833 5.18774892,8.48589392 5.93333333,8.48589392 C6.1842963,8.48589392 6.43029132,8.41593891 6.64370071,8.28388268 Z" id="路径-30" fill="#FFFFFF"></path>
                    </g>
                </g>
            </g>
        </g>
    </g>
</svg>