<?xml version="1.0" encoding="UTF-8"?>
<svg width="20px" height="20px" viewBox="0 0 20 20" version="1.1" xmlns="http://www.w3.org/2000/svg" xmlns:xlink="http://www.w3.org/1999/xlink">
    <title>Word</title>
    <g id="空间里层页面优化" stroke="none" stroke-width="1" fill="none" fill-rule="evenodd">
        <g id="记忆验证-交互" transform="translate(-767, -80)">
            <g id="编组-18" transform="translate(767, 80)">
                <g id="编组-9" transform="translate(2.5, 0.8333)">
                    <path d="M3,0 L10.4985967,0 L10.4985967,0 L15,4.58333333 L15,15.3333333 C15,16.9901876 13.6568542,18.3333333 12,18.3333333 L3,18.3333333 C1.34314575,18.3333333 0,16.9901876 0,15.3333333 L0,3 C0,1.34314575 1.34314575,0 3,0 Z" id="矩形" fill="#8A8A8B"></path>
                    <path d="M10.5,0 L15,4.58333333 L12.66,4.58333333 C11.4670649,4.58333333 10.5,3.61626839 10.5,2.42333333 L10.5,0 L10.5,0 Z" id="矩形" fill-opacity="0.5" fill="#FFFFFF"></path>
                    <path d="M7.50010464,8.75766667 L8.70548376,13.1357111 C8.73757423,13.2522742 8.84606214,13.3333333 8.97000347,13.3333333 L9.69532154,13.3333333 C9.81913985,13.3333333 9.92755938,13.2524513 9.95977278,13.1360444 L11.6572407,7.00271111 C11.6634992,6.98008877 11.6666667,6.95676202 11.6666667,6.93333333 C11.6666667,6.78606667 11.5440382,6.66666667 11.3927895,6.66666667 L10.5808349,6.66666667 C10.4532262,6.66666667 10.3425244,6.75246851 10.3139188,6.87355556 L9.26884912,11.2981111 L8.13317174,6.86875556 C8.10273218,6.75001099 7.99318481,6.66666667 7.86748805,6.66666667 L7.13276687,6.66666667 C7.00705309,6.66666667 6.89748122,6.74999492 6.86703753,6.86875556 L5.73364246,11.2893556 L4.68158892,6.87308889 C4.65280183,6.75222776 4.54221037,6.66666667 4.4147869,6.66666667 L3.60728285,6.66666667 C3.58327617,6.66666667 3.55937335,6.66973488 3.5361889,6.6758 C3.39012107,6.71402222 3.30353023,6.86031111 3.34278596,7.00253333 L5.03564364,13.1358667 C5.06778799,13.2523441 5.17622456,13.3333333 5.30009489,13.3333333 L6.0302058,13.3333333 C6.15414713,13.3333333 6.26263504,13.2522742 6.29472552,13.1357111 L7.50010464,8.75766667 Z" id="路径" fill="#FFFFFF" fill-rule="nonzero"></path>
                </g>
            </g>
        </g>
    </g>
</svg>