<?xml version="1.0" encoding="UTF-8"?>
<svg width="24px" height="24px" viewBox="0 0 24 24" version="1.1" xmlns="http://www.w3.org/2000/svg" xmlns:xlink="http://www.w3.org/1999/xlink">
    <title>Word</title>
    <g id="空间里层页面优化" stroke="none" stroke-width="1" fill="none" fill-rule="evenodd">
        <g id="工作台-知识库-创建数据集-本地文件-2" transform="translate(-296, -811)">
            <g id="Word" transform="translate(296, 811)">
                <g id="编组-9" transform="translate(3, 1)">
                    <path d="M3,0 L12.5983161,0 L12.5983161,0 L18,5.5 L18,19 C18,20.6568542 16.6568542,22 15,22 L3,22 C1.34314575,22 -4.4408921e-16,20.6568542 -4.4408921e-16,19 L0,3 C0,1.34314575 1.34314575,0 3,0 Z" id="矩形" fill="#155EEF"></path>
                    <path d="M12.6,0 L18,5.5 L14.76,5.5 C13.5670649,5.5 12.6,4.53293506 12.6,3.34 L12.6,0 L12.6,0 Z" id="矩形" fill-opacity="0.5" fill="#FFFFFF"></path>
                    <path d="M9.00012556,10.5092 L10.4465805,15.7628533 C10.4850891,15.902729 10.6152746,16 10.7640042,16 L11.6343858,16 C11.7829678,16 11.9130713,15.9029416 11.9517273,15.7632533 L13.9886889,8.40325334 C13.996199,8.37610652 14,8.34811442 14,8.32 C14,8.14328 13.8528458,8 13.6713474,8 L12.6970019,8 C12.5438715,8 12.4110293,8.10296221 12.3767026,8.24826667 L11.1226189,13.5577333 L9.75980609,8.24250667 C9.72327861,8.10001319 9.59182177,8 9.44098566,8 L8.55932024,8 C8.40846371,8 8.27697746,8.0999939 8.24044504,8.24250667 L6.88037096,13.5472267 L5.6179067,8.24770667 C5.5833622,8.10267332 5.45065244,8 5.29774428,8 L4.32873942,8 C4.29993141,8 4.27124802,8.00368186 4.24342668,8.01096 C4.06814528,8.05682667 3.96423628,8.23237334 4.01134316,8.40304 L6.04277237,15.76304 C6.08134559,15.9028129 6.21146947,16 6.36011386,16 L7.23624697,16 C7.38497656,16 7.51516205,15.902729 7.55367062,15.7628533 L9.00012556,10.5092 Z" id="路径" fill="#FFFFFF" fill-rule="nonzero"></path>
                </g>
            </g>
        </g>
    </g>
</svg>