<?xml version="1.0" encoding="UTF-8"?>
<svg width="120px" height="120px" viewBox="0 0 120 120" version="1.1" xmlns="http://www.w3.org/2000/svg" xmlns:xlink="http://www.w3.org/1999/xlink">
    <title>编组 29</title>
    <g id="V1.0版" stroke="none" stroke-width="1" fill="none" fill-rule="evenodd">
        <g id="红熊空间-记忆看板-空状态" transform="translate(-484, -789)">
            <g id="编组-29" transform="translate(484, 789)">
                <g transform="translate(1.3636, 24.5253)">
                    <rect id="矩形" fill="#373435" x="10.661157" y="3.59700342" width="97.7272727" height="68.258321" rx="2.592"></rect>
                    <line x1="-8.95117314e-15" y1="71.8553244" x2="117.272727" y2="71.8553244" id="路径-77" stroke="#373435" stroke-width="0.7"></line>
                    <path d="M99.5041322,32.4755238 L104.01957,32.4755238 C105.451092,32.4755238 106.61157,33.6360018 106.61157,35.0675238 L106.61157,47.3856574 C106.61157,48.8171795 105.451092,49.9776574 104.01957,49.9776574 L99.5041322,49.9776574 L99.5041322,49.9776574 L99.5041322,32.4755238 Z" id="矩形" stroke="#373435" stroke-width="0.7" fill="#FFFFFF"></path>
                    <path d="M99.5041322,21.9742437 L104.01957,21.9742437 C105.451092,21.9742437 106.61157,23.1347216 106.61157,24.5662437 L106.61157,36.8843773 C106.61157,38.3158993 105.451092,39.4763773 104.01957,39.4763773 L99.5041322,39.4763773 L99.5041322,39.4763773 L99.5041322,21.9742437 Z" id="矩形" stroke="#373435" stroke-width="0.7" fill="#FFFFFF"></path>
                    <path d="M99.5041322,12.3480702 L104.01957,12.3480702 C105.451092,12.3480702 106.61157,13.5085481 106.61157,14.9400702 L106.61157,27.2582038 C106.61157,28.6897259 105.451092,29.8502038 104.01957,29.8502038 L99.5041322,29.8502038 L99.5041322,29.8502038 L99.5041322,12.3480702 Z" id="矩形" stroke="#373435" stroke-width="0.7" fill="#D2D3D5"></path>
                    <rect id="矩形" stroke="#373435" stroke-width="0.7" fill="#FFFFFF" x="10.661157" y="3.59700342" width="88.8429752" height="63.8827876" rx="3.24"></rect>
                    <line x1="55.0826446" y1="3.59700342" x2="55.0826446" y2="67.479791" id="路径-62" stroke="#373435" stroke-width="0.7"></line>
                    <path d="M59.5247934,14.0982836 C59.5247934,11.6817432 57.5359756,9.72275018 55.0826446,9.72275018 C52.6293136,9.72275018 50.6404959,11.6817432 50.6404959,14.0982836" id="路径" stroke="#373435" stroke-width="0.7"></path>
                    <path d="M50.6404959,15.4109436 C51.3764952,15.4109436 51.9731405,15.019145 51.9731405,14.5358369 C51.9731405,14.0525288 51.3764952,13.6607302 50.6404959,13.6607302 C49.9044966,13.6607302 49.3078512,14.0525288 49.3078512,14.5358369 C49.3078512,15.019145 49.9044966,15.4109436 50.6404959,15.4109436 Z" id="椭圆形" fill="#373435"></path>
                    <path d="M59.5247934,15.4109436 C60.2607927,15.4109436 60.857438,15.019145 60.857438,14.5358369 C60.857438,14.0525288 60.2607927,13.6607302 59.5247934,13.6607302 C58.7887941,13.6607302 58.1921488,14.0525288 58.1921488,14.5358369 C58.1921488,15.019145 58.7887941,15.4109436 59.5247934,15.4109436 Z" id="椭圆形" fill="#373435"></path>
                    <path d="M59.5247934,21.099137 C59.5247934,18.6825966 57.5359756,16.7236036 55.0826446,16.7236036 C52.6293136,16.7236036 50.6404959,18.6825966 50.6404959,21.099137" id="路径" stroke="#373435" stroke-width="0.7"></path>
                    <path d="M50.6404959,22.411797 C51.3764952,22.411797 51.9731405,22.0199984 51.9731405,21.5366904 C51.9731405,21.0533823 51.3764952,20.6615837 50.6404959,20.6615837 C49.9044966,20.6615837 49.3078512,21.0533823 49.3078512,21.5366904 C49.3078512,22.0199984 49.9044966,22.411797 50.6404959,22.411797 Z" id="椭圆形" fill="#373435"></path>
                    <path d="M59.5247934,22.411797 C60.2607927,22.411797 60.857438,22.0199984 60.857438,21.5366904 C60.857438,21.0533823 60.2607927,20.6615837 59.5247934,20.6615837 C58.7887941,20.6615837 58.1921488,21.0533823 58.1921488,21.5366904 C58.1921488,22.0199984 58.7887941,22.411797 59.5247934,22.411797 Z" id="椭圆形" fill="#373435"></path>
                    <path d="M59.5247934,50.8527641 C59.5247934,48.4362237 57.5359756,46.4772307 55.0826446,46.4772307 C52.6293136,46.4772307 50.6404959,48.4362237 50.6404959,50.8527641" id="路径" stroke="#373435" stroke-width="0.7"></path>
                    <path d="M50.6404959,52.1654241 C51.3764952,52.1654241 51.9731405,51.7736255 51.9731405,51.2903174 C51.9731405,50.8070094 51.3764952,50.4152108 50.6404959,50.4152108 C49.9044966,50.4152108 49.3078512,50.8070094 49.3078512,51.2903174 C49.3078512,51.7736255 49.9044966,52.1654241 50.6404959,52.1654241 Z" id="椭圆形" fill="#373435"></path>
                    <path d="M59.5247934,52.1654241 C60.2607927,52.1654241 60.857438,51.7736255 60.857438,51.2903174 C60.857438,50.8070094 60.2607927,50.4152108 59.5247934,50.4152108 C58.7887941,50.4152108 58.1921488,50.8070094 58.1921488,51.2903174 C58.1921488,51.7736255 58.7887941,52.1654241 59.5247934,52.1654241 Z" id="椭圆形" fill="#373435"></path>
                    <path d="M59.5247934,57.8536175 C59.5247934,55.4370772 57.5359756,53.4780841 55.0826446,53.4780841 C52.6293136,53.4780841 50.6404959,55.4370772 50.6404959,57.8536175" id="路径" stroke="#373435" stroke-width="0.7"></path>
                    <path d="M50.6404959,59.1662776 C51.3764952,59.1662776 51.9731405,58.774479 51.9731405,58.2911709 C51.9731405,57.8078628 51.3764952,57.4160642 50.6404959,57.4160642 C49.9044966,57.4160642 49.3078512,57.8078628 49.3078512,58.2911709 C49.3078512,58.774479 49.9044966,59.1662776 50.6404959,59.1662776 Z" id="椭圆形" fill="#373435"></path>
                    <path d="M59.5247934,59.1662776 C60.2607927,59.1662776 60.857438,58.774479 60.857438,58.2911709 C60.857438,57.8078628 60.2607927,57.4160642 59.5247934,57.4160642 C58.7887941,57.4160642 58.1921488,57.8078628 58.1921488,58.2911709 C58.1921488,58.774479 58.7887941,59.1662776 59.5247934,59.1662776 Z" id="椭圆形" fill="#373435"></path>
                    <line x1="65.6260058" y1="24.676438" x2="91.5597871" y2="24.676438" id="路径-74" stroke="#373435" stroke-width="0.7"></line>
                    <line x1="77.286204" y1="16.3629245" x2="91.5597871" y2="16.3629245" id="路径-74" stroke="#373435" stroke-width="0.7"></line>
                    <line x1="65.6260058" y1="31.2397381" x2="91.5597871" y2="31.2397381" id="路径-74" stroke="#373435" stroke-width="0.7"></line>
                    <line x1="65.6260058" y1="52.2422984" x2="91.5597871" y2="52.2422984" id="路径-74" stroke="#373435" stroke-width="0.7"></line>
                    <line x1="77.286204" y1="43.9287849" x2="91.5597871" y2="43.9287849" id="路径-74" stroke="#373435" stroke-width="0.7"></line>
                    <line x1="65.6260058" y1="58.8055985" x2="91.5597871" y2="58.8055985" id="路径-74" stroke="#373435" stroke-width="0.7"></line>
                    <path d="M14.9523677,5.83793521 L8.56965451,32.0570639 C9.36997293,32.7070255 11.8107364,33.5069446 15.8919449,34.4568211 C27.2522131,37.1008546 37.1040353,32.4755238 39.4085298,23.3580646 C40.7489843,18.0547154 41.6953226,14.2388662 42.2475449,11.9105169 L14.9523677,5.83793521 Z" id="路径-75" stroke="#373435" stroke-width="0.7" fill="#FFFFFF"></path>
                    <path d="M15.3239522,34.2903807 C22.130096,34.9290553 26.6463027,32.5140633 28.8725722,27.0454048 C33.2139397,27.8586059 36.773898,26.4656147 39.5524472,22.8664314" id="路径-76" stroke="#373435" stroke-width="0.7"></path>
                    <path d="M23.0982254,2.46449614 L23.0696718,1.82296794 C23.0644053,0.854105047 23.8538202,0.0729773102 24.8329059,0.0782435646 C25.8119915,0.0835633015 26.6099881,0.873272679 26.6152811,1.84213557 L26.6823943,14.1221057 C26.6876608,15.0909686 25.8982459,15.8720963 24.9191602,15.8668301 C23.9400746,15.8615103 23.142078,15.071801 23.136785,14.1029381 L23.1096245,9.13131934" id="路径" stroke="#373435" stroke-width="0.7" transform="translate(24.876, 7.9725) rotate(-23) translate(-24.876, -7.9725)"></path>
                </g>
            </g>
        </g>
    </g>
</svg>