<?xml version="1.0" encoding="UTF-8"?>
<svg width="24px" height="24px" viewBox="0 0 24 24" version="1.1" xmlns="http://www.w3.org/2000/svg" xmlns:xlink="http://www.w3.org/1999/xlink">
    <title>API</title>
    <g id="V1.0版" stroke="none" stroke-width="1" fill="none" fill-rule="evenodd">
        <g id="红熊空间-记忆看板" transform="translate(-1174, -110)" fill="#5B6167" fill-rule="nonzero">
            <g id="API调用次数" transform="translate(1144, 80)">
                <g id="编组-5" transform="translate(20, 20)">
                    <g id="API" transform="translate(10, 10)">
                        <path d="M20.183785,2 C21.1770101,2 22,2.81194687 22,3.81621501 L22,20.1837654 C22,21.1769905 21.1880531,21.9999804 20.183785,21.9999804 L3.81621501,21.9999804 C2.82249953,21.9999804 2,21.1880335 2,20.1837654 L2,3.81619539 C2,2.82247991 2.81192725,2 3.81619539,2 L20.183785,2 Z M20.5467926,7.72632909 L3.45316815,7.72632909 L3.45316815,20.1837654 C3.46650764,20.3784704 3.62149108,20.5334622 3.81619539,20.5468122 L20.1837458,20.5468122 C20.365024,20.5468122 20.5467926,20.3650436 20.5467926,20.1837654 L20.5467926,7.72632909 Z M19.1684542,10.0019968 L19.1684542,16.551355 L17.8970351,16.551355 L17.8970351,10.0019968 L19.1684542,10.0019968 Z M8.52774291,10.0019968 L11.1664378,16.5513746 L9.71376004,16.5513746 L9.16894458,15.0981868 L6.52973967,15.0981868 L5.98492421,16.5513746 L4.61760921,16.5513746 L7.1604083,10.0019968 L8.52774291,10.0019968 Z M14.2787711,9.99190777 C14.8851672,9.99412804 15.2889585,10.0074496 15.4395988,10.0873792 C15.8031556,10.183785 16.1666928,10.3655536 16.3695471,10.7070048 C16.5513354,11.0705616 16.732594,11.4335888 16.732594,11.9784043 C16.7220609,12.3203655 16.6688269,12.6623266 16.5513354,12.9826725 C16.4654626,13.2603565 16.1877785,13.4421251 16.0065199,13.6239134 C15.8332058,13.7907005 15.6054976,13.8893007 15.365279,13.9015778 C15.0876145,13.9980032 14.6386949,13.9980032 13.9979836,13.9980032 L13.1749741,13.9980032 L13.1749741,16.5402923 L11.8071687,16.5402923 L11.8071687,9.99146372 Z M7.80113922,11.5405473 L6.8932769,13.9980032 L8.7094919,13.9980032 L7.80113922,11.5405473 Z M14.7883348,11.1880531 L13.1538884,11.1880531 L13.1538884,13.0042681 L14.0548702,13.0041359 C14.5026669,13.0030779 14.7989899,12.9935564 14.8842306,12.9078623 C14.9806561,12.8224995 15.1624247,12.7265841 15.3441933,12.5448155 C15.5254715,12.3630469 15.5254715,12.2776841 15.5149189,12.0105527 C15.5149189,11.7434213 15.4185131,11.5616526 15.3331503,11.4657372 C15.1513817,11.2839686 15.0660189,11.1880531 14.7883348,11.1880531 Z M20.1837654,3.45316815 L3.81619539,3.45316815 C3.63442678,3.45316815 3.45316815,3.6344464 3.45316815,3.81621501 L3.45316815,6.2736513 L20.5468122,6.2736513 L20.5468122,3.81619539 C20.5468122,3.63442678 20.3650436,3.45316815 20.1837654,3.45316815 Z M5.45064179,3.99800323 C5.81417901,3.99800323 6.17724548,4.36103047 6.17724548,4.72407733 C6.17724548,5.08763416 5.81419863,5.4506614 5.45064179,5.4506614 L4.72407733,5.4506614 C4.36103047,5.4506614 3.99800323,5.08763416 3.99800323,4.72407733 C3.99800323,4.36103047 4.36103047,3.99800323 4.72407733,3.99800323 L5.45064179,3.99800323 Z M8.1752291,3.99800323 C8.53827595,3.99800323 8.90181317,4.36103047 8.90181317,4.72407733 C8.90181317,5.08763416 8.53827595,5.4506614 8.1752291,5.4506614 L7.44864502,5.4506614 C7.08559817,5.4506614 6.72206095,5.08763416 6.72206095,4.72407733 C6.72206095,4.36103047 7.08559817,3.99800323 7.44864502,3.99800323 L8.1752291,3.99800323 Z M10.9103495,3.99800323 C11.2733963,3.99800323 11.6364432,4.36103047 11.6364432,4.72407733 C11.6364432,5.08763416 11.2733963,5.4506614 10.9103495,5.4506614 L10.1837654,5.4506614 C9.82022816,5.4506614 9.4571813,5.08763416 9.4571813,4.72407733 C9.4571813,4.36103047 9.82022816,3.99800323 10.1837654,3.99800323 L10.9103495,3.99800323 Z" id="形状结合"></path>
                    </g>
                </g>
            </g>
        </g>
    </g>
</svg>