<?xml version="1.0" encoding="UTF-8"?>
<svg width="40px" height="40px" viewBox="0 0 40 40" version="1.1" xmlns="http://www.w3.org/2000/svg" xmlns:xlink="http://www.w3.org/1999/xlink">
    <title>编组 32</title>
    <g id="空间里层页面优化" stroke="none" stroke-width="1" fill="none" fill-rule="evenodd">
        <g id="工作台-记忆看板-2" transform="translate(-862, -444)">
            <g id="最近记忆活动" transform="translate(846, 384)">
                <g id="编组-18" transform="translate(16, 58)">
                    <g id="编组-32" transform="translate(0, 2)">
                        <rect id="矩形" fill="#155EEF" x="0" y="0" width="40" height="40" rx="12"></rect>
                        <g id="编组-53" transform="translate(10.5, 10)" stroke="#FFFFFF" stroke-width="1.7">
                            <path d="M3.16666667,5.25836996 L3.16666667,1.1 C3.16666667,0.492486775 3.65915344,-6.66133815e-16 4.26666667,-6.66133815e-16 L14.7333333,0 C15.3408466,8.8817842e-16 15.8333333,0.492486775 15.8333333,1.1 L15.8333333,2.1365483 L15.8333333,2.1365483" id="路径"></path>
                            <rect id="矩形备份-14" x="0" y="8.42105263" width="11.6111111" height="11.5789474" rx="1.1"></rect>
                            <path d="M8.44444444,5.26315789 L17.9,5.26315789 C18.5075132,5.26315789 19,5.75564467 19,6.36315789 L19,16.7947368 C19,17.4022501 18.5075132,17.8947368 17.9,17.8947368 L13.7816958,17.8947368 L13.7816958,17.8947368" id="路径"></path>
                        </g>
                    </g>
                </g>
            </g>
        </g>
    </g>
</svg>