<?xml version="1.0" encoding="UTF-8"?>
<svg width="40px" height="40px" viewBox="0 0 40 40" version="1.1" xmlns="http://www.w3.org/2000/svg" xmlns:xlink="http://www.w3.org/1999/xlink">
    <title>编组 32</title>
    <g id="V1.0版" stroke="none" stroke-width="1" fill="none" fill-rule="evenodd">
        <g id="红熊空间-记忆看板" transform="translate(-276, -699)">
            <g id="最近记忆活动" transform="translate(256, 632)">
                <g id="编组-18" transform="translate(20, 64)">
                    <g id="编组-32" transform="translate(0, 3)">
                        <rect id="矩形" stroke="#E1E2E7" x="0.5" y="0.5" width="39" height="39" rx="8"></rect>
                        <g id="ai" transform="translate(10, 10)">
                            <g id="编组-5" transform="translate(0, 1)">
                                <path d="M8.28720375,0.224064323 L8.28720375,17 C8.28720375,17.5522847 8.734919,18 9.28720375,18 L13.0261803,18 C13.5784651,18 14.0261803,17.5522847 14.0261803,17 L14.0261803,15.0113042 L14.0261803,15.0113042 L15.5361593,15.0113042 C16.6407288,15.0113042 17.5361593,14.1158737 17.5361593,13.0113042 L17.5361593,11.1181466 L17.5361593,11.1181466 C18.94936,10.9269131 19.42233,10.4075569 18.955069,9.5600778 C18.4878081,8.71259873 18.0148382,7.98004933 17.5361593,7.3624296 C16.8964429,4.42435429 15.8608138,2.4587377 14.4292722,1.46557981 C12.9977305,0.472421924 10.9503744,0.0585834281 8.28720375,0.224064323 Z" id="路径-4" stroke="#212332" stroke-width="1.7" stroke-linejoin="round"></path>
                                <path d="M3.28720375,1.85075505 L5.13574583,1.85075505 C5.41188821,1.85075505 5.63574583,2.07461267 5.63574583,2.35075505 L5.63574583,4.26840929 C5.63574583,4.54455166 5.85960346,4.76840929 6.13574583,4.76840929 L8.28720375,4.76840929 L8.28720375,4.76840929" id="路径-5" stroke="#212332" stroke-width="1.7"></path>
                                <path d="M3.28720375,12.850755 L5.13574583,12.850755 C5.41188821,12.850755 5.63574583,13.0746127 5.63574583,13.350755 L5.63574583,15.2684093 C5.63574583,15.5445517 5.85960346,15.7684093 6.13574583,15.7684093 L8.28720375,15.7684093 L8.28720375,15.7684093" id="路径-5" stroke="#212332" stroke-width="1.7" transform="translate(5.7872, 14.3096) scale(1, -1) translate(-5.7872, -14.3096)"></path>
                                <line x1="4.08888168" y1="8.75" x2="8.07296647" y2="8.75" id="路径-6" stroke="#212332" stroke-width="1.7"></line>
                                <circle id="椭圆形" fill="#212332" cx="1.75" cy="1.75" r="1.75"></circle>
                                <circle id="椭圆形备份-4" fill="#212332" cx="1.75" cy="15.75" r="1.75"></circle>
                                <circle id="椭圆形备份-3" fill="#212332" cx="2.75" cy="8.75" r="1.75"></circle>
                            </g>
                        </g>
                    </g>
                </g>
            </g>
        </g>
    </g>
</svg>