<?xml version="1.0" encoding="UTF-8"?>
<svg width="24px" height="24px" viewBox="0 0 24 24" version="1.1" xmlns="http://www.w3.org/2000/svg" xmlns:xlink="http://www.w3.org/1999/xlink">
    <title>知识库</title>
    <g id="V1.0版" stroke="none" stroke-width="1" fill="none" fill-rule="evenodd">
        <g id="红熊空间-记忆看板" transform="translate(-878, -110)" fill="#5B6167" fill-rule="nonzero">
            <g id="知识库" transform="translate(848, 80)">
                <g id="编组-5" transform="translate(20, 20)">
                    <g id="知识库" transform="translate(10, 10)">
                        <path d="M8.7122437,3 C9.78625269,3 10.7983988,3.38712601 11.5605155,4.09016045 C11.7271867,4.24386316 11.879989,4.41166596 12.0171841,4.59165977 C12.1534707,4.41405344 12.3048097,4.24827077 12.4695567,4.09611296 C13.2331771,3.39010227 14.2448936,3.00106295 15.318473,3.00106295 L20.7894747,3.00106295 C22.0082601,3.00106295 23,3.94007206 23,5.09422203 L23,18.5375501 C23,19.6917 22.0082601,20.6304966 20.7894747,20.6304966 L13.9660808,20.6304966 C13.913349,20.6282582 13.8625028,20.6501274 13.8281781,20.6898091 L13.3783831,21.3154609 C13.0701426,21.7440419 12.5606327,22 12.0154657,22 C11.4702988,22 10.9607889,21.7448923 10.6525483,21.3152483 L10.2025386,20.6895965 C10.1682611,20.6499749 10.1175084,20.6281118 10.0648506,20.630284 L3.21052529,20.6668494 C1.99173989,20.6668494 1,19.7280529 1,18.5736903 L1,5.12951194 C1,3.97514937 1.99173989,3.03656544 3.21052529,3.03656544 L8.7122437,3 Z M20.7894747,4.48812854 L15.318473,4.48812854 C13.911736,4.48812854 12.767272,5.52471636 12.767272,6.79855439 L12.767272,16.5989438 C12.767272,17.0098791 12.4306769,17.343008 12.0154657,17.343008 C11.6002546,17.343008 11.2636594,17.0098791 11.2636594,16.5989438 L11.2636594,6.79855439 C11.2636594,6.18714615 11.0058973,5.61187817 10.5354814,5.17883277 C10.0526069,4.73239421 9.4051943,4.48812854 8.7122437,4.48812854 L3.21052529,4.52511916 C2.82066003,4.52511916 2.50361258,4.79638374 2.50361258,5.12993712 L2.50361258,18.5736903 C2.50361258,18.9072437 2.82066003,19.1787209 3.21052529,19.1787209 L10.0648506,19.1421554 C10.6100176,19.1421554 11.1195274,19.3972632 11.427768,19.8266946 L11.877563,20.4525589 C11.9170865,20.5074071 11.9931263,20.5118715 12.0154657,20.5118715 C12.0378051,20.5118715 12.1136302,20.5074071 12.1531537,20.4525589 L12.6042375,19.8266946 C12.912478,19.3981135 13.4217731,19.1421554 13.9671549,19.1421554 L20.7894747,19.1421554 C21.17934,19.1421554 21.4963874,18.8708909 21.4963874,18.5373375 L21.4963874,5.09315908 C21.4963874,4.7596057 21.17934,4.48812854 20.7894747,4.48812854 Z M7.40796719,10.389196 C7.82317834,10.389196 8.15977348,10.7223249 8.15977348,11.1332602 C8.15977348,11.5441956 7.82317834,11.8773245 7.40796719,11.8773245 L5.23846905,11.8773245 C4.8232579,11.8773245 4.48666276,11.5441956 4.48666276,11.1332602 C4.48666276,10.7223249 4.8232579,10.389196 5.23846905,10.389196 L7.40796719,10.389196 Z M18.7890256,10.389196 C19.2042367,10.389196 19.5408319,10.7223249 19.5408319,11.1332602 C19.5408319,11.5441956 19.2042367,11.8773245 18.7890256,11.8773245 L16.6206014,11.8773245 C16.2053903,11.8773245 15.8687952,11.5441956 15.8687952,11.1332602 C15.8687952,10.7223249 16.2053903,10.389196 16.6206014,10.389196 L18.7890256,10.389196 Z M8.78699473,7.15251639 C9.20220588,7.15251639 9.53880102,7.48564531 9.53880102,7.89658066 C9.53880102,8.30751601 9.20220588,8.64064493 8.78699473,8.64064493 L5.23954306,8.64064493 C4.82433191,8.64064493 4.48773677,8.30751601 4.48773677,7.89658066 C4.48773677,7.48564531 4.82433191,7.15251639 5.23954306,7.15251639 L8.78699473,7.15251639 Z M18.7890256,7.15251639 C19.2042367,7.15251639 19.5408319,7.48564531 19.5408319,7.89658066 C19.5408319,8.30751601 19.2042367,8.64064493 18.7890256,8.64064493 L15.2417887,8.64064493 C14.8265776,8.64064493 14.4899824,8.30751601 14.4899824,7.89658066 C14.4899824,7.48564531 14.8265776,7.15251639 15.2417887,7.15251639 L18.7890256,7.15251639 Z" id="形状结合"></path>
                    </g>
                </g>
            </g>
        </g>
    </g>
</svg>