<?xml version="1.0" encoding="UTF-8"?>
<svg width="24px" height="24px" viewBox="0 0 24 24" version="1.1" xmlns="http://www.w3.org/2000/svg" xmlns:xlink="http://www.w3.org/1999/xlink">
    <title>知识库</title>
    <g id="定稿" stroke="none" stroke-width="1" fill="none" fill-rule="evenodd">
        <g id="首页-红熊空间" transform="translate(-1159, -817)">
            <g id="快速操作" transform="translate(846, 736)">
                <g id="2" transform="translate(297, 58)">
                    <g id="知识库" transform="translate(16, 23)">
                        <g id="编组-8" transform="translate(4, 3)">
                            <path d="M15.199,0.8 L15.2,17.2 L2,17.2 C1.66862915,17.2 1.36862915,17.0656854 1.15147186,16.8485281 C0.934314575,16.6313708 0.8,16.3313708 0.8,16 L0.8,2 C0.8,1.66862915 0.934314575,1.36862915 1.15147186,1.15147186 C1.36862915,0.934314575 1.66862915,0.8 2,0.8 L15.199,0.8 Z" id="矩形" stroke="#171719" stroke-width="1.6"></path>
                            <path d="M15.2,13.8 L15.2,16.8 L2.4,17.2 C1.9581722,17.2 1.5581722,17.0209139 1.26862915,16.7313708 C0.9790861,16.4418278 0.8,16.0418278 0.8,15.6 L0.8,15 C0.8,14.6686292 0.934314575,14.3686292 1.15147186,14.1514719 C1.36862915,13.9343146 1.66862915,13.8 2,13.8 L15.2,13.8 Z" id="矩形" stroke="#171719" stroke-width="1.6"></path>
                            <path d="M8,1 L8,6.73243906 C8,6.82080462 8.07163444,6.89243906 8.16,6.89243906 C8.18642236,6.89243906 8.21243346,6.88589549 8.2357105,6.87339267 L9.81072375,6.02740484 C9.92892213,5.96391688 10.0710779,5.96391688 10.1892762,6.02740484 L11.7642895,6.87339267 C11.842136,6.91520643 11.9391399,6.88599609 11.9809536,6.80814956 C11.9934564,6.78487252 12,6.75886142 12,6.73243906 L12,1 L12,1 L8,1 Z" id="路径-2" fill="#171719"></path>
                        </g>
                    </g>
                </g>
            </g>
        </g>
    </g>
</svg>