<?xml version="1.0" encoding="UTF-8"?>
<svg width="40px" height="40px" viewBox="0 0 40 40" version="1.1" xmlns="http://www.w3.org/2000/svg" xmlns:xlink="http://www.w3.org/1999/xlink">
    <title>编组 38</title>
    <g id="空间里层页面优化" stroke="none" stroke-width="1" fill="none" fill-rule="evenodd">
        <g id="工作台-记忆看板-2" transform="translate(-862, -508)">
            <g id="最近记忆活动" transform="translate(846, 384)">
                <g id="编组-17" transform="translate(16, 122)">
                    <g id="编组-38" transform="translate(0, 2)">
                        <rect id="矩形" fill="#4DA8FF" x="0" y="0" width="40" height="40" rx="12"></rect>
                        <g id="Python语句" transform="translate(8, 8)">
                            <g id="编组-52" transform="translate(2, 1.5)">
                                <path d="M14,7 L19,7 C19.5522847,7 20,7.44771525 20,8 L20,14 C20,14.5522847 19.5522847,15 19,15 L10,15 L10,15 M6,15 L1,15 C0.44771525,15 0,14.5522847 0,14 L0,8 C0,7.44771525 0.44771525,7 1,7 L10,7 L10,7" id="形状" stroke="#FFFFFF" stroke-width="1.7" stroke-linejoin="round"></path>
                                <path d="M6.41940815,14.5 L0.809561128,14.5 C0.257276378,14.5 -0.190438872,14.0522847 -0.190438872,13.5 L-0.190438872,7.5 C-0.190438872,6.94771525 0.257276378,6.5 0.809561128,6.5 L9.84271232,6.5 C10.3949971,6.5 10.8427123,6.94771525 10.8427123,7.5 L10.8427123,13.4602063 C10.8427123,14.0124911 11.2904276,14.4602063 11.8427123,14.4602063 L19.8095611,14.4602063 C20.3618459,14.4602063 20.8095611,14.0124911 20.8095611,13.4602063 L20.8095611,7.5 C20.8095611,6.94771525 20.3618459,6.5 19.8095611,6.5 L15.2559728,6.5 L15.2559728,6.5" id="形状" stroke="#FFFFFF" stroke-width="1.7" stroke-linejoin="round" transform="translate(10.3096, 10.5) rotate(90) translate(-10.3096, -10.5)"></path>
                                <path d="M8.14814815,2.78072043 L10,2.78072043 L10,4.53010172 L8.14814815,4.53010172 L8.14814815,2.78072043 Z M10,17.125647 L11.8518519,17.125647 L11.8518519,18.8750283 L10,18.8750283 L10,17.125647 Z" id="形状" fill="#FFFFFF" fill-rule="nonzero"></path>
                            </g>
                        </g>
                    </g>
                </g>
            </g>
        </g>
    </g>
</svg>