<?xml version="1.0" encoding="UTF-8"?>
<svg width="40px" height="40px" viewBox="0 0 40 40" version="1.1" xmlns="http://www.w3.org/2000/svg" xmlns:xlink="http://www.w3.org/1999/xlink">
    <title>编组 38</title>
    <g id="V1.0版" stroke="none" stroke-width="1" fill="none" fill-rule="evenodd">
        <g id="红熊空间-记忆看板" transform="translate(-276, -778)">
            <g id="最近记忆活动" transform="translate(256, 632)">
                <g id="编组-17" transform="translate(20, 134)">
                    <g id="编组-38" transform="translate(0, 12)">
                        <rect id="矩形" stroke="#E1E2E7" x="0.5" y="0.5" width="39" height="39" rx="8"></rect>
                        <g id="危险品-icon" transform="translate(10, 10)" fill="#212332" fill-rule="nonzero">
                            <rect id="矩形" opacity="0" x="0" y="0" width="20" height="20"></rect>
                            <path d="M18.55125,17.1875 L12.00125,6.8625 L12.00125,1.66625 L12.835,1.66625 C13.2938482,1.66352732 13.6653389,1.29259358 13.66875,0.83375 C13.6660199,0.374418198 13.2943318,0.00273012748 12.835,0 L6.16875,0 C5.7094182,0.00273012748 5.33773013,0.374418198 5.335,0.83375 C5.335,1.28875 5.7125,1.66625 6.16875,1.66625 L7.0025,1.66625 L7.0025,6.8625 L0.4525,17.1875 C-0.52375,18.7375 0.16625,20 2.0025,20 L17.0025,20 C18.8375,20 19.5275,18.7375 18.5525,17.1875 L18.55125,17.1875 Z M8.40875,7.7475 L8.66875,7.34375 L8.66875,1.66625 L10.335,1.66625 L10.335,7.34375 L10.59625,7.7475 L14.73625,14.33125 C14.03375,15.25625 11.97125,14.9475 8.75625,13.435 C7.38625,12.79 5.89625,13.0425 4.6775,13.5125 L8.40875,7.7475 Z M1.63,18.22125 L3.07,15.99625 C3.62396409,15.5831322 4.22173279,15.232268 4.8525,14.95 C5.45,14.6875 6.01625,14.525 6.5375,14.4675 C7.145,14.4 7.69125,14.4775 8.1625,14.69875 C9.85,15.49375 11.225,15.97125 12.3625,16.1575 C12.725,16.21625 13.065,16.24625 13.3825,16.24625 C13.74125,16.24625 14.07,16.20875 14.36875,16.13375 C14.8125,16.02 15.1925,15.825 15.5025,15.55125 L17.27,18.36 L1.63,18.22125 Z" id="形状"></path>
                        </g>
                    </g>
                </g>
            </g>
        </g>
    </g>
</svg>