<?xml version="1.0" encoding="UTF-8"?>
<svg width="120px" height="120px" viewBox="0 0 120 120" version="1.1" xmlns="http://www.w3.org/2000/svg" xmlns:xlink="http://www.w3.org/1999/xlink">
    <title>编组 15</title>
    <g id="V1.0版" stroke="none" stroke-width="1" fill="none" fill-rule="evenodd">
        <g id="红熊空间-记忆看板-空状态" transform="translate(-484, -1215)">
            <g id="编组-15" transform="translate(484, 1215)">
                <g id="编组-18" transform="translate(23, 22)">
                    <g id="编组-17" transform="translate(0, 18.4936)">
                        <polygon id="路径-73" fill="#D2D3D5" points="-2.75208433e-16 19.7634835 17.3660602 19.7634835 17.3660602 1.8193695e-12"></polygon>
                        <polygon id="路径-73" fill="#D2D3D5" transform="translate(66.317, 9.8817) scale(-1, 1) translate(-66.317, -9.8817)" points="57.6339398 19.7634835 75 19.7634835 75 1.92488832e-16"></polygon>
                        <rect id="矩形" fill="#373435" x="23.2988267" y="24.6695043" width="28.2038429" height="11.1012769"></rect>
                        <polyline id="路径-70" stroke="#373435" stroke-width="0.7" points="0 19.7356035 17.3659376 1.81916045e-12 57.8135666 1.81917701e-12 74.8014963 19.7356035"></polyline>
                        <line x1="57.8135666" y1="1.81917701e-12" x2="57.8135666" y2="19.7634835" id="路径-71" stroke="#373435" stroke-width="0.7"></line>
                        <line x1="17.3659376" y1="1.81917701e-12" x2="17.3659376" y2="19.7634835" id="路径-72" stroke="#373435" stroke-width="0.7"></line>
                    </g>
                    <g id="编组-13" transform="translate(15.9413, 0)">
                        <path d="M12.2356988,4.465226 L0.972921988,16.8958133 C0.375475584,17.5552075 0.196532154,18.4931521 0.509248704,19.3261895 L11.5939287,48.8543765 C11.9398119,49.7757657 12.9671393,50.2423055 13.8885285,49.8964223 C13.9021171,49.8913212 13.9156429,49.8860543 13.9291028,49.8806228 L40.1039064,39.3181687 C40.9912726,38.9600852 41.4374282,37.965102 41.1145377,37.0643333 L30.7025048,8.01784388 C30.3990531,7.17130361 29.6436708,6.56862589 28.7508796,6.46075021 L12.2356988,4.465226 L12.2356988,4.465226 Z" id="路径-63" fill="#FFFFFF"></path>
                        <polygon id="路径-69" fill="#D2D3D5" points="10.2431625 45.6045267 11.6513385 48.7791958 12.310847 49.4243401 13.0949245 49.8708465 13.9180136 49.8708465 15.2213982 49.4243401 40.0651494 39.2819249 41.0158582 37.7992125 40.9090466 36.3521362 39.9422386 33.8596111"></polygon>
                        <path d="M12.2356988,4.465226 L0.972921988,16.8958133 C0.375475584,17.5552075 0.196532154,18.4931521 0.509248704,19.3261895 L11.5939287,48.8543765 C11.9398119,49.7757657 12.9671393,50.2423055 13.8885285,49.8964223 C13.9021171,49.8913212 13.9156429,49.8860543 13.9291028,49.8806228 L40.1039064,39.3181687 C40.9912726,38.9600852 41.4374282,37.965102 41.1145377,37.0643333 L30.7025048,8.01784388 C30.3990531,7.17130361 29.6436708,6.56862589 28.7508796,6.46075021 L12.2356988,4.465226 L12.2356988,4.465226 Z" id="路径-63" stroke="#373435" stroke-width="0.7"></path>
                        <line x1="10.2431625" y1="45.6045267" x2="40.0651494" y2="33.8596111" id="路径-64" stroke="#373435" stroke-width="0.7"></line>
                        <line x1="15.3038006" y1="22.6558631" x2="25.6583863" y2="22.6558631" id="路径-65" stroke="#373435" stroke-width="0.7"></line>
                        <line x1="14.5337764" y1="28.3391138" x2="24.4437183" y2="28.3391138" id="路径-66" stroke="#373435" stroke-width="0.7"></line>
                        <line x1="18.1342602" y1="20.080611" x2="16.55384" y2="31.1519924" id="路径-67" stroke="#373435" stroke-width="0.7"></line>
                        <line x1="23.7611042" y1="20.080611" x2="22.0303089" y2="31.1519924" id="路径-68" stroke="#373435" stroke-width="0.7"></line>
                        <path d="M10.3527811,5.53364867 L10.3527811,5.53364867 L10.3589861,3.3537869 C10.3634212,1.7957286 11.6231284,0.529077436 13.1726209,0.524516118 C14.7221134,0.520207272 15.9746299,1.77966774 15.9702066,3.33772605 L15.9449563,12.2040847 C15.9405213,13.762143 14.6808141,15.0287942 13.1313216,15.0332409 C11.5818291,15.0376644 10.3293126,13.7782039 10.3337359,12.2201456" id="路径" stroke="#373435" stroke-width="0.7" transform="translate(13.152, 7.7789) rotate(-23) translate(-13.152, -7.7789)"></path>
                        <path d="M11.6540475,12.524912 C11.6553006,12.0847015 11.6571802,11.4243857 11.6596864,10.5439647 C11.6622207,9.65364562 12.3820534,8.92984496 13.2674777,8.92730395 C14.1529019,8.92477629 14.8686256,9.64446799 14.866098,10.534787 C14.8625318,11.7852395 14.8598622,12.7230789 14.8580825,13.3483051" id="路径" stroke="#373435" stroke-width="0.7" transform="translate(13.2601, 11.1378) rotate(-23) translate(-13.2601, -11.1378)"></path>
                    </g>
                    <path d="M74.8014963,38.2292187 L74.8014963,74 L0,74 L0,38.2292187 L22.0846423,38.2300152 C22.4068783,46.4591016 29.1408409,53.0309213 37.4007481,53.0309213 C45.6606554,53.0309213 52.394618,46.4591016 52.716854,38.2300152 L74.8014963,38.2292187 Z" id="形状结合" stroke="#373435" stroke-width="0.7" fill="#FFFFFF" stroke-linejoin="round"></path>
                </g>
            </g>
        </g>
    </g>
</svg>