<?xml version="1.0" encoding="UTF-8"?>
<svg width="40px" height="40px" viewBox="0 0 40 40" version="1.1" xmlns="http://www.w3.org/2000/svg" xmlns:xlink="http://www.w3.org/1999/xlink">
    <title>编组 39</title>
    <g id="空间里层页面优化" stroke="none" stroke-width="1" fill="none" fill-rule="evenodd">
        <g id="工作台-记忆看板-2" transform="translate(-862, -636)">
            <g id="最近记忆活动" transform="translate(846, 384)">
                <g id="编组-14" transform="translate(16, 250)">
                    <g id="编组-39" transform="translate(0, 2)">
                        <rect id="矩形" fill="#FFB048" x="0" y="0" width="40" height="40" rx="12"></rect>
                        <g id="操作时间" transform="translate(8, 8)" stroke="#FFFFFF" stroke-linecap="round" stroke-linejoin="round" stroke-width="1.7">
                            <g id="编组-46" transform="translate(1.9999, 3.002)">
                                <g id="编组-49" transform="translate(10.0001, 9) rotate(-90) translate(-10.0001, -9)translate(1.0001, -1.0001)">
                                    <path d="M9,2.00001719 C4.02943725,2.00001719 0,6.02949267 0,11.0001026 C0,15.9707125 4.02943725,20.000188 9,20.000188 C13.9705627,20.000188 18,15.9707125 18,11.0001026 C18,8.51643968 16.9939714,6.26774959 15.3671884,4.63931025" id="路径"></path>
                                    <polyline id="路径" transform="translate(8.1705, 2.0796) rotate(-5) translate(-8.1705, -2.0796)" points="7.17050783 0.0795451453 9.17050633 2.07956233 7.17050454 4.07958281"></polyline>
                                </g>
                                <polyline id="路径-13" points="11.000094 5.99997064 11.000094 9.96317787 13.5159629 12.5545877"></polyline>
                            </g>
                        </g>
                    </g>
                </g>
            </g>
        </g>
    </g>
</svg>