<?xml version="1.0" encoding="UTF-8"?>
<svg width="40px" height="40px" viewBox="0 0 40 40" version="1.1" xmlns="http://www.w3.org/2000/svg" xmlns:xlink="http://www.w3.org/1999/xlink">
    <title>编组 39</title>
    <g id="V1.0版" stroke="none" stroke-width="1" fill="none" fill-rule="evenodd">
        <g id="红熊空间-记忆看板" transform="translate(-276, -954)">
            <g id="最近记忆活动" transform="translate(256, 632)">
                <g id="编组-14" transform="translate(20, 310)">
                    <g id="编组-39" transform="translate(0, 12)">
                        <rect id="矩形" stroke="#E1E2E7" x="0.5" y="0.5" width="39" height="39" rx="8"></rect>
                        <g id="清理" transform="translate(8, 8)">
                            <rect id="矩形" fill="#212332" fill-rule="nonzero" opacity="0" x="0" y="0" width="24" height="24"></rect>
                            <path d="M12,2 C13.1045695,2 14,2.8954305 14,4 L14,5 L19,5 C20.1045695,5 21,5.8954305 21,7 L21,10 L3,10 L3,7 C3,5.8954305 3.8954305,5 5,5 L10,5 L10,4 C10,2.8954305 10.8954305,2 12,2 Z" id="形状结合" stroke="#212332" stroke-width="1.7" stroke-linejoin="round"></path>
                            <path d="M4,10 L20,10 L20.4584773,15.5017271 C20.7336658,18.8039893 18.2797377,21.704086 14.9774756,21.9792745 C14.8117436,21.9930855 14.6455091,22 14.4792027,22 L5.1735991,22 C4.0690296,22 3.1735991,21.1045695 3.1735991,20 C3.1735991,19.9445645 3.17590391,19.889153 3.18050758,19.833909 L4,10 L4,10 Z" id="矩形" stroke="#212332" stroke-width="1.7"></path>
                            <line x1="8.97868467" y1="18.020421" x2="8.73730175" y2="22" id="路径-7" stroke="#212332" stroke-width="1.7" stroke-linecap="round"></line>
                        </g>
                    </g>
                </g>
            </g>
        </g>
    </g>
</svg>