<?xml version="1.0" encoding="UTF-8"?>
<svg width="24px" height="24px" viewBox="0 0 24 24" version="1.1" xmlns="http://www.w3.org/2000/svg" xmlns:xlink="http://www.w3.org/1999/xlink">
    <title>大脑</title>
    <g id="V1.0版" stroke="none" stroke-width="1" fill="none" fill-rule="evenodd">
        <g id="红熊空间-记忆看板" transform="translate(-286, -110)" fill="#5F6266" fill-rule="nonzero" stroke="#5F6266" stroke-width="0.1">
            <g id="记忆总量" transform="translate(256, 80)">
                <g id="编组-5" transform="translate(20, 20)">
                    <g id="大脑" transform="translate(10, 10)">
                        <path d="M15.6080045,21.9933834 L15.4575348,21.980383 C15.441202,21.978618 15.4248797,21.9767328 15.4085691,21.9747268 C15.3595438,21.9691027 15.3108682,21.9620426 15.2623906,21.953862 C15.2421551,21.9500376 15.2218646,21.9464251 15.2016018,21.9426202 C15.1633355,21.9357673 15.1251323,21.9278132 15.0870934,21.9191333 C15.0546082,21.9116857 15.0219856,21.9038152 14.9894615,21.8954293 C14.9702504,21.8900927 14.9515114,21.884961 14.9328218,21.879645 C14.4242319,21.7393303 13.9411029,21.4705147 13.5294118,21.0588235 C13.0412267,20.5706385 12.7459712,19.9538339 12.6436451,19.3064391 L12.6672735,19.3535831 C12.6175275,19.2698721 12.5882353,19.1702063 12.5882353,19.0588235 L12.5882353,13.1176471 C12.5725893,12.9611872 12.5735895,12.8047274 12.5879152,12.6493744 L12.5882353,4.94117647 C12.5882353,4.86995039 12.6020343,4.79872431 12.6279614,4.73167533 C12.8756577,3.19969709 14.2296238,2 15.8235294,2 C17.5882353,2 19.0588235,3.47058824 19.0588235,5.23529412 C19.0588235,5.54104957 19.0137592,5.84079644 18.9290621,6.1270663 C20.592597,6.24282547 21.9411765,7.66302537 21.9411765,9.35294118 C21.9411765,10.4336181 21.4117454,11.4039969 20.5960445,11.9938985 C21.4397702,12.5806934 22,13.5578531 22,14.6470588 C22,16.3141976 20.6875283,17.7188421 19.0545111,17.869066 C19.2818044,18.7520515 19.1197059,19.7117647 18.5882353,20.5294118 L18.5746197,20.5492059 C18.4462413,20.7507176 18.2938098,20.9414843 18.1176471,21.1176471 C17.5241597,21.6571811 16.7822128,21.9492827 16.0279747,21.9939519 L15.8235294,22 L15.6080045,21.9933834 Z M8.17647059,2 C9.77037618,2 11.1243423,3.19969709 11.3715033,4.73222551 C11.3979657,4.79872431 11.4117647,4.86995039 11.4117647,4.94117647 L11.4127607,17.9949756 C11.7263885,19.2622927 11.2581032,20.6494598 10.1176471,21.4705882 C9.6059492,21.7496962 9.09425134,21.918444 8.58255348,21.9768318 C8.55526235,21.9788825 8.52757146,21.9819082 8.49985417,21.9845806 C8.46294096,21.9886562 8.42655036,21.9913995 8.39015977,21.9935845 C8.31925591,21.9977896 8.24786325,22 8.17647059,22 C7.35294118,22 6.52941176,21.7058824 5.88235294,21.0588235 C5.07046695,20.2469375 4.74007591,18.9973289 5.04221671,17.8763858 C3.36545189,17.7748773 2,16.3475132 2,14.6470588 C2,13.5622309 2.55573544,12.5885502 3.39390195,11.9993208 C2.55573544,11.4114498 2,10.4377691 2,9.35294118 C2,7.64340325 3.38007885,6.20988109 5.07068852,6.12192274 C4.98582209,5.83800472 4.94117647,5.5396258 4.94117647,5.23529412 C4.94117647,3.47058824 6.41176471,2 8.17647059,2 Z M8.17647059,3.17647059 C7.05882353,3.17647059 6.11764706,4.11764706 6.11764706,5.23529412 C6.11764706,6.11764706 6.64705882,6.88235294 7.47058824,7.17647059 C7.76470588,7.29411765 7.94117647,7.64705882 7.82352941,7.94117647 C7.76470588,8.17647059 7.52941176,8.35294118 7.29411765,8.35294118 C7.23529412,8.35294118 7.17647059,8.35294118 7.11764706,8.29411765 C6.60017482,8.10594592 6.14854044,7.79550389 5.79283107,7.40416136 L5.82352941,7.41176471 C5.58823529,7.35294118 5.41176471,7.29411765 5.17647059,7.29411765 C4.05882353,7.29411765 3.11764706,8.23529412 3.11764706,9.35294118 C3.11764706,10.4705882 4.05882353,11.4117647 5.17647059,11.4117647 L5.19322233,11.4120435 C5.20722724,11.4118578 5.22125137,11.4117647 5.23529412,11.4117647 C5.58823529,11.4117647 5.82352941,11.6470588 5.82352941,12 C5.82352941,12.3529412 5.58823529,12.5882353 5.23529412,12.5882353 C4.11764706,12.5882353 3.17647059,13.5294118 3.17647059,14.6470588 C3.17647059,15.7647059 4.11764706,16.7058824 5.23529412,16.7058824 C6.35294118,16.7058824 7.29411765,15.7647059 7.29411765,14.6470588 C7.29411765,14.2941176 7.52941176,14.0588235 7.88235294,14.0588235 C8.23529412,14.0588235 8.47058824,14.2941176 8.47058824,14.6470588 C8.47058824,15.9819498 7.6291194,17.1485471 6.4553971,17.6376352 L6.52941176,17.5294118 C6,18.2352941 6,19.1764706 6.52941176,19.9411765 C6.62935763,20.0865523 6.7447413,20.2150868 6.87187758,20.3261298 C7.69547023,20.9965286 8.87699737,20.946532 9.64705882,20.1764706 C9.96991383,19.8536156 10.1661973,19.458434 10.2359093,19.0476354 L10.2359093,18.3641293 C10.1661973,17.9533307 9.96991383,17.5581491 9.64705882,17.2352941 C9.41176471,17 9.41176471,16.6470588 9.64705882,16.4117647 C9.81254346,16.2462801 10.0362216,16.1971824 10.2362371,16.2644716 L10.2352941,13 C10.2352941,12.6470588 10.1764706,12.2941176 10,11.9411765 C9.76470588,11.4705882 9.29411765,11.1176471 8.82352941,10.9411765 C8.29411765,10.7647059 7.76470588,10.8235294 7.23529412,11.0588235 C6.94117647,11.2352941 6.58823529,11.1176471 6.41176471,10.8235294 C6.23529412,10.5294118 6.35294118,10.1764706 6.64705882,10 C7.41176471,9.58823529 8.29411765,9.52941176 9.11764706,9.76470588 C9.53921569,9.88515406 9.91454082,10.0980892 10.2357317,10.3798391 L10.2352941,5.23529412 C10.2352941,4.11764706 9.29411765,3.17647059 8.17647059,3.17647059 Z M15.8235294,3.17647059 C14.7058824,3.17647059 13.7647059,4.11764706 13.7647059,5.23529412 L13.7640468,10.3885252 C14.0719987,10.1316071 14.4273427,9.93672561 14.8235294,9.82352941 C15.6470588,9.58823529 16.5294118,9.64705882 17.2941176,10.0588235 C17.5882353,10.2352941 17.7058824,10.5882353 17.5294118,10.8823529 C17.3529412,11.1764706 17,11.2941176 16.7058824,11.1176471 C16.2352941,10.8823529 15.6470588,10.8235294 15.1176471,11 C14.5882353,11.1764706 14.1764706,11.5294118 13.9411765,12 C13.8575939,12.1671652 13.800403,12.3343303 13.7633539,12.5014955 L13.7637629,16.3232952 C13.9637784,16.2560059 14.1874565,16.3051036 14.3529412,16.4705882 C14.5882353,16.7058824 14.5882353,17.0588235 14.3529412,17.2941176 C14.3071207,17.3399381 14.2638497,17.3872153 14.2231281,17.4357872 C14.2104067,17.4680429 14.1946931,17.4990409 14.1764706,17.5294118 C13.5294118,18.4705882 13.7647059,19.7647059 14.7058824,20.4117647 C15.5753501,21.0095238 16.7460264,20.8542617 17.4295099,20.085108 C17.9075219,19.4862043 18.0301636,18.5849624 17.7058824,17.8823529 C17.6799233,17.8174552 17.66542,17.7496936 17.6617407,17.6822277 L17.7136337,17.7013793 C16.4519653,17.2580035 15.5294118,16.0447865 15.5294118,14.6470588 C15.5294118,14.2941176 15.7647059,14.0588235 16.1176471,14.0588235 C16.4705882,14.0588235 16.7058824,14.2941176 16.7058824,14.6470588 C16.7058824,15.4904507 17.2418278,16.2333529 17.9851177,16.5471644 C18.1485261,16.5331512 18.3222017,16.5800664 18.4455295,16.6787562 C18.5491495,16.6969942 18.6560944,16.7058824 18.7647059,16.7058824 C19.8823529,16.7058824 20.8235294,15.7647059 20.8235294,14.6470588 C20.8235294,13.5294118 19.8823529,12.5882353 18.7647059,12.5882353 C18.4117647,12.5882353 18.1764706,12.3529412 18.1764706,12 C18.1764706,11.6470588 18.4117647,11.4117647 18.7647059,11.4117647 C19.8823529,11.4117647 20.8235294,10.4705882 20.8235294,9.35294118 C20.8235294,8.23529412 19.8823529,7.29411765 18.7647059,7.29411765 C18.5764706,7.29411765 18.3882353,7.33176471 18.2301176,7.37694118 L18.1560561,7.45914239 C17.8085901,7.82459651 17.3753501,8.11484594 16.8823529,8.29411765 C16.8235294,8.29411765 16.7647059,8.35294118 16.7058824,8.35294118 C16.4705882,8.35294118 16.2352941,8.17647059 16.1764706,7.94117647 C16.0588235,7.64705882 16.2352941,7.29411765 16.5294118,7.17647059 C16.8732885,7.05365745 17.1658829,6.84879244 17.3900638,6.58757203 C17.4224641,6.51899558 17.4695234,6.45804221 17.5259325,6.40708405 C17.7545418,6.07397309 17.8823529,5.66883484 17.8823529,5.23529412 C17.8823529,4.11764706 16.9411765,3.17647059 15.8235294,3.17647059 Z" id="形状结合"></path>
                    </g>
                </g>
            </g>
        </g>
    </g>
</svg>