<?xml version="1.0" encoding="UTF-8"?>
<svg width="40px" height="40px" viewBox="0 0 40 40" version="1.1" xmlns="http://www.w3.org/2000/svg" xmlns:xlink="http://www.w3.org/1999/xlink">
    <title>编组 37</title>
    <g id="V1.0版" stroke="none" stroke-width="1" fill="none" fill-rule="evenodd">
        <g id="红熊空间-记忆看板" transform="translate(-276, -866)">
            <g id="最近记忆活动" transform="translate(256, 632)">
                <g id="编组-15" transform="translate(20, 222)">
                    <g id="编组-37" transform="translate(0, 12)">
                        <rect id="矩形" stroke="#E1E2E7" x="0.5" y="0.5" width="39" height="39" rx="8"></rect>
                        <g id="召回" transform="translate(8, 8)" fill="#212332" fill-rule="nonzero">
                            <rect id="矩形" opacity="0" x="0" y="0" width="24" height="24"></rect>
                            <path d="M9.12850781,18.9310078 C10.0388127,19.3080826 11.0146888,19.5014545 12,19.5 C12.7789922,19.5 13.5280078,19.3815 14.232,19.1625 L14.8270078,21.0724922 C13.9116446,21.3568375 12.9585098,21.5009705 12,21.4999991 C10.7516471,21.5014974 9.51530149,21.2563008 8.36200781,20.7784922 L9.12850781,18.9310078 Z M18.6425156,15.4855078 L20.4125156,16.4164922 C19.5148347,18.1217644 18.1216538,19.5151169 16.4164922,20.4130078 L15.4854844,18.6430078 C16.832532,17.9334575 17.9331653,16.8326608 18.6425156,15.4855078 Z M5.0785,15.0639811 L5.60200781,15.9165 C6.11789698,16.7566976 6.7934582,17.4876385 7.59049219,18.0679922 L6.41350781,19.6845 C5.4050233,18.9502909 4.55023636,18.0255205 3.89749219,16.9624922 L3.37453125,16.11 L5.0785,15.0639811 Z M12,2.50000781 C12.1311453,2.50000781 12.2616701,2.50266556 12.3915236,2.50793013 L12,2.49998272 C12.1511799,2.49998272 12.30159,2.50353427 12.451145,2.51055728 C12.7047272,2.52239635 12.9554532,2.54417042 13.2032061,2.57548716 C13.2256166,2.57855955 13.2476142,2.58142602 13.2695889,2.58436768 C13.3934456,2.60065071 13.5171507,2.61967745 13.6400453,2.64106599 C13.6508266,2.64329929 13.661527,2.64518324 13.6722214,2.64708507 C13.7836008,2.66650382 13.8943167,2.68822704 14.0043255,2.71185524 C14.0246328,2.71664475 14.0449155,2.72107381 14.0651744,2.72556743 C14.1786643,2.75029288 14.2915458,2.77752143 14.4036216,2.80674537 C14.4303486,2.81416021 14.4573878,2.82133702 14.4843802,2.82862947 C15.1094571,2.9971345 15.7086369,3.22810188 16.2752677,3.51415409 L16.4164922,3.58699219 L16.4276674,3.59283005 C16.6214614,3.69510849 16.8112913,3.80389138 16.9968668,3.91888811 C17.0306102,3.9399382 17.0646519,3.96132763 17.0985453,3.98292386 C17.1453818,4.01263979 17.1916329,4.04268758 17.2376039,4.07312455 C17.2755587,4.09836116 17.3132583,4.12370448 17.3507626,4.14930723 C17.4410167,4.2108519 17.5301475,4.27399744 17.6181244,4.33862185 C17.6307047,4.34787544 17.6430752,4.35700511 17.6554224,4.36616383 C17.8292672,4.49515952 17.9987023,4.63008426 18.1632834,4.77052998 L18.1936911,4.79642531 C18.2096545,4.81015938 18.2255715,4.82394548 18.2414417,4.83778337 C18.2993728,4.88848803 18.3566269,4.93965434 18.4132508,4.99149777 C18.4402124,5.0159654 18.4664979,5.04030386 18.4926444,5.06478849 C18.5387397,5.10819021 18.5845517,5.15195924 18.6299231,5.19617824 C18.679182,5.24393245 18.7279988,5.29254581 18.7762845,5.34168334 C18.8305516,5.39716538 18.8839879,5.45288107 18.9367455,5.50924005 C18.9550315,5.52853193 18.9729895,5.54787953 18.9908675,5.56730216 C19.0350969,5.61557803 19.0792926,5.66458724 19.1229811,5.714055 C19.1561206,5.75136981 19.1893096,5.78956138 19.2221976,5.82802043 C19.2321589,5.8398513 19.2417482,5.85111605 19.2513117,5.86240341 C19.3358135,5.96197735 19.418737,6.06406564 19.4995626,6.16789148 C19.5273188,6.20359713 19.5549593,6.23961452 19.5823463,6.27583428 C19.6145708,6.31844787 19.6463612,6.36125098 19.6778002,6.40433157 C19.8701214,6.66770441 20.0493957,6.94168491 20.2144351,7.22497713 C20.2225187,7.23909239 20.2307277,7.25326445 20.2389015,7.26746001 L20.2452469,7.27826253 C20.2962254,7.36708734 20.3458099,7.45681414 20.3939705,7.54741309 C20.400197,7.55923893 20.406615,7.57136546 20.4130078,7.58350781 C20.9192423,8.54565779 21.2652489,9.60548225 21.4154634,10.7272691 C21.4186843,10.7531127 21.4220581,10.7790648 21.4253268,10.8050486 C21.4379462,10.9038173 21.4487998,11.0028008 21.4581209,11.1022296 C21.4606735,11.1308846 21.4632733,11.1599564 21.4657417,11.1890644 C21.4750625,11.297925 21.4824154,11.4070667 21.4879096,11.5166979 C21.4898591,11.5563773 21.4916221,11.5963933 21.493136,11.6364706 C21.4977024,11.7570815 21.4999922,11.8782774 21.4999922,12.0000078 L21.4999922,13.0000078 L21.4476663,13.0013819 C21.3960508,13.4927342 21.3069166,13.9732706 21.1832391,14.4400155 L21.072,14.8264922 L19.1620078,14.2324922 C19.3819922,13.5280078 19.5,12.7789922 19.5,12 L19.49454,11.7111707 C19.493364,11.6801178 19.4919992,11.6491133 19.4904467,11.6181583 C19.4806239,11.4216755 19.4632716,11.2275673 19.4386947,11.0358173 C19.4339554,10.9997212 19.4291619,10.9644014 19.4241235,10.9291606 L19.4386947,11.0358173 C19.3978568,10.7171979 19.3370713,10.4050896 19.2577106,10.1007146 C19.2444039,10.0509268 19.2309606,10.001522 19.2170277,9.95232285 L19.2577106,10.1007146 C19.2370034,10.0212959 19.2150317,9.94240365 19.1918197,9.86405962 L19.2170277,9.95232285 C19.0850419,9.48626073 18.909125,9.03865109 18.6940348,8.61425166 L18.6424922,8.51500781 C18.5036434,8.25124338 18.3497955,7.99692039 18.1820355,7.75312626 C18.1734445,7.73994733 18.1646591,7.7272684 18.1558358,7.71461795 L18.1820355,7.75312626 C18.0157145,7.51142343 17.8357191,7.28006959 17.6431085,7.06012442 C17.6210694,7.03463271 17.5985849,7.00931329 17.5759324,6.984148 L17.6431085,7.06012442 C17.5869389,6.99598342 17.5296965,6.93281265 17.4714074,6.8706384 L17.5759324,6.984148 C17.512744,6.91395011 17.448249,6.84495161 17.3824858,6.7771908 L17.2070779,6.60229119 C17.1932893,6.58898663 17.1794499,6.57573441 17.16556,6.56253485 L17.2068968,6.60226481 C17.135499,6.53335675 17.0627348,6.46585232 16.9886456,6.399793 L17.16556,6.56253485 C17.0985312,6.4988374 17.0303259,6.4363663 16.96098,6.37515752 L16.9886456,6.399793 C16.9230469,6.341304 16.8564095,6.28394786 16.7887622,6.2277534 L16.96098,6.37515752 C16.8456048,6.27332046 16.7270724,6.17497765 16.6055486,6.08029472 C16.5784465,6.05920387 16.5508514,6.03800223 16.5231044,6.01698788 L16.6055486,6.08029472 C16.5498418,6.0368918 16.4935063,5.99425794 16.4365582,5.95240911 L16.5231044,6.01698788 C16.4532174,5.96405871 16.382366,5.91231772 16.3105786,5.86179334 L16.4365582,5.95240911 C16.3634312,5.89867102 16.2892939,5.84622736 16.2141802,5.79511191 L16.3105786,5.86179334 C16.2231866,5.80028637 16.1344075,5.7405824 16.0442925,5.68273271 L16.2141802,5.79511191 C16.1399134,5.74457273 16.064692,5.69533198 15.9885487,5.64742231 C15.873989,5.57534084 15.7573426,5.50627241 15.6387205,5.44032824 C15.6080912,5.42293453 15.5776698,5.40627404 15.547119,5.38981593 L15.6387205,5.44032824 C15.2239299,5.20973847 14.7849837,5.01734955 14.3266366,4.86791608 L14.232,4.83799219 C14.0333866,4.77624695 13.8325185,4.72286393 13.6299269,4.67792354 C13.6032661,4.67172376 13.5767301,4.66599511 13.5501423,4.6604073 L13.6299269,4.67792354 C13.5308356,4.65594237 13.431332,4.635981 13.3314782,4.61804882 L13.5501423,4.6604073 C13.4535751,4.64011232 13.3563242,4.62167514 13.2584288,4.60513486 L13.3314782,4.61804882 C13.1164276,4.57942911 12.8997528,4.55022129 12.6820744,4.53051934 C12.6479564,4.52753176 12.6135479,4.52466605 12.5790743,4.52203343 L12.6820744,4.53051934 C12.5855979,4.52178731 12.4889243,4.51492254 12.3921076,4.50993321 L12.5790743,4.52203343 C12.4834861,4.51473373 12.3873968,4.50922605 12.2908399,4.50554394 L12,4.50000781 L11.6588155,4.50763046 C11.6300394,4.50891888 11.6013052,4.51036945 11.5726139,4.5119813 C11.4857327,4.51679561 11.3989295,4.52316345 11.3125748,4.53099069 L11.5726139,4.5119813 C11.4529748,4.51870254 11.3340819,4.52822799 11.2160002,4.54049318 L11.3125748,4.53099069 C11.061195,4.55377588 10.8136148,4.588928 10.5703181,4.63579175 C10.0662583,4.73331965 9.57927039,4.88135989 9.11578974,5.07457176 L9.13750781,5.06500781 C8.94329044,5.14545925 8.7529505,5.23383939 8.5669268,5.32982377 C8.53366104,5.34714055 8.50092339,5.36433275 8.46832935,5.38175872 L8.5669268,5.32982377 C8.47101426,5.37931266 8.37624913,5.43082302 8.28269156,5.48431039 L8.46832935,5.38175872 C8.37440704,5.43197302 8.28167715,5.4841284 8.19019341,5.53817149 L8.28269156,5.48431039 C8.18386314,5.54081114 8.08638216,5.59951792 7.99031953,5.66037833 L8.19019341,5.53817149 C8.10798126,5.58673747 8.02677547,5.63682793 7.94661503,5.68840412 L7.99031953,5.66037833 C7.79816986,5.78211461 7.61169499,5.91246757 7.43146226,6.05101765 C7.4183774,6.06132789 7.40565497,6.07117737 7.39296516,6.08106678 L7.43146226,6.05101765 C7.3565876,6.10857596 7.28279023,6.16754897 7.21011084,6.2279066 L7.39296516,6.08106678 C7.29482097,6.15755243 7.19862732,6.23642657 7.10447169,6.3176023 L7.21011084,6.2279066 C7.13096162,6.2936372 7.05313827,6.36100991 6.97669333,6.42998588 L7.10447169,6.3176023 C7.03138869,6.38061038 6.95953354,6.44500512 6.88894717,6.51074586 L6.97669333,6.42998588 C6.90234305,6.49707184 6.82929669,6.5656744 6.75760257,6.63575782 L6.88894717,6.51074586 C6.7759228,6.61601132 6.66615144,6.72472783 6.55980109,6.83672853 C6.53441901,6.86324155 6.50935626,6.89003913 6.48448237,6.91702812 L6.55980109,6.83672853 C6.23367216,7.18018451 5.93971337,7.5545242 5.68276833,7.95493616 L8.35399219,7.28749219 L8.83900781,9.22750781 L4.6295,10.2799811 L4.6145,10.2829811 L3.86899219,10.47 C3.63152764,10.5294 3.38200606,10.4993491 3.16701737,10.3881749 L3.06261646,10.325866 C2.82673564,10.1648847 2.67093442,9.91073538 2.63449219,9.62749219 L1.9965,4.66249219 L3.97999219,4.40749219 L4.2499245,6.50516111 C4.38425596,6.3160298 4.52533766,6.13202188 4.6728193,5.95348985 C4.78965022,5.81110894 4.91070092,5.67286042 5.03546843,5.53839804 C5.06667267,5.5057644 5.09758903,5.47292266 5.12873537,5.44030219 C5.15753715,5.40914142 5.18741821,5.37826054 5.21749878,5.34759139 C5.25854186,5.30673066 5.29902296,5.26619796 5.33986577,5.2260316 C5.37999644,5.18561814 5.42095585,5.14605979 5.46225534,5.10688237 C5.50342124,5.06872985 5.54458257,5.03035569 5.58608273,4.99234515 C5.6231499,4.95755812 5.66060642,4.92381193 5.69832191,4.89037098 C5.76944509,4.82806313 5.84132885,4.76617462 5.9141375,4.70535539 C5.93625282,4.68624219 5.95881299,4.66758674 5.98145741,4.64903674 C6.04557387,4.59707514 6.11018193,4.54549282 6.17547013,4.49474341 C6.20256631,4.47324217 6.22986032,4.45228291 6.25726665,4.43147253 C6.31781522,4.3858463 6.37882394,4.34061298 6.44038774,4.29609932 C6.46640575,4.27705282 6.49287526,4.25813845 6.5194417,4.2393597 C6.69925529,4.11232688 6.88317468,3.99150552 7.07139066,3.87704084 C7.08639607,3.86811114 7.10073834,3.85945023 7.11510427,3.8508267 C8.01176884,3.31180132 9.0054814,2.91660836 10.0637809,2.69746282 L9.69850781,2.781 C9.83785063,2.74636976 9.97788026,2.71491622 10.1184877,2.68665268 C10.2051592,2.66889012 10.2921639,2.65267302 10.3795781,2.63765035 C10.4266655,2.62984699 10.4733717,2.62216774 10.5201297,2.61483767 C10.746311,2.57919865 10.9753868,2.55177456 11.2068242,2.53264587 C11.2281371,2.53084808 11.2494879,2.52914798 11.2708449,2.5275199 C11.3558607,2.52111783 11.4412693,2.51577985 11.5269776,2.51157758 C11.573232,2.50919119 11.6192751,2.50726366 11.6653369,2.50567041 C11.7763676,2.50194717 11.8879562,2.50000781 12,2.50000781 Z" id="形状结合"></path>
                        </g>
                    </g>
                </g>
            </g>
        </g>
    </g>
</svg>