<?xml version="1.0" encoding="UTF-8"?>
<svg width="40px" height="40px" viewBox="0 0 40 40" version="1.1" xmlns="http://www.w3.org/2000/svg" xmlns:xlink="http://www.w3.org/1999/xlink">
    <title>编组 37</title>
    <g id="空间里层页面优化" stroke="none" stroke-width="1" fill="none" fill-rule="evenodd">
        <g id="工作台-记忆看板-2" transform="translate(-862, -572)">
            <g id="最近记忆活动" transform="translate(846, 384)">
                <g id="编组-15" transform="translate(16, 186)">
                    <g id="编组-37" transform="translate(0, 2)">
                        <rect id="矩形" fill="#9C6FFF" x="0" y="0" width="40" height="40" rx="12"></rect>
                        <g id="关系图" transform="translate(8, 8)" fill="#FFFFFF" fill-rule="nonzero" stroke="#FFFFFF" stroke-width="0.4">
                            <path d="M19.0625,16.125 C18.375,16.125 17.6875,16.4 17.1375,16.675 L16.0375,15.575 C16.5875,14.75 17,13.7875 17,12.6875 C17,11.175 16.3125,9.79999998 15.2125,8.97499999 L15.7625,7.87499999 L16.3125,7.87499999 C18.2375,7.87499999 19.75,6.36250001 19.75,4.4375 C19.75,2.51249998 18.2375,1 16.3125,1 C14.3875,1 12.875,2.51250001 12.875,4.4375 C12.875,5.675 13.5625,6.63749999 14.3875,7.325 L13.975,8.2875 C13.425,8.01249999 12.875,7.87499999 12.1875,7.87499999 C9.57500001,7.87499999 7.37499999,10.075 7.37499999,12.6875 C7.37499999,13.375 7.51249999,13.925 7.7875,14.475 L6.825,14.8875 C6.13750001,14.0625 5.175,13.375 3.9375,13.375 C2.01250001,13.375 0.5,14.8875 0.5,16.8125 C0.5,18.7375 2.01250001,20.25 3.9375,20.25 C5.86249999,20.25 7.37499999,18.7375 7.37499999,16.8125 L7.37499999,16.2625 L8.47499999,15.7125 C9.29999998,16.8125 10.675,17.5 12.1875,17.5 C13.2875,17.5 14.25,17.0875 15.075,16.5375 L16.175,17.6375 C15.9,18.1875 15.625,18.875 15.625,19.5625 C15.625,21.4875 17.1375,23 19.0625,23 C20.9875,23 22.5,21.4875 22.5,19.5625 C22.5,17.6375 20.9875,16.125 19.0625,16.125 L19.0625,16.125 Z M16.3125,2.375 C17.4125,2.375 18.375,3.3375 18.375,4.4375 C18.375,5.53749999 17.4125,6.49999999 16.3125,6.49999999 C15.2125,6.49999999 14.25,5.53749999 14.25,4.4375 C14.25,3.3375 15.2125,2.375 16.3125,2.375 L16.3125,2.375 Z M3.9375,18.875 C2.8375,18.875 1.875,17.9125 1.875,16.8125 C1.875,15.7125 2.8375,14.75 3.9375,14.75 C5.03749999,14.75 5.99999999,15.7125 5.99999999,16.8125 C5.99999999,17.9125 5.03749999,18.875 3.9375,18.875 L3.9375,18.875 Z M8.74999999,12.6875 C8.74999999,10.7625 10.2625,9.24999999 12.1875,9.24999999 C14.1125,9.24999999 15.625,10.7625 15.625,12.6875 C15.625,14.6125 14.1125,16.125 12.1875,16.125 C10.2625,16.125 8.74999999,14.6125 8.74999999,12.6875 Z M19.0625,21.625 C17.9625,21.625 17,20.6625 17,19.5625 C17,18.4625 17.9625,17.5 19.0625,17.5 C20.1625,17.5 21.125,18.4625 21.125,19.5625 C21.125,20.6625 20.1625,21.625 19.0625,21.625 Z" id="形状"></path>
                        </g>
                    </g>
                </g>
            </g>
        </g>
    </g>
</svg>