<?xml version="1.0" encoding="UTF-8"?>
<svg width="24px" height="24px" viewBox="0 0 24 24" version="1.1" xmlns="http://www.w3.org/2000/svg" xmlns:xlink="http://www.w3.org/1999/xlink">
    <title>10</title>
    <g id="V1.0版" stroke="none" stroke-width="1" fill="none" fill-rule="evenodd">
        <g id="红熊空间-记忆看板" transform="translate(-582, -110)" fill="#5B6167" fill-rule="nonzero" stroke="#5B6167" stroke-width="0.3">
            <g id="用户记忆" transform="translate(552, 80)">
                <g id="编组-5" transform="translate(20, 20)">
                    <g id="10" transform="translate(10, 10)">
                        <path d="M11.1221758,2 C11.3912846,2 11.6577023,2.01333333 11.9160467,2.03466667 C13.1593291,2.14666667 14.2788216,2.52 15.2718329,3.14666667 C16.3052105,3.79733333 17.2174892,4.744 17.9925224,5.968 L19.0581931,5.968 C19.3084642,5.00266667 20.2449627,4.37333333 21.2433562,4.49866667 C22.2417497,4.624 22.989872,5.464 22.989872,6.46133333 C22.989872,7.456 22.2417497,8.29866667 21.2433562,8.424 C20.2476538,8.54933333 19.3111553,7.92 19.0581931,6.95466667 L18.4123321,6.95466667 L18.4123321,12.3573333 L19.0581931,12.3573333 C19.2842445,11.4773333 20.0834975,10.8613333 20.9984672,10.8613333 C22.037227,10.8613333 22.9010662,11.648 22.9925631,12.6773333 C23.081369,13.7013333 22.3655397,14.624 21.3429264,14.8 C20.3203132,14.976 19.3299929,14.3466667 19.0662664,13.352 L18.4150232,13.352 L18.4150232,13.912 C18.4123321,13.9973333 18.3988766,14.08 18.3746569,14.1626667 C18.3450549,14.2746667 18.3046886,14.3866667 18.256249,14.4933333 C18.1701342,14.6917333 18.0495735,14.9259733 17.8945668,15.1919573 L17.7718532,15.3973333 C17.3977921,16.016 16.8541924,16.8026667 16.1545096,17.7466667 L16.1410542,17.7893333 L16.1249076,17.784 L15.8396524,18.1626667 L15.8396524,22 L8.11892211,22 L8.11892211,20.2933333 C8.11892211,19.8 7.97629447,19.4053333 7.69103919,19.1226667 C7.37767699,18.8097778 6.88570631,18.6338436 6.23024745,18.59861 L5.9768164,18.592 C5.40092366,18.592 4.97842291,18.4906667 4.69047654,18.2746667 C4.40791235,18.0666667 4.26259362,17.7413333 4.26259362,17.32 C4.26259362,16.472 4.18993426,15.8266667 4.04730661,15.4053333 C3.97464725,15.1893333 3.88584136,15.032 3.77819786,14.9253333 C3.6813187,14.824 3.54407324,14.7653333 3.4014456,14.7653333 C2.93050527,14.7653333 2.41381646,14.5173333 2.16892749,14.1786667 C2.02629985,13.9866667 1.96978701,13.7413333 2.0155355,13.5066667 C2.05590181,13.2733333 2.18597104,13.0325926 2.40262851,12.7859877 L2.54298866,12.6373333 C3.35287787,11.832254 4.04560409,10.1153076 4.60024535,7.5302621 L4.68778546,7.10666667 L4.69854981,7.07733333 C5.26906037,5.4 6.09253317,4.12266667 7.15013059,3.28266667 C8.21849235,2.42933333 9.55327179,2 11.1221758,2 Z M10.5839583,3.008 C9.47523025,3.09333333 8.54949612,3.43466667 7.77177182,4.05333333 C6.87294857,4.76533333 6.15981036,5.88 5.6538859,7.36 C5.06563862,10.2465455 4.32046312,12.1587603 3.38325119,13.1917363 L3.2480536,13.3333333 C3.0973527,13.48 3.03545769,13.5813333 3.0112379,13.6346667 C3.08927944,13.696 3.25343578,13.7733333 3.4014456,13.7733333 C3.80779982,13.7733333 4.19800752,13.936 4.4832628,14.224 C4.70393198,14.44 4.87077941,14.7253333 4.99187835,15.088 C5.15214757,15.5620741 5.23799658,16.1899588 5.25509551,17.0016205 L5.25829602,17.3146667 C5.25829602,17.3386667 5.26098711,17.464 5.28789799,17.4826667 L5.32910226,17.5053388 C5.39410919,17.5362195 5.53752312,17.585668 5.82233543,17.599166 L6.23553769,17.6083873 C7.16577253,17.6503333 7.89287076,17.9228889 8.39610413,18.424 C8.87511772,18.8986667 9.1173156,19.5253333 9.1173156,20.2906667 L9.1173156,20.936 L14.84395,20.9973333 L14.84395,17.832 L15.0430904,17.568 C15.0619281,17.544 15.0807657,17.52 15.0996033,17.4986667 C12.4731018,16.7066667 10.8073186,15.7786667 9.77394097,14.5466667 C9.2249591,13.8933333 8.82667814,13.12 8.55218721,12.1866667 C8.51989416,12.0773333 8.4902922,11.9653333 8.46069023,11.848 L8.33690021,11.8533333 C8.14388509,11.8533333 7.95699955,11.8262272 7.78003894,11.7755418 C6.93324331,11.5388326 6.31320235,10.7666947 6.31320235,9.85333333 C6.31320235,8.84908762 7.0591605,8.01915806 8.03253887,7.87737702 C8.16955531,5.9803225 9.02179653,4.35188475 10.5839583,3.008 Z M13.4069092,10.2133333 L10.3118014,10.2132323 C10.2176488,10.7256886 9.9260874,11.1696872 9.51845988,11.4655573 L9.41064415,11.536 C9.64207768,12.4746667 9.98115471,13.2426667 10.5409009,13.9093333 C11.4881638,15.04 13.1028163,15.8933333 15.7266267,16.648 L16.1309646,16.0793703 C16.4470693,15.6270476 16.7104114,15.2289524 16.9160874,14.888 L17.1217726,14.5331413 C17.2126452,14.3688533 17.2853046,14.2245333 17.3385881,14.1013333 L17.3792908,14.001 L17.4193208,13.88 L17.4166297,13.3466667 L14.4053027,13.3466667 L13.4069092,13.352 L13.4069092,10.2133333 Z M21.3779106,11.9253333 C21.0023911,11.7706381 20.5697732,11.8559552 20.2826379,12.1413333 C19.9973827,12.4266667 19.9112679,12.856 20.0673509,13.2266667 C20.2261251,13.6 20.592113,13.84 20.9984672,13.84 C21.5528313,13.8373333 21.9995518,13.392 21.9995518,12.8453333 C21.9995518,12.4426667 21.7546628,12.08 21.3779106,11.9253333 Z M17.4166297,6.95733333 L14.4053027,6.95733333 L14.4053027,9.22666667 L14.4106849,10.2133333 L14.4053027,12.36 L17.4193208,12.36 L17.4166297,6.95733333 Z M12.1636267,3.05333333 C11.036061,3.80533333 10.204515,4.67466667 9.68513508,5.64 C9.34841275,6.26766667 9.13531225,6.9525 9.05124204,7.68735417 L9.02570379,7.97866043 C9.59952599,8.18830186 10.0503501,8.64931039 10.2429136,9.22608036 L13.4069092,9.22666667 L13.4069092,5.97333333 L16.7922974,5.968 C15.5597793,4.26666667 14.0339326,3.30666667 12.1636267,3.05333333 Z M20.9984672,5.46666667 C20.4441032,5.46933333 19.9946916,5.91466667 19.9973587,6.46133333 C19.9973587,6.864 20.2422716,7.22666667 20.6190239,7.38133333 C20.9945434,7.53602853 21.4271613,7.45071146 21.7142965,7.16533333 C21.9995518,6.88 22.0856666,6.45066667 21.9295835,6.08 C21.7708094,5.70666667 21.4048215,5.46666667 20.9984672,5.46666667 Z" id="形状"></path>
                    </g>
                </g>
            </g>
        </g>
    </g>
</svg>