<?xml version="1.0" encoding="UTF-8"?>
<svg width="200px" height="200px" viewBox="0 0 200 200" version="1.1" xmlns="http://www.w3.org/2000/svg" xmlns:xlink="http://www.w3.org/1999/xlink">
    <title>常见问题</title>
    <defs>
        <polygon id="path-1" points="0 0 200 0 200 200 0 200"></polygon>
    </defs>
    <g id="V1.0版" stroke="none" stroke-width="1" fill="none" fill-rule="evenodd">
        <g id="应用管理-编排-操作状态-1" transform="translate(-980, -346)">
            <g id="常见问题" transform="translate(980, 346)">
                <mask id="mask-2" fill="white">
                    <use xlink:href="#path-1"></use>
                </mask>
                <g id="路径"></g>
                <g id="编组" mask="url(#mask-2)">
                    <g transform="translate(17.4844, 21.9453)">
                        <path d="M99.171875,0 L137.679688,0 C150.505859,0 160.998047,10.4921875 160.998047,23.3183594 C160.998047,36.1445313 150.505859,46.6367187 137.679688,46.6367187 L104.820313,46.6367187 C101.443359,50.90625 97.3554688,53.4335938 91.5449219,53.4335938 C88.1679688,53.4335938 88.6542969,51.4667969 90.0078125,50.7460938 C93.2519531,49.0214844 93.265625,46.1210938 91.53125,45.3417969 C82.4277344,42.1601562 75.8515625,33.4707031 75.8515625,23.3183594 C75.8515625,10.4921875 86.34375,0 99.1699219,0 L99.171875,0 Z" id="路径" stroke="none" fill="#D2D3D5" fill-rule="evenodd"></path>
                        <path d="M99.171875,0 L137.679688,0 C150.505859,0 160.998047,10.4921875 160.998047,23.3183594 C160.998047,36.1445313 150.505859,46.6367187 137.679688,46.6367187 L104.820313,46.6367187 C101.443359,50.90625 97.3554688,53.4335938 91.5449219,53.4335938 C88.1679688,53.4335938 88.6542969,51.4667969 90.0078125,50.7460938 C93.2519531,49.0214844 93.265625,46.1210938 91.53125,45.3417969 C82.4277344,42.1601562 75.8515625,33.4707031 75.8515625,23.3183594 C75.8515625,10.4921875 86.34375,0 99.1699219,0 L99.171875,0 Z" id="路径" stroke="#373435" stroke-width="0.4" fill="none" stroke-linecap="round"></path>
                        <path d="M96.4863281,25.5234375 C97.5449219,25.8222656 98.4199219,26.265625 99.1074219,26.8515625 C100.185547,25.8671875 100.726563,24.3867188 100.726563,22.4101563 C100.726563,21.2871094 100.535156,20.3046875 100.152344,19.4667969 C99.7695313,18.625 99.2128906,17.9746094 98.4785156,17.5097656 C97.7441406,17.046875 96.9179688,16.8125 96.0039063,16.8125 C94.6347656,16.8125 93.4960938,17.28125 92.5957031,18.21875 C91.6914063,19.1582031 91.2421875,20.5566406 91.2421875,22.4199219 C91.2421875,24.2832031 91.6894531,25.609375 92.5800781,26.578125 C93.4746094,27.5429688 94.6132813,28.0253906 96.0039063,28.0253906 C96.6582031,28.0253906 97.2773438,27.9023438 97.859375,27.65625 C97.2832031,27.2832031 96.6777344,27.0175781 96.0429688,26.859375 L96.4863281,25.5214844 L96.4863281,25.5234375 Z M100.529297,27.875 C101.386719,28.4648438 102.177734,28.8925781 102.904297,29.1640625 L102.357422,30.4472656 C101.357422,30.0878906 100.359375,29.5214844 99.3652344,28.7441406 C98.3359375,29.3164063 97.1972656,29.6015625 95.9550781,29.6015625 C94.7128906,29.6015625 93.5585938,29.296875 92.5351563,28.6914063 C91.5117188,28.0859375 90.7246094,27.2304688 90.1699219,26.1328125 C89.6152344,25.03125 89.3398438,23.7949219 89.3398438,22.4140625 C89.3398438,21.0332031 89.6191406,19.796875 90.1757813,18.6699219 C90.7304688,17.5449219 91.5234375,16.6914063 92.5507813,16.1015625 C93.578125,15.515625 94.7265625,15.2207031 95.9960938,15.2207031 C97.265625,15.2207031 98.4355469,15.5253906 99.4648438,16.1347656 C100.494141,16.7460938 101.28125,17.5996094 101.822266,18.6972656 C102.363281,19.7910156 102.632813,21.0292969 102.632813,22.40625 C102.632813,23.5527344 102.457031,24.5800781 102.107422,25.4921875 C101.761719,26.40625 101.232422,27.1992188 100.529297,27.8769531 L100.529297,27.875 Z" id="形状" stroke="none" fill="#373435" fill-rule="nonzero"></path>
                        <line x1="0" y1="165.273437" x2="167.083984" y2="165.273437" id="路径" stroke="#373435" stroke-width="0.4" fill="none" stroke-linecap="round"></line>
                        <path d="M64.2675781,150.136719 C64.4511719,150.486328 28.28125,150.136719 28.28125,150.136719 C28.28125,150.136719 31.0527344,94.3164063 31.5664062,91.6171875 L58.40625,83.0507813 C61.46875,96.8964844 63.8613281,107.716797 66.921875,121.5625 C68.1308594,126.810547 68.9414063,128.412109 67.578125,136.029297 L64.265625,150.136719 L64.2675781,150.136719 Z" id="路径" stroke="none" fill="#FBFDFF" fill-rule="evenodd"></path>
                        <path d="M64.2675781,150.136719 C64.4511719,150.486328 28.28125,150.136719 28.28125,150.136719 C28.28125,150.136719 31.0527344,94.3164063 31.5664062,91.6171875 L58.40625,83.0507813 C61.46875,96.8964844 63.8613281,107.716797 66.921875,121.5625 C68.1308594,126.810547 68.9414063,128.412109 67.578125,136.029297 L64.265625,150.136719 L64.2675781,150.136719 Z" id="路径" stroke="#373435" stroke-width="0.4" fill="none" stroke-linecap="round"></path>
                        <path d="M46.6152344,148.816406 C46.5058594,149.458984 45.8808594,165.298828 45.8808594,165.298828 C45.8808594,165.298828 81.1640625,165.345703 81.1328332,165.238281 C78.3945312,155.724609 69.6699219,158.808594 64.2851562,148.808594 L46.6132812,148.816406 L46.6152344,148.816406 Z" id="路径" stroke="none" fill="#D2D3D5" fill-rule="evenodd"></path>
                        <path d="M46.6152344,148.816406 C46.5058594,149.458984 45.8808594,165.298828 45.8808594,165.298828 C45.8808594,165.298828 81.1640625,165.345703 81.1328332,165.238281 C78.3945312,155.724609 69.6699219,158.808594 64.2851562,148.808594 L46.6132812,148.816406 L46.6152344,148.816406 Z" id="路径" stroke="#373435" stroke-width="0.4" fill="none" stroke-linecap="round"></path>
                        <path d="M28.3925781,148.792969 C28.2636719,149.435547 27.4453125,165.298828 27.4453125,165.298828 C27.4453125,165.298828 62.7148438,165.347656 62.6992239,165.238281 C61.1914063,155.458984 53.7089844,158.808594 48.6230469,148.808594 L28.3925781,148.792969 Z" id="路径" stroke="none" fill="#D2D3D5" fill-rule="evenodd"></path>
                        <path d="M28.3925781,148.792969 C28.2636719,149.435547 27.4453125,165.298828 27.4453125,165.298828 C27.4453125,165.298828 62.7148438,165.347656 62.6992239,165.238281 C61.1914063,155.458984 53.7089844,158.808594 48.6230469,148.808594 L28.3925781,148.792969 Z" id="路径" stroke="#373435" stroke-width="0.4" fill="none" stroke-linecap="round"></path>
                        <path d="M50.8007813,45.5703125 L40.5019531,45.4667969 L40.1542969,36.9140625 L39.7792969,21.578125 C39.5,16.8300781 44.4375,13.7226562 48.5019531,17.2304687 C49.6855469,18.2519531 52.7910156,23.0117187 53.8945313,24.5742187 C56.140625,27.7519531 58.5097656,31.2949219 57.1953125,33.5371094 C56.4335938,34.8339844 54.1796875,36.1269531 50.1367188,35.3066406 L50.8007813,45.5683594 L50.8007813,45.5703125 Z" id="路径" stroke="none" fill="#FBFDFF" fill-rule="evenodd"></path>
                        <path d="M50.8007813,45.5703125 L40.5019531,45.4667969 L40.1542969,36.9140625 L39.7792969,21.578125 C39.5,16.8300781 44.4375,13.7226562 48.5019531,17.2304687 C49.6855469,18.2519531 52.7910156,23.0117187 53.8945313,24.5742187 C56.140625,27.7519531 58.5097656,31.2949219 57.1953125,33.5371094 C56.4335938,34.8339844 54.1796875,36.1269531 50.1367188,35.3066406 L50.8007813,45.5683594 L50.8007813,45.5703125 Z" id="路径" stroke="#373435" stroke-width="0.4" fill="none" stroke-linecap="round"></path>
                        <path d="M52.0566406,28.8710937 C51.0371094,29.40625 48.5097656,30.890625 47,28.0761719" id="路径" stroke="#373435" stroke-width="0.4" fill="none" stroke-linecap="round"></path>
                        <path d="M48.4902344,149.302734 C48.9765625,147.740234 50.9277344,137.789063 51.7167969,134.609375 C52.9550781,129.621094 53.1074219,126.101563 52.1738281,121.041016 L50.4179688,106.847656" id="路径" stroke="#373435" stroke-width="0.4" fill="none" stroke-linecap="round"></path>
                        <path d="M50.5839844,45.6113281 C50.7519531,46.0976562 59.1601562,87.2519531 60.328133,92.4394531 C60.3457031,92.515625 31.3847656,92.5957031 31.3847656,92.5957031 C32.9589844,84.484375 35.2128906,60.9707031 37.140625,48.9238281 C37.2324219,48.3535156 37.6679687,45.6738281 40.1777344,45.6308594 C41.8886719,45.6015625 50.5839844,45.6113281 50.5839844,45.6113281 Z" id="路径" stroke="none" fill="#373435" fill-rule="evenodd"></path>
                        <path d="M50.5839844,45.6113281 C50.7519531,46.0976562 59.1601562,87.2519531 60.328133,92.4394531 C60.3457031,92.515625 31.3847656,92.5957031 31.3847656,92.5957031 C32.9589844,84.484375 35.2128906,60.9707031 37.140625,48.9238281 C37.2324219,48.3535156 37.6679687,45.6738281 40.1777344,45.6308594 C41.8886719,45.6015625 50.5839844,45.6113281 50.5839844,45.6113281 Z" id="路径" stroke="#373435" stroke-width="0.4" fill="none" stroke-linecap="round"></path>
                        <path d="M37.4550781,58.703125 L36.8535156,47.5175781 L9.51367187,67.3066406 C6.36914062,69.8398438 3.56054687,74.0292969 6.82226562,78.8125 L13.859375,87.2773438 L19.1679687,93.7597656 L37.2871094,76.3242188 L26.0019531,68.984375 L37.453125,58.7011719 L37.4550781,58.703125 Z" id="路径" stroke="none" fill="#373435" fill-rule="evenodd"></path>
                        <path d="M37.4550781,58.703125 L36.8535156,47.5175781 L9.51367187,67.3066406 C6.36914062,69.8398438 3.56054687,74.0292969 6.82226562,78.8125 L13.859375,87.2773438 L19.1679687,93.7597656 L37.2871094,76.3242188 L26.0019531,68.984375 L37.453125,58.7011719 L37.4550781,58.703125 Z" id="路径" stroke="#373435" stroke-width="0.4" fill="none" stroke-linecap="round"></path>
                        <polyline id="路径" stroke="#FBFDFF" stroke-width="0.4" fill="none" stroke-linecap="round" points="28.8886719 69.3144531 38.9902344 76.3574219 28.3125 86.7949219"></polyline>
                        <path d="M19.6445312,94.3789063 L38.9902344,76.1269531 C41.7265625,76.6542969 41.9804687,76.6660156 44.859375,77.390625 C49.2772804,78.5019531 51.5488281,83.8652344 46.0195312,87.3007813 C45.0039062,87.9316406 34.8046875,89.5429688 34.8046875,89.5429688 C34.7597656,89.5820313 30.7675781,106.208984 30.265625,109.689453 C29.4453125,115.388672 19.9960937,115.066406 21.1914062,108.142578 C22.125,102.730469 21.6289062,97.5644531 19.6445312,94.3789063 Z" id="路径" stroke="none" fill="#FBFDFF" fill-rule="evenodd"></path>
                        <path d="M19.6445312,94.3789063 L38.9902344,76.1269531 C41.7265625,76.6542969 41.9804687,76.6660156 44.859375,77.390625 C49.2772804,78.5019531 51.5488281,83.8652344 46.0195312,87.3007813 C45.0039062,87.9316406 34.8046875,89.5429688 34.8046875,89.5429688 C34.7597656,89.5820313 30.7675781,106.208984 30.265625,109.689453 C29.4453125,115.388672 19.9960937,115.066406 21.1914062,108.142578 C22.125,102.730469 21.6289062,97.5644531 19.6445312,94.3789063 Z" id="路径" stroke="#373435" stroke-width="0.4" fill="none" stroke-linecap="round"></path>
                        <path d="M51.9394531,63.6679688 L71.3417969,45.3183594 C68.3144531,41.2519531 66.6367187,39.8847656 68.1132812,36.5507813 C69.2910156,33.890625 71.5976562,32.0273438 70.5839844,29.0839844 C68.9160156,24.2363281 61.0136719,25.4648438 57.4121094,33.0058594 C56.5527344,34.8027344 55.5859375,35.2109375 52.5371094,34.5507813 C47.9570312,33.5585938 40.7890625,30.6425781 38.0585937,29.8535156 C35.3535156,29.0703125 33.4824219,29.5566406 32.4140625,30.828125 C31.5136719,31.8984375 31.1230469,33.5507813 31.8886719,35.2636719 C32.9277344,37.5957031 35.7421875,38.7246094 35.7421875,38.7246094 C35.5839844,38.7832031 34.8984375,38.5917969 34.2792969,38.6757813 C32.640625,38.8984375 31.9023437,40.171875 31.703125,41.5 C31.5664062,42.4140625 31.7597656,43.3808594 32.1503906,44.296875 C33.6191406,47.7460938 36.6035156,48.8261719 39.703125,50.0898438 C39.8066406,50.1308594 39.59375,50.28125 39.5449219,50.3769531 C39.1835937,51.0976563 39.0546875,51.8632813 39.1328125,52.6542969 C39.5058594,56.359375 44.4882812,60.6328125 51.9414062,63.6699219 L51.9394531,63.6679688 Z" id="路径" stroke="none" fill="#FBFDFF" fill-rule="evenodd"></path>
                        <path d="M51.9394531,63.6679688 L71.3417969,45.3183594 C68.3144531,41.2519531 66.6367187,39.8847656 68.1132812,36.5507813 C69.2910156,33.890625 71.5976562,32.0273438 70.5839844,29.0839844 C68.9160156,24.2363281 61.0136719,25.4648438 57.4121094,33.0058594 C56.5527344,34.8027344 55.5859375,35.2109375 52.5371094,34.5507813 C47.9570312,33.5585938 40.7890625,30.6425781 38.0585937,29.8535156 C35.3535156,29.0703125 33.4824219,29.5566406 32.4140625,30.828125 C31.5136719,31.8984375 31.1230469,33.5507813 31.8886719,35.2636719 C32.9277344,37.5957031 35.7421875,38.7246094 35.7421875,38.7246094 C35.5839844,38.7832031 34.8984375,38.5917969 34.2792969,38.6757813 C32.640625,38.8984375 31.9023437,40.171875 31.703125,41.5 C31.5664062,42.4140625 31.7597656,43.3808594 32.1503906,44.296875 C33.6191406,47.7460938 36.6035156,48.8261719 39.703125,50.0898438 C39.8066406,50.1308594 39.59375,50.28125 39.5449219,50.3769531 C39.1835937,51.0976563 39.0546875,51.8632813 39.1328125,52.6542969 C39.5058594,56.359375 44.4882812,60.6328125 51.9414062,63.6699219 L51.9394531,63.6679688 Z" id="路径" stroke="#373435" stroke-width="0.4" fill="none" stroke-linecap="round"></path>
                        <path d="M35.296875,38.515625 C36.4707031,39.2929687 44.9765625,42.6777344 47.8886719,43.2128906" id="路径" stroke="#373435" stroke-width="0.4" fill="none" stroke-linecap="round"></path>
                        <path d="M39.3808594,49.9765625 C41.6855469,50.7910156 44.2773438,51.59375 44.7246094,51.6367188" id="路径" stroke="#373435" stroke-width="0.4" fill="none" stroke-linecap="round"></path>
                        <path d="M51.9394531,63.6679687 L71.3417969,45.3183594 L85.4863281,61.5390625 C95.4433594,72.8535156 87.4316406,80.890625 75.5273438,76.1152344 L51.9414063,63.6679687 L51.9394531,63.6679687 Z" id="路径" stroke="none" fill="#373435" fill-rule="evenodd"></path>
                        <path d="M51.9394531,63.6679687 L71.3417969,45.3183594 L85.4863281,61.5390625 C95.4433594,72.8535156 87.4316406,80.890625 75.5273438,76.1152344 L51.9414063,63.6679687 L51.9394531,63.6679687 Z" id="路径" stroke="#373435" stroke-width="0.4" fill="none" stroke-linecap="round"></path>
                        <path d="M142.570313,58.0371094 L114.582031,58.0371094 C105.259766,58.0371094 97.6328125,65.6640625 97.6328125,74.9863281 C97.6328125,84.3085938 105.259766,91.9355469 114.582031,91.9355469 L138.464844,91.9355469 C140.919922,95.0390625 143.890625,96.875 148.113281,96.875 C150.568359,96.875 150.214844,95.4453125 149.230469,94.921875 C146.873047,93.6679688 146.863281,91.5605469 148.123047,90.9941406 C154.740234,88.6816406 159.519531,82.3652344 159.519531,74.9863281 C159.519531,65.6640625 151.892578,58.0371094 142.570313,58.0371094 Z" id="路径" stroke="none" fill="#FBFDFF" fill-rule="evenodd"></path>
                        <path d="M142.570313,58.0371094 L114.582031,58.0371094 C105.259766,58.0371094 97.6328125,65.6640625 97.6328125,74.9863281 C97.6328125,84.3085938 105.259766,91.9355469 114.582031,91.9355469 L138.464844,91.9355469 C140.919922,95.0390625 143.890625,96.875 148.113281,96.875 C150.568359,96.875 150.214844,95.4453125 149.230469,94.921875 C146.873047,93.6679688 146.863281,91.5605469 148.123047,90.9941406 C154.740234,88.6816406 159.519531,82.3652344 159.519531,74.9863281 C159.519531,65.6640625 151.892578,58.0371094 142.570313,58.0371094 Z" id="路径" stroke="#373435" stroke-width="0.4" fill="none" stroke-linecap="round"></path>
                        <path d="M85.5371094,103.792969 L139.652344,103.792969 C151.527344,103.792969 161.242188,113.507813 161.242188,125.382813 C161.242188,137.257812 151.527344,146.972656 139.652344,146.972656 L90.7675781,146.972656 C87.640625,150.925781 83.8554688,153.265625 78.4765625,153.265625 C75.3496094,153.265625 75.8007813,151.445312 77.0546875,150.777344 C80.0585938,149.179687 80.0703125,146.496094 78.4667969,145.775391 C70.0390625,142.830078 63.9492188,134.785156 63.9492188,125.384766 C63.9492188,113.509766 73.6640625,103.794922 85.5390625,103.794922 L85.5371094,103.792969 Z" id="路径" stroke="none" fill="#D2D3D5" fill-rule="evenodd"></path>
                        <path d="M85.5371094,103.792969 L139.652344,103.792969 C151.527344,103.792969 161.242188,113.507813 161.242188,125.382813 C161.242188,137.257812 151.527344,146.972656 139.652344,146.972656 L90.7675781,146.972656 C87.640625,150.925781 83.8554688,153.265625 78.4765625,153.265625 C75.3496094,153.265625 75.8007813,151.445312 77.0546875,150.777344 C80.0585938,149.179687 80.0703125,146.496094 78.4667969,145.775391 C70.0390625,142.830078 63.9492188,134.785156 63.9492188,125.384766 C63.9492188,113.509766 73.6640625,103.794922 85.5390625,103.794922 L85.5371094,103.792969 Z" id="路径" stroke="#373435" stroke-width="0.4" fill="none" stroke-linecap="round"></path>
                        <path d="M113.896484,75.1796875 L118.638672,75.1796875 L117.1875,71.3222656 C116.75,70.1503906 116.419922,69.1816406 116.189453,68.4160156 C115.998047,69.3222656 115.742188,70.2128906 115.421875,71.09375 L113.896484,75.1777344 L113.896484,75.1796875 Z M109.892578,80.8925781 L115.230469,66.9785156 L117.253906,66.9785156 L122.917969,80.8925781 L120.822266,80.8925781 L119.212891,76.6757813 L113.353516,76.6757813 L111.84375,80.8925781 L109.890625,80.8925781 L109.892578,80.8925781 Z" id="形状" stroke="none" fill="#373435" fill-rule="nonzero"></path>
                        <path d="M85.1503906,128.585938 C86.2089844,128.884766 87.0839844,129.328125 87.7714844,129.914062 C88.8496094,128.929688 89.390625,127.449219 89.390625,125.472656 C89.390625,124.349609 89.1992188,123.367187 88.8164063,122.529297 C88.4335938,121.6875 87.8769531,121.037109 87.1425781,120.572266 C86.4082031,120.109375 85.5820313,119.875 84.6679688,119.875 C83.2988281,119.875 82.1601563,120.34375 81.2617188,121.28125 C80.3574219,122.220703 79.9082031,123.619141 79.9082031,125.482422 C79.9082031,127.345703 80.3554688,128.671875 81.2460938,129.640625 C82.140625,130.605469 83.2792969,131.087891 84.6699219,131.087891 C85.3242188,131.087891 85.9433594,130.964844 86.5253906,130.71875 C85.9492188,130.345703 85.34375,130.080078 84.7089844,129.921875 L85.1523438,128.583984 L85.1503906,128.585938 Z M89.1914063,130.9375 C90.0488281,131.527344 90.8398438,131.955078 91.5644531,132.226562 L91.0175781,133.509766 C90.0175781,133.150391 89.0195313,132.583984 88.0253906,131.806641 C86.9960938,132.378906 85.8574219,132.664062 84.6152344,132.664062 C83.3730469,132.664062 82.21875,132.359375 81.1953125,131.753906 C80.171875,131.148438 79.3847656,130.292969 78.8300781,129.195312 C78.2753906,128.09375 78,126.857422 78,125.476562 C78,124.095703 78.2792969,122.859375 78.8359375,121.732422 C79.390625,120.609375 80.1835938,119.753906 81.2109375,119.164062 C82.2382813,118.578125 83.3867188,118.283203 84.65625,118.283203 C85.9257813,118.283203 87.0957031,118.587891 88.125,119.197266 C89.1542969,119.808594 89.9414063,120.662109 90.4824219,121.759766 C91.0234375,122.853516 91.2929688,124.091797 91.2929688,125.46875 C91.2929688,126.615234 91.1171875,127.642578 90.7675781,128.554688 C90.421875,129.46875 89.8925781,130.261719 89.1894531,130.939453 L89.1914063,130.9375 Z" id="形状" stroke="none" fill="#373435" fill-rule="nonzero"></path>
                    </g>
                </g>
            </g>
        </g>
    </g>
</svg>