<?xml version="1.0" encoding="UTF-8"?>
<svg width="44px" height="44px" viewBox="0 0 44 44" version="1.1" xmlns="http://www.w3.org/2000/svg" xmlns:xlink="http://www.w3.org/1999/xlink">
    <title>编组 8</title>
    <g id="V1.0版" stroke="none" stroke-width="1" fill="none" fill-rule="evenodd">
        <g id="应用管理-编排-操作状态-1" transform="translate(-1364, -724)">
            <g id="聊天页面" transform="translate(736, 136)">
                <g id="聊天框" transform="translate(0, 572)">
                    <g id="编组-8" transform="translate(628, 16)">
                        <rect id="矩形" fill="#155EEF" x="0" y="0" width="44" height="44" rx="8"></rect>
                        <g id="发送" transform="translate(10, 10)" fill="#FFFFFF" fill-rule="nonzero">
                            <rect id="矩形" opacity="0" x="0" y="0" width="24" height="24"></rect>
                            <path d="M9.76366406,23.9576719 C9.63667969,23.9576719 9.50969531,23.9294531 9.38271094,23.8730156 C9.02997656,23.7178125 8.80422656,23.3791875 8.80422656,22.9982344 L8.80422656,15.9717891 C8.80422656,15.6754922 8.93121094,15.4074141 9.17107031,15.2239922 C9.39682031,15.0405703 9.69311719,14.9841328 9.98941406,15.0405703 L19.7812969,17.3827266 L21.7566094,3.3298125 C21.7848281,3.1040625 21.5590781,2.94885938 21.3615469,3.06173438 L3.45679688,13.4321016 L6.71601563,14.2645313 C7.181625,14.3774063 7.52025,14.8006875 7.47792188,15.2804063 C7.42148438,15.8871094 6.85710938,16.2680625 6.29273438,16.1269688 L0.71953125,14.7019219 C0.338648438,14.6031797 0.070546875,14.2927734 0.0141328125,13.9117969 C-0.0423046875,13.5308438 0.141117188,13.1498906 0.479742188,12.9523594 L22.5608438,0.155203125 C22.87125,-0.02821875 23.2663125,-0.014109375 23.5767188,0.183421875 C23.8730156,0.380953125 24.0423281,0.747796875 23.9858906,1.10053125 L21.51675,18.6807656 C21.4744219,18.9488438 21.3333281,19.1887031 21.1075781,19.3439063 C20.8818281,19.4991094 20.61375,19.5414375 20.3456719,19.485 L10.7089922,17.1851953 L10.7089922,20.7971719 L12.6278672,19.0052813 C12.9806016,18.6807656 13.5167578,18.6102188 13.8977109,18.9065156 C14.3774297,19.2733594 14.3915391,19.9647188 13.9682578,20.3597813 L10.4126953,23.7037031 C10.2292734,23.8730156 10.0035234,23.9576719 9.76366406,23.9576719 Z M9.76366406,16.9312266 C9.53791406,16.9312266 9.31216406,16.8465703 9.12874219,16.6913672 C8.73367969,16.3386328 8.70546094,15.7319297 9.05819531,15.3368672 L14.1234609,9.66489844 C14.4761953,9.26983594 15.0828984,9.24161719 15.4779609,9.59435156 C15.8730234,9.94708594 15.9012422,10.5537891 15.5485078,10.9488516 L10.4832422,16.6208203 C10.2857109,16.8324609 10.0176328,16.9312266 9.76366406,16.9312266 L9.76366406,16.9312266 Z" id="形状"></path>
                        </g>
                    </g>
                </g>
            </g>
        </g>
    </g>
</svg>