<?xml version="1.0" encoding="UTF-8"?>
<svg width="32px" height="32px" viewBox="0 0 32 32" version="1.1" xmlns="http://www.w3.org/2000/svg" xmlns:xlink="http://www.w3.org/1999/xlink">
    <title>编组 11</title>
    <g id="V1.0版" stroke="none" stroke-width="1" fill="none" fill-rule="evenodd">
        <g id="应用管理-编排-默认状态" transform="translate(-1392, -84)">
            <g id="编组-11" transform="translate(1392, 84)">
                <rect id="矩形" stroke="#A8A9AA" x="0.5" y="0.5" width="31" height="31" rx="8"></rect>
                <g id="Clear-1" transform="translate(6, 6)" fill-rule="nonzero">
                    <rect id="矩形" fill="#000000" opacity="0" x="0" y="0" width="20" height="20"></rect>
                    <path d="M17.6035156,9.859375 L16.1132813,6.9296875 C15.8515625,6.41601562 15.3320313,6.09765625 14.7558594,6.09765625 L12.4804688,6.09765625 C12.4589844,6.09765625 12.4414063,6.08007812 12.4414063,6.05859375 L12.4414063,2.35546875 C12.4414063,1.74804687 11.9472656,1.25585937 11.3417969,1.25585937 L9.58398438,1.25585937 C8.9765625,1.25585937 8.484375,1.75 8.484375,2.35546875 L8.484375,6.05859375 C8.484375,6.08007812 8.46679688,6.09765625 8.4453125,6.09765625 L6.16796875,6.09765625 C5.59179688,6.09765625 5.07226563,6.41601562 4.81054688,6.9296875 L3.3203125,9.859375 C3.140625,10.2128906 3.15625,10.6269531 3.36328125,10.9648437 C3.56445313,11.2929687 3.90820313,11.4921875 4.2890625,11.5039062 C4.1953125,13.4765625 3.54101563,15.5253906 2.52734375,16.9628906 C2.28320313,17.3105469 2.25195313,17.7597656 2.44726563,18.1367187 C2.64257813,18.5136719 3.02734375,18.7480469 3.453125,18.7480469 L15.2011719,18.7480469 C15.8847656,18.7480469 16.4902344,18.2871094 16.6699219,17.6269531 C16.9726563,16.5234375 17.2246094,15.5195312 17.2441406,14.40625 C17.265625,13.3789062 17.0703125,12.421875 16.6582031,11.5039062 C17.0292969,11.4824219 17.3632813,11.2851562 17.5605469,10.9648437 C17.7675781,10.6269531 17.7832031,10.2128906 17.6035156,9.859375 L17.6035156,9.859375 Z M4.29492188,10.3554687 L5.78515625,7.42578125 C5.859375,7.28125 6.00585938,7.19140625 6.16796875,7.19140625 L8.44140625,7.19140625 C9.06640625,7.19140625 9.57421875,6.68359375 9.57421875,6.05859375 L9.57421875,2.35546875 C9.57421875,2.35351562 9.578125,2.34960937 9.58007813,2.34960937 L11.3378906,2.34960937 C11.3398438,2.34960937 11.34375,2.35351562 11.34375,2.35546875 L11.34375,6.05859375 C11.34375,6.68359375 11.8515625,7.19140625 12.4765625,7.19140625 L14.75,7.19140625 C14.9121094,7.19140625 15.0585938,7.28125 15.1328125,7.42578125 L16.6230469,10.3554687 C16.6269531,10.3613281 16.6328125,10.375 16.6210938,10.3945312 C16.609375,10.4140625 16.5957031,10.4140625 16.5878906,10.4140625 L4.33007813,10.4140625 C4.32226563,10.4140625 4.30859375,10.4140625 4.296875,10.3945312 C4.28515625,10.375 4.29101563,10.3613281 4.29492188,10.3554687 Z M16.1523437,14.3867187 C16.1347656,15.3730469 15.9003906,16.3066406 15.6171875,17.3378906 C15.5664062,17.5234375 15.3964844,17.6542969 15.203125,17.6542969 L12.7304687,17.6542969 C12.9511719,17.21875 13.0917969,16.7949219 13.1816406,16.4589844 C13.3203125,15.9375 13.390625,15.4140625 13.3886719,14.9355469 C13.3867187,14.6015625 13.0859375,14.3476562 12.7558594,14.4003906 C12.4902344,14.4433594 12.2949219,14.6738281 12.2949219,14.9433594 C12.296875,15.7773437 12.0195312,16.8613281 11.4609375,17.6542969 L7.93359375,17.6542969 C8.23046875,17.2304687 8.44335937,16.7988281 8.58984375,16.4453125 C8.78515625,15.9707031 8.9296875,15.4746094 9.00390625,15.0292969 C9.05859375,14.6972656 8.80078125,14.3945312 8.46484375,14.3945312 C8.19921875,14.3945312 7.97070312,14.5859375 7.92578125,14.8496094 C7.87109375,15.1738281 7.76367187,15.5859375 7.58007812,16.0292969 C7.3828125,16.5097656 7.03710937,17.1640625 6.49414062,17.65625 L3.45507812,17.65625 C3.4453125,17.65625 3.43164062,17.65625 3.41992187,17.6347656 C3.40820312,17.6132812 3.41601562,17.6035156 3.421875,17.5957031 C4.00195312,16.7734375 4.4921875,15.75 4.83789062,14.6386719 C5.15429687,13.6210937 5.33984375,12.5507812 5.38476562,11.5078125 L15.4355469,11.5078125 C15.9375,12.4140625 16.171875,13.359375 16.1523437,14.3867187 Z" id="形状" fill="#5B6167"></path>
                </g>
            </g>
        </g>
    </g>
</svg>