<?xml version="1.0" encoding="UTF-8"?>
<svg width="200px" height="200px" viewBox="0 0 200 200" version="1.1" xmlns="http://www.w3.org/2000/svg" xmlns:xlink="http://www.w3.org/1999/xlink">
    <title>分类</title>
    <defs>
        <polygon id="path-1" points="0 0 200 0 200 200 0 200"></polygon>
    </defs>
    <g id="V1.0版" stroke="none" stroke-width="1" fill="none" fill-rule="evenodd">
        <g id="应用管理-编排-默认状态" transform="translate(-980, -330)">
            <g id="分类" transform="translate(980, 330)">
                <mask id="mask-2" fill="white">
                    <use xlink:href="#path-1"></use>
                </mask>
                <g id="路径"></g>
                <g id="编组" mask="url(#mask-2)">
                    <g transform="translate(18.7578, 31.6328)" id="路径">
                        <line x1="167.083984" y1="150.638672" x2="0" y2="150.638672" stroke="#373435" stroke-width="0.4" fill="none" stroke-linecap="round"></line>
                        <path d="M88.1347656,108.53125 C90.6191406,128.699219 76.28125,147.064453 56.1132813,149.546875 C35.9433594,152.03125 17.5800781,137.693359 15.0957031,117.525391 C12.6132813,97.3554688 26.9492188,78.9921875 47.1191406,76.5097656 C67.2871094,74.0253906 85.6503906,88.3632813 88.1347656,108.53125 Z" stroke="none" fill="#373435" fill-rule="nonzero"></path>
                        <path d="M88.1347656,108.53125 C90.6191406,128.699219 76.28125,147.064453 56.1132813,149.546875 C35.9433594,152.03125 17.5800781,137.693359 15.0957031,117.525391 C12.6132813,97.3554688 26.9492188,78.9921875 47.1191406,76.5097656 C67.2871094,74.0253906 85.6503906,88.3632813 88.1347656,108.53125 Z" stroke="#373435" stroke-width="0.4" fill="none" stroke-linecap="round"></path>
                        <polygon stroke="none" fill="#D2D3D5" fill-rule="nonzero" points="87.2597656 77.6855469 160.005859 77.6855469 160.005859 150.431641 87.2597656 150.431641"></polygon>
                        <polygon stroke="#373435" stroke-width="0.4" fill="none" stroke-linecap="round" points="87.2597656 77.6855469 160.005859 77.6855469 160.005859 150.431641 87.2597656 150.431641"></polygon>
                        <polygon stroke="none" fill="#373435" fill-rule="evenodd" points="123.40625 77.15625 132.476562 66.4941406 146.082031 69.7890625 147.154297 55.8320313 160.097656 50.5 152.759766 38.578125 160.097656 26.65625 147.154297 21.3261719 146.082031 7.3671875 132.476562 10.6621094 123.40625 0 114.335938 10.6621094 100.730469 7.3671875 99.6601562 21.3261719 86.7167969 26.65625 94.0546875 38.578125 86.7167969 50.5 99.6601562 55.8320313 100.730469 69.7890625 114.335938 66.4941406"></polygon>
                        <polygon stroke="#373435" stroke-width="0.4" fill="none" stroke-linecap="round" points="123.40625 77.15625 132.476562 66.4941406 146.082031 69.7890625 147.154297 55.8320313 160.097656 50.5 152.759766 38.578125 160.097656 26.65625 147.154297 21.3261719 146.082031 7.3671875 132.476562 10.6621094 123.40625 0 114.335938 10.6621094 100.730469 7.3671875 99.6601562 21.3261719 86.7167969 26.65625 94.0546875 38.578125 86.7167969 50.5 99.6601562 55.8320313 100.730469 69.7890625 114.335938 66.4941406"></polygon>
                        <path d="M21.8027344,123.046875 C21.6835938,123.396484 37.2871094,133.470703 37.4628906,133.470703 C37.4902344,133.462891 43.1816406,130.501953 46.6972656,128.455078 C50.6386719,126.160156 52.5058594,124.615234 53.5761719,121.802734 C55.5039063,116.736328 55.671875,116.490234 55.5683594,116.490234 C55.359375,116.490234 62.8808594,135.707031 62.8808594,135.707031 L83.1367188,135.707031 L69.2148438,80.7148438 L39.5996094,78.2421875 C37.9960938,86.546875 35.9785156,96.4453125 34.375,104.748047 C33.8085938,108.234375 33.4238281,110.140625 31.0351563,112.927734 L21.8046875,123.046875 L21.8027344,123.046875 Z" stroke="none" fill="#FBFDFF" fill-rule="evenodd"></path>
                        <path d="M21.8027344,123.046875 C21.6835938,123.396484 37.2871094,133.470703 37.4628906,133.470703 C37.4902344,133.462891 43.1816406,130.501953 46.6972656,128.455078 C50.6386719,126.160156 52.5058594,124.615234 53.5761719,121.802734 C55.5039063,116.736328 55.671875,116.490234 55.5683594,116.490234 C55.359375,116.490234 62.8808594,135.707031 62.8808594,135.707031 L83.1367188,135.707031 L69.2148438,80.7148438 L39.5996094,78.2421875 C37.9960938,86.546875 35.9785156,96.4453125 34.375,104.748047 C33.8085938,108.234375 33.4238281,110.140625 31.0351563,112.927734 L21.8046875,123.046875 L21.8027344,123.046875 Z" stroke="#373435" stroke-width="0.4" fill="none" stroke-linecap="round"></path>
                        <path d="M21.8027344,123.046875 C21.2949219,123.441406 9.56054688,135.255859 9.56054688,135.255859 C9.56054688,135.255859 25.3398438,145.332031 35.0644531,150.638672 C35.0644531,150.638672 46.0332031,150.671875 46.0332031,150.638672 C45.9414063,144.558594 39.5195312,142.71875 39.1972656,141.865234 C39.1972656,141.865234 38.1914062,135.769531 38.1191406,133.605469 L21.8027344,123.044922 L21.8027344,123.046875 Z" stroke="none" fill="#D2D3D5" fill-rule="evenodd"></path>
                        <path d="M21.8027344,123.046875 C21.2949219,123.441406 9.56054688,135.255859 9.56054688,135.255859 C9.56054688,135.255859 25.3398438,145.332031 35.0644531,150.638672 C35.0644531,150.638672 46.0332031,150.671875 46.0332031,150.638672 C45.9414063,144.558594 39.5195312,142.71875 39.1972656,141.865234 C39.1972656,141.865234 38.1914062,135.769531 38.1191406,133.605469 L21.8027344,123.044922 L21.8027344,123.046875 Z" stroke="#373435" stroke-width="0.4" fill="none" stroke-linecap="round"></path>
                        <path d="M62.7167969,134.289063 C62.5859375,134.935547 62.1875,150.652344 62.1875,150.652344 C62.1875,150.652344 99.4003906,150.701172 99.3847705,150.591797 C97.9082031,140.748047 87.8945313,144.371094 82.8398438,134.304688 L62.7167969,134.289063 Z" stroke="none" fill="#D2D3D5" fill-rule="evenodd"></path>
                        <path d="M62.7167969,134.289063 C62.5859375,134.935547 62.1875,150.652344 62.1875,150.652344 C62.1875,150.652344 99.4003906,150.701172 99.3847705,150.591797 C97.9082031,140.748047 87.8945313,144.371094 82.8398438,134.304688 L62.7167969,134.289063 Z" stroke="#373435" stroke-width="0.4" fill="none" stroke-linecap="round"></path>
                        <path d="M56.8164062,36.6992188 L58.2890625,27.859375 C62.2597656,29.8671875 64.2421875,29.0976563 65.2382812,28.1230469 C66.9589844,26.4394531 65.1523438,22.4101563 63.4101562,18.7578125 C62.5527344,16.9609375 60.2070313,11.5722656 59.1777344,10.2578125 C55.6425781,5.74023438 50.0917969,7.1171875 49.5644531,11.625 L47.328125,26.0273438 L46.1777344,33.203125 L56.8144531,36.6992188 L56.8164062,36.6992188 Z" stroke="none" fill="#FBFDFF" fill-rule="evenodd"></path>
                        <path d="M56.8164062,36.6992188 L58.2890625,27.859375 C62.2597656,29.8671875 64.2421875,29.0976563 65.2382812,28.1230469 C66.9589844,26.4394531 65.1523438,22.4101563 63.4101562,18.7578125 C62.5527344,16.9609375 60.2070313,11.5722656 59.1777344,10.2578125 C55.6425781,5.74023438 50.0917969,7.1171875 49.5644531,11.625 L47.328125,26.0273438 L46.1777344,33.203125 L56.8144531,36.6992188 L56.8164062,36.6992188 Z" stroke="#373435" stroke-width="0.4" fill="none" stroke-linecap="round"></path>
                        <path d="M55.6601563,116.699219 L52.0664063,104.957031 C49.8222656,103.294922 46.796875,100.296875 46.7402344,94.9160156" stroke="#373435" stroke-width="0.4" fill="none" stroke-linecap="round"></path>
                        <line x1="58.2890625" y1="27.859375" x2="59.0292969" y2="24.0292969" stroke="#373435" stroke-width="0.4" fill="none" stroke-linecap="round"></line>
                        <path d="M46.2714844,32.3886719 C46.1328093,32.8222656 38.9941406,74.3574219 38.1328093,79.2109375 C38.1210938,79.28125 70.2597656,84.3652344 70.2597656,84.3652344 C70.2597656,84.3652344 60.2988281,49.5996094 58.03125,39.9023437 C57.8886719,39.2929688 57.3027344,36.4199219 54.7734375,35.4921875 C53.0488281,34.859375 46.2714844,32.3867188 46.2714844,32.3867188 L46.2714844,32.3886719 Z" stroke="none" fill="#373435" fill-rule="evenodd"></path>
                        <path d="M46.2714844,32.3886719 C46.1328093,32.8222656 38.9941406,74.3574219 38.1328093,79.2109375 C38.1210938,79.28125 70.2597656,84.3652344 70.2597656,84.3652344 C70.2597656,84.3652344 60.2988281,49.5996094 58.03125,39.9023437 C57.8886719,39.2929688 57.3027344,36.4199219 54.7734375,35.4921875 C53.0488281,34.859375 46.2714844,32.3867188 46.2714844,32.3867188 L46.2714844,32.3886719 Z" stroke="#373435" stroke-width="0.4" fill="none" stroke-linecap="round"></path>
                        <path d="M39.4492187,142.140625 C38.4511719,141.728516 36.3554688,141.150391 34.6328125,141.925781" stroke="#373435" stroke-width="0.4" fill="none" stroke-linecap="round"></path>
                        <polygon stroke="none" fill="#373435" fill-rule="evenodd" points="38.4414062 80.7382812 46.4101562 32.7421875 24.3554688 78.0175781"></polygon>
                        <polygon stroke="#373435" stroke-width="0.4" fill="none" stroke-linecap="round" points="38.4414062 80.7382812 46.4101562 32.7421875 24.3554688 78.0175781"></polygon>
                        <line x1="39.2304688" y1="80.1484375" x2="45.2734375" y2="42.9160156" stroke="#FEFEFE" stroke-width="0.4" fill="none" stroke-linecap="round"></line>
                        <path d="M55.15625,41.6230469 L55.6113281,36.2148438 L71.5429688,44.9199219 C74.5117188,45.9101563 75.609375,46.0585938 80.7011719,42.8476562 C83.7207031,40.9433594 91.7128906,34.4335938 92.59375,34.1289062 L107.111328,57.0078125 C106.539063,56.96875 101.650391,58.3710938 98.8789062,59.2949219 C78.3066406,66.1523438 78.2167969,64.6269531 71.6757813,58.0175781 L55.15625,41.6210938 L55.15625,41.6230469 Z" stroke="none" fill="#373435" fill-rule="evenodd"></path>
                        <path d="M55.15625,41.6230469 L55.6113281,36.2148438 L71.5429688,44.9199219 C74.5117188,45.9101563 75.609375,46.0585938 80.7011719,42.8476562 C83.7207031,40.9433594 91.7128906,34.4335938 92.59375,34.1289062 L107.111328,57.0078125 C106.539063,56.96875 101.650391,58.3710938 98.8789062,59.2949219 C78.3066406,66.1523438 78.2167969,64.6269531 71.6757813,58.0175781 L55.15625,41.6210938 L55.15625,41.6230469 Z" stroke="#373435" stroke-width="0.4" fill="none" stroke-linecap="round"></path>
                        <path d="M104.138672,57.6386719 L90.4296875,35.5273437 C93.1992188,33.4316406 94.1230469,31.5273437 96.1210938,27.8867187 C96.890625,26.484375 97.3457031,24.0859375 99.3808594,22.5996094 C101.798828,20.8359375 106.550781,21.96875 107.71875,25.203125 C107.941406,25.8183594 114.216797,22.4570312 119.806641,22.0644531 C122.621094,21.8671875 124.285156,22.7382812 124.958984,24.2070312 C125.527344,25.4472656 125.443359,27.1464844 124.234375,28.6660156 C122.589844,30.7324219 114.632812,34.4589844 114.632812,34.4589844 C117.207031,33.7871094 120.224609,33.9433594 121.136719,36.7460937 C121.822266,38.8535156 120.599609,41.4394531 119.566406,42.6171875 C119.498047,42.6933594 120.857422,43.2558594 121.460937,44.71875 C121.964844,45.9394531 121.90625,47.9160156 120.404297,49.5449219 C118.365234,51.7578125 111.826172,55.0839844 104.136719,57.640625 L104.138672,57.6386719 Z" stroke="none" fill="#FBFDFF" fill-rule="evenodd"></path>
                        <path d="M104.138672,57.6386719 L90.4296875,35.5273437 C93.1992188,33.4316406 94.1230469,31.5273437 96.1210938,27.8867187 C96.890625,26.484375 97.3457031,24.0859375 99.3808594,22.5996094 C101.798828,20.8359375 106.550781,21.96875 107.71875,25.203125 C107.941406,25.8183594 114.216797,22.4570312 119.806641,22.0644531 C122.621094,21.8671875 124.285156,22.7382812 124.958984,24.2070312 C125.527344,25.4472656 125.443359,27.1464844 124.234375,28.6660156 C122.589844,30.7324219 114.632812,34.4589844 114.632812,34.4589844 C117.207031,33.7871094 120.224609,33.9433594 121.136719,36.7460937 C121.822266,38.8535156 120.599609,41.4394531 119.566406,42.6171875 C119.498047,42.6933594 120.857422,43.2558594 121.460937,44.71875 C121.964844,45.9394531 121.90625,47.9160156 120.404297,49.5449219 C118.365234,51.7578125 111.826172,55.0839844 104.136719,57.640625 L104.138672,57.6386719 Z" stroke="#373435" stroke-width="0.4" fill="none" stroke-linecap="round"></path>
                        <path d="M119.796875,42.3847656 C119.425781,43.0214844 117.113281,44.1894531 114.943359,44.7871094" stroke="#373435" stroke-width="0.4" fill="none" stroke-linecap="round"></path>
                        <line x1="116.09375" y1="33.7910156" x2="111.978516" y2="35.734375" stroke="#373435" stroke-width="0.4" fill="none" stroke-linecap="round"></line>
                        <line x1="109.123047" y1="24.8808594" x2="104.021484" y2="27.2324219" stroke="#373435" stroke-width="0.4" fill="none" stroke-linecap="round"></line>
                        <path d="M39.0039063,80.390625 L24.3554688,78.0175781 C19.8808594,83.8164062 15.0214844,98.2949219 23.3339844,102.654297 C25.0117188,103.533203 29.2890625,102.554687 29.1640625,99.40625 C29.1445313,98.8964844 30.7871094,103.091797 34.8613281,102.246094 L39.0039063,80.3925781 L39.0039063,80.390625 Z" stroke="none" fill="#FBFDFF" fill-rule="evenodd"></path>
                        <path d="M39.0039063,80.390625 L24.3554688,78.0175781 C19.8808594,83.8164062 15.0214844,98.2949219 23.3339844,102.654297 C25.0117188,103.533203 29.2890625,102.554687 29.1640625,99.40625 C29.1445313,98.8964844 30.7871094,103.091797 34.8613281,102.246094 L39.0039063,80.3925781 L39.0039063,80.390625 Z" stroke="#373435" stroke-width="0.4" fill="none" stroke-linecap="round"></path>
                        <path d="M29.1640625,99.40625 C28.2070312,97.1621094 27.1132812,94.8984375 27.5976562,91.6601562" stroke="#373435" stroke-width="0.4" fill="none" stroke-linecap="round"></path>
                    </g>
                </g>
            </g>
        </g>
    </g>
</svg>