<?xml version="1.0" encoding="UTF-8"?>
<svg width="88px" height="88px" viewBox="0 0 88 88" version="1.1" xmlns="http://www.w3.org/2000/svg" xmlns:xlink="http://www.w3.org/1999/xlink">
    <title>编组 8</title>
    <g id="V1.0版" stroke="none" stroke-width="1" fill="none" fill-rule="evenodd">
        <g id="应用管理-编排-默认状态" transform="translate(-312, -560)">
            <g id="知识库" transform="translate(16, 454)">
                <g id="编组-8" transform="translate(296, 106)">
                    <g transform="translate(7.3333, 4.5833)">
                        <polyline id="路径-41" fill="#373435" points="15.423632 66.9630616 15.423632 72.4393154 38.3580856 72.4393154 38.3580856 75.1702037 49.3534482 75.1702037 49.3534482 72.3885187 72.2833903 72.3885187 72.2833903 26.5592147 68.6129039 26.5592147 68.6129039 66.9630616 44.7783012 66.9630616 44.7783012 69.6657594 33.8805234 69.6657594 33.8805234 66.9356353"></polyline>
                        <path d="M65.1892926,21.6062749 L68.5958452,22.8901273 L68.5958452,66.8901273 L44.7663332,66.8901273 L44.7663332,69.6215523 L33.7973668,69.6215523 L33.7973668,66.8901273 L9.92917858,66.8901273 L9.92917858,62.3455454 M9.92917858,57.2942075 L9.92917858,22.8901273 L39.3018298,22.8901273 L39.3018298,64.1951611 C39.3018298,64.9545526 39.9174382,65.5701611 40.6768298,65.5701611 C40.9666904,65.5701611 41.2491371,65.4785583 41.4838244,65.3084376 L60.5111554,51.5158591 L60.5111554,51.5158591 L60.5111554,9.11833779 C60.5111554,8.61207677 60.1007498,8.20167113 59.5944887,8.20167113 C59.3968912,8.20167113 59.2045832,8.26552114 59.0462252,8.38370535 L45.1735474,18.7370241 L45.1735474,18.7370241" id="形状" stroke="#212332" stroke-width="0.7" stroke-linecap="round" stroke-linejoin="round"></path>
                        <path d="M1.82831353,53.6302269 L0.539032051,55.7243391 C0.249483789,56.1946372 0.396010437,56.8106143 0.86630848,57.1001626 C0.874187703,57.1050136 0.882133875,57.109755 0.8901447,57.1143854 L13.2912605,64.2825256 L13.2912605,64.2825256 L17.310284,64.2825256 L15.2250267,60.4151074 L3.18907473,53.2938589 C2.71965806,53.0161216 2.11426617,53.165769 1.82831353,53.6302269 Z" id="路径-38" stroke="#212332" stroke-width="0.7" fill="#D2D3D5" stroke-linecap="round" stroke-linejoin="round"></path>
                        <line x1="15.2250267" y1="60.4151074" x2="13.0772919" y2="64.1611137" id="路径-39" stroke="#212332" stroke-width="0.7" stroke-linecap="round" stroke-linejoin="round"></line>
                        <line x1="4.82803508" y1="54.3499796" x2="2.42888847" y2="58.0318079" id="路径-40" stroke="#212332" stroke-width="0.7" stroke-linecap="round" stroke-linejoin="round"></line>
                        <line x1="60.378044" y1="0" x2="60.378044" y2="4.56741611" id="路径-42" stroke="#212332" stroke-width="0.7" stroke-linecap="round" stroke-linejoin="round"></line>
                        <line x1="62.1929916" y1="5.51414715" x2="65.2490049" y2="2.06288941" id="路径-43" stroke="#212332" stroke-width="0.7" stroke-linecap="round" stroke-linejoin="round"></line>
                        <line x1="63.1231396" y1="7.2904132" x2="67.6756393" y2="7.2904132" id="路径-44" stroke="#212332" stroke-width="0.7" stroke-linecap="round" stroke-linejoin="round"></line>
                    </g>
                </g>
            </g>
        </g>
    </g>
</svg>