<?xml version="1.0" encoding="UTF-8"?>
<svg width="16px" height="16px" viewBox="0 0 16 16" version="1.1" xmlns="http://www.w3.org/2000/svg" xmlns:xlink="http://www.w3.org/1999/xlink">
    <title>-_模型预测</title>
    <g id="V1.0版" stroke="none" stroke-width="1" fill="none" fill-rule="evenodd">
        <g id="应用管理-编排-默认状态" transform="translate(-486, -92)" fill="#5B6167" fill-rule="nonzero" stroke="#5B6167" stroke-width="0.26">
            <g id="操作" transform="translate(0, 64)">
                <g id="编组-10" transform="translate(470, 20)">
                    <g id="-_模型预测" transform="translate(16, 8)">
                        <path d="M6.34915254,12.9277726 L7.82358143,13.7464135 C7.93235077,13.8067911 8.06750184,13.8067911 8.17641857,13.7464135 L9.58540899,12.9640558 C9.76168018,12.8662611 9.98703021,12.9242293 10.0887251,13.0937401 C10.19042,13.263251 10.13014,13.4799584 9.95386883,13.5777531 L8.54487841,14.3601108 C8.379131,14.4518356 8.19123311,14.5000754 8,14.4999999 C7.81164333,14.4999999 7.62313928,14.4533701 7.45512159,14.3601108 L5.9806927,13.5414698 C5.80442152,13.4436751 5.74414149,13.2269677 5.8458364,13.0574569 C5.94753132,12.8879461 6.17288136,12.8299779 6.34915254,12.9277726 Z M10.6860743,12.8775117 L10.6359891,12.820428 L10.6080011,12.7736871 L10.5834172,12.7092656 L10.5740313,12.6598491 L10.5731519,12.5910414 L10.5783346,12.5545936 C10.7358334,11.7568097 10.7658656,10.9419894 10.6675769,10.1321772 C9.80920017,10.3865055 8.91708922,10.51607 8.01326455,10.51607 C7.71805453,10.51607 7.42181282,10.502322 7.12483419,10.4744009 C6.49708609,10.4157026 5.87812442,10.2946607 5.27775073,10.1136518 C5.24014517,10.424221 5.2210759,10.7393013 5.2210759,11.0569173 C5.2210759,11.4258797 5.2473563,11.7954799 5.2993575,12.1599778 L5.35991157,12.5225623 C5.3655697,12.5520428 5.36724803,12.5816233 5.36520823,12.6106863 L5.35406232,12.6763991 L5.32976231,12.7400742 L5.31087604,12.7732466 L5.27498071,12.8199478 L5.22409239,12.8659179 L5.1864739,12.890609 C5.17467646,12.8973696 5.16252192,12.9034733 5.15007556,12.9089032 L5.21002211,12.8761823 L5.16786446,12.900714 L5.1030547,12.9258308 L5.03022697,12.9392842 L4.9478302,12.9374367 L4.87746178,12.9213858 C4.85515609,12.9139196 4.83379249,12.9045868 4.81326455,12.8931901 L2.54487841,11.6337643 C2.20884304,11.4472457 2,11.0994367 2,10.7262577 L2,8.18161102 C2,8.04370631 2.08327192,7.91827396 2.21326455,7.86030579 C2.34340457,7.80219589 2.49668386,7.8220383 2.60619013,7.91104566 C3.23561224,8.42229567 3.93965493,8.84005815 4.69959366,9.15337266 C4.9599538,8.02311777 5.45296955,6.95364799 6.16182756,5.99526144 C6.52529178,5.50367742 6.94002668,5.05001963 7.39913278,4.64116496 C7.12853123,4.44560017 6.84351949,4.2644366 6.54561533,4.09903617 C6.13839352,3.87297449 5.70980103,3.67880238 5.27177598,3.52218911 C5.21247845,3.50139148 5.1632929,3.46927218 5.12362403,3.42623691 L5.1067092,3.40431333 C5.09365228,3.38937291 5.08658403,3.37891078 5.08002948,3.36798528 C4.98687535,3.21271071 5.0296319,3.01783421 5.17295533,2.91102982 L5.21591746,2.88326367 L7.45512159,1.63999525 C7.79115696,1.45333492 8.20869565,1.45333492 8.54487841,1.63999525 L10.7609433,2.8703661 C10.818074,2.90206207 10.8630204,2.94624927 10.8942169,2.99727235 L10.9260264,3.06510296 L10.9427184,3.13663924 L10.9436993,3.20811218 L10.9381675,3.24580712 L10.9212763,3.30282995 L10.8891036,3.36522992 L10.8705847,3.39102634 L10.825171,3.43907087 L10.7697464,3.47928624 L10.7033161,3.51028367 C9.93096981,3.78223837 9.20574738,4.16235951 8.54680271,4.64077962 C9.43854566,5.43145513 10.1552238,6.38826024 10.6604274,7.47111119 C10.9159405,8.01863819 11.1121038,8.58921142 11.246303,9.17377106 C11.5622121,9.04635816 11.8729093,8.89755214 12.1755343,8.72954487 C12.6066323,8.49016042 13.016507,8.21364233 13.3938099,7.90750237 C13.5034324,7.81862398 13.6567031,7.79894217 13.7867354,7.85704597 C13.9167326,7.91514951 13.9998526,8.04049662 13.9998526,8.1783512 L14,10.7263995 C14,11.0995784 13.791157,11.4473874 13.4551216,11.633906 L11.1245394,12.9276309 C11.0872047,12.9483809 11.0465174,12.9625664 11.0043756,12.9697179 L10.9406043,12.9752526 C10.846948,12.9752526 10.7552051,12.9409055 10.6860743,12.8775117 Z M13.2630803,8.89990609 C13.0306885,9.05824729 12.7907844,9.20613764 12.5441415,9.34310038 C12.1658024,9.55316903 11.7758447,9.73564505 11.3767006,9.89002323 L11.3958732,10.0197264 C11.4761596,10.6623171 11.4822345,11.3081645 11.4143923,11.9477861 L13.0866618,11.0200671 C13.1954311,10.9596895 13.2630803,10.8471547 13.2630803,10.7262577 L13.2630803,8.89990609 Z M2.73691968,8.90373284 L2.73691968,10.7262577 C2.73691968,10.847013 2.8045689,10.9596895 2.91333825,11.0200671 L4.526986,11.9151084 L4.50356038,11.6302406 C4.49063669,11.4392687 4.48416353,11.2479184 4.48415623,11.0564921 C4.48415623,10.6553171 4.5121246,10.2578457 4.56739824,9.86608397 L4.47870302,9.83278259 C3.86219602,9.58432733 3.27885041,9.2729433 2.73691968,8.90373284 Z M7.9743357,5.09661204 L7.94745856,5.11926061 C7.50636763,5.50601628 7.10894201,5.93737849 6.76226971,6.40628269 C6.09066842,7.3143917 5.62996075,8.33116669 5.39717817,9.40516894 C5.98114818,9.59035894 6.58349464,9.71196557 7.19616802,9.76928689 C8.33864293,9.87626646 9.47361267,9.75779581 10.5483896,9.42492445 C10.4247363,8.85171224 10.2370644,8.29442288 9.9880619,7.76095203 C9.51030029,6.73691031 8.82657296,5.83554045 7.9743357,5.09661204 Z M4.54782609,3.66335365 C4.649521,3.83286448 4.58924097,4.04957189 4.41296979,4.1473666 L2.91333825,4.98003896 C2.8045689,5.04041656 2.73691968,5.15295135 2.73691968,5.27384829 L2.73691968,6.88179176 C2.73691968,7.07752291 2.57199705,7.23612042 2.36845984,7.23612042 C2.16492262,7.23612042 2,7.07752291 2,6.88179176 L2,5.27384829 C2,4.90066934 2.20884304,4.55286032 2.54487841,4.36634172 L4.04450995,3.53366936 C4.22078113,3.43587465 4.44613117,3.49384282 4.54782609,3.66335365 Z M11.9357406,3.52275604 L13.4551216,4.36634172 C13.791157,4.55286032 14,4.90066934 14,5.27384829 L14,6.87994925 C14,7.07553867 13.83493,7.23413618 13.6315402,7.23413618 C13.4280029,7.23413618 13.2630803,7.07553867 13.2630803,6.87980752 L13.2630803,5.27384829 C13.2630803,5.15309308 13.1954311,5.04041656 13.0866618,4.98003896 L11.5672808,4.13645328 C11.3910096,4.03865857 11.3307296,3.82195116 11.4324245,3.65244033 C11.5341194,3.48292949 11.7594694,3.42496133 11.9357406,3.52275604 Z M7.82343405,2.25397596 L6.22697126,3.14036454 C6.46092608,3.24610805 6.69016246,3.36124809 6.91407517,3.48548066 C7.28623998,3.69211609 7.63991955,3.92137334 7.97355104,4.17159152 L8.04893147,4.11434317 C8.57745026,3.72472337 9.1459101,3.39349694 9.7459101,3.12534101 L8.17627119,2.25397596 C8.06750184,2.19359836 7.93235077,2.19359836 7.82343405,2.25397596 Z" id="形状"></path>
                    </g>
                </g>
            </g>
        </g>
    </g>
</svg>