<svg width="40" height="40" viewBox="0 0 40 40" fill="none" xmlns="http://www.w3.org/2000/svg">
<g id="&#229;&#183;&#165;&#228;&#189;&#156;&#230;&#181;&#129;">
<rect width="40" height="40" rx="12" fill="#4DA8FF"/>
<g id="&#231;&#188;&#150;&#231;&#187;&#132;">
<path id="&#232;&#183;&#175;&#229;&#190;&#132;" d="M16.0775 14.0165C17.6741 14.4523 18.7809 15.9033 18.7791 17.5582V22.4417C18.7792 25.4135 20.9174 27.9543 23.8457 28.4625C24.404 30.1761 26.1249 31.23 27.9052 30.9486C29.6855 30.6672 30.9975 29.134 31.0001 27.3318C31.0062 25.5679 29.7548 24.0499 28.022 23.7192C26.2892 23.3885 24.5667 24.339 23.9227 25.9811C22.3277 25.5458 21.2212 24.0971 21.2211 22.4439V17.556C21.2236 16.2334 20.795 14.946 20.0001 13.8889H23.8743C24.3803 15.3122 24.3803 10.0217 23.8743 11.445H16.1281C15.5346 9.77033 13.8259 8.76198 12.0728 9.05192C10.3198 9.34186 9.02678 10.8467 9.00421 12.6232C8.98163 14.3998 10.236 15.9369 11.9811 16.2713C13.711 16.6014 15.4311 15.6546 16.0775 14.0165Z" fill="white"/>
<path id="&#232;&#183;&#175;&#229;&#190;&#132;_2" d="M15.1116 26.1089H26.1116V28.5528H15.1116V26.1111V26.1089Z" fill="white"/>
<path id="&#232;&#183;&#175;&#229;&#190;&#132;_3" d="M12.6663 16.3319C14.6911 16.3319 16.3326 14.6906 16.3326 12.6659C16.3326 10.6413 14.6911 9 12.6663 9C10.6415 9 9 10.6413 9 12.6659C9 14.6906 10.6415 16.3319 12.6663 16.3319Z" fill="white"/>
<path id="&#232;&#183;&#175;&#229;&#190;&#132;_4" d="M12.6919 24.6668C13.1748 24.655 13.6418 24.7745 14.0494 25.001C14.4577 25.228 14.8064 25.5622 15.0517 25.9792C15.2975 26.397 15.4204 26.8651 15.4204 27.3331C15.4204 27.801 15.2975 28.2691 15.0517 28.6869C14.8064 29.1039 14.4577 29.4381 14.0494 29.6651C13.6418 29.8916 13.1748 30.0111 12.6919 29.9993C11.9698 29.9816 11.3208 29.6772 10.8523 29.1971C10.3823 28.7156 10.0938 28.0573 10.0938 27.3331C10.0938 26.6088 10.3823 25.9505 10.8523 25.469C11.3208 24.9889 11.9698 24.6845 12.6919 24.6668Z" stroke="white" stroke-width="2"/>
<path id="&#232;&#183;&#175;&#229;&#190;&#132;_5" d="M23.6672 27.3319C23.6672 29.3566 25.3087 30.9979 27.3335 30.9979C29.3584 30.9979 30.9998 29.3566 30.9998 27.3319C30.9998 25.3073 29.3584 23.666 27.3335 23.666C25.3087 23.666 23.6672 25.3073 23.6672 27.3319Z" fill="white"/>
<path id="&#232;&#183;&#175;&#229;&#190;&#132;_6" d="M27.3572 10.0008C27.8401 9.98897 28.3071 10.1085 28.7147 10.335C29.123 10.562 29.4717 10.8962 29.717 11.3132C29.9628 11.731 30.0857 12.199 30.0857 12.667C30.0857 13.135 29.9628 13.6031 29.717 14.0209C29.4717 14.4379 29.123 14.7721 28.7147 14.999C28.3071 15.2255 27.8401 15.3451 27.3572 15.3333C26.6351 15.3156 25.9861 15.0112 25.5176 14.5311C25.0476 14.0495 24.759 13.3913 24.759 12.667C24.759 11.9428 25.0476 11.2845 25.5176 10.803C25.9861 10.3228 26.6351 10.0185 27.3572 10.0008Z" stroke="white" stroke-width="2"/>
</g>
</g>
</svg>
