<?xml version="1.0" encoding="UTF-8"?>
<svg width="16px" height="16px" viewBox="0 0 16 16" version="1.1" xmlns="http://www.w3.org/2000/svg" xmlns:xlink="http://www.w3.org/1999/xlink">
    <title>设置-灰</title>
    <g id="空间里层页面优化" stroke="none" stroke-width="1" fill="none" fill-rule="evenodd">
        <g id="应用管理-Agent-配置" transform="translate(-453, -464)" fill-rule="nonzero" stroke="#171719" stroke-width="1.2">
            <g id="知识库" transform="translate(12, 444)">
                <g id="编组-6" transform="translate(433, 16)">
                    <g id="设置-灰" transform="translate(8, 4)">
                        <path d="M6.40704626,2.17229945 C6.77085398,2.53411982 7.52413623,2.996875 7.94838547,2.996875 C8.37431737,2.996875 9.12494538,2.53293041 9.49098521,2.17104209 L11.7824055,2.9756091 C11.9112835,3.04880584 12.0092289,3.15141252 12.0573077,3.27180194 C12.0959013,3.36844033 12.0987092,3.47576113 12.0556667,3.57623969 C12.0517279,3.58557608 12.0501675,3.58947824 12.0487078,3.59319545 C11.9996008,3.71825219 11.8916207,4.07432343 11.8916207,4.3234375 C11.8916207,4.86704697 12.1126649,5.36139062 12.4705795,5.71946881 C12.8278973,6.07694999 13.3212829,6.2984375 13.8659922,6.2984375 C13.9592045,6.2984375 14.0413855,6.32343804 14.1034882,6.37937564 C14.1872273,6.45480185 14.2354228,6.56839973 14.2632397,6.6984039 C14.3171595,7.02313798 14.4027152,7.52688589 14.3999263,7.94375 C14.3999263,8.39371706 14.3119275,8.8849563 14.2750465,9.09359034 C14.2420657,9.27660752 14.190505,9.42624135 14.0993862,9.52352003 C14.0554232,9.57045495 13.9989388,9.59375 13.9347108,9.59375 C13.3549253,9.59375 12.8525045,9.81114054 12.4908302,10.1535265 C12.1102194,10.513839 11.8822499,11.0147666 11.8822499,11.56875 C11.8822499,11.5980316 11.8828868,11.627165 11.8841773,11.6560395 C11.890382,11.678775 11.8967313,11.7021049 11.9032361,11.7260489 C12.0684679,12.3342638 12.1197322,12.5499451 12.0675294,12.7410815 C12.040616,12.8396231 11.9885438,12.9329581 11.9049374,12.9897907 L10.2316219,13.9181305 C10.138257,13.9639905 10.0579144,14.0015625 9.94747142,14.0015625 C9.78588004,14.0015625 9.62852501,13.9353103 9.51753557,13.8258329 C8.90832497,13.2163438 8.29065948,12.928125 7.94213833,12.928125 C7.47474112,12.928125 6.72752298,13.4758163 6.45524493,13.7141685 C6.44683595,13.7215297 6.43807459,13.7293009 6.42904168,13.7374766 C6.42402177,13.7431126 6.41889394,13.7487105 6.41365851,13.7542697 C6.30968598,13.8646713 6.18793031,13.9336257 6.05264127,13.9583953 L4.12432458,13.0272545 C4.01932714,12.9490203 3.9444256,12.8408941 3.90583497,12.7241531 C3.87013396,12.6161536 3.86373078,12.4980566 3.90930175,12.3941895 C3.91440488,12.3823402 3.91645824,12.3772306 3.91834351,12.3724296 C3.96745049,12.2473728 4.07543065,11.8913016 4.07543065,11.6421875 C4.07543065,11.098578 3.85438639,10.6042344 3.49647185,10.2461562 C3.13915405,9.88867501 2.64576844,9.6671875 2.10105906,9.6671875 C2.02273085,9.6671875 1.95345208,9.64095174 1.89973915,9.5907438 C1.81752958,9.51389875 1.76798708,9.39918785 1.73972837,9.26719436 C1.68594361,8.94322245 1.6,8.43524031 1.6,8.01875 C1.6,7.60869554 1.68505173,7.10922764 1.7210865,6.89143352 C1.75611389,6.69366604 1.80726241,6.53896591 1.90009318,6.43892463 C1.94371424,6.39191536 1.99979647,6.36875 2.0635762,6.36875 C2.64122597,6.36875 3.14311307,6.1511268 3.50454522,5.80786281 C3.88375309,5.44771663 4.11135173,4.94721386 4.11135173,4.39375 C4.11135173,4.06966957 3.96755971,3.6955889 3.91833846,3.58590987 C3.86513243,3.46716523 3.86097775,3.3349839 3.89327472,3.21673098 C3.91999005,3.11891483 3.97149499,3.02622893 4.0540254,2.96928292 L5.70077237,2.0771297 C6.07791302,2.03412735 6.27918409,2.04616174 6.40704626,2.17229945 Z M7.99836262,5.225 C7.2320918,5.225 6.53857596,5.53556011 6.0366186,6.03774698 C5.53476046,6.53983458 5.22435665,7.23351739 5.22435665,8 C5.22435665,8.76648261 5.53476046,9.46016542 6.0366186,9.96225302 C6.53857596,10.4644399 7.2320918,10.775 7.99836262,10.775 C8.76463344,10.775 9.45814929,10.4644399 9.96010665,9.96225302 C10.4619648,9.46016542 10.7723686,8.76648261 10.7723686,8 C10.7723686,7.23351739 10.4619648,6.53983458 9.96010665,6.03774698 C9.45814929,5.53556011 8.76463344,5.225 7.99836262,5.225 Z" id="形状"></path>
                    </g>
                </g>
            </g>
        </g>
    </g>
</svg>