<?xml version="1.0" encoding="UTF-8"?>
<svg width="24px" height="24px" viewBox="0 0 24 24" version="1.1" xmlns="http://www.w3.org/2000/svg" xmlns:xlink="http://www.w3.org/1999/xlink">
    <title>Token (1)</title>
    <g id="V1.0版" stroke="none" stroke-width="1" fill="none" fill-rule="evenodd">
        <g id="应用管理--API" transform="translate(-1160, -980)" stroke="#212332" stroke-width="1.5">
            <g id="4" transform="translate(220, 896)">
                <g id="Token-(1)" transform="translate(940, 84)">
                    <path d="M20.5,9.35602232 L20.5,5.49064425 C20.5,5.03218679 20.1398868,4.65873695 19.6915647,4.65236949 L18.6781739,4.65236949 L17.9494435,4.57087056 C17.1942287,4.4555054 16.4535429,4.25640625 15.7404793,3.97709261 C15.0301183,3.6871072 14.3413216,3.34468482 13.6795385,2.95253457 C13.4631967,2.83610752 13.2696276,2.71968047 13.1102179,2.61489612 C12.9508081,2.51011178 13.0077401,2.5450399 12.9735809,2.51011178 L12.9280353,2.47518365 L12.4611923,2.14918791 C12.1803635,1.9502707 11.8083352,1.9502707 11.5275064,2.14918791 L11.0720499,2.48682636 C11.0037314,2.48682636 10.6849119,2.74296588 10.3205466,2.95253457 C9.65842411,3.34068573 8.96963626,3.67921257 8.25960586,3.9654499 C7.54653946,4.24475475 6.80585464,4.44385364 6.05064172,4.55922785 L5.32191128,4.64072678 L4.2971341,4.64072678 C3.84881731,4.65341851 3.49368438,5.03210754 3.5,5.49064425 L3.5,13.2097577 C3.5,17.2264909 8.53287979,22 11.9943494,22 C15.455819,22 20.5,17.2264909 20.5,13.2097577 L20.5,9.35602232 Z" id="路径" fill-rule="nonzero"></path>
                    <rect id="矩形" x="8.5" y="11" width="7" height="5" rx="1"></rect>
                    <path d="M10.5,11 L10.5,9.5 C10.5,8.67157288 11.1715729,8 12,8 C12.8284271,8 13.5,8.67157288 13.5,9.5 L13.5,11 L13.5,11" id="路径"></path>
                </g>
            </g>
        </g>
    </g>
</svg>