<?xml version="1.0" encoding="UTF-8"?>
<svg width="88px" height="88px" viewBox="0 0 88 88" version="1.1" xmlns="http://www.w3.org/2000/svg" xmlns:xlink="http://www.w3.org/1999/xlink">
    <title>编组 4</title>
    <g id="V1.0版" stroke="none" stroke-width="1" fill="none" fill-rule="evenodd">
        <g id="应用管理-编排-默认状态" transform="translate(-312, -1001)">
            <g id="变量设置" transform="translate(16, 854)">
                <g id="编组-4" transform="translate(296, 147)">
                    <g transform="translate(6.6, 16.5)">
                        <path d="M9.59885431,14.3602629 L0.62096034,36.2897577 C0.390787927,36.8519792 0.659966871,37.4943413 1.22218834,37.7245138 C1.35446245,37.7786665 1.49602244,37.8065217 1.63895236,37.8065217 L9.64333503,37.8065217 L9.64333503,37.8065217 L9.59885431,14.3602629 Z" id="路径" fill="#373435"></path>
                        <path d="M9.59885431,14.3602629 L0.62096034,36.2897577 C0.390787927,36.8519792 0.659966871,37.4943413 1.22218834,37.7245138 C1.35446245,37.7786665 1.49602244,37.8065217 1.63895236,37.8065217 L9.64333503,37.8065217 L9.64333503,37.8065217" id="路径" stroke="#212332" stroke-width="0.7"></path>
                        <path d="M9.64333503,14.6347826 L50.6275089,14.6347826 L50.6275089,56.1 L11.843335,56.1 C10.6283086,56.1 9.64333503,55.1150264 9.64333503,53.9 L9.64333503,14.6347826 L9.64333503,14.6347826 Z" id="矩形" stroke="#212332" stroke-width="0.7" fill="#FBFDFF"></path>
                        <path d="M50.6275089,14.6347826 L67.5033452,14.6347826 L67.5033452,53.9 C67.5033452,55.1150264 66.5183717,56.1 65.3033452,56.1 L50.6275089,56.1 L50.6275089,56.1 L50.6275089,14.6347826 Z" id="矩形" stroke="#212332" stroke-width="0.7" fill="#FBFDFF"></path>
                        <path d="M50.6275089,14.6347826 L67.5033452,14.6347826 L74.8311959,34.8570079 C75.245141,35.999347 74.6546609,37.2609647 73.5123218,37.6749097 C73.2720256,37.7619849 73.0183941,37.8065217 72.7628079,37.8065217 L60.5669446,37.8065217 C59.6409255,37.8065217 58.8140403,37.2266569 58.4985566,36.3560356 L50.6275089,14.6347826 L50.6275089,14.6347826 Z" id="矩形" stroke="#212332" stroke-width="0.7" fill="#FBFDFF"></path>
                        <line x1="22.9701292" y1="48.8376809" x2="36.2297149" y2="48.8376809" id="路径-47" stroke="#212332" stroke-width="0.7"></line>
                        <line x1="50.5554849" y1="0" x2="50.5554849" y2="5.46898434" id="路径-42" stroke="#212332" stroke-width="0.7" stroke-linecap="round" stroke-linejoin="round"></line>
                        <line x1="52.7022035" y1="6.60259184" x2="56.316661" y2="2.47008584" id="路径-43" stroke="#212332" stroke-width="0.7" stroke-linecap="round" stroke-linejoin="round"></line>
                        <line x1="53.8023233" y1="8.72936151" x2="59.1867294" y2="8.72936151" id="路径-44" stroke="#212332" stroke-width="0.7" stroke-linecap="round" stroke-linejoin="round"></line>
                    </g>
                </g>
            </g>
        </g>
    </g>
</svg>