<?xml version="1.0" encoding="UTF-8"?>
<svg width="40px" height="40px" viewBox="0 0 40 40" version="1.1" xmlns="http://www.w3.org/2000/svg" xmlns:xlink="http://www.w3.org/1999/xlink">
    <title>工作流</title>
    <g id="V1.0版" stroke="none" stroke-width="1" fill="none" fill-rule="evenodd">
        <g id="应用管理-编排-操作状态-弹窗" transform="translate(-885, -1332)">
            <g id="1备份" transform="translate(665, 942)">
                <g id="编组-11" transform="translate(24, 370)">
                    <g id="工作流" transform="translate(196, 20)">
                        <g id="编组-9" transform="translate(6, 6)">
                            <rect id="矩形" stroke="#212332" stroke-width="2" stroke-linecap="round" stroke-linejoin="round" x="7.46666667" y="0" width="19.6" height="6.53333333" rx="1"></rect>
                            <path d="M21.4856759,24.7333333 L27,24.7333333 C27.5522847,24.7333333 28,24.2856181 28,23.7333333 L28,15 C28,14.4477153 27.5522847,14 27,14 L1,14 C0.44771525,14 0,13.5522847 0,13 L0,4.26666667 C0,3.71438192 0.44771525,3.26666667 1,3.26666667 L7.49613281,3.26666667 L7.49613281,3.26666667" id="路径" stroke="#212332" stroke-width="2" stroke-linecap="round" stroke-linejoin="round"></path>
                            <rect id="矩形" stroke="#212332" stroke-width="2" stroke-linecap="round" stroke-linejoin="round" x="1.86666667" y="21.4666667" width="19.6" height="6.53333333" rx="1"></rect>
                            <path d="M14.7037874,10.5071068 L17.4895738,13.2928932 C17.8800981,13.6834175 17.8800981,14.3165825 17.4895738,14.7071068 L14.7037874,17.4928932 C14.3132631,17.8834175 13.6800981,17.8834175 13.2895738,17.4928932 L10.5037874,14.7071068 C10.1132631,14.3165825 10.1132631,13.6834175 10.5037874,13.2928932 L13.2895738,10.5071068 C13.6800981,10.1165825 14.3132631,10.1165825 14.7037874,10.5071068 Z" id="多边形" fill="#212332"></path>
                        </g>
                    </g>
                </g>
            </g>
        </g>
    </g>
</svg>