<svg width="40" height="40" viewBox="0 0 40 40" fill="none" xmlns="http://www.w3.org/2000/svg">
<g id="chatflow">
<rect width="40" height="40" rx="12" fill="#02AFD5"/>
<path id="&#229;&#189;&#162;&#231;&#138;&#182;&#231;&#187;&#147;&#229;&#144;&#136;" d="M30.9686 19.3869C31.8774 20.5562 32 21.7644 32 23.1132C32 24.5259 31.2571 26.7918 30.3594 27.7706C30.1069 28.0444 29.9339 28.3232 29.988 28.6236C30.1082 29.6824 30.5401 30.2093 30.6807 30.3556L30.72 30.3941C31.0103 30.6832 30.5 31.0653 30.0818 30.9905C29.1189 30.8199 28.2898 30.4929 27.0277 30.033C26.678 29.8604 26.6238 29.9067 26.3516 29.9652C23.8998 30.8057 21.0745 30.5285 19.0516 28.869C26.2091 28.2506 29.5228 25.2865 30.9686 19.3887V19.3869ZM18.7993 8C25.4843 8 29.6005 13.1284 29.6005 17.463C29.6005 24.5582 21.8284 29.0116 15.8247 26.9519C15.4462 26.8703 15.3686 26.8043 14.8872 27.0443C13.142 27.6857 11.9917 28.1335 10.6576 28.3718C10.077 28.4745 9.5578 28.0765 9.95077 27.6822C9.95077 27.6822 10.7638 27.188 10.9604 25.429C11.0396 25.0167 10.7944 24.3911 10.4158 24.0462C8.62734 21.9138 8 19.419 8 17.4626C8 12.8849 12.0728 8 18.7993 8ZM14.2 16.5C13.482 16.5 12.9 17.082 12.9 17.8C12.9 18.518 13.482 19.1 14.2 19.1C14.918 19.1 15.5 18.518 15.5 17.8C15.5 17.082 14.918 16.5 14.2 16.5ZM18.8 16.5C18.082 16.5 17.5 17.082 17.5 17.8C17.5 18.518 18.082 19.1 18.8 19.1C19.518 19.1 20.1 18.518 20.1 17.8C20.1 17.082 19.518 16.5 18.8 16.5ZM23.4 16.5C22.682 16.5 22.1 17.082 22.1 17.8C22.1 18.518 22.682 19.1 23.4 19.1C24.118 19.1 24.7 18.518 24.7 17.8C24.7 17.082 24.118 16.5 23.4 16.5Z" fill="white"/>
</g>
</svg>
