<?xml version="1.0" encoding="UTF-8"?>
<svg width="200px" height="200px" viewBox="0 0 200 200" version="1.1" xmlns="http://www.w3.org/2000/svg" xmlns:xlink="http://www.w3.org/1999/xlink">
    <title>404</title>
    <g id="V1.0版" stroke="none" stroke-width="1" fill="none" fill-rule="evenodd">
        <g id="红熊空间-一般空状态" transform="translate(-119, -106)">
            <g id="404" transform="translate(119, 106)">
                <g id="编组" transform="translate(20, 8)">
                    <path d="M80.100062,0 L80.100062,0 C118.465873,0 149.855401,31.4054758 149.855401,69.7907779 L149.855401,183.049219 L10.3447228,183.049219 L10.3447228,69.7926492 C10.3447228,31.4073471 41.7342513,0.0018712671 80.100062,0.0018712671 L80.100062,0 Z" id="路径" fill="#D2D3D5"></path>
                    <path d="M80.100062,0 L80.100062,0 C118.465873,0 149.855401,31.4054758 149.855401,69.7907779 L149.855401,183.049219 L10.3447228,183.049219 L10.3447228,69.7926492 C10.3447228,31.4073471 41.7342513,0.0018712671 80.100062,0.0018712671 L80.100062,0 Z" id="路径" stroke="#373435" stroke-width="0.4" stroke-linecap="round"></path>
                    <polygon id="路径" fill="#FBFDFF" points="51.452418 80.1819242 65.8613394 93.561484 43.2791331 183.051091 10.3447228 183.051091 10.3447228 96.5723527"></polygon>
                    <polygon id="路径" stroke="#373435" stroke-width="0.4" stroke-linecap="round" points="51.452418 80.1819242 65.8613394 93.561484 43.2791331 183.051091 10.3447228 183.051091 10.3447228 96.5723527"></polygon>
                    <path d="M87.117491,51.6245169 C87.1380645,51.6376158 89.6442891,52.2888167 91.7296924,55.5616629 C91.8643553,55.7712448 91.3425369,56.1829236 91.1891709,56.3494663 L67.4436275,82.8391235 L68.7603306,90.0322742 L65.8613394,93.561484 L51.452418,80.1819242 L54.4019077,77.0381954 L62.3432733,78.6250299 L87.1156207,51.6245169 L87.117491,51.6245169 Z" id="路径" fill="#373435"></path>
                    <path d="M87.117491,51.6245169 C87.1380645,51.6376158 89.6442891,52.2888167 91.7296924,55.5616629 C91.8643553,55.7712448 91.3425369,56.1829236 91.1891709,56.3494663 L67.4436275,82.8391235 L68.7603306,90.0322742 L65.8613394,93.561484 L51.452418,80.1819242 L54.4019077,77.0381954 L62.3432733,78.6250299 L87.1156207,51.6245169 L87.117491,51.6245169 Z" id="路径" stroke="#373435" stroke-width="0.4" stroke-linecap="round"></path>
                    <line x1="0" y1="183.051091" x2="160" y2="183.051091" id="路径" stroke="#373435" stroke-width="0.4" stroke-linecap="round"></line>
                    <path d="M143.756298,159.576045 C143.874128,159.911002 129.884157,170.863528 129.717699,170.863528 C129.685904,170.854172 121.69965,164.935354 116.831216,161.226502 C109.591219,155.708136 108.055689,151.028097 106.639859,146.559511 C106.580009,146.368642 93.7889114,168.65169 93.7533753,168.565612 L78.4074252,160.66138 L94.9485078,112.246086 L121.454639,110.434699 L130.151613,145.416167 L143.760038,159.577916 L143.756298,159.576045 Z" id="路径" fill="#FBFDFF"></path>
                    <path d="M143.756298,159.576045 C143.874128,159.911002 129.884157,170.863528 129.717699,170.863528 C129.685904,170.854172 121.69965,164.935354 116.831216,161.226502 C109.591219,155.708136 108.055689,151.028097 106.639859,146.559511 C106.580009,146.368642 93.7889114,168.65169 93.7533753,168.565612 L78.4074252,160.66138 L94.9485078,112.246086 L121.454639,110.434699 L130.151613,145.416167 L143.760038,159.577916 L143.756298,159.576045 Z" id="路径" stroke="#373435" stroke-width="0.4" stroke-linecap="round"></path>
                    <path d="M140.124142,155.878421 C140.69833,156.218992 154.044911,168.921153 154.044911,168.921153 C154.044911,168.921153 139.136615,181.726234 137.404702,182.875192 C137.404702,182.875192 123.81676,182.996824 123.81676,182.955656 C123.792535,177.603832 128.724561,175.992671 129.594258,175.457489 C129.594258,175.457489 128.088653,171.295791 127.370451,168.984776 L140.124142,155.878421 Z" id="路径" fill="#D2D3D5"></path>
                    <path d="M140.124142,155.878421 C140.69833,156.218992 154.044911,168.921153 154.044911,168.921153 C154.044911,168.921153 139.136615,181.726234 137.404702,182.875192 C137.404702,182.875192 123.81676,182.996824 123.81676,182.955656 C123.792535,177.603832 128.724561,175.992671 129.594258,175.457489 C129.594258,175.457489 128.088653,171.295791 127.370451,168.984776 L140.124142,155.878421 Z" id="路径" stroke="#373435" stroke-width="0.4" stroke-linecap="round"></path>
                    <path d="M94.1910295,168.125864 C94.01709,168.698472 87.1511567,182.747945 87.1511567,182.747945 C87.1511567,182.747945 56.492922,166.892699 56.5545494,166.815977 C62.2722012,159.693935 69.8694285,165.872859 78.8450793,160.221632 L94.1910295,168.125864 Z" id="路径" fill="#D2D3D5"></path>
                    <path d="M94.1910295,168.125864 C94.01709,168.698472 87.1511567,182.747945 87.1511567,182.747945 C87.1511567,182.747945 56.492922,166.892699 56.5545494,166.815977 C62.2722012,159.693935 69.8694285,165.872859 78.8450793,160.221632 L94.1910295,168.125864 Z" id="路径" stroke="#373435" stroke-width="0.4" stroke-linecap="round"></path>
                    <line x1="107.674144" y1="149.575993" x2="101.692871" y2="132.163853" id="路径" stroke="#373435" stroke-width="0.4" stroke-linecap="round"></line>
                    <path d="M129.592388,175.457489 C131.694624,175.167442 132.048114,175.1637 134.079278,175.1637" id="路径" stroke="#373435" stroke-width="0.4" stroke-linecap="round"></path>
                    <path d="M108.525138,68.6324636 L118.387319,68.5332864 L118.720236,60.3390078 L119.079337,45.6476898 C119.346792,41.0986394 114.618631,38.1214535 110.726501,41.4822492 C109.593089,42.4609219 106.621156,47.0211998 105.562556,48.5182135 C103.411692,51.5627651 101.142997,54.9572436 102.401721,57.1054582 C103.131144,58.3479796 105.28949,59.5867584 109.161046,58.8008262 L108.525138,68.6324636 Z" id="路径" fill="#FBFDFF"></path>
                    <path d="M108.525138,68.6324636 L118.387319,68.5332864 L118.720236,60.3390078 L119.079337,45.6476898 C119.346792,41.0986394 114.618631,38.1214535 110.726501,41.4822492 C109.593089,42.4609219 106.621156,47.0211998 105.562556,48.5182135 C103.411692,51.5627651 101.142997,54.9572436 102.401721,57.1054582 C103.131144,58.3479796 105.28949,59.5867584 109.161046,58.8008262 L108.525138,68.6324636 Z" id="路径" stroke="#373435" stroke-width="0.4" stroke-linecap="round"></path>
                    <path d="M107.322524,52.6312586 C108.29883,53.1439858 110.71902,54.5661488 112.164775,51.8696529" id="路径" stroke="#373435" stroke-width="0.4" stroke-linecap="round"></path>
                    <path d="M119.053152,68.1646468 C119.146668,68.6287211 121.57621,107.975854 121.98581,112.934712 C121.99142,113.00582 94.7465136,113.082542 94.7465136,113.082542 C94.9559891,112.438827 103.791366,75.2080962 104.879891,71.3289595 C105.033257,70.7825495 105.828141,68.2226561 108.229628,68.1814882 C109.866155,68.1534192 119.053152,68.1627756 119.053152,68.1627756 L119.053152,68.1646468 Z" id="路径" fill="#373435"></path>
                    <path d="M119.053152,68.1646468 C119.146668,68.6287211 121.57621,107.975854 121.98581,112.934712 C121.99142,113.00582 94.7465136,113.082542 94.7465136,113.082542 C94.9559891,112.438827 103.791366,75.2080962 104.879891,71.3289595 C105.033257,70.7825495 105.828141,68.2226561 108.229628,68.1814882 C109.866155,68.1534192 119.053152,68.1627756 119.053152,68.1627756 L119.053152,68.1646468 Z" id="路径" stroke="#373435" stroke-width="0.4" stroke-linecap="round"></path>
                    <path d="M72.7478462,81.2017647 L96.336283,70.9771613 C95.0233205,67.913897 94.5613522,66.3888143 95.4404012,59.3472362 C95.7265597,57.0605478 96.0950121,51.3082727 91.3705916,50.8011594 C90.8169778,50.7412788 89.5133669,51.085592 89.5133669,51.085592 C88.817609,49.4931437 86.5414334,46.9051813 83.7228658,47.5582535 C78.2278747,48.8325864 79.7615346,55.0189954 79.6250015,55.002154 C74.5863677,52.5957045 71.2609443,58.3704348 73.3182929,62.9512967 C70.1817714,62.3188084 66.620688,65.3334197 68.8744199,73.4172936 C69.3008522,74.9479901 72.7478462,81.203636 72.7478462,81.203636 L72.7478462,81.2017647 Z" id="路径" fill="#FBFDFF"></path>
                    <path d="M72.7478462,81.2017647 L96.336283,70.9771613 C95.0233205,67.913897 94.5613522,66.3888143 95.4404012,59.3472362 C95.7265597,57.0605478 96.0950121,51.3082727 91.3705916,50.8011594 C90.8169778,50.7412788 89.5133669,51.085592 89.5133669,51.085592 C88.817609,49.4931437 86.5414334,46.9051813 83.7228658,47.5582535 C78.2278747,48.8325864 79.7615346,55.0189954 79.6250015,55.002154 C74.5863677,52.5957045 71.2609443,58.3704348 73.3182929,62.9512967 C70.1817714,62.3188084 66.620688,65.3334197 68.8744199,73.4172936 C69.3008522,74.9479901 72.7478462,81.203636 72.7478462,81.203636 L72.7478462,81.2017647 Z" id="路径" stroke="#373435" stroke-width="0.4" stroke-linecap="round"></path>
                    <path d="M149.702035,102.749405 L127.750126,110.648024 C128.462716,113.286511 127.041276,115.099768 126.497013,119.82846 C125.761979,126.201996 130.228296,129.297072 133.394742,128.005898 C135.078027,127.319143 135.255707,127.530596 136.005704,129.179182 C138.068664,133.711391 144.743825,132.292971 143.836721,126.750277 C143.470139,124.515984 143.862906,124.821001 144.457667,126.31053 C146.455165,131.308684 154.873461,129.033223 152.277462,122.556768 C149.889067,116.602396 151.013127,120.969933 152.898407,122.61852 C156.206997,125.51337 162.036775,121.203842 158.099758,115.369231 C157.370334,114.287638 149.702035,102.747534 149.702035,102.747534 L149.702035,102.749405 Z" id="路径" fill="#FBFDFF"></path>
                    <path d="M149.702035,102.749405 L127.750126,110.648024 C128.462716,113.286511 127.041276,115.099768 126.497013,119.82846 C125.761979,126.201996 130.228296,129.297072 133.394742,128.005898 C135.078027,127.319143 135.255707,127.530596 136.005704,129.179182 C138.068664,133.711391 144.743825,132.292971 143.836721,126.750277 C143.470139,124.515984 143.862906,124.821001 144.457667,126.31053 C146.455165,131.308684 154.873461,129.033223 152.277462,122.556768 C149.889067,116.602396 151.013127,120.969933 152.898407,122.61852 C156.206997,125.51337 162.036775,121.203842 158.099758,115.369231 C157.370334,114.287638 149.702035,102.747534 149.702035,102.747534 L149.702035,102.749405 Z" id="路径" stroke="#373435" stroke-width="0.4" stroke-linecap="round"></path>
                    <path d="M134.316808,122.798161 C133.5612,116.525674 140.030626,114.811593 142.162788,120.22704 C142.684606,121.553769 143.434603,123.612162 143.638468,125.02684" id="路径" stroke="#373435" stroke-width="0.4" stroke-linecap="round"></path>
                    <path d="M141.021894,118.357644 C140.52252,114.888315 146.694566,111.858734 149.363508,116.847532 C149.445802,117.000976 151.624721,120.889469 151.624721,120.889469" id="路径" stroke="#373435" stroke-width="0.4" stroke-linecap="round"></path>
                    <path d="M148.821116,116.001719 C147.988825,112.676477 151.858511,109.740459 154.976329,111.60237 C155.703882,112.036504 157.020585,113.846019 157.615346,114.603883" id="路径" stroke="#373435" stroke-width="0.4" stroke-linecap="round"></path>
                    <path d="M115.987703,75.4981426 L115.776357,70.3689995 L102.841245,85.2006626 L96.4634645,71.0688534 L72.545852,80.8986195 C72.5739067,80.8873919 86.9042748,105.505782 88.9485312,107.886034 C90.9591219,110.226989 97.2639602,111.85312 100.548237,105.460871 C103.600594,99.523341 110.167276,89.2033029 112.946567,83.5707889 C115.252668,78.8982349 115.697804,76.0651365 115.985832,75.4981426 L115.987703,75.4981426 Z" id="路径" fill="#373435"></path>
                    <path d="M115.987703,75.4981426 L115.776357,70.3689995 L102.841245,85.2006626 L96.4634645,71.0688534 L72.545852,80.8986195 C72.5739067,80.8873919 86.9042748,105.505782 88.9485312,107.886034 C90.9591219,110.226989 97.2639602,111.85312 100.548237,105.460871 C103.600594,99.523341 110.167276,89.2033029 112.946567,83.5707889 C115.252668,78.8982349 115.697804,76.0651365 115.985832,75.4981426 L115.987703,75.4981426 Z" id="路径" stroke="#373435" stroke-width="0.4" stroke-linecap="round"></path>
                    <path d="M92.5788163,110.924971 C95.2084819,111.418986 98.4516114,110.561946 100.51083,106.555563 C103.563187,100.616161 110.12987,90.2979941 112.909161,84.6654802" id="路径" stroke="#D2D3D5" stroke-width="0.4" stroke-linecap="round"></path>
                    <path d="M118.832455,68.1646468 L132.773797,79.9349169 C137.879762,83.8701916 138.001333,84.076031 141.424013,89.5382597 L149.700165,102.749405 L127.856734,111.405887 L124.581809,91.9709069 L118.318118,74.7982887 L118.832455,68.1627756 L118.832455,68.1646468 Z" id="路径" fill="#373435"></path>
                    <path d="M118.832455,68.1646468 L132.773797,79.9349169 C137.879762,83.8701916 138.001333,84.076031 141.424013,89.5382597 L149.700165,102.749405 L127.856734,111.405887 L124.581809,91.9709069 L118.318118,74.7982887 L118.832455,68.1627756 L118.832455,68.1646468 Z" id="路径" stroke="#373435" stroke-width="0.4" stroke-linecap="round"></path>
                    <line x1="89.1804505" y1="50.4587175" x2="92.1261996" y2="56.4299308" id="路径" stroke="#373435" stroke-width="0.4" stroke-linecap="round"></line>
                    <polygon id="路径" fill="#373435" points="91.3949057 54.7158501 95.6835424 49.3715113 90.6243352 45.5896805 88.2696062 48.4115513"></polygon>
                    <polygon id="路径" stroke="#373435" stroke-width="0.4" stroke-linecap="round" points="91.3949057 54.7158501 95.6835424 49.3715113 90.6243352 45.5896805 88.2696062 48.4115513"></polygon>
                </g>
            </g>
        </g>
    </g>
</svg>