<?xml version="1.0" encoding="UTF-8"?>
<svg width="200px" height="200px" viewBox="0 0 200 200" version="1.1" xmlns="http://www.w3.org/2000/svg" xmlns:xlink="http://www.w3.org/1999/xlink">
    <title>订单</title>
    <g id="V1.0版" stroke="none" stroke-width="1" fill="none" fill-rule="evenodd">
        <g id="红熊空间-一般空状态" transform="translate(-119, -486)">
            <g id="订单" transform="translate(119, 486)">
                <g id="编组" transform="translate(16, 11)">
                    <line x1="0" y1="177.892337" x2="184" y2="177.892337" id="路径" stroke="#373435" stroke-width="0.4" stroke-linecap="round"></line>
                    <path d="M120.557361,161.2045 C120.370234,161.589935 160.187501,161.2045 160.187501,161.2045 C160.187501,161.2045 154.547869,99.6640658 153.855283,96.6882477 L123.901994,87.244009 C121.172515,102.508534 119.038833,114.437646 116.309354,129.702171 C115.221004,135.488006 114.401515,137.253687 116.257733,145.651437 L120.559512,161.206653 L120.557361,161.2045 Z" id="路径" fill="#FBFDFF"></path>
                    <path d="M120.557361,161.2045 C120.370234,161.589935 160.187501,161.2045 160.187501,161.2045 C160.187501,161.2045 154.79307,100.742854 154.100484,97.7670356 L123.914652,87.3709662 C121.185173,102.635492 119.038833,114.437646 116.309354,129.702171 C115.221004,135.488006 114.401515,137.253687 116.257733,145.651437 L120.475627,159.740277 L120.557361,161.2045 Z" id="路径" stroke="#373435" stroke-width="0.4" stroke-linecap="round"></path>
                    <path d="M139.936876,159.74889 C140.087438,160.457316 141.509176,177.920329 141.509176,177.920329 C141.509176,177.920329 102.655507,177.972008 102.685602,177.853578 C105.260234,167.365003 115.012368,170.765015 120.475627,159.740277 L139.936876,159.74889 Z" id="路径" fill="#D2D3D5"></path>
                    <path d="M139.936876,159.74889 C140.087438,160.457316 141.509176,177.920329 141.509176,177.920329 C141.509176,177.920329 102.655507,177.972008 102.685602,177.853578 C105.260234,167.365003 115.012368,170.765015 120.475627,159.740277 L139.936876,159.74889 Z" id="路径" stroke="#373435" stroke-width="0.4" stroke-linecap="round"></path>
                    <path d="M160.002525,159.723051 C160.174596,160.431476 161.811423,177.920329 161.811423,177.920329 C161.811423,177.920329 122.97281,177.974161 122.985712,177.853578 C124.192364,167.072159 132.587286,170.765015 137.725762,159.740277 L160.004676,159.723051 L160.002525,159.723051 Z" id="路径" fill="#D2D3D5"></path>
                    <path d="M160.002525,159.723051 C160.174596,160.431476 161.811423,177.920329 161.811423,177.920329 C161.811423,177.920329 122.97281,177.974161 122.985712,177.853578 C124.192364,167.072159 132.587286,170.765015 137.725762,159.740277 L160.004676,159.723051 L160.002525,159.723051 Z" id="路径" stroke="#373435" stroke-width="0.4" stroke-linecap="round"></path>
                    <path d="M130.537489,45.9227726 L141.874828,45.8086494 L141.861922,36.3794835 L141.562949,19.4720135 C141.648984,14.2374161 136.069577,10.8115647 131.754892,14.6788363 C130.498773,15.8049961 127.3004,21.0525132 126.156127,22.7751285 C123.831015,26.2784976 121.385453,30.1845279 122.936245,32.656481 C123.835317,34.0862517 126.377668,35.511716 130.791294,34.6073429 L130.535338,45.9206194 L130.537489,45.9227726 Z" id="路径" fill="#FBFDFF"></path>
                    <path d="M130.537489,45.9227726 L141.874828,45.8086494 L141.861922,36.3794835 L141.562949,19.4720135 C141.648984,14.2374161 136.069577,10.8115647 131.754892,14.6788363 C130.498773,15.8049961 127.3004,21.0525132 126.156127,22.7751285 C123.831015,26.2784976 121.385453,30.1845279 122.936245,32.656481 C123.835317,34.0862517 126.377668,35.511716 130.791294,34.6073429 L130.535338,45.9206194 L130.537489,45.9227726 Z" id="路径" stroke="#373435" stroke-width="0.4" stroke-linecap="round"></path>
                    <path d="M128.382297,27.5123208 C129.528721,28.1023166 132.380801,29.7388012 133.914385,26.6359402" id="路径" stroke="#373435" stroke-width="0.4" stroke-linecap="round"></path>
                    <path d="M137.671783,159.740277 C135.674461,151.641114 134.336677,146.423025 133.658429,144.08601 C132.062469,138.58656 131.731232,134.706369 132.527061,129.127249 L133.802539,113.479441" id="路径" stroke="#373435" stroke-width="0.4" stroke-linecap="round"></path>
                    <path d="M130.535338,45.9206194 C130.374021,46.4567834 123.267482,91.875691 122.21993,97.5947741 C122.204942,97.6787516 154.100484,97.7670356 154.100484,97.7670356 C151.990461,88.8245086 148.417834,62.9013004 145.735674,49.6199359 C145.608772,48.9911813 145.004372,46.0368959 142.238328,45.9916773 C140.982208,45.9701446 137.081212,45.9464586 130.535338,45.9206194 Z" id="路径" fill="#373435"></path>
                    <path d="M130.535338,45.9206194 C130.374021,46.4567834 123.267482,91.875691 122.21993,97.5947741 C122.204942,97.6787516 154.100484,97.7670356 154.100484,97.7670356 C151.990461,88.8245086 148.417834,62.9013004 145.735674,49.6199359 C145.608772,48.9911813 145.004372,46.0368959 142.238328,45.9916773 C140.982208,45.9701446 137.081212,45.9464586 130.535338,45.9206194 Z" id="路径" stroke="#373435" stroke-width="0.4" stroke-linecap="round"></path>
                    <path d="M130.853669,57.2855743 L130.61277,46.0110567 L113.197017,53.803738 C112.026933,54.3614347 109.024291,54.2688441 107.98111,53.4032299 L87.3820401,39.2088792 L65.1784069,52.6000605 L61.7004185,54.475558 L97.5471442,69.7400835 C102.683469,72.0440815 108.308045,72.5694792 113.330372,69.4278594 L130.853669,57.2855743 Z" id="路径" fill="#373435"></path>
                    <path d="M130.853669,57.2855743 L130.56578,46.0633486 L113.197017,53.803738 C112.026933,54.3614347 109.024291,54.2688441 107.98111,53.4032299 L87.3820401,39.2088792 L65.1784069,52.6000605 L61.7004185,54.475558 L97.5471442,69.7400835 C102.683469,72.0440815 108.308045,72.5694792 113.330372,69.4278594 L130.853669,57.2855743 Z" id="路径" stroke="#373435" stroke-width="0.4" stroke-linecap="round"></path>
                    <path d="M140.562785,55.7309139 L142.67926,81.3569709 C142.756692,85.2134761 138.717322,84.3823142 137.708554,83.4736345 L122.942697,72.959221 L109.583522,97.0349241 C109.468808,97.6177423 120.391703,97.8490954 142.352207,97.7289833 L150.994599,90.3145709 L140.562785,55.7309139 Z" id="路径" fill="#373435"></path>
                    <path d="M140.562785,55.7309139 L142.67926,81.3569709 C142.756692,85.2134761 138.717322,84.3823142 137.708554,83.4736345 L122.942697,72.959221 L109.583522,97.0349241 C109.468808,97.6177423 120.391703,97.8490954 142.352207,97.7289833 L150.994599,90.3145709 L140.562785,55.7309139 Z" id="路径" stroke="#373435" stroke-width="0.4" stroke-linecap="round"></path>
                    <polygon id="路径" fill="#FBFDFF" fill-rule="nonzero" points="2.23262338 6.96367265 95.6887756 6.96367265 95.6887756 129.086336 2.23262338 129.086336"></polygon>
                    <polygon id="路径" stroke="#373435" stroke-width="0.4" stroke-linecap="round" points="2.23262338 6.96367265 95.6887756 6.96367265 95.6887756 129.086336 2.23262338 129.086336"></polygon>
                    <polygon id="路径" fill="#D2D3D5" fill-rule="nonzero" points="83.7190751 6.96367265 95.6887756 6.96367265 95.6887756 129.086336 83.7190751 129.086336"></polygon>
                    <polygon id="路径" stroke="#373435" stroke-width="0.4" stroke-linecap="round" points="83.7190751 6.96367265 95.6887756 6.96367265 95.6887756 129.086336 83.7190751 129.086336"></polygon>
                    <path d="M95.6887756,6.96367265 L2.23262338,6.96367265 L2.23262338,2.53009133 C2.23262338,1.13907942 3.37044397,0 4.75991864,0 L93.1614804,0 C94.550955,0 95.6887756,1.13907942 95.6887756,2.53009133 L95.6887756,6.96367265 Z" id="路径" fill="#FBFDFF"></path>
                    <path d="M95.6887756,6.96367265 L2.23262338,6.96367265 L2.23262338,2.53009133 C2.23262338,1.13907942 3.37044397,0 4.75991864,0 L93.1614804,0 C94.550955,0 95.6887756,1.13907942 95.6887756,2.53009133 L95.6887756,6.96367265 Z" id="路径" stroke="#373435" stroke-width="0.4" stroke-linecap="round"></path>
                    <path d="M7.14095341,2.34275691 C7.78622028,2.34275691 8.31103734,2.8681546 8.31103734,3.51413537 C8.31103734,4.16011613 7.78622028,4.68551382 7.14095341,4.68551382 C6.49568653,4.68551382 5.97086947,4.16011613 5.97086947,3.51413537 C5.97086947,2.8681546 6.49568653,2.34275691 7.14095341,2.34275691" id="路径" fill="#373435"></path>
                    <path d="M10.4167582,2.34275691 C9.77149136,2.34275691 9.2466743,2.8681546 9.2466743,3.51413537 C9.2466743,4.16011613 9.77149136,4.68551382 10.4167582,4.68551382 C11.0620251,4.68551382 11.5868422,4.16011613 11.5868422,3.51413537 C11.5868422,2.8681546 11.0620251,2.34275691 10.4167582,2.34275691" id="路径" fill="#373435"></path>
                    <path d="M13.8861431,2.34275691 C13.2408763,2.34275691 12.7160592,2.8681546 12.7160592,3.51413537 C12.7160592,4.16011613 13.2408763,4.68551382 13.8861431,4.68551382 C14.53141,4.68551382 15.0562271,4.16011613 15.0562271,3.51413537 C15.0562271,2.8681546 14.53141,2.34275691 13.8861431,2.34275691" id="路径" fill="#373435"></path>
                    <path d="M89.6791901,41.8358677 L89.6791901,41.8358677 C92.9700512,41.8358677 95.6393052,44.510228 95.6393052,47.8025767 L95.6393052,87.1923305 C95.6393052,90.4868324 92.9679003,93.1590395 89.6791901,93.1590395 L89.6791901,93.1590395 C86.3883291,93.1590395 83.7169242,90.4846791 83.7169242,87.1901772 L83.7169242,47.8025767 C83.7169242,44.5080748 86.3883291,41.8337144 89.6791901,41.8337144 L89.6791901,41.8358677 Z" id="路径" fill="#FBFDFF" fill-rule="nonzero"></path>
                    <path d="M89.6791901,41.8358677 L89.6791901,41.8358677 C92.9700512,41.8358677 95.6393052,44.510228 95.6393052,47.8025767 L95.6393052,87.1923305 C95.6393052,90.4868324 92.9679003,93.1590395 89.6791901,93.1590395 L89.6791901,93.1590395 C86.3883291,93.1590395 83.7169242,90.4846791 83.7169242,87.1901772 L83.7169242,47.8025767 C83.7169242,44.5080748 86.3883291,41.8337144 89.6791901,41.8337144 L89.6791901,41.8358677 Z" id="路径" stroke="#373435" stroke-width="0.4" stroke-linecap="round"></path>
                    <path d="M16.1789914,80.0004113 L68.3423655,80.0004113 C69.2650971,80.0004113 70.1491128,80.3664671 70.8008323,81.0210609 C71.4547027,81.6735015 71.820354,82.5584951 71.820354,83.4822476 L71.820354,83.4822476 C71.820354,84.4060001 71.4547027,85.2909938 70.8008323,85.9434343 C70.1491128,86.5980282 69.2650971,86.964084 68.3423655,86.964084 L16.1789914,86.964084 C15.2562598,86.964084 14.3722442,86.5980282 13.7205246,85.9434343 C13.0666542,85.2909938 12.701003,84.4060001 12.701003,83.4822476 L12.701003,83.4822476 C12.701003,82.5584951 13.0666542,81.6735015 13.7205246,81.0210609 C14.3722442,80.3664671 15.2562598,80.0004113 16.1789914,80.0004113 Z" id="路径" fill="#FBFDFF" fill-rule="nonzero"></path>
                    <path d="M16.1789914,80.0004113 L68.3423655,80.0004113 C69.2650971,80.0004113 70.1491128,80.3664671 70.8008323,81.0210609 C71.4547027,81.6735015 71.820354,82.5584951 71.820354,83.4822476 L71.820354,83.4822476 C71.820354,84.4060001 71.4547027,85.2909938 70.8008323,85.9434343 C70.1491128,86.5980282 69.2650971,86.964084 68.3423655,86.964084 L16.1789914,86.964084 C15.2562598,86.964084 14.3722442,86.5980282 13.7205246,85.9434343 C13.0666542,85.2909938 12.701003,84.4060001 12.701003,83.4822476 L12.701003,83.4822476 C12.701003,82.5584951 13.0666542,81.6735015 13.7205246,81.0210609 C14.3722442,80.3664671 15.2562598,80.0004113 16.1789914,80.0004113 Z" id="路径" stroke="#373435" stroke-width="0.4" stroke-linecap="round"></path>
                    <path d="M19.9236902,104.371112 L64.5976668,104.371112 C68.5832651,104.371112 71.820354,107.611782 71.820354,111.60179 L71.820354,111.60179 C71.820354,115.593951 68.5832651,118.832468 64.5976668,118.832468 L19.9236902,118.832468 C15.9380918,118.832468 12.701003,115.591798 12.701003,111.60179 L12.701003,111.60179 C12.701003,107.609629 15.9380918,104.371112 19.9236902,104.371112 Z" id="路径" fill="#D2D3D5" fill-rule="nonzero"></path>
                    <path d="M19.9236902,104.371112 L64.5976668,104.371112 C68.5832651,104.371112 71.820354,107.611782 71.820354,111.60179 L71.820354,111.60179 C71.820354,115.593951 68.5832651,118.832468 64.5976668,118.832468 L19.9236902,118.832468 C15.9380918,118.832468 12.701003,115.591798 12.701003,111.60179 L12.701003,111.60179 C12.701003,107.609629 15.9380918,104.371112 19.9236902,104.371112 Z" id="路径" stroke="#373435" stroke-width="0.4" stroke-linecap="round"></path>
                    <path d="M16.1789914,90.979931 L36.4769364,90.979931 C38.3955299,90.979931 39.9549248,92.5410512 39.9549248,94.4617674 L39.9549248,94.4617674 C39.9549248,96.3824835 38.3976808,97.9436037 36.4769364,97.9436037 L16.1789914,97.9436037 C14.2603979,97.9436037 12.701003,96.3846368 12.701003,94.4617674 L12.701003,94.4617674 C12.701003,92.5410512 14.2603979,90.979931 16.1789914,90.979931 Z" id="路径" fill="#FBFDFF" fill-rule="nonzero"></path>
                    <path d="M16.1789914,90.979931 L36.4769364,90.979931 C38.3955299,90.979931 39.9549248,92.5410512 39.9549248,94.4617674 L39.9549248,94.4617674 C39.9549248,96.3824835 38.3976808,97.9436037 36.4769364,97.9436037 L16.1789914,97.9436037 C14.2603979,97.9436037 12.701003,96.3846368 12.701003,94.4617674 L12.701003,94.4617674 C12.701003,92.5410512 14.2603979,90.979931 16.1789914,90.979931 Z" id="路径" stroke="#373435" stroke-width="0.4" stroke-linecap="round"></path>
                    <path d="M59.293573,90.979931 L68.2004068,90.979931 C70.1190003,90.979931 71.6783952,92.5410512 71.6783952,94.4617674 L71.6783952,94.4617674 C71.6783952,96.3824835 70.1211512,97.9436037 68.2004068,97.9436037 L59.293573,97.9436037 C57.3749795,97.9436037 55.8155846,96.3846368 55.8155846,94.4617674 L55.8155846,94.4617674 C55.8155846,92.5410512 57.3749795,90.979931 59.293573,90.979931 Z" id="路径" fill="#FBFDFF" fill-rule="nonzero"></path>
                    <path d="M59.293573,90.979931 L68.2004068,90.979931 C70.1190003,90.979931 71.6783952,92.5410512 71.6783952,94.4617674 L71.6783952,94.4617674 C71.6783952,96.3824835 70.1211512,97.9436037 68.2004068,97.9436037 L59.293573,97.9436037 C57.3749795,97.9436037 55.8155846,96.3846368 55.8155846,94.4617674 L55.8155846,94.4617674 C55.8155846,92.5410512 57.3749795,90.979931 59.293573,90.979931 Z" id="路径" stroke="#373435" stroke-width="0.4" stroke-linecap="round"></path>
                    <path d="M110.147055,97.2287183 L124.510696,74.0380088 C121.460735,71.727551 120.443364,69.6281135 118.243004,65.6144196 C117.395553,64.0683723 116.894396,61.4241577 114.653169,59.7855199 C111.990368,57.8411178 106.757253,59.0900139 105.471021,62.6558277 C105.22582,63.3341075 98.3150118,59.6283312 92.1591658,59.1955241 C89.0597339,58.9780439 87.227176,59.938402 86.4851191,61.5576604 C85.8592102,62.9249864 85.9516985,64.7983306 87.2830992,66.4735741 C89.0941482,68.7517329 97.8568723,72.8601706 97.8568723,72.8601706 C95.0219999,72.119446 91.6988755,72.2917075 90.69441,75.3816488 C89.9394478,77.7050263 91.2859047,80.5559548 92.4237252,81.8543761 C92.4990064,81.9383536 91.0019872,82.5584951 90.3373624,84.1712938 C89.7824328,85.517087 89.8469595,87.6961955 91.5009936,89.492022 C93.7486732,91.931676 98.271994,96.0853324 110.149206,97.2308716 L110.147055,97.2287183 Z" id="路径" fill="#FBFDFF"></path>
                    <path d="M110.147055,97.2287183 L124.510696,74.0380088 C121.460735,71.727551 120.443364,69.6281135 118.243004,65.6144196 C117.395553,64.0683723 116.894396,61.4241577 114.653169,59.7855199 C111.990368,57.8411178 106.757253,59.0900139 105.471021,62.6558277 C105.22582,63.3341075 98.3150118,59.6283312 92.1591658,59.1955241 C89.0597339,58.9780439 87.227176,59.938402 86.4851191,61.5576604 C85.8592102,62.9249864 85.9516985,64.7983306 87.2830992,66.4735741 C89.0941482,68.7517329 97.8568723,72.8601706 97.8568723,72.8601706 C95.0219999,72.119446 91.6988755,72.2917075 90.69441,75.3816488 C89.9394478,77.7050263 91.2859047,80.5559548 92.4237252,81.8543761 C92.4990064,81.9383536 91.0019872,82.5584951 90.3373624,84.1712938 C89.7824328,85.517087 89.8469595,87.6961955 91.5009936,89.492022 C93.7486732,91.931676 98.271994,96.0853324 110.149206,97.2308716 L110.147055,97.2287183 Z" id="路径" stroke="#373435" stroke-width="0.4" stroke-linecap="round"></path>
                    <path d="M91.9333224,81.2170084 C92.3419914,81.9189742 95.1209408,83.5877578 97.5105791,84.2466582" id="路径" stroke="#373435" stroke-width="0.4" stroke-linecap="round"></path>
                    <line x1="96.2437051" y1="72.1237525" x2="100.77778" y2="74.2662554" id="路径" stroke="#373435" stroke-width="0.4" stroke-linecap="round"></line>
                    <line x1="103.922381" y1="62.3005383" x2="109.540505" y2="64.8930745" id="路径" stroke="#373435" stroke-width="0.4" stroke-linecap="round"></line>
                    <path d="M125.886541,74.5257227 L138.177448,81.3225186 C139.229233,81.9125144 141.993127,81.8156173 141.993127,79.7786246 L140.84025,59.1115466" id="路径" stroke="#FBFDFF" stroke-width="0.4" stroke-linecap="round"></path>
                    <path d="M126.62287,99.1838868 L144.387067,99.2441783 C150.018096,99.6231537 155.249059,96.546132 153.642344,88.2022138" id="路径" stroke="#FEFEFE" stroke-width="0.4" stroke-linecap="round"></path>
                    <g id="锁" transform="translate(21, 21)">
                        <g id="编组-5" transform="translate(6, 4)">
                            <path d="M6.5625,21.8445574 L6.5625,10.9375 C6.5625,4.89688555 11.4593855,0 17.5,0 C23.5406145,-1.77635684e-15 28.4375,4.89688555 28.4375,10.9375 L28.4375,21.8445574 L28.4375,21.8445574" id="路径" stroke="#373435" stroke-width="0.4"></path>
                            <rect id="矩形" fill="#373435" x="0" y="14.7865312" width="35" height="26.2134688" rx="3.3"></rect>
                            <path d="M19.2495215,27.7092935 L19.2495215,32.3196897 C19.2495215,33.2842634 18.4667383,34.0670836 17.4997437,34.0670836 C16.533313,34.0670836 15.7499146,33.2842634 15.7499146,32.3196897 L15.7499146,27.7092935 C14.7050928,27.1048989 14.0000854,25.9783341 14.0000854,24.6853241 C14.0000854,22.7551014 15.5668311,21.1905362 17.4997437,21.1905362 C19.4326562,21.1905362 20.9999146,22.7551014 20.9999146,24.6853241 C20.9999146,25.9783341 20.2954712,27.1049501 19.2495728,27.7092935 L19.2495215,27.7092935 Z" id="路径" fill="#FBFDFF" fill-rule="nonzero"></path>
                        </g>
                    </g>
                </g>
            </g>
        </g>
    </g>
</svg>