<svg width="16" height="16" viewBox="0 0 16 16" fill="none" xmlns="http://www.w3.org/2000/svg">
<g id="&#229;&#175;&#188;&#229;&#135;&#186;">
<path id="Union" d="M14.1519 8.19873C14.5107 8.1989 14.8013 8.49025 14.8013 8.84912V11.021C14.8012 13.0366 13.1675 14.6702 11.1519 14.6704H4.84912C2.83337 14.6704 1.19884 13.0367 1.19873 11.021V8.84912C1.19874 8.49016 1.49016 8.19875 1.84912 8.19873C2.2081 8.19873 2.4995 8.49015 2.49951 8.84912V11.021C2.49962 12.3188 3.55134 13.3706 4.84912 13.3706H11.1519C12.4495 13.3704 13.5014 12.3187 13.5015 11.021V8.84912C13.5015 8.49016 13.7929 8.19875 14.1519 8.19873ZM8.00146 1.32959C8.1731 1.32959 8.3381 1.39859 8.45947 1.521L12.2573 5.35107C12.5097 5.60604 12.509 6.01914 12.2563 6.27393C12.0037 6.52854 11.595 6.52842 11.3423 6.27393L8.6499 3.55811V10.1118C8.64986 10.4723 8.35888 10.7651 8.00146 10.7651C7.64431 10.7648 7.35404 10.4721 7.354 10.1118V3.55908L4.66357 6.27393C4.41086 6.52882 4.00031 6.52875 3.74756 6.27393C3.49481 6.019 3.49481 5.60503 3.74756 5.3501L7.54443 1.521C7.66567 1.39873 7.83004 1.32974 8.00146 1.32959Z" fill="#171719"/>
</g>
</svg>
