<svg width="16" height="16" viewBox="0 0 16 16" fill="none" xmlns="http://www.w3.org/2000/svg">
<g id="Frame">
<path id="Union" d="M6.11035 1.03516C7.0214 1.03542 7.75977 1.77444 7.75977 2.68555V2.88477H10.0459V2.68555C10.0459 1.77428 10.785 1.03516 11.6963 1.03516H13.2959C14.2072 1.03516 14.9463 1.77428 14.9463 2.68555V4.28516C14.9463 5.19643 14.2072 5.93555 13.2959 5.93555H11.6963C10.785 5.93555 10.0459 5.19643 10.0459 4.28516V4.18555H7.75977V5.88574C7.75973 6.17095 7.68696 6.43887 7.55957 6.67285L11.1045 10.3086C11.2883 10.2379 11.4877 10.1982 11.6963 10.1982H13.2959C14.207 10.1982 14.9461 10.9375 14.9463 11.8486V13.4482C14.9463 14.3595 14.2072 15.0986 13.2959 15.0986H11.6963C10.785 15.0986 10.0459 14.3595 10.0459 13.4482V11.8486C10.0459 11.6241 10.0906 11.41 10.1719 11.2148L6.5293 7.47949C6.39545 7.51457 6.2552 7.53511 6.11035 7.53516H3.85156V10.1982H4.30859C5.21974 10.1982 5.95879 10.9375 5.95898 11.8486V13.4482C5.95898 14.3595 5.21986 15.0986 4.30859 15.0986H2.70898C1.79783 15.0985 1.05859 14.3594 1.05859 13.4482V11.8486C1.05878 10.991 1.71392 10.2858 2.55078 10.2061V7.52637C1.71392 7.44662 1.05869 6.74344 1.05859 5.88574V2.68555C1.05859 1.77436 1.79783 1.03529 2.70898 1.03516H6.11035ZM2.70898 11.499C2.51592 11.4992 2.35957 11.6556 2.35938 11.8486V13.4482C2.35938 13.6415 2.5158 13.7987 2.70898 13.7988H4.30859C4.50189 13.7988 4.65918 13.6415 4.65918 13.4482V11.8486C4.65898 11.6555 4.50177 11.499 4.30859 11.499H2.70898ZM11.6963 11.499C11.5031 11.499 11.3469 11.6555 11.3467 11.8486V13.4482C11.3467 13.6415 11.503 13.7988 11.6963 13.7988H13.2959C13.4892 13.7988 13.6465 13.6415 13.6465 13.4482V11.8486C13.6463 11.6555 13.4891 11.499 13.2959 11.499H11.6963ZM2.70898 2.33594C2.5158 2.33607 2.35938 2.49233 2.35938 2.68555V5.88574C2.35948 6.07887 2.51586 6.23522 2.70898 6.23535H6.11035C6.30336 6.23509 6.45986 6.07879 6.45996 5.88574V2.68555C6.45996 2.49241 6.30343 2.3362 6.11035 2.33594H2.70898ZM11.6963 2.33594C11.503 2.33594 11.3467 2.49225 11.3467 2.68555V4.28516C11.3467 4.47846 11.503 4.63574 11.6963 4.63574H13.2959C13.4892 4.63574 13.6465 4.47846 13.6465 4.28516V2.68555C13.6465 2.49225 13.4892 2.33594 13.2959 2.33594H11.6963Z" fill="#171719"/>
</g>
</svg>
