<svg width="16" height="16" viewBox="0 0 16 16" fill="none" xmlns="http://www.w3.org/2000/svg">
<g id="Frame">
<path id="Union" d="M2.82666 11.8745C3.10258 11.8746 3.32641 12.0986 3.32666 12.3745V13.1118C3.32659 13.3879 3.10269 13.6117 2.82666 13.6118H2.02783C1.75173 13.6118 1.5279 13.3879 1.52783 13.1118V12.3745C1.52808 12.0986 1.75184 11.8745 2.02783 11.8745H2.82666ZM13.8218 12.0933C14.1808 12.0933 14.4722 12.3847 14.4722 12.7437C14.472 13.1025 14.1806 13.394 13.8218 13.394H5.27686C4.91798 13.394 4.62665 13.1025 4.62646 12.7437C4.62646 12.3847 4.91787 12.0933 5.27686 12.0933H13.8218ZM2.82666 7.13135C3.10267 7.13143 3.32655 7.35534 3.32666 7.63135V8.36865C3.32645 8.64457 3.10261 8.86857 2.82666 8.86865H2.02783C1.75182 8.86865 1.52804 8.64462 1.52783 8.36865V7.63135C1.52794 7.3553 1.75175 7.13135 2.02783 7.13135H2.82666ZM13.8218 7.34912C14.1806 7.34913 14.472 7.64071 14.4722 7.99951C14.4722 8.35849 14.1808 8.64989 13.8218 8.6499H5.27686C4.91787 8.6499 4.62646 8.3585 4.62646 7.99951C4.62667 7.6407 4.918 7.34912 5.27686 7.34912H13.8218ZM2.82666 2.38818C3.10274 2.38825 3.32666 2.61208 3.32666 2.88818V3.62451C3.32666 3.90061 3.10274 4.12444 2.82666 4.12451H2.02783C1.75169 4.12451 1.52783 3.90065 1.52783 3.62451V2.88818C1.52783 2.61204 1.75169 2.38818 2.02783 2.38818H2.82666ZM13.8218 2.60596C14.1808 2.60597 14.4722 2.89737 14.4722 3.25635C14.4722 3.61532 14.1807 3.90673 13.8218 3.90674H5.27686C4.91787 3.90674 4.62647 3.61533 4.62646 3.25635C4.62646 2.89736 4.91787 2.60596 5.27686 2.60596H13.8218Z" fill="#171719"/>
</g>
</svg>
