<svg width="16" height="16" viewBox="0 0 16 16" fill="none" xmlns="http://www.w3.org/2000/svg">
<g id="Frame">
<path id="Union" d="M12.3501 1.00049C13.8134 1.00069 14.9994 2.18751 14.9995 3.65088V12.3501C14.9994 13.8134 13.8134 14.9993 12.3501 14.9995H3.65088C2.18739 14.9995 1.0006 13.8136 1.00049 12.3501V3.65088C1.00056 2.18739 2.18737 1.00049 3.65088 1.00049H12.3501ZM2.30127 12.3501C2.30138 13.0956 2.90536 13.6997 3.65088 13.6997H12.3501C13.0954 13.6995 13.6996 13.0955 13.6997 12.3501V10.7437H2.30127V12.3501ZM12.2446 11.3765C12.7118 11.3766 13.0903 11.755 13.0903 12.2222C13.0903 12.6894 12.7118 13.0687 12.2446 13.0688C11.7773 13.0688 11.3979 12.6895 11.3979 12.2222C11.398 11.7549 11.7773 11.3765 12.2446 11.3765ZM2.30127 9.44287H13.6997V6.55127H2.30127V9.44287ZM12.2446 7.09326C12.7118 7.09342 13.0903 7.4727 13.0903 7.93994C13.0903 8.40717 12.7118 8.78548 12.2446 8.78564C11.7773 8.78564 11.398 8.40727 11.3979 7.93994C11.3979 7.4726 11.7773 7.09326 12.2446 7.09326ZM3.65088 2.30127C2.90534 2.30127 2.30134 2.90536 2.30127 3.65088V5.25049H13.6997V3.65088C13.6996 2.90548 13.0955 2.30147 12.3501 2.30127H3.65088ZM12.2446 2.90088C12.7117 2.90104 13.0902 3.27949 13.0903 3.74658C13.0903 4.21382 12.7118 4.5931 12.2446 4.59326C11.7773 4.59326 11.3979 4.21392 11.3979 3.74658C11.3981 3.27939 11.7774 2.90088 12.2446 2.90088Z" fill="#171719"/>
</g>
</svg>
