<svg width="16" height="16" viewBox="0 0 16 16" fill="none" xmlns="http://www.w3.org/2000/svg">
<g id="Frame">
<path id="Union" d="M7.54688 5.18555C7.8005 4.93149 8.21219 4.93149 8.46582 5.18555C8.71931 5.43953 8.71921 5.85142 8.46582 6.10547L7.28027 7.29395H11.1475C13.2748 7.29408 15 9.01908 15 11.1465C14.9999 13.2738 13.2748 14.9989 11.1475 14.999H8.30371C7.94481 14.999 7.65346 14.7075 7.65332 14.3486C7.65333 13.9897 7.94473 13.6982 8.30371 13.6982H11.1475C12.5568 13.6981 13.7001 12.5558 13.7002 11.1465C13.7002 9.73705 12.5569 8.59486 11.1475 8.59473H7.2041L8.5752 9.96777C8.82837 10.2219 8.82767 10.6338 8.57422 10.8877C8.32081 11.1415 7.90993 11.1421 7.65625 10.8887L5.21387 8.44238C4.96054 8.18842 4.96063 7.77647 5.21387 7.52246L7.54688 5.18555ZM11.5527 1.00098C13.4561 1.00115 14.999 2.54483 14.999 4.44824C14.9987 4.80694 14.7074 5.09766 14.3486 5.09766C13.9901 5.0974 13.6996 4.80679 13.6992 4.44824C13.6992 3.2628 12.7381 2.30193 11.5527 2.30176H4.65039C3.35255 2.30179 2.30078 3.35352 2.30078 4.65137V11.6709C2.30098 12.7704 3.19245 13.6621 4.29199 13.6621C4.65078 13.6623 4.94141 13.9537 4.94141 14.3125C4.94102 14.671 4.65054 14.9617 4.29199 14.9619C2.47448 14.9619 1.0002 13.4884 1 11.6709V4.65137C1 2.63555 2.63458 1.00101 4.65039 1.00098H11.5527Z" fill="#171719"/>
</g>
</svg>
