<svg width="16" height="16" viewBox="0 0 16 16" fill="none" xmlns="http://www.w3.org/2000/svg">
<g id="&#232;&#174;&#190;&#231;&#189;&#174;">
<path id="Union" d="M5.67383 1.15035C5.85243 1.09122 6.05416 1.07707 6.25781 1.14449C6.44488 1.20643 6.57433 1.31896 6.65234 1.39644C7.05497 1.79634 7.53027 2.01461 8 2.01461C8.51187 2.01461 8.99606 1.81079 9.30762 1.43941L9.32617 1.41695L9.34766 1.39644C9.46535 1.27954 9.6145 1.18745 9.77832 1.13863C9.92006 1.09648 10.1267 1.07354 10.3408 1.15621C11.1789 1.45062 11.9796 1.8956 12.6836 2.54488L12.6924 2.55367L12.7012 2.56148C12.8188 2.67837 12.9112 2.82758 12.9609 2.99215C13.0033 3.13252 13.027 3.33657 12.9473 3.54879C12.8061 3.97402 12.8397 4.42063 13.0234 4.80562L13.1113 4.96773L13.1172 4.97652L13.1221 4.98531C13.3623 5.40289 13.6902 5.66997 14.0898 5.79391L14.2656 5.83785L14.3047 5.84566L14.3428 5.85836C14.6244 5.95159 14.975 6.2054 15.0107 6.66695C15.1029 7.10314 15.1504 7.57359 15.1504 7.99996C15.1504 8.45409 15.0991 8.90126 15.002 9.38375L14.9941 9.42379L14.9805 9.46187C14.8789 9.76468 14.668 9.98706 14.4277 10.1064L14.3691 10.1357L14.3057 10.1523C13.764 10.2958 13.3445 10.606 13.1309 11L13.127 11.0068L13.1221 11.0146C12.8597 11.471 12.8182 11.9621 12.9609 12.4941H12.958C13.0467 12.8046 12.9986 13.2712 12.6084 13.5156C11.9259 14.085 11.1611 14.5092 10.3672 14.8339L10.3467 14.8427L10.3262 14.8496C10.1476 14.9087 9.94585 14.9229 9.74219 14.8554C9.5551 14.7935 9.42566 14.681 9.34766 14.6035C8.94504 14.2036 8.46972 13.9853 8 13.9853C7.48815 13.9853 7.00394 14.1892 6.69238 14.5605L6.67383 14.583L6.65234 14.6035C6.49315 14.7616 6.24125 14.8828 5.96875 14.8828H5.76758L5.66309 14.8457C4.82348 14.5513 4.02157 14.1054 3.31641 13.455L3.30762 13.4462L3.29883 13.4384C3.18116 13.3215 3.08877 13.1724 3.03906 13.0078C2.99665 12.8673 2.97173 12.6626 3.05176 12.4502C3.21293 11.9641 3.14759 11.4501 2.88867 11.0322L2.88281 11.0234L2.87793 11.0146C2.6034 10.5374 2.21417 10.2574 1.73438 10.1621L1.69531 10.1543L1.65723 10.1416C1.37543 10.0483 1.02451 9.7942 0.989258 9.33199C0.897241 8.89606 0.849609 8.42602 0.849609 7.99996C0.849615 7.54583 0.9009 7.09866 0.998047 6.61617L1.00586 6.57613L1.01953 6.53805C1.12116 6.23526 1.33201 6.01284 1.57227 5.89351L1.63086 5.86422L1.69434 5.84762C2.23604 5.70412 2.6555 5.39393 2.86914 4.99996L2.87305 4.99312L2.87793 4.98531C3.14032 4.52893 3.1818 4.03786 3.03906 3.50582L3.04102 3.50484C2.9528 3.19442 3.0011 2.72747 3.39062 2.48336C4.07319 1.91389 4.8389 1.4907 5.63281 1.16598L5.65332 1.15719L5.67383 1.15035ZM10.1279 2.46383C9.54733 3.03899 8.76276 3.31441 8 3.31441C7.19287 3.31441 6.46721 2.97116 5.89746 2.46578C5.33311 2.71426 4.80994 3.01435 4.34277 3.38375C4.49806 4.13098 4.42393 4.90512 4.00488 5.63375L4.00391 5.63277C3.62192 6.32779 2.96647 6.7958 2.24316 7.03609C2.18103 7.38322 2.1504 7.69415 2.15039 7.99996C2.15039 8.30505 2.18119 8.63917 2.23828 8.94918C2.99498 9.16734 3.60091 9.66397 4.00488 10.3662H4.00391C4.41498 11.0402 4.54335 11.8518 4.35059 12.6318C4.81091 13.0236 5.32251 13.3188 5.87109 13.5351C6.45169 12.96 7.23725 12.6855 8 12.6855C8.80662 12.6855 9.53197 13.0283 10.1016 13.5332C10.666 13.2847 11.189 12.9847 11.6562 12.6152C11.5119 11.9195 11.567 11.2005 11.9141 10.5166L11.9951 10.3662C12.377 9.67155 13.0329 9.20316 13.7559 8.96285C13.8179 8.61604 13.8496 8.30554 13.8496 7.99996C13.8496 7.6945 13.818 7.36008 13.7607 7.04976C13.0046 6.83142 12.3989 6.33562 11.9951 5.63375V5.63277C11.5845 4.95873 11.4555 4.14692 11.6484 3.36715C11.1881 2.9755 10.6765 2.67998 10.1279 2.46383ZM8 4.84957C9.71529 4.84957 11.1503 6.25839 11.1504 7.99996C11.1504 9.73414 9.7666 11.1504 8 11.1504C6.28469 11.1504 4.84961 9.74157 4.84961 7.99996C4.84965 6.26582 6.23343 4.84957 8 4.84957ZM8 6.15035C6.95961 6.15035 6.15043 6.97556 6.15039 7.99996C6.15039 9.01697 6.99601 9.84957 8 9.84957C9.04042 9.84957 9.84961 9.0244 9.84961 7.99996C9.84957 6.98298 9.00396 6.15035 8 6.15035Z" fill="#171719"/>
</g>
</svg>
