<?xml version="1.0" encoding="UTF-8"?>
<svg width="16px" height="16px" viewBox="0 0 16 16" version="1.1" xmlns="http://www.w3.org/2000/svg" xmlns:xlink="http://www.w3.org/1999/xlink">
    <title>clear-outlined</title>
    <g id="空间里层页面优化" stroke="none" stroke-width="1" fill="none" fill-rule="evenodd">
        <g id="应用管理-工作流-配置-开始" transform="translate(-1249, -24)" fill="#171719" fill-rule="nonzero">
            <g id="编组-11" transform="translate(1242, 17)">
                <g id="clear-outlined" transform="translate(7, 7)">
                    <path d="M14.4933021,14.4598985 L13.6042691,9.03045685 L13.9045274,9.03045685 C14.146076,9.03045685 14.3406568,8.82436548 14.3406568,8.56852792 L14.3406568,5.15736041 C14.3406568,4.90152284 14.146076,4.69543147 13.9045274,4.69543147 L9.77807205,4.69543147 L9.77807205,1.46192893 C9.77807205,1.20609137 9.58349122,1 9.34194262,1 L6.65806921,1 C6.4165206,1 6.22193978,1.20609137 6.22193978,1.46192893 L6.22193978,4.69543147 L2.09548441,4.69543147 C1.85393581,4.69543147 1.65935498,4.90152284 1.65935498,5.15736041 L1.65935498,8.56852792 C1.65935498,8.82436548 1.85393581,9.03045685 2.09548441,9.03045685 L2.39574275,9.03045685 L1.50670968,14.4598985 C1.50167742,14.4865482 1.5,14.513198 1.5,14.5380711 C1.5,14.7939086 1.69458082,15 1.93612943,15 L14.0638824,15 C14.0890437,15 14.114205,14.9982234 14.1376889,14.9928934 C14.3758827,14.9502538 14.5352377,14.7104061 14.4933021,14.4598985 Z M2.8335496,5.93908629 L7.3961344,5.93908629 L7.3961344,2.24365482 L8.60387743,2.24365482 L8.60387743,5.93908629 L13.1664622,5.93908629 L13.1664622,7.78680203 L2.8335496,7.78680203 L2.8335496,5.93908629 Z M10.6838793,13.7563452 L10.6838793,10.9847716 C10.6838793,10.906599 10.6234922,10.8426396 10.5496857,10.8426396 L9.74452363,10.8426396 C9.67071711,10.8426396 9.61032996,10.906599 9.61032996,10.9847716 L9.61032996,13.7563452 L6.38968187,13.7563452 L6.38968187,10.9847716 C6.38968187,10.906599 6.32929472,10.8426396 6.2554882,10.8426396 L5.45032617,10.8426396 C5.37651966,10.8426396 5.3161325,10.906599 5.3161325,10.9847716 L5.3161325,13.7563452 L2.81342055,13.7563452 L3.56993737,9.13705584 L12.428397,9.13705584 L13.1849139,13.7563452 L10.6838793,13.7563452 Z" id="形状"></path>
                </g>
            </g>
        </g>
    </g>
</svg>