<?xml version="1.0" encoding="UTF-8"?>
<svg width="24px" height="24px" viewBox="0 0 24 24" version="1.1" xmlns="http://www.w3.org/2000/svg" xmlns:xlink="http://www.w3.org/1999/xlink">
    <title>编组 13</title>
    <g id="空间里层页面优化" stroke="none" stroke-width="1" fill="none" fill-rule="evenodd">
        <g id="应用管理-工作流-配置-知识检索" transform="translate(-30, -440)">
            <g id="节点名称" transform="translate(10, 74)">
                <g id="节点" transform="translate(0, 42)">
                    <g id="外部交互备份" transform="translate(12, 199)">
                        <g id="3" transform="translate(0, 117)">
                            <g id="编组-13" transform="translate(8, 8)">
                                <rect id="矩形" fill="#02AFD5" x="0" y="0" width="24" height="24" rx="8"></rect>
                                <g id="代码" transform="translate(6, 6)">
                                    <rect id="矩形" stroke="#FFFFFF" stroke-width="1.2" x="0" y="0" width="12" height="12" rx="2.4"></rect>
                                    <g id="编组-16" transform="translate(1.2, 3)" fill="#FFFFFF" fill-rule="nonzero">
                                        <path d="M5.66928973,0.0274242456 C5.93694193,0.113933649 6.09619821,0.383455766 6.03979297,0.654456443 L6.02312865,0.716069171 L4.376139,5.62327767 C4.28490265,5.89864115 3.99029876,6.05597473 3.70520384,5.98159144 C3.42010892,5.90720816 3.24397248,5.62705509 3.30406816,5.34356679 L3.32073247,5.28195406 L4.96772213,0.374745558 C5.01380431,0.237347405 5.11362028,0.123554632 5.24519918,0.0584145671 C5.37677809,-0.00672549746 5.52933488,-0.0178735503 5.66928973,0.0274242456 L5.66928973,0.0274242456 Z" id="路径"></path>
                                        <path d="M2.48085107,0.6299204 C2.70476175,0.794727945 2.76879367,1.09730768 2.63027441,1.33601318 L2.59139102,1.39326394 L1.24991378,3.1489541 L2.59194649,4.90464425 C2.76028705,5.12463481 2.73527608,5.43326692 2.5336214,5.62436816 L2.48085107,5.66798779 C2.25710675,5.83318429 1.94308379,5.80911409 1.74817675,5.61182752 L1.7031831,5.55948396 L0.111185683,3.47664657 C-0.0209394183,3.30381995 -0.0366262415,3.07071321 0.0711913304,2.8823291 L0.111185683,2.82235211 L1.7031831,0.739514723 C1.79157612,0.623828269 1.92316744,0.547347229 2.06900847,0.52689656 C2.21484951,0.506445891 2.36299372,0.543700805 2.48085107,0.630465645 L2.48085107,0.6299204 Z" id="路径"></path>
                                        <path d="M7.11908501,0.6299204 C7.34310057,0.465005876 7.65714565,0.489545184 7.85175933,0.687171166 L7.89730845,0.738969478 L9.48875039,2.82180686 L9.52874475,2.88178386 C9.62375175,3.04769043 9.62375175,3.25021776 9.52874475,3.41612434 L9.48875039,3.47610133 L7.89730845,5.55893871 L7.85175933,5.61182752 C7.67538199,5.79046557 7.39818721,5.82927133 7.17796558,5.70615497 L7.11964048,5.66798779 L7.06631468,5.62436816 C6.88386324,5.45128929 6.84408311,5.17885519 6.96966166,4.96244026 L7.00854506,4.90518949 L8.3500223,3.1489541 L7.00854506,1.39326394 L6.96966166,1.33601318 C6.83126098,1.09717651 6.8955368,0.794569166 7.11964048,0.6299204 L7.11908501,0.6299204 Z" id="路径"></path>
                                    </g>
                                </g>
                            </g>
                        </g>
                    </g>
                </g>
            </g>
        </g>
    </g>
</svg>