<?xml version="1.0" encoding="UTF-8"?>
<svg width="16px" height="16px" viewBox="0 0 16 16" version="1.1" xmlns="http://www.w3.org/2000/svg" xmlns:xlink="http://www.w3.org/1999/xlink">
    <title>环境变量</title>
    <g id="空间里层页面优化" stroke="none" stroke-width="1" fill="none" fill-rule="evenodd">
        <g id="应用管理-工作流-配置-开始" transform="translate(-1097, -24)" fill="#171719" fill-rule="nonzero" stroke="#171719" stroke-width="0.04">
            <g id="编组-11备份" transform="translate(1090, 17)">
                <g id="环境变量" transform="translate(7, 7)">
                    <path d="M14.1016295,11.2563675 C14.4320043,11.2563675 14.6998365,11.5240981 14.6998365,11.8543476 L14.6998365,12.4682638 C14.6998365,13.7008202 13.7002776,14.7 12.4672385,14.7 L3.53259927,14.7 C2.29957515,14.7 1.30000128,13.7008202 1.30000128,12.4682638 L1.30000128,11.8887165 C1.30000128,11.5584671 1.56783348,11.2907364 1.89820821,11.2907364 C2.22858294,11.2907364 2.49641514,11.5584671 2.49641514,11.8887165 L2.49641514,12.4682638 C2.49641514,13.0403064 2.96032461,13.5040399 3.53259927,13.5040399 L12.4672385,13.5040399 C13.0395131,13.5040399 13.5034226,13.0403064 13.5034226,12.4682638 L13.5034226,11.8543476 C13.5034226,11.5240981 13.7712548,11.2563675 14.1016295,11.2563675 Z M7.15348598,5.50000245 L8.76849514,8.10786812 L8.76849514,5.81474924 C8.76849514,5.48780366 9.03098834,5.22213608 9.35680174,5.21684396 L9.36670206,5.21676921 C9.69707679,5.21676921 9.96490899,5.48449982 9.96490899,5.81474924 L9.96490899,10.2099025 C9.96490899,10.8120235 9.17512629,11.0366099 8.85807662,10.5246493 L7.24305251,7.91679855 L7.24305251,10.2099025 C7.24305251,10.5368481 6.98055931,10.8025156 6.65473096,10.8078078 L6.64484559,10.8078825 C6.3144559,10.8078825 6.04663866,10.5401519 6.04663866,10.2099025 L6.04663866,5.81474924 C6.04663866,5.2126282 6.83643631,4.98804185 7.15348598,5.50000245 Z M14.2973329,5.23472356 C14.6095371,5.3427636 14.7750012,5.68335808 14.6669201,5.99542891 L13.1395483,10.4055316 C12.9537452,10.9419945 12.1947552,10.9419945 12.0089671,10.4055316 L10.4815803,5.99542891 C10.3734993,5.68334313 10.5389633,5.3427636 10.8511675,5.23472356 C11.1633568,5.12668352 11.5040655,5.2920848 11.6121615,5.60417058 L12.5742278,8.38207187 L13.5363389,5.60415563 C13.64442,5.2920848 13.9851437,5.12668352 14.2973329,5.23472356 Z M4.79951181,5.20181971 C5.12988654,5.20181971 5.39771874,5.46955032 5.39771874,5.79979974 C5.39771874,6.13004917 5.12988654,6.39777978 4.79951181,6.39777978 L2.49641514,6.39777978 L2.496,7.407 L4.79264739,7.4047925 C5.12303707,7.40432967 5.39124315,7.67167159 5.39172231,8.00192101 C5.39218532,8.33217043 5.12474196,8.60028973 4.79436723,8.60075316 L2.496,8.603 L2.49641514,9.59697295 L4.79951181,9.59697295 C5.12988654,9.59697295 5.39771874,9.86470356 5.39771874,10.194953 C5.39771874,10.5252024 5.12988654,10.792933 4.79951181,10.792933 L2.49641514,10.792933 C1.83565072,10.792933 1.30000128,10.2574867 1.30000128,9.59697295 L1.30000128,6.39777978 C1.30000128,5.73726598 1.83565072,5.20181971 2.49641514,5.20181971 L4.79951181,5.20181971 Z M12.4672385,1.3 C13.7002776,1.3 14.6998365,2.29917979 14.6998365,3.53175118 L14.6998365,4.14565243 C14.6998365,4.4759168 14.4320043,4.74363246 14.1016295,4.74363246 C13.7712548,4.74363246 13.5034226,4.4759168 13.5034226,4.14565243 L13.5034226,3.53175118 C13.5034226,2.95969358 13.0395131,2.49596006 12.4672385,2.49596006 L3.53259927,2.49596006 C2.96032461,2.49596006 2.49641514,2.95969358 2.49641514,3.53175118 L2.49641514,4.11128353 C2.49641514,4.4415479 2.22858294,4.70926356 1.89820821,4.70926356 C1.56783348,4.70926356 1.30000128,4.4415479 1.30000128,4.11128353 L1.30000128,3.53175118 C1.30000128,2.29917979 2.29957515,1.3 3.53259927,1.3 L12.4672385,1.3 Z" id="形状结合"></path>
                </g>
            </g>
        </g>
    </g>
</svg>