<?xml version="1.0" encoding="UTF-8"?>
<svg width="16px" height="16px" viewBox="0 0 16 16" version="1.1" xmlns="http://www.w3.org/2000/svg" xmlns:xlink="http://www.w3.org/1999/xlink">
    <title>参与</title>
    <g id="空间里层页面优化" stroke="none" stroke-width="1" fill="none" fill-rule="evenodd">
        <g id="应用管理-工作流-配置-开始" transform="translate(-1211, -24)" fill="#171719" fill-rule="nonzero">
            <g id="编组-11" transform="translate(1204, 17)">
                <g id="参与" transform="translate(7, 7)">
                    <g id="编组-35" transform="translate(0.5, 1.5)">
                        <path d="M13.3524137,3.04473843 C13.7876396,3.04473843 14.1979604,3.21975634 14.507738,3.53746403 C14.8173619,3.85501246 14.9923132,4.28005597 15,4.73408333 L15,10.2997805 C15,10.7391566 14.8365789,11.1556006 14.5400225,11.472512 C14.2665266,11.7647393 13.9083222,11.9416683 13.5224454,11.9771815 L13.5155273,13.3373525 C13.5155273,13.6047366 13.3547197,13.8526919 13.1155068,13.9536577 C13.021728,13.9861451 12.9450138,14 12.8673773,14 C12.6896587,14 12.521318,13.9261071 12.40494,13.797113 L10.6609614,11.9676263 L8.48098801,11.9676263 C8.12370606,11.9676263 7.83314543,11.6666401 7.83314543,11.2965385 C7.83314543,10.926437 8.12370606,10.6254507 8.48098801,10.6254507 L10.9635134,10.6254507 C11.1415394,10.6459942 11.2911243,10.7176576 11.3904376,10.8283378 L12.2272215,11.7015163 L12.2272215,11.2966978 C12.2272215,10.9371068 12.5239315,10.6334133 12.8750641,10.6334133 L13.3674798,10.6334133 C13.5491954,10.6334133 13.6969355,10.4803722 13.6969355,10.2921364 L13.6969355,4.72819101 C13.6969355,4.53995518 13.5491954,4.38691404 13.3674798,4.38691404 C13.0060469,4.38691404 12.7121041,4.08592781 12.7121041,3.71582623 C12.7121041,3.34588391 12.9994363,3.04473843 13.3524137,3.04473843 Z M10.4203649,0 C11.3164907,0 12.0455058,0.755172845 12.0455058,1.68345258 L12.0455058,8.25976271 C12.0455058,9.18804245 11.3131085,9.94305605 10.4129855,9.94305605 L5.13154658,9.94305605 L2.58091627,12.7683453 C2.45792764,12.9048242 2.29081685,12.9799911 2.11017731,12.9799911 C2.03346315,12.9799911 1.94675618,12.9634289 1.87234806,12.9344451 C1.62268115,12.8328423 1.462181,12.5875943 1.462181,12.3089033 L1.46940658,9.93604896 C1.08614328,9.89719148 0.730552424,9.71962553 0.459055037,9.42946844 C0.163113662,9.11319403 0,8.69770563 0,8.25960346 L0,1.68345258 C0,0.755172845 0.729015066,0 1.62514092,0 L10.4203649,0 Z M10.4208261,1.33453151 L1.62560213,1.33453151 C1.44388644,1.33453151 1.29614636,1.48757266 1.29614636,1.67580849 L1.29614636,8.25976271 C1.29614636,8.44799854 1.44388644,8.60103969 1.62560213,8.60103969 L2.14030952,8.60103969 C2.31449216,8.60103969 2.48329405,8.67588811 2.60320795,8.80663398 C2.72066209,8.93451331 2.78092651,9.10061312 2.77323973,9.27467552 C2.77323973,9.29060072 2.77293225,9.31273675 2.76570667,9.34156135 L2.75924977,10.5990149 L4.38623552,8.79532709 C4.40698985,8.76475071 4.43450856,8.74850701 4.45295685,8.73879264 L4.47217382,8.72557473 C4.48293533,8.71872689 4.49246695,8.71171981 4.50276724,8.70407571 C4.52905606,8.68464697 4.56180178,8.66028142 4.60638516,8.64483398 L4.65634929,8.63161607 L4.67326022,8.63161607 C4.70446859,8.62078693 4.73721431,8.61362059 4.76857641,8.60788752 L4.78302757,8.59291784 L10.4208261,8.59291784 C10.6025418,8.59291784 10.7502818,8.43987669 10.7502818,8.25164086 L10.7502818,1.67580849 C10.7502818,1.48757266 10.6025418,1.33453151 10.4208261,1.33453151 Z M3.1173004,4.58263471 C3.34559803,4.58263471 3.55975197,4.70939928 3.67612996,4.9132418 C3.85062007,5.22505716 4.19252844,5.51999181 4.63943835,5.74469634 C5.09157528,5.9719489 5.59213898,6.09712095 6.04904171,6.09712095 C6.99467049,6.09712095 8.05882956,5.56983768 8.42149226,4.92168216 C8.53833145,4.71688412 8.7524854,4.59011955 8.98078303,4.59011955 C9.1026955,4.59011955 9.21599877,4.62181069 9.30870145,4.68184869 C9.45797889,4.76513747 9.56497899,4.908942 9.61033104,5.08714495 C9.64815005,5.27283275 9.62339859,5.4460989 9.53976632,5.59356622 C8.85594957,6.7876375 7.23096239,7.43165247 6.04904171,7.43165247 C4.85989546,7.43165247 3.22968125,6.78477096 2.55078405,5.58608138 C2.46745926,5.43256248 2.4448601,5.24862645 2.48775238,5.07966011 C2.53125961,4.90830499 2.63549247,4.76816326 2.78892077,4.67468235 C2.89146254,4.61273333 2.99877011,4.58263471 3.1173004,4.58263471 Z" id="形状结合"></path>
                    </g>
                </g>
            </g>
        </g>
    </g>
</svg>