<?xml version="1.0" encoding="UTF-8"?>
<svg width="24px" height="24px" viewBox="0 0 24 24" version="1.1" xmlns="http://www.w3.org/2000/svg" xmlns:xlink="http://www.w3.org/1999/xlink">
    <title>编组 13</title>
    <g id="空间里层页面优化" stroke="none" stroke-width="1" fill="none" fill-rule="evenodd">
        <g id="应用管理-工作流-配置-大语言模型" transform="translate(-30, -691)">
            <g id="节点名称" transform="translate(10, 74)">
                <g id="节点" transform="translate(0, 42)">
                    <g id="编组-25" transform="translate(12, 312)">
                        <g id="4备份" transform="translate(0, 255)">
                            <g id="编组-13" transform="translate(8, 8)">
                                <rect id="矩形" fill="#155EEF" x="0" y="0" width="24" height="24" rx="8"></rect>
                                <g id="brain-2-line" transform="translate(2.4, 2.4)"></g>
                                <g id="储存" transform="translate(2.4, 2.4)" stroke="#FFFFFF" stroke-width="1.2">
                                    <g id="编组-31" transform="translate(3.6, 3)">
                                        <path d="M0.6,0 L8.76660979,4.4408921e-16 C8.91672479,4.4408921e-16 9.06138667,0.0562711118 9.17204456,0.157707516 L11.8054348,2.57164855 C11.9294122,2.6852945 12,2.8457572 12,3.01394103 L12,12.6 C12,12.9313708 11.7313708,13.2 11.4,13.2 L0.6,13.2 C0.26862915,13.2 -3.33066907e-16,12.9313708 -3.33066907e-16,12.6 L-1.11022302e-16,0.6 C-1.11022302e-16,0.26862915 0.26862915,5.55111512e-16 0.6,5.55111512e-16 Z" id="矩形" stroke-linejoin="round"></path>
                                        <path d="M9.27272727,0 L9.27272727,3.21818182 C9.27272727,3.54955267 9.00409812,3.81818182 8.67272727,3.81818182 L3.32727273,3.81818182 C2.99590188,3.81818182 2.72727273,3.54955267 2.72727273,3.21818182 L2.72727273,0 L2.72727273,0" id="路径" stroke-linejoin="round"></path>
                                        <path d="M9.81818182,6.54545455 L9.81818182,12.4909091 C9.81818182,12.8222799 9.54955267,13.0909091 9.21818182,13.0909091 L2.78181818,13.0909091 C2.45044733,13.0909091 2.18181818,12.8222799 2.18181818,12.4909091 L2.18181818,6.54545455 L2.18181818,6.54545455" id="路径" stroke-linejoin="round" transform="translate(6, 9.8182) scale(1, -1) translate(-6, -9.8182)"></path>
                                        <line x1="7.09812503" y1="0" x2="7.09812503" y2="4.34947188" id="路径-10"></line>
                                        <line x1="2.18181818" y1="8.73485584" x2="9.84499195" y2="8.73485584" id="路径-11"></line>
                                    </g>
                                </g>
                            </g>
                        </g>
                    </g>
                </g>
            </g>
        </g>
    </g>
</svg>