<?xml version="1.0" encoding="UTF-8"?>
<svg width="24px" height="24px" viewBox="0 0 24 24" version="1.1" xmlns="http://www.w3.org/2000/svg" xmlns:xlink="http://www.w3.org/1999/xlink">
    <title>编组 13</title>
    <g id="空间里层页面优化" stroke="none" stroke-width="1" fill="none" fill-rule="evenodd">
        <g id="应用管理-工作流-配置-大语言模型" transform="translate(-30, -645)">
            <g id="节点名称" transform="translate(10, 74)">
                <g id="节点" transform="translate(0, 42)">
                    <g id="编组-25" transform="translate(12, 312)">
                        <g id="3备份" transform="translate(0, 209)">
                            <g id="编组-13" transform="translate(8, 8)">
                                <rect id="矩形" fill="#4DA8FF" x="0" y="0" width="24" height="24" rx="8"></rect>
                                <g id="intelligence" transform="translate(2.4, 2.4)" stroke="#FFFFFF" stroke-linecap="round" stroke-linejoin="round" stroke-width="1.2">
                                    <g id="编组-30" transform="translate(3.6, 3.12)">
                                        <path d="M8.4541746,12.96 L8.4541746,12.5081592 C8.4541746,12.2694662 8.60289848,12.0560521 8.8268291,11.9734118 L11.0450936,11.1547738 C11.2690243,11.0721334 11.4177481,10.8587194 11.4177481,10.6200264 L11.4177481,8.78018277 L11.4177481,8.78018277 L12.4542675,8.40819928 C12.7505669,8.30186409 12.9045633,7.97546428 12.7982281,7.67916491 C12.7774202,7.62118437 12.7473511,7.5669602 12.7091908,7.51860212 L11.2226316,5.63478261 L11.2226316,5.63478261 C11.2226316,5.07315355 11.1408067,4.53071563 10.9884751,4.01883424 C10.296732,1.69436455 8.15106987,0 5.61131581,0 C2.51227166,0 0,2.52277811 0,5.63478261 C0,7.48189898 0.672990371,9.12143307 2.04048901,10.1490717 C2.51483372,10.5408228 2.75200608,10.995002 2.75200608,11.5116092 C2.75200608,12.0282163 2.75200608,12.5110133 2.75200608,12.96" id="路径"></path>
                                        <line x1="6.17244739" y1="9.01565217" x2="6.17244739" y2="4.50782609" id="路径-6"></line>
                                        <polyline id="路径" points="3.92792106 6.48 6.17244739 4.22608696 8.41697371 6.48"></polyline>
                                    </g>
                                </g>
                            </g>
                        </g>
                    </g>
                </g>
            </g>
        </g>
    </g>
</svg>