<?xml version="1.0" encoding="UTF-8"?>
<svg width="24px" height="24px" viewBox="0 0 24 24" version="1.1" xmlns="http://www.w3.org/2000/svg" xmlns:xlink="http://www.w3.org/1999/xlink">
    <title>编组 15</title>
    <g id="空间里层页面优化" stroke="none" stroke-width="1" fill="none" fill-rule="evenodd">
        <g id="应用管理-工作流-配置-模板渲染" transform="translate(-30, -554)">
            <g id="编组-27" transform="translate(10, 74)">
                <g id="节点" transform="translate(0, 42)">
                    <g id="编组-19" transform="translate(12, 174)">
                        <g id="6" transform="translate(0, 256)">
                            <g id="编组-15" transform="translate(8, 8)">
                                <rect id="矩形" fill="#FF8A4C" x="0" y="0" width="24" height="24" rx="8"></rect>
                                <g id="icon_参数提取器_线稿" transform="translate(5.4, 5.4)" fill="#FFFFFF" fill-rule="nonzero">
                                    <path d="M11.9991276,11.6982866 C11.7466378,12.5660193 10.9516589,13.1996973 10.009876,13.1999999 C9.06769732,13.2003024 8.27204624,12.5666027 8.0193582,11.6984706 L0.584812562,11.698001 C0.302836761,11.645403 0.0982159347,11.3972996 0.0982159347,11.108001 C0.0982159347,10.8187024 0.302836761,10.570599 0.584812562,10.5180011 L8.01920139,10.5180643 C8.27144046,9.6506461 9.0657872,9.01690903 10.0072334,9.01600022 C10.5575315,9.01547042 11.0854709,9.23564258 11.4747764,9.62802619 C11.7228118,9.87802269 11.9016105,10.1848601 11.9987133,10.5182121 L12.4971473,10.5180011 C12.7317644,10.4742371 12.9695948,10.576167 13.1012549,10.7769107 C13.232915,10.9776544 13.232915,11.2383476 13.1012549,11.4390913 C12.9695948,11.6398351 12.7317644,11.7417649 12.4971473,11.698001 Z M10.0072334,10.1940011 C9.51273728,10.205429 9.11348896,10.6091078 9.10919922,11.108001 C9.10919922,11.4784044 9.33081214,11.8121769 9.67032217,11.9531652 C10.0098322,12.0941534 10.4001177,12.014478 10.658586,11.7514145 C10.9170543,11.488351 10.9925952,11.0939184 10.8498673,10.7526495 C10.7071394,10.4113807 10.3743661,10.190759 10.0072334,10.1940011 Z M5.04227381,4.39598838 C5.16021593,4.39598838 5.26065905,4.48248832 5.27917246,4.60000154 C5.41948771,5.50287972 6.1209892,6.21141154 7.01576845,6.3540014 C7.13430771,6.36953779 7.22301087,6.47140569 7.22301087,6.59200138 C7.22301087,6.71259707 7.13430771,6.81446497 7.01576845,6.83000136 C6.11608674,6.97449296 5.41319037,7.69090972 5.27917246,8.60000121 C5.2694353,8.66324718 5.23506097,8.71994927 5.18368915,8.75750542 C5.13231733,8.79506158 5.06820428,8.81036021 5.00559912,8.80000121 C4.90376033,8.78328627 4.82392554,8.70274334 4.80735758,8.60000121 C4.66994646,7.69340019 3.96677461,6.98075548 3.06877918,6.83800136 C2.95023992,6.82246496 2.86153677,6.72059707 2.86153677,6.60000138 C2.86153677,6.47940569 2.95023992,6.37753779 3.06877918,6.3620014 C3.96600381,6.21845568 4.66820035,5.50598702 4.80537516,4.60000154 C4.82388857,4.48248832 4.92433169,4.39598838 5.04227381,4.39598838 Z M1.57602031,6.01000143 C1.8723685,6.04884236 2.09412644,6.30351212 2.09412644,6.60500138 C2.09412644,6.90649064 1.8723685,7.1611604 1.57602031,7.20000134 L0.584812562,7.20000134 C0.302836761,7.1474034 0.0982159347,6.8993 0.0982159347,6.61000138 C0.0982159347,6.32070277 0.302836761,6.07259937 0.584812562,6.02000143 L1.57602031,6.01000143 Z M13.1012549,6.26891106 C13.232915,6.46965481 13.232915,6.73034795 13.1012549,6.93109169 C12.9695948,7.13183544 12.7317644,7.23376528 12.4971473,7.19000133 L8.51447457,7.19000133 C8.1914915,7.19000133 7.92966199,6.92584935 7.92966199,6.60000138 C7.92966199,6.2741534 8.1914915,6.01000143 8.51447457,6.01000143 L12.4971473,6.01000143 C12.7317644,5.96623748 12.9695948,6.06816732 13.1012549,6.26891106 Z M10.0072334,9.53950803e-07 C10.5575315,-0.000528851275 11.0854709,0.219643308 11.4747764,0.612026923 C11.7228118,0.862023419 11.9016105,1.16886084 11.9987133,1.50221288 L12.4892177,1.50200179 C12.6981511,1.50200179 12.8912135,1.61445514 12.9956802,1.79700176 C13.1001469,1.97954839 13.1001469,2.2044551 12.9956802,2.38700172 C12.8912135,2.56954835 12.6981511,2.6820017 12.4892177,2.6820017 L11.9991276,2.68228733 C11.7466378,3.55001998 10.9516589,4.18369804 10.009876,4.18400062 C9.06769732,4.18430316 8.27204624,3.55060339 8.0193582,2.68247137 L0.584812562,2.6820017 C0.2618295,2.6820017 0,2.41784972 0,2.09200174 C0,1.76615377 0.2618295,1.50200179 0.584812562,1.50200179 L8.01920139,1.50206507 C8.27144046,0.634646834 9.0657872,0.000909766312 10.0072334,9.53950803e-07 Z M10.0072334,1.17800181 C9.51043517,1.18347268 9.1102544,1.59076806 9.10919922,2.09200174 C9.10919922,2.46240516 9.33081215,2.79617765 9.67032218,2.93716589 C10.0098322,3.07815414 10.4001177,2.99847868 10.658586,2.73541518 C10.9170543,2.47235168 10.9925952,2.07791912 10.8498673,1.73665026 C10.7071394,1.39538139 10.3743661,1.17475977 10.0072334,1.17800181 Z" id="形状结合"></path>
                                </g>
                            </g>
                        </g>
                    </g>
                </g>
            </g>
        </g>
    </g>
</svg>