<?xml version="1.0" encoding="UTF-8"?>
<svg width="24px" height="24px" viewBox="0 0 24 24" version="1.1" xmlns="http://www.w3.org/2000/svg" xmlns:xlink="http://www.w3.org/1999/xlink">
    <title>编组 14</title>
    <g id="空间里层页面优化" stroke="none" stroke-width="1" fill="none" fill-rule="evenodd">
        <g id="应用管理-工作流-配置-大语言模型" transform="translate(-30, -988)">
            <g id="节点名称" transform="translate(10, 74)">
                <g id="节点" transform="translate(0, 42)">
                    <g id="流程控制备份" transform="translate(12, 793)">
                        <g id="2" transform="translate(0, 71)">
                            <g id="编组-14" transform="translate(8, 8)">
                                <rect id="矩形" fill="#6473E9" x="0" y="0" width="24" height="24" rx="8"></rect>
                                <g id="问题" transform="translate(2.4, 2.4)" fill-rule="nonzero" stroke="#FFFFFF">
                                    <path d="M9.6,2.4 C10.5711984,2.4 11.5150798,2.58982032 12.4025254,2.96509224 C13.2595357,3.32754959 14.0294952,3.84634548 14.6915749,4.50842514 C15.3519451,5.1687954 15.8723432,5.9385999 16.2348949,6.79744423 C16.6101797,7.68492022 16.8,8.62880161 16.8,9.6 C16.8,10.5711984 16.6101797,11.5150798 16.2349078,12.4025254 C15.8724504,13.2595357 15.3536545,14.0294952 14.6915749,14.6915749 C14.0312046,15.3519451 13.2614001,15.8723432 12.4034074,16.2345356 C11.5156617,16.6083232 10.5715189,16.8 9.6,16.8 C8.62880161,16.8 7.68492022,16.6101797 6.79747461,16.2349078 C5.94046434,15.8724504 5.1705048,15.3536545 4.50842514,14.6915749 C3.84805489,14.0312046 3.32765676,13.2614001 2.96510509,12.4025558 C2.58982032,11.5150798 2.4,10.5711984 2.4,9.6 C2.4,8.62880161 2.58982032,7.68492022 2.96509224,6.79747461 C3.32754959,5.94046434 3.84634548,5.1705048 4.50842514,4.50842514 C5.1687954,3.84805489 5.9385999,3.32765676 6.79744423,2.96510509 C7.68492022,2.58982032 8.62880161,2.4 9.6,2.4 Z" id="路径" stroke-width="1.2"></path>
                                    <path d="M6.75221477,7.98590604 C6.76966443,7.38214765 6.83946309,6.92496644 6.96510067,6.61087248 C7.09073826,6.29677852 7.2914094,6.01583893 7.56885906,5.76979866 C7.84456376,5.52201342 8.15342282,5.34053691 8.49194631,5.22362416 C8.8304698,5.10671141 9.18993289,5.04738255 9.56684564,5.04738255 C10.329396,5.04738255 10.9628188,5.27073826 11.470604,5.71919463 C11.9766443,6.16765101 12.2314094,6.76442953 12.2314094,7.5095302 C12.2314094,7.84456376 12.1668456,8.14818792 12.0359732,8.42040268 C11.9068456,8.69261745 11.629396,9.03114094 11.2071141,9.43771812 C10.7848322,9.8442953 10.5038926,10.1322148 10.3660403,10.3049664 C10.2281879,10.4759732 10.1234899,10.6818792 10.0519463,10.9209396 C9.98040268,11.16 9.94899329,11.4793289 9.95771812,11.8824161 L8.8514094,11.8824161 C8.8514094,11.4130201 8.88979866,11.0378523 8.96483221,10.7586577 C9.03986577,10.4777181 9.15328859,10.2334228 9.3033557,10.0240268 C9.45342282,9.81463087 9.72563758,9.50751678 10.12,9.1009396 C10.5143624,8.69436242 10.7673826,8.39946309 10.8808054,8.21449664 C10.9942282,8.0295302 11.0500671,7.75557047 11.0500671,7.39087248 C11.0500671,7.0261745 10.9209396,6.7033557 10.6609396,6.42416107 C10.3991946,6.14147651 10.0222819,6.00013423 9.52845638,6.00013423 C8.41516779,6.00013423 7.85677852,6.66147651 7.85677852,7.98590604 L6.75221477,7.98590604 Z M10.0432215,14.1805369 L8.8252349,14.1805369 L8.8252349,12.8997315 L10.0432215,12.8997315 L10.0432215,14.1805369 Z" id="形状结合" stroke-width="0.24" fill="#FFFFFF"></path>
                                </g>
                            </g>
                        </g>
                    </g>
                </g>
            </g>
        </g>
    </g>
</svg>