<?xml version="1.0" encoding="UTF-8"?>
<svg width="14px" height="14px" viewBox="0 0 14 14" version="1.1" xmlns="http://www.w3.org/2000/svg" xmlns:xlink="http://www.w3.org/1999/xlink">
    <title>召回</title>
    <g id="工作流" stroke="none" stroke-width="1" fill="none" fill-rule="evenodd">
        <g id="工作流--AI与认知处理-知识检索" transform="translate(-1684, -330)" stroke="#212332">
            <g id="节点属性" transform="translate(1472, 64)">
                <g id="编组-30" transform="translate(12, 264)">
                    <g id="编组-28" transform="translate(196, 0)">
                        <g id="召回" transform="translate(4, 2)">
                            <path d="M3.00336574,8.78243131 C3.31276784,9.47513403 3.79697125,10.0726443 4.39990015,10.5188863 M5.34710411,11.051994 C5.85707009,11.2602342 6.41513255,11.375 7,11.375 C7.46865477,11.375 7.92009851,11.3013108 8.34337671,11.1648869 M9.11238544,10.8321699 C9.85595277,10.4214229 10.4672402,9.80055221 10.8661626,9.04964308 M11.1846924,8.28028469 C11.3084287,7.87534253 11.375,7.44544554 11.375,7 C11.375,4.58375422 9.41624578,2.625 7,2.625 C5.30981329,2.625 3.84348335,3.58344477 3.11486142,4.98648308" id="形状"></path>
                            <polyline id="路径-10" stroke-linejoin="round" points="2.48490579 2.81937431 2.86401413 5.38855621 5.4725833 4.82767632"></polyline>
                        </g>
                    </g>
                </g>
            </g>
        </g>
    </g>
</svg>