<?xml version="1.0" encoding="UTF-8"?>
<svg width="12px" height="12px" viewBox="0 0 12 12" version="1.1" xmlns="http://www.w3.org/2000/svg" xmlns:xlink="http://www.w3.org/1999/xlink">
    <title>刷新</title>
    <g id="空间里层页面优化" stroke="none" stroke-width="1" fill="none" fill-rule="evenodd">
        <g id="应用管理-工作流-配置-条件分支" transform="translate(-1882, -334)" fill-rule="nonzero">
            <g id="节点属性备份-2" transform="translate(1830, 74)">
                <g id="1" transform="translate(12, 186)">
                    <g id="编组-34" transform="translate(8, 70)">
                        <g id="刷新" transform="translate(32, 4)">
                            <rect id="矩形" fill="#000000" opacity="0" x="0" y="0" width="12" height="12"></rect>
                            <path d="M1.64308594,6.29538281 L3.02308594,5.14614844 L2.47385156,4.94307422 L2.64,4.99385156 C3.07385156,3.54923438 4.41691406,2.49230859 6,2.49230859 C7.58308594,2.49230859 8.92614844,3.54922266 9.36,4.99385156 L10.421543,4.67538281 C9.85385156,2.76923438 8.08614844,1.38461719 6,1.38461719 C3.93230859,1.38461719 2.18308594,2.74614844 1.59691406,4.62 L1.33845703,4.52308594 L1.64307422,6.29538281 L1.64308594,6.29538281 Z M10.698457,7.53692578 L10.4076914,5.73230859 L9.01385156,6.91385156 L9.35538281,7.03845703 C8.91229687,8.46461719 7.57846875,9.50769141 6.00461719,9.50769141 C4.42153125,9.50769141 3.07845703,8.45077734 2.64461719,7.00614844 L1.58307422,7.32461719 C2.14617187,9.23076563 3.91385156,10.6153828 6,10.6153828 C8.05385156,10.6153828 9.78923437,9.27692578 10.3892344,7.42154297 L10.698457,7.53692578 Z" id="形状" fill="#155EEF"></path>
                        </g>
                    </g>
                </g>
            </g>
        </g>
    </g>
</svg>