<?xml version="1.0" encoding="UTF-8"?>
<svg width="16px" height="16px" viewBox="0 0 16 16" version="1.1" xmlns="http://www.w3.org/2000/svg" xmlns:xlink="http://www.w3.org/1999/xlink">
    <title>系统变量</title>
    <g id="空间里层页面优化" stroke="none" stroke-width="1" fill="none" fill-rule="evenodd">
        <g id="应用管理-工作流-配置-开始" transform="translate(-1135, -24)">
            <g id="编组-11" transform="translate(1128, 17)">
                <g id="系统变量" transform="translate(7, 7)">
                    <g id="编组-41" transform="translate(1.4, 1.8)">
                        <path d="M14.3779926,9.8502092 C14.343485,9.70504084 14.2054545,9.55133317 14.0674241,9.52571522 L13.9466474,9.49155796 C13.6878403,9.41470412 13.4635408,9.24391782 13.3341372,8.99627767 C13.2047337,8.76571616 13.1529722,8.47537944 13.2133606,8.21066066 L13.2478682,8.10818888 C13.2996296,7.96302052 13.2306144,7.7836949 13.1184646,7.68122312 C13.1184646,7.68122312 13.0149418,7.60436928 12.7388808,7.43358297 C12.454193,7.26279667 12.3247895,7.22010009 12.3247895,7.22010009 C12.1953859,7.1688642 11.9969671,7.22010009 11.8934443,7.32257187 L11.8158021,7.39942571 C11.6173833,7.57875133 11.3585762,7.69830175 11.0825153,7.69830175 C10.7978275,7.69830175 10.5303934,7.59582996 10.3406015,7.39942571 L10.2715863,7.32257187 C10.1680635,7.20302146 9.96964468,7.17740351 9.84024112,7.22010009 C9.84024112,7.22010009 9.71083756,7.27133598 9.42614973,7.43358297 C9.1414619,7.60436928 9.04656596,7.68122312 9.04656596,7.68122312 C8.9257893,7.7836949 8.87402788,7.96302052 8.9171624,8.10818888 L8.95167001,8.21066066 C9.02068524,8.46684012 8.96892382,8.75717684 8.83089336,8.99627767 C8.7014898,9.22683919 8.46856339,9.40616481 8.20112937,9.49155796 L8.09760652,9.50863659 C7.95094916,9.54279385 7.81291869,9.68796221 7.78703798,9.83313057 C7.78703798,9.83313057 7.76978417,9.9612203 7.76978417,10.2857143 C7.76978417,10.6102083 7.78703798,10.738298 7.78703798,10.738298 C7.8215456,10.8834664 7.95957606,11.037174 8.09760652,11.062792 L8.20112937,11.0798706 C8.45993649,11.1567244 8.7014898,11.3275108 8.83089336,11.5751509 C8.97755072,11.822791 9.01205834,12.0960491 8.95167001,12.3607679 L8.9171624,12.4632397 C8.86540097,12.6084081 8.9344162,12.7877337 9.04656596,12.8902055 C9.04656596,12.8902055 9.1500888,12.9670593 9.42614973,13.1378456 C9.70221066,13.3086319 9.84024112,13.3513285 9.84024112,13.3513285 C9.96964468,13.4025644 10.1680635,13.3513285 10.2715863,13.2488567 L10.3406015,13.1720029 C10.7546929,12.7791944 11.4017107,12.7791944 11.8158021,13.1720029 L11.8848174,13.2488567 C11.9883402,13.3684071 12.186759,13.3940251 12.3161625,13.3513285 C12.3161625,13.3513285 12.4455661,13.3000926 12.7302539,13.1378456 C13.0149418,12.9670593 13.1098377,12.8902055 13.1098377,12.8902055 C13.2306144,12.7877337 13.2823758,12.5913294 13.2392413,12.4632397 L13.2047337,12.3607679 C13.1357184,12.1045884 13.1874798,11.8142517 13.3255103,11.5751509 C13.4549139,11.3445894 13.6878403,11.1652638 13.9552743,11.0798706 L14.0587971,11.062792 C14.2054545,11.0286347 14.343485,10.8834664 14.3693657,10.738298 C14.3693657,10.738298 14.3866195,10.6102083 14.3866195,10.2857143 C14.4211271,9.98683825 14.3779926,9.8502092 14.3779926,9.8502092 Z M11.108396,11.6178475 C10.3751092,11.6178475 9.7884797,11.0286347 9.7884797,10.3113322 C9.7884797,9.96975962 9.91788325,9.62818701 10.1680635,9.38054686 C10.4182437,9.13290672 10.746066,8.98773836 11.108396,8.98773836 C11.8416828,8.98773836 12.4283123,9.57695111 12.4283123,10.2942536 C12.4283123,11.0286347 11.8416828,11.6178475 11.108396,11.6178475 Z" id="形状" fill="#171719" fill-rule="nonzero"></path>
                        <path d="M5.190656,12.3428571 L2.09,12.3428571 C0.935724873,12.3428571 8.8817842e-16,11.4071323 -4.4408921e-16,10.2528571 L0,2.09 C0,0.935724873 0.935724873,0 2.09,0 L11.3776259,4.4408921e-16 C12.531901,4.4408921e-16 13.4676259,0.935724873 13.4676259,2.09 L13.4676259,5.20859295 L13.4676259,5.20859295" id="路径" stroke="#171719" stroke-width="1.2" stroke-linecap="round" stroke-linejoin="round"></path>
                        <line x1="0" y1="3.09790156" x2="13.4676259" y2="3.09790156" id="路径-29" stroke="#171719" stroke-width="1.2" stroke-linecap="round" stroke-linejoin="round"></line>
                        <polyline id="路径" stroke="#171719" stroke-width="1.2" stroke-linecap="round" stroke-linejoin="round" points="4.10725403 9.25714286 2.55329719 7.71428571 4.10725403 6.17142857"></polyline>
                        <line x1="7.1699041" y1="6.17142857" x2="6.21582734" y2="9.25714286" id="路径-30" stroke="#171719" stroke-width="1.2" stroke-linecap="round" stroke-linejoin="round"></line>
                    </g>
                </g>
            </g>
        </g>
    </g>
</svg>