<?xml version="1.0" encoding="UTF-8"?>
<svg width="24px" height="24px" viewBox="0 0 24 24" version="1.1" xmlns="http://www.w3.org/2000/svg" xmlns:xlink="http://www.w3.org/1999/xlink">
    <title>编组 6</title>
    <g id="空间里层页面优化" stroke="none" stroke-width="1" fill="none" fill-rule="evenodd">
        <g id="应用管理-工作流-配置-知识检索" transform="translate(-30, -394)">
            <g id="节点名称" transform="translate(10, 74)">
                <g id="节点" transform="translate(0, 42)">
                    <g id="外部交互备份" transform="translate(12, 199)">
                        <g id="2" transform="translate(0, 71)">
                            <g id="编组-6" transform="translate(8, 8)">
                                <rect id="矩形" fill="#4DA8FF" x="0" y="0" width="24" height="24" rx="8"></rect>
                                <g id="工具2" transform="translate(5.16, 4.8)" fill-rule="nonzero" stroke="#FFFFFF" stroke-width="1.2">
                                    <path d="M4.508,0.814 L4.69697709,0.881575822 C5.23333374,1.09421285 5.68689854,1.45145663 6.01665197,1.89898026 C6.38596564,2.40019294 6.6,3.01484764 6.6,3.66652977 C6.6,4.72595072 6.03443992,5.72513278 5.1012245,6.26933022 L5.1012245,12.8032854 C5.1012245,13.0805791 4.99218007,13.3308497 4.81280254,13.5113323 C4.63474923,13.6904824 4.38801097,13.8 4.11428572,13.8 L3.08571429,13.8 C2.81198905,13.8 2.56525078,13.6904824 2.38719748,13.5113323 C2.20781994,13.3308497 2.09877552,13.0805791 2.09877552,12.8032854 L2.09877552,6.26933022 C1.16556008,5.72513278 0.6,4.72595072 0.6,3.66652977 C0.6,3.01484764 0.814034356,2.40019294 1.18334803,1.89898026 C1.55432064,1.39551618 2.08199202,1.00631253 2.70479062,0.809711488 L2.691,0.814 L2.69142857,3.55687884 L4.50857143,3.55687884 L4.508,0.814 Z" id="路径"></path>
                                    <path d="M11.9334354,0.6 L12.2053982,2.76753289 L11.6859429,4.47052747 L11.6859429,7.83000001 L12.6,7.83000001 L12.6,12.3213593 C12.5873532,12.723262 12.4126536,13.0965061 12.141233,13.3687157 C11.8802824,13.6304249 11.5270604,13.8 11.136,13.8 L10.104,13.8 C9.70523456,13.8 9.33915201,13.6320701 9.07265662,13.3648 C8.80758976,13.0989626 8.64,12.7333636 8.64,12.33 L8.64,7.83000001 L9.55405715,7.83000001 L9.55405715,4.43902776 L9.03479285,2.76601057 L9.30656464,0.6 L11.9334354,0.6 Z" id="路径"></path>
                                </g>
                            </g>
                        </g>
                    </g>
                </g>
            </g>
        </g>
    </g>
</svg>