<?xml version="1.0" encoding="UTF-8"?>
<svg width="24px" height="24px" viewBox="0 0 24 24" version="1.1" xmlns="http://www.w3.org/2000/svg" xmlns:xlink="http://www.w3.org/1999/xlink">
    <title>定时出发器</title>
    <g id="空间里层页面优化" stroke="none" stroke-width="1" fill="none" fill-rule="evenodd">
        <g id="应用管理-工作流-配置-开始" transform="translate(-750, -694)">
            <g id="定时出发器" transform="translate(750, 694)">
                <rect id="矩形" fill="#6473E9" x="0" y="0" width="24" height="24" rx="8"></rect>
                <g id="编组" transform="translate(5.2, 4.8)" fill="#FFFFFF" fill-rule="nonzero">
                    <path d="M9.56838734,14.997162 C9.21903628,15.0078649 8.92337147,14.7462224 8.89849671,14.404356 C8.87362195,14.0624897 9.12840951,13.7623355 9.47577136,13.7242938 L9.4866248,13.7207462 L13.3395938,13.7207462 C13.6853133,13.7159681 13.9745709,13.9769561 13.9984255,14.315189 C14.0222802,14.653422 13.7724145,14.9509707 13.4293156,14.9929049 L13.4191857,14.9929049 L13.3468295,15 L9.56838734,14.997162 Z M0,8.46040934 C0.00295919568,5.15616679 2.55530371,2.3900707 5.90788586,2.05775487 L5.90788586,1.27728944 L4.73716211,1.27728944 C4.37955067,1.29735692 4.07227179,1.03104783 4.0486426,0.6805709 C4.02501341,0.330093975 4.29386504,0.0264357608 4.65105821,0.000164216874 L8.35859124,0.000164216874 C8.70665671,-0.00750899931 8.99931186,0.254633265 9.02293328,0.595240479 C9.04655471,0.935847693 8.79278618,1.23442774 8.44686583,1.27303236 L8.43673596,1.27303236 L8.36437973,1.2801275 L7.21680999,1.2801275 L7.21680999,2.06059292 C10.5690266,2.39180513 13.1219597,5.15663555 13.126143,8.46040934 C13.126143,8.81307773 12.8345881,9.09897195 12.4749369,9.09897195 C12.1152858,9.09897195 11.8237309,8.81307773 11.8237309,8.46040934 C11.8209336,5.61527846 9.46755311,3.31055443 6.56608797,3.31146878 C3.66462282,3.31238312 1.31275354,5.61858993 1.31182108,8.46372198 C1.31088862,11.308854 3.66124575,13.6165427 6.5627097,13.6192857 C6.92236086,13.6192857 7.21391573,13.90518 7.21391573,14.2578483 C7.21391573,14.6105167 6.92236086,14.896411 6.5627097,14.896411 C2.93893525,14.8940624 0.00199556514,12.013827 0,8.46040934 L0,8.46040934 Z M9.56694021,12.1690409 C9.22410398,12.1698377 8.93935088,11.9098486 8.91573417,11.5744663 C8.89626054,11.2380347 9.14335647,10.943264 9.48373056,10.8968805 L9.49458399,10.8968805 L9.56694021,10.8926234 L13.3374231,10.8926234 C13.6831426,10.8878454 13.9724001,11.1488333 13.9962547,11.4870662 C14.0201093,11.8252991 13.7702438,12.1228477 13.4271449,12.164782 L13.417015,12.164782 L13.3374231,12.1690409 L9.56694021,12.1690409 Z M6.44838687,9.10110049 L6.38398983,9.10110049 C6.36955698,9.10256227 6.35500895,9.10256227 6.34057609,9.10110049 C6.01582098,9.10022889 5.74066726,8.86633189 5.69371143,8.55122713 L5.69371143,8.54058442 L5.68647581,8.46963301 L5.68647581,6.59154942 C5.68647581,6.23888103 5.97803068,5.95298681 6.33768184,5.95298681 L6.34202321,5.95298681 C6.66891349,5.95317052 6.94617146,6.18849335 6.99322925,6.50569822 L6.99322925,7.82468477 L8.36293261,7.82468477 C8.70831925,7.82075058 8.99675214,8.08193289 9.02020044,8.41985522 C9.04364874,8.75777754 8.79395393,9.05486444 8.4512072,9.09684341 L8.43673596,9.09684341 L8.36437973,9.10110049 L6.44838687,9.10110049 Z" id="形状"></path>
                </g>
            </g>
        </g>
    </g>
</svg>