<?xml version="1.0" encoding="UTF-8"?>
<svg width="24px" height="24px" viewBox="0 0 24 24" version="1.1" xmlns="http://www.w3.org/2000/svg" xmlns:xlink="http://www.w3.org/1999/xlink">
    <title>未知节点</title>
    <g id="空间里层页面优化" stroke="none" stroke-width="1" fill="none" fill-rule="evenodd">
        <g id="应用管理-工作流-配置-结束" transform="translate(-81, -222)">
            <g id="未知节点" transform="translate(81, 222)">
                <rect id="矩形" fill="#4DA8FF" x="0" y="0" width="24" height="24" rx="8"></rect>
                <g id="未知" transform="translate(4, 4)" stroke="#FFFFFF">
                    <g id="编组-29" transform="translate(1.5, 1.5)">
                        <g id="编组-32" stroke-linecap="round" stroke-linejoin="round" stroke-width="1.2">
                            <rect id="矩形" x="0" y="0" width="2.78571429" height="2.78571429" rx="0.5"></rect>
                            <rect id="矩形备份-2" x="10.2142857" y="0" width="2.78571429" height="2.78571429" rx="0.5"></rect>
                            <rect id="矩形" x="0" y="10.2142857" width="2.78571429" height="2.78571429" rx="0.5"></rect>
                            <rect id="矩形备份-2" x="10.2142857" y="10.2142857" width="2.78571429" height="2.78571429" rx="0.5"></rect>
                            <line x1="1.39285714" y1="2.78571429" x2="1.39285714" y2="10.2142857" id="路径-10"></line>
                            <line x1="11.6071429" y1="2.78571429" x2="11.6071429" y2="10.2142857" id="路径-10"></line>
                            <line x1="2.78571429" y1="1.39285714" x2="10.2142857" y2="1.39285714" id="路径-11"></line>
                            <line x1="2.78571429" y1="11.6071429" x2="10.2218696" y2="11.6071429" id="路径-12"></line>
                        </g>
                        <path d="M6.52432916,9.87401948 C6.13772983,9.87401948 5.82432916,9.56061881 5.82432916,9.17401948 C5.82432916,8.78742016 6.13772983,8.47401948 6.52432916,8.47401948 C6.91092848,8.47401948 7.22432916,8.78742016 7.22432916,9.17401948 C7.22432916,9.56061881 6.91092848,9.87401948 6.52432916,9.87401948 Z M8.31902118,5.62806989 C8.07271219,6.00231919 7.78239354,6.33608471 7.45624872,6.61995827 C7.28497017,6.76209568 7.1395834,6.94091014 7.02820004,7.14642499 C6.96128207,7.37469384 6.93624197,7.61622669 6.95463661,7.85600603 L5.97147432,7.85600603 L5.97147432,7.55843743 C5.96278552,7.25062126 6.0177749,6.94479831 6.131988,6.66574207 C6.29645546,6.367538 6.50993979,6.10844775 6.7606742,5.90275181 C6.96315112,5.72946983 7.15324854,5.53812192 7.32917462,5.33051172 C7.42118807,5.19526753 7.47065705,5.02865038 7.46962638,4.85745421 C7.46993348,4.61851645 7.37673645,4.39189307 7.21546905,4.23943033 C7.02808491,4.06206133 6.7899692,3.96970505 6.54664986,3.98002011 C6.30313821,3.97665394 6.06636072,4.07119573 5.87783981,4.24706618 C5.68380967,4.4710619 5.55131388,4.75479898 5.49660839,5.06346565 C5.4631688,5.29236377 4.49338418,5.39154635 4.50003404,4.92612469 C4.52964278,4.40848145 4.74202371,3.92666766 5.08863079,3.59089435 C5.47706668,3.20376734 5.97741851,2.99447314 6.49314835,3.003393 C7.03166324,2.97113454 7.56128279,3.16980909 7.97792275,3.56037182 C8.31228969,3.88267896 8.5034992,4.35809104 8.49960592,4.85745421 C8.50560934,5.12879049 8.44291047,5.3963476 8.31902118,5.62806989 L8.31902118,5.62806989 Z" id="形状结合" stroke-width="0.2" fill="#FFFFFF" fill-rule="nonzero"></path>
                    </g>
                </g>
            </g>
        </g>
    </g>
</svg>