<?xml version="1.0" encoding="UTF-8"?>
<svg width="16px" height="16px" viewBox="0 0 16 16" version="1.1" xmlns="http://www.w3.org/2000/svg" xmlns:xlink="http://www.w3.org/1999/xlink">
    <title>聊天</title>
    <g id="空间里层页面优化" stroke="none" stroke-width="1" fill="none" fill-rule="evenodd">
        <g id="应用管理-工作流-配置-开始" transform="translate(-1287, -24)" fill-rule="nonzero" stroke="#171719">
            <g id="聊天变量" transform="translate(1280, 17)">
                <g id="聊天" transform="translate(7, 7)">
                    <g id="编组-33" transform="translate(1, 1.5)">
                        <path d="M11.6052632,0 C12.9278398,0 14,1.04117982 14,2.32554022 L14,8.58661006 C14,9.87097046 12.9278398,10.9121503 11.6052632,10.9121503 L8.14425438,10.9121503 L4.51100878,12.9285129 C4.15517545,13.1258857 3.71583334,12.8918409 3.68574562,12.504549 L3.68421053,12.4625104 L3.68421053,10.9121503 L2.39473684,10.9121503 C1.10180961,10.9121412 0.0423365236,9.91548324 0.00122806538,8.66055031 L0,8.58661006 L0,2.32554022 C0,1.04117982 1.0721602,0 2.39473684,0 L11.6052632,0 Z" id="路径" stroke-width="1.2"></path>
                        <path d="M3.10551727,8.99854824 C2.95234052,9.00822601 2.799977,8.96934058 2.66928223,8.88721458 C2.56494178,8.81932801 2.5013017,8.70218572 2.5001432,8.57588036 C2.49697286,8.46736073 2.54660892,8.36427058 2.63271163,8.30054623 C2.72675055,8.23401171 2.83974645,8.20118771 2.95401049,8.20721263 C3.03564129,8.20854597 3.1172721,8.21387932 3.19824986,8.22454601 C3.35694014,8.24454607 3.51628348,8.2545461 3.67562682,8.25521277 C3.83112667,8.27120046 3.98683295,8.22694075 4.11186184,8.13121241 C4.16410556,8.07987893 4.27185823,7.91654513 4.40312057,7.39587697 L5.11428816,4.71520259 L4.23267544,4.71520259 L4.36654997,4.21386782 L5.23902003,4.21386782 L5.2625297,4.13120091 C5.35722144,3.72653308 5.51395259,3.33786529 5.72945792,2.9771976 C5.92761883,2.67678848 6.19607537,2.43160427 6.51050148,2.2638622 C6.78478099,2.10186174 7.10020243,2.01052814 7.42346042,2.00119479 C7.57300806,1.9925281 7.72059656,2.03119488 7.84402234,2.1111951 C7.94525052,2.17569025 8.00766373,2.28806964 8.00989614,2.40986263 C8.01069224,2.51180934 7.96774069,2.60900461 7.89234777,2.67586339 C7.81085766,2.74556611 7.70738041,2.78275178 7.60108905,2.78053036 C7.42610914,2.77156458 7.25231402,2.74612317 7.08191713,2.70453014 C7.00030947,2.68636718 6.91724274,2.67587883 6.83375947,2.67319672 C6.71947634,2.67319672 6.60911149,2.74853027 6.50593015,2.8985307 C6.36752518,3.1219189 6.26912558,3.36864744 6.21532448,3.62719946 L6.06969512,4.21786783 L8.21625882,4.16986769 L8.28613478,4.16986769 C8.39669858,4.15910216 8.50394314,4.21204398 8.56433257,4.30720142 C8.63094331,4.41720173 8.6799218,4.53520207 8.70930889,4.65853576 L8.76938917,4.86920303 L8.91436548,4.69853588 C9.05672961,4.51786869 9.22260341,4.35520156 9.40937469,4.21520115 C9.59991804,4.06196908 9.83046563,3.96944956 10.0722168,3.94920038 C10.1783217,3.94523919 10.2820966,3.98158171 10.3634756,4.05120068 C10.4379229,4.11786754 10.4797178,4.21120114 10.4784117,4.30853475 C10.4741349,4.42168559 10.4145328,4.52509771 10.3197214,4.58386888 C10.2642125,4.61986898 10.1740921,4.65720242 9.84822191,4.67720248 C9.70455169,4.68186916 9.5654528,4.73053597 9.45247575,4.81520288 C9.23697042,4.99520339 9.05411741,5.20653734 8.90848806,5.44053801 L8.88432534,5.47920478 L9.10962636,6.47320764 C9.19386936,6.85987542 9.46749582,7.21320976 9.63206353,7.22787648 C9.76267282,7.22787648 9.79728429,7.13454288 9.82079396,7.07187603 L9.83254879,7.04320928 C9.88011168,6.8878533 10.0218445,6.78272329 10.1812756,6.78454187 C10.2673216,6.78358385 10.3499697,6.81877904 10.4098419,6.88187549 C10.468616,6.94587567 10.5012684,7.02854258 10.5,7.11320948 C10.4888129,7.28711576 10.391227,7.44308888 10.2413559,7.52654401 L10.2282949,7.53654404 C10.0846247,7.66321107 9.89654734,7.73654461 9.69998036,7.74121129 C9.4067625,7.74787798 9.12529948,7.63587766 8.92285508,7.43454374 C8.67887201,7.16118259 8.48983209,6.84158253 8.3664595,6.49387437 L8.2920122,6.29120712 L8.15944377,6.46387428 C7.96876847,6.73669301 7.74246154,6.98162708 7.48680593,7.19187637 C7.32550345,7.31521006 7.12763038,7.38587693 6.92061465,7.39454363 C6.79266391,7.39864585 6.66722568,7.35768715 6.56535738,7.27854329 C6.47026817,7.20916987 6.41307562,7.09784149 6.41123841,6.97854243 C6.4109998,6.8823413 6.44948623,6.79026469 6.51768499,6.72387503 C6.58501907,6.65149764 6.6785137,6.61052383 6.77629139,6.61054137 C6.89383975,6.61854139 7.00159242,6.67720823 7.0675501,6.76920849 L7.14134435,6.85454208 L7.23277086,6.78454187 C7.29154504,6.73920841 7.34509484,6.68920826 7.39472637,6.63587478 C7.51227473,6.51720777 7.62198654,6.39120741 7.72190265,6.25854036 L8.14638285,5.66653866 L7.91977572,4.74386934 L5.92798404,4.71186925 L5.37877197,6.84254204 C5.19265373,7.53921071 4.89159932,8.08121227 4.48018005,8.44254664 C4.1049625,8.79485722 3.61528182,8.99291543 3.10551727,8.99854824 L3.10551727,8.99854824 Z" id="路径" stroke-width="0.4" fill="#171719"></path>
                    </g>
                </g>
            </g>
        </g>
    </g>
</svg>