<?xml version="1.0" encoding="UTF-8"?>
<svg width="24px" height="24px" viewBox="0 0 24 24" version="1.1" xmlns="http://www.w3.org/2000/svg" xmlns:xlink="http://www.w3.org/1999/xlink">
    <title>webhook触发器</title>
    <g id="空间里层页面优化" stroke="none" stroke-width="1" fill="none" fill-rule="evenodd">
        <g id="应用管理-工作流-配置-开始" transform="translate(-786, -694)">
            <g id="webhook触发器" transform="translate(786, 694)">
                <rect id="矩形" fill="#4DA8FF" x="0" y="0" width="24" height="24" rx="8"></rect>
                <g id="编组" transform="translate(4, 4.7)" fill="#FFFFFF" fill-rule="nonzero">
                    <path d="M11.5110655,10.4284085 C11.838176,9.82725867 12.5881738,9.60657886 13.1862189,9.93552689 C13.7840847,10.2644749 14.0036815,11.0183892 13.6764814,11.6195391 C13.3493709,12.2206889 12.5993732,12.4413687 12.0013281,12.1125107 C11.7943842,11.9986933 11.6242404,11.8276092 11.5110655,11.6195391 L7.0620583,11.6195391 C6.73539579,13.5662052 4.90094297,14.8780341 2.96462091,14.5496265 C1.02838844,14.221309 -0.27655931,12.3770563 0.0501032034,10.4303901 C0.338867131,8.70962801 1.82121252,7.45004167 3.5569319,7.4504919 C3.76856024,7.45034723 3.96418974,7.56371894 4.07012865,7.74790113 C4.17606756,7.93208333 4.17622125,8.15909437 4.07053183,8.34342138 C3.9648424,8.52774838 3.7693666,8.64138771 3.55773825,8.64153252 L3.5569319,8.64153252 C2.24813157,8.64153252 1.18723996,9.70818165 1.18723996,11.0238837 C1.18723996,12.3395858 2.24813157,13.4062349 3.5569319,13.4062349 C4.86555304,13.4062349 5.92662384,12.3395858 5.92662384,11.0238837 C5.92662384,10.6949621 6.19185062,10.4283184 6.51902443,10.4283184 L11.5110655,10.4283184 L11.5110655,10.4284085 Z M4.7002507,10.2845613 C5.10611498,10.8350899 4.99134409,11.612153 4.44365129,12.0203657 C3.89595849,12.4283081 3.12302445,12.312834 2.71716017,11.7623054 C2.31129588,11.2118669 2.42615637,10.4348037 2.97384917,10.0265911 C3.16053368,9.88747856 3.38249102,9.80417848 3.61418296,9.78627528 L5.72521481,6.32205257 C4.2158118,5.05913352 4.01063979,2.80531706 5.26693759,1.28794068 C6.52305619,-0.229435709 8.764986,-0.435703781 10.2742098,0.82721527 C11.6046921,1.94043234 11.9444354,3.85521254 11.0786812,5.36214041 C10.9119127,5.64017227 10.5544725,5.73286512 10.2747401,5.57062174 C9.99500774,5.40837836 9.89590219,5.05089131 10.0518356,4.76657513 C10.7061462,3.62705663 10.3176633,2.17002942 9.1841999,1.5123135 C8.05073653,0.854597581 6.60145161,1.24506574 5.94723064,2.38467432 C5.29292007,3.52419282 5.68140297,4.98112996 6.81495594,5.63893595 L6.81522472,5.6391161 C6.95127736,5.71812576 7.05053644,5.84823648 7.09116469,6.00082352 C7.13179293,6.15341057 7.11046204,6.31597388 7.03186486,6.45274906 L7.03043135,6.4550009 C7.02320104,6.46991117 7.01530876,6.4844877 7.00677833,6.49868649 L4.7002507,10.2845613 Z M8.01776566,4.80917985 C7.34016045,4.73468915 6.85097303,4.1221 6.9250679,3.44087493 C6.99925237,2.75964985 7.60858637,2.26784913 8.28619157,2.34233982 C8.96379678,2.41692059 9.4528946,3.02950974 9.37879973,3.71073482 C9.35343782,3.94437982 9.26251787,4.16595888 9.11664545,4.3496254 L10.9018211,7.8030393 C12.6712282,6.94707184 14.795968,7.69513138 15.6474767,9.47390075 C16.4989853,11.2528503 15.7549904,13.3888507 13.9855834,14.2449083 C12.4369378,14.9941387 10.5768609,14.5226045 9.56694874,13.1245754 C9.38932383,12.858646 9.45273935,12.4991029 9.7104834,12.3107857 C9.96822744,12.1224686 10.3279666,12.1728394 10.5247168,12.4247952 C11.2950526,13.4884719 12.7771292,13.7229329 13.8352433,12.9486621 C14.8932679,12.174211 15.1264831,10.6842169 14.3563265,9.62054024 C13.5859907,8.55668339 12.1038245,8.32222234 11.0458895,9.09658331 C11.0356757,9.10414947 11.0254619,9.11162556 11.0154273,9.1192818 C10.8759272,9.22156918 10.6989847,9.25759044 10.530892,9.21792159 C10.3627993,9.17825274 10.2202813,9.06684076 10.140624,8.91283358 L8.01776566,4.80917985 L8.01776566,4.80917985 Z" id="形状"></path>
                </g>
            </g>
        </g>
    </g>
</svg>