<svg width="16" height="16" viewBox="0 0 16 16" fill="none" xmlns="http://www.w3.org/2000/svg">
<path d="M10.3379 0.689941C11.8506 0.690186 13.1125 1.82096 13.2588 3.29053C14.4047 3.42753 15.3096 4.38342 15.3096 5.56787C15.3093 6.27875 14.9816 6.90777 14.4727 7.32666C14.9937 7.9405 15.3095 8.73143 15.3096 9.59717C15.3094 11.0189 14.4599 12.2359 13.2451 12.8032C13.0554 14.2266 11.8181 15.3098 10.3379 15.3101C9.38826 15.3101 8.53869 14.8627 8 14.1675C7.46133 14.8625 6.61252 15.31 5.66309 15.3101C4.18241 15.3099 2.94307 14.2263 2.75391 12.8022C1.53997 12.2346 0.690607 11.0183 0.69043 9.59717C0.690483 8.73157 1.00649 7.94046 1.52734 7.32666C1.01842 6.90777 0.690679 6.27875 0.69043 5.56787C0.69043 4.38395 1.59503 3.4282 2.74023 3.29053C2.88642 1.82081 4.15027 0.690071 5.66309 0.689941C6.61252 0.689996 7.46133 1.1376 8 1.83252C8.53869 1.1374 9.38827 0.689941 10.3379 0.689941ZM5.66309 1.88916C4.69126 1.8893 3.92595 2.65735 3.92578 3.57568C3.9259 4.20831 4.28682 4.76687 4.83203 5.05615C5.12429 5.2115 5.23495 5.5742 5.08008 5.8667C4.92479 6.15936 4.56222 6.2709 4.26953 6.11572C3.61831 5.77019 3.11233 5.18668 2.875 4.47998C2.30995 4.55141 1.88965 5.0223 1.88965 5.56787C1.89002 6.05883 2.22849 6.4873 2.70996 6.62061C2.93381 6.68249 3.1021 6.86831 3.1416 7.09717C3.18074 7.32577 3.08446 7.55675 2.89453 7.68994C2.28212 8.11968 1.88972 8.81631 1.88965 9.59717C1.8898 10.3998 2.3063 11.1145 2.94824 11.5396C3.08661 11.4004 3.29059 11.3322 3.49707 11.3755C3.82119 11.4436 4.02889 11.7613 3.96094 12.0854C3.93812 12.1943 3.92578 12.3078 3.92578 12.4243C3.92599 13.3426 4.69129 14.1097 5.66309 14.1099C6.63492 14.1098 7.40018 13.3426 7.40039 12.4243V9.59033C7.1347 9.75906 6.82298 9.87816 6.46484 9.91553C5.95305 9.96883 5.39189 9.85416 4.78809 9.56494C4.48943 9.42178 4.36293 9.06389 4.50586 8.76514C4.64893 8.46648 5.00693 8.34018 5.30566 8.48291C5.76154 8.7013 6.10034 8.74623 6.34082 8.72119C6.57511 8.69666 6.75837 8.60141 6.9082 8.46143C7.19191 8.19613 7.35594 7.7646 7.39258 7.40674L7.40039 7.2583V5.03662C7.16118 5.1718 6.96845 5.38056 6.8584 5.63525C6.72691 5.93934 6.37348 6.07917 6.06934 5.94775C5.76584 5.81612 5.62586 5.46349 5.75684 5.15967C6.05472 4.47027 6.66012 3.94433 7.40039 3.75244V3.57568C7.40022 2.65733 6.63495 1.88925 5.66309 1.88916ZM10.3379 1.88916C9.36594 1.88916 8.60075 2.65727 8.60059 3.57568V3.74072C9.3822 3.92939 10.0174 4.49108 10.3096 5.2251C10.4321 5.53297 10.2815 5.88187 9.97363 6.00439C9.66585 6.12662 9.31681 5.9762 9.19434 5.66846C9.08135 5.38497 8.86881 5.15334 8.60059 5.01416V7.0835C8.6175 7.13896 8.62891 7.19727 8.62891 7.2583C8.62895 7.63772 8.79677 8.15816 9.12109 8.46143C9.27094 8.60148 9.45413 8.69663 9.68848 8.72119C9.92895 8.74628 10.2677 8.70131 10.7236 8.48291C11.0224 8.34008 11.3803 8.46643 11.5234 8.76514C11.6665 9.06396 11.54 9.4218 11.2412 9.56494C10.6374 9.85415 10.0763 9.96889 9.56445 9.91553C9.19358 9.87681 8.87227 9.75126 8.60059 9.57275V12.4243L8.60938 12.5942C8.69702 13.4354 9.4266 14.1099 10.3379 14.1099C11.3096 14.1096 12.075 13.3425 12.0752 12.4243C12.0752 12.3079 12.0628 12.1943 12.04 12.0854C11.9721 11.7612 12.1797 11.4435 12.5039 11.3755C12.7102 11.3323 12.9134 11.4007 13.0518 11.5396C13.6939 11.1146 14.1102 10.4 14.1104 9.59717C14.1103 8.81615 13.7181 8.11965 13.1055 7.68994C12.9156 7.55677 12.8193 7.32574 12.8584 7.09717C12.8979 6.86843 13.0664 6.68259 13.29 6.62061C13.7716 6.48735 14.11 6.05888 14.1104 5.56787C14.1104 5.02212 13.6903 4.55116 13.125 4.47998C12.8877 5.18649 12.3825 5.7702 11.7314 6.11572C11.4388 6.27091 11.0762 6.15936 10.9209 5.8667C10.7659 5.57417 10.8766 5.21153 11.1689 5.05615C11.714 4.76682 12.0751 4.20819 12.0752 3.57568C12.075 2.65743 11.3096 1.88942 10.3379 1.88916Z" fill="#171719"/>
</svg>
