<?xml version="1.0" encoding="UTF-8"?>
<svg width="16px" height="16px" viewBox="0 0 16 16" version="1.1" xmlns="http://www.w3.org/2000/svg" xmlns:xlink="http://www.w3.org/1999/xlink">
    <title>api</title>
    <g id="定稿" stroke="none" stroke-width="1" fill="none" fill-rule="evenodd">
        <g id="首页-红熊空间" transform="translate(-22, -514)" fill="#FFFFFF" fill-rule="nonzero" stroke="#FFFFFF" stroke-width="0.1">
            <g id="API-管理" transform="translate(12, 503)">
                <g id="api" transform="translate(10, 11)">
                    <path d="M14.9601078,1.76719383 L14.2326114,1.03947531 C14.2051587,1.01201424 14.1708428,1 14.1348111,1 C14.0987795,1 14.0644636,1.01373054 14.0370109,1.03947531 L12.731292,2.34559274 C12.1636692,1.96088536 11.4935287,1.75577531 10.8078875,1.75689592 C9.92940124,1.75689592 9.05091497,2.09157778 8.38003972,2.76265785 L6.63164613,4.51158515 C6.57847934,4.56529527 6.57847934,4.65181889 6.63164613,4.705529 L11.2934571,9.36876302 C11.3209098,9.39622409 11.3552256,9.40823833 11.3912573,9.40823833 C11.4255732,9.40823833 11.4616048,9.39450779 11.4890575,9.36876302 L13.2374511,7.61983572 C14.4196328,6.4355768 14.5586121,4.60426627 13.6543889,3.26897144 L14.9601078,1.96285399 C15.0132974,1.90793184 15.0132974,1.82039966 14.9601078,1.76719383 L14.9601078,1.76719383 Z M12.4104386,6.79428712 L11.3912573,7.81377958 L8.18615504,4.60769892 L9.20533638,3.58820646 C9.63256897,3.16084346 10.2022124,2.92399167 10.8078875,2.92399167 C11.4135626,2.92399167 11.9814903,3.15912714 12.4104386,3.58820646 C12.8376712,4.01556946 13.0744507,4.5853868 13.0744507,5.19124679 C13.0744507,5.79710679 12.8376712,6.36520781 12.4104386,6.79428712 L12.4104386,6.79428712 Z M9.14699941,8.59642026 C9.09330568,8.54323723 9.00680847,8.54323723 8.95311474,8.59642026 L7.81039626,9.73948756 L6.26103472,8.18965307 L7.405469,7.04486944 C7.4586586,6.9916636 7.4586586,6.90413142 7.405469,6.85092558 L6.78092016,6.22618609 C6.72722644,6.17300307 6.64072922,6.17300307 6.58703549,6.22618609 L5.44260123,7.37096972 L4.70481003,6.6329533 C4.67892917,6.60704433 4.64361872,6.5927919 4.60700979,6.59347799 C4.57269393,6.59347799 4.53666226,6.60720854 4.50920956,6.6329533 L2.76253177,8.3818806 C1.58035005,9.56613952 1.44137077,11.39745 2.34559395,12.7327449 L1.0398751,14.0388623 C0.986708301,14.0925724 0.986708301,14.1790961 1.0398751,14.2328062 L1.76737154,14.9605247 C1.79482423,14.9879858 1.82914012,15 1.86517176,15 C1.90120341,15 1.93551929,14.9862695 1.962972,14.9605247 L3.26869086,13.6544073 C3.84691328,14.0474439 4.51950433,14.2431041 5.19209537,14.2431041 C6.07058165,14.2431041 6.94906791,13.9084222 7.61994318,13.2373422 L9.36833677,11.4884149 C9.42152636,11.435209 9.42152636,11.3476768 9.36833677,11.294471 L8.63054556,10.5564546 L9.77497982,9.41167096 C9.82816942,9.35846512 9.82816942,9.27093293 9.77497982,9.2177271 L9.14699941,8.59642026 L9.14699941,8.59642026 Z M6.79293072,12.4135099 C6.36876873,12.8399756 5.79177254,13.0791252 5.19037959,13.0777308 C4.58470448,13.0777308 4.01677682,12.8425892 3.58782846,12.4135099 C3.16149284,11.9892184 2.92241626,11.4120461 2.92381025,10.8104695 C2.92381025,10.2046095 3.15888007,9.63650851 3.58782846,9.2074292 L4.60700979,8.18793675 L7.81211206,11.3940174 L6.79293072,12.4135099 L6.79293072,12.4135099 Z" id="形状"></path>
                </g>
            </g>
        </g>
    </g>
</svg>