<?xml version="1.0" encoding="UTF-8"?>
<svg width="16px" height="16px" viewBox="0 0 16 16" version="1.1" xmlns="http://www.w3.org/2000/svg" xmlns:xlink="http://www.w3.org/1999/xlink">
    <title>brain-2-line</title>
    <g id="定稿" stroke="none" stroke-width="1" fill="none" fill-rule="evenodd" stroke-linejoin="round">
        <g id="首页-红熊空间" transform="translate(-22, -314)" stroke="#171719" stroke-width="1.2">
            <g id="记忆管理" transform="translate(12, 303)">
                <g id="brain-2-line" transform="translate(10, 11)">
                    <g id="编组-25" transform="translate(1.5, 1.5)">
                        <path d="M4.33333333,0 C5.47792347,0 6.41521956,0.888002575 6.49455988,2.0130005 L6.5,2.16781715 L6.49985495,10.4798288 C6.49995157,10.4888778 6.5,10.4979384 6.5,10.5070103 L6.499,10.534 L6.5,10.8390858 L6.47808338,10.8391196 C6.31578908,12.0589502 5.27189987,13 4.00833333,13 C2.63222383,13 1.51666667,11.8838505 1.51666667,10.5070103 C1.51666667,10.332196 1.53465035,10.1615842 1.56886767,9.99692601 C0.663423478,9.73754175 0,8.90246334 0,7.9123518 C0,7.36506373 0.202700377,6.86514401 0.537084253,6.48364722 C0.203054284,6.10374909 0,5.60343451 0,5.05566888 C0,3.85841652 0.970049709,2.88785173 2.16666667,2.88785173 C2.20862378,2.88785173 2.25030235,2.88904496 2.29167033,2.89139936 C2.210453,2.6663156 2.16666667,2.42218251 2.16666667,2.16781715 C2.16666667,0.970564798 3.13671638,0 4.33333333,0 Z" id="形状结合"></path>
                        <path d="M10.8333333,0 C11.9779235,0 12.9152196,0.888002575 12.9945599,2.0130005 L13,2.16781715 L12.999855,10.4798288 C12.9999516,10.4888778 13,10.4979384 13,10.5070103 L12.999,10.534 L13,10.8390858 L12.9780834,10.8391196 C12.8157891,12.0589502 11.7718999,13 10.5083333,13 C9.13222383,13 8.01666667,11.8838505 8.01666667,10.5070103 C8.01666667,10.332196 8.03465035,10.1615842 8.06886767,9.99692601 C7.16342348,9.73754175 6.5,8.90246334 6.5,7.9123518 C6.5,7.36506373 6.70270038,6.86514401 7.03708425,6.48364722 C6.70305428,6.10374909 6.5,5.60343451 6.5,5.05566888 C6.5,3.85841652 7.47004971,2.88785173 8.66666667,2.88785173 C8.70862378,2.88785173 8.75030235,2.88904496 8.79167033,2.89139936 C8.710453,2.6663156 8.66666667,2.42218251 8.66666667,2.16781715 C8.66666667,0.970564798 9.63671638,0 10.8333333,0 Z" id="形状结合" transform="translate(9.75, 6.5) scale(-1, 1) translate(-9.75, -6.5)"></path>
                    </g>
                </g>
            </g>
        </g>
    </g>
</svg>