<?xml version="1.0" encoding="UTF-8"?>
<svg width="16px" height="16px" viewBox="0 0 16 16" version="1.1" xmlns="http://www.w3.org/2000/svg" xmlns:xlink="http://www.w3.org/1999/xlink">
    <title>-_模型预测</title>
    <g id="空间外层页面优化" stroke="none" stroke-width="1" fill="none" fill-rule="evenodd">
        <g id="首页" transform="translate(-47, -632)" fill="#FFFFFF" fill-rule="nonzero" stroke="#FFFFFF" stroke-width="0.46">
            <g id="-_模型预测" transform="translate(47, 632)">
                <path d="M6.21158192,13.306832 L7.80887988,14.1884453 C7.92671334,14.2534674 8.073127,14.2534674 8.19112012,14.1884453 L9.71752641,13.3459063 C9.90848686,13.2405889 10.1526161,13.3030162 10.2627856,13.4855663 C10.372955,13.6681164 10.3076517,13.9014936 10.1166912,14.006811 L8.59028494,14.8493501 C8.41072525,14.9481306 8.2071692,15.0000812 8,14.9999999 C7.79594694,14.9999999 7.59173422,14.9497832 7.40971506,14.8493501 L5.8124171,13.9677367 C5.62145664,13.8624194 5.55615328,13.6290422 5.66632277,13.446492 C5.77649226,13.2639419 6.02062147,13.2015146 6.21158192,13.306832 Z M10.9099139,13.2527049 L10.8556548,13.1912301 L10.8253345,13.1408938 L10.798702,13.0715168 L10.7885339,13.018299 L10.7875812,12.9441985 L10.7931958,12.904947 C10.9638195,12.045795 10.9963544,11.1682963 10.889875,10.2961909 C9.95996685,10.5700829 8.99351332,10.7096138 8.01436993,10.7096138 C7.69455908,10.7096138 7.37363056,10.6948083 7.05190371,10.6647395 C6.37184327,10.6015259 5.70130145,10.4711731 5.05089662,10.2762404 C5.01015726,10.6106995 4.98949889,10.9500168 4.98949889,11.2920647 C4.98949889,11.6894089 5.01796933,12.0874399 5.07430396,12.4799761 L5.1399042,12.8704517 C5.14603384,12.9021999 5.14785203,12.9340558 5.14564225,12.9653544 L5.13356752,13.0361221 L5.1072425,13.1046953 L5.08678238,13.1404194 L5.04789577,13.190713 L4.99276675,13.2402192 L4.95201339,13.2668097 C4.93923283,13.2740904 4.92606542,13.2806635 4.91258185,13.2865112 L4.97752395,13.2512733 L4.93185317,13.277692 L4.8616426,13.3047408 L4.78274588,13.3192292 L4.69348272,13.3172396 L4.61725026,13.299954 C4.59308576,13.2919134 4.56994187,13.2818627 4.54770327,13.2695894 L2.09028494,11.9132846 C1.72624662,11.7124185 1.5,11.3378549 1.5,10.9359699 L1.5,8.1955811 C1.5,8.04706833 1.59021125,7.91198734 1.7310366,7.84956008 C1.87202162,7.78698019 2.03807418,7.80834893 2.15670597,7.90420301 C2.83857993,8.45477995 3.60129284,8.904678 4.42455979,9.24209363 C4.70661662,8.02489606 5.24071701,6.87315937 6.00864652,5.84105079 C6.40239942,5.31165261 6.85169558,4.82309806 7.34906051,4.38279304 C7.05590883,4.17218479 6.74714612,3.97708557 6.42441661,3.79896203 C5.98325964,3.55551099 5.51895112,3.34640256 5.04442397,3.17774212 C4.98018499,3.15534467 4.92690064,3.12075466 4.88392604,3.07440898 L4.86560164,3.05079897 C4.85145663,3.03470929 4.84379937,3.02344238 4.8366986,3.01167645 C4.73578162,2.84445768 4.78210122,2.63459069 4.93736827,2.51957057 L4.98391059,2.48966856 L7.40971506,1.15076412 C7.77375338,0.949745293 8.22608696,0.949745293 8.59028494,1.15076412 L10.9910219,2.47577888 C11.0529135,2.509913 11.1016055,2.55749921 11.1354017,2.61244715 L11.1698619,2.68549549 L11.1879449,2.76253457 L11.1890076,2.83950543 L11.1830148,2.88009997 L11.1647159,2.94150917 L11.1298622,3.00870914 L11.1098,3.03648991 L11.0606019,3.08823017 L11.0005586,3.13153903 L10.9285925,3.16492087 C10.091884,3.45779517 9.30622633,3.86715639 8.59236961,4.38237805 C9.55842447,5.23387475 10.3348258,6.26428025 10.8821297,7.43042743 C11.1589356,8.02007189 11.3714458,8.63453538 11.5168283,9.26406114 C11.8590631,9.12684725 12.1956518,8.96659461 12.5234955,8.7856637 C12.9905183,8.52786507 13.4345493,8.23007636 13.843294,7.90038717 C13.9620518,7.80467198 14.1280951,7.78347618 14.2689634,7.8460495 C14.4097936,7.90862255 14.4998403,8.04361174 14.4998403,8.19207052 L14.5,10.9361225 C14.5,11.3380075 14.2737534,11.7125711 13.9097151,11.9134373 L11.3849177,13.3066794 C11.3444717,13.3290255 11.3003938,13.3443023 11.2547403,13.3520039 L11.1856546,13.3579644 C11.0841936,13.3579644 10.9848055,13.3209751 10.9099139,13.2527049 Z M13.7016704,8.96912963 C13.4499125,9.13965093 13.1900164,9.29891746 12.9228199,9.44641579 C12.5129526,9.67264357 12.0904985,9.86915621 11.6580923,10.0354096 L11.6788627,10.17509 C11.7658396,10.8671107 11.7724207,11.5626387 11.698925,12.2514619 L13.5105502,11.2523799 C13.6283837,11.1873579 13.7016704,11.0661666 13.7016704,10.9359699 L13.7016704,8.96912963 Z M2.29832965,8.97325075 L2.29832965,10.9359699 C2.29832965,11.066014 2.37161631,11.1873579 2.48944977,11.2523799 L4.23756817,12.2162705 L4.21219041,11.9094899 C4.19818975,11.7038279 4.19117716,11.4977583 4.19116925,11.2916068 C4.19116925,10.8595722 4.22146832,10.4315261 4.2813481,10.0096289 L4.18526161,9.97376587 C3.51737902,9.70619867 2.88542127,9.37086202 2.29832965,8.97325075 Z M7.972197,4.87327451 L7.94308011,4.89766528 C7.4652316,5.31417138 7.03468718,5.7787153 6.65912552,6.28368905 C5.93155746,7.2616526 5.43245748,8.35664105 5.18027635,9.51325886 C5.81291053,9.71269425 6.46545252,9.84365523 7.12918202,9.90538589 C8.36686318,10.0205946 9.59641372,9.89301087 10.7607554,9.53453403 C10.6267977,8.91722857 10.4234864,8.3170708 10.1537337,7.74256373 C9.63615865,6.63974956 8.89545403,5.66904356 7.972197,4.87327451 Z M4.26014493,3.32976547 C4.37031442,3.5123156 4.30501105,3.74569281 4.1140506,3.85101019 L2.48944977,4.74773426 C2.37161631,4.8127563 2.29832965,4.9339476 2.29832965,5.06414431 L2.29832965,6.79577574 C2.29832965,7.00656313 2.11966347,7.17736045 1.89916482,7.17736045 C1.67866618,7.17736045 1.5,7.00656313 1.5,6.79577574 L1.5,5.06414431 C1.5,4.66225929 1.72624662,4.28769573 2.09028494,4.08682954 L3.71488578,3.19010546 C3.90584623,3.08478808 4.14997544,3.14721534 4.26014493,3.32976547 Z M12.263719,3.17835265 L13.9097151,4.08682954 C14.2737534,4.28769573 14.5,4.66225929 14.5,5.06414431 L14.5,6.7937915 C14.5,7.00442626 14.3211742,7.17522358 14.1008352,7.17522358 C13.8803365,7.17522358 13.7016704,7.00442626 13.7016704,6.79363886 L13.7016704,5.06414431 C13.7016704,4.93410024 13.6283837,4.8127563 13.5105502,4.74773426 L11.8645542,3.83925738 C11.6735937,3.73394 11.6082903,3.50056279 11.7184598,3.31801266 C11.8286293,3.13546253 12.0727585,3.07303527 12.263719,3.17835265 Z M7.80872022,1.81197411 L6.07921887,2.76654643 C6.33266992,2.88042406 6.58100934,3.00442102 6.82358143,3.13820994 C7.22675998,3.3607404 7.60991284,3.60763283 7.97134696,3.87709856 L8.05300909,3.81544649 C8.62557111,3.39585594 9.2414026,3.03915055 9.8914026,2.75036724 L8.19096045,1.81197411 C8.073127,1.74695208 7.92671334,1.74695208 7.80872022,1.81197411 Z" id="形状"></path>
            </g>
        </g>
    </g>
</svg>