<?xml version="1.0" encoding="UTF-8"?>
<svg width="16px" height="16px" viewBox="0 0 16 16" version="1.1" xmlns="http://www.w3.org/2000/svg" xmlns:xlink="http://www.w3.org/1999/xlink">
    <title>本体管理</title>
    <g id="空间里层页面优化" stroke="none" stroke-width="1" fill="none" fill-rule="evenodd">
        <g id="工作台-记忆看板" transform="translate(-22, -452)" fill="#171719" fill-rule="nonzero">
            <g id="左侧导航栏" transform="translate(-391, 0)">
                <g id="编组-44" transform="translate(403, 320)">
                    <g id="记忆对话" transform="translate(0, 121)">
                        <g id="本体管理" transform="translate(10, 11)">
                            <path d="M13.2554286,10.5827735 C12.6814771,11.7478179 11.7391689,12.6901332 10.5826995,13.2640889 C10.4028043,14.5319312 9.31486638,15.499946 8.00420113,15.499946 C6.68496943,15.499946 5.59703159,14.5233646 5.4257028,13.2555223 C4.260667,12.6815667 3.31835864,11.7392514 2.74440719,10.5827735 C1.47657412,10.402877 0.5,9.31493114 0.5,8.00425625 C0.5,6.68501486 1.47657412,5.60563553 2.74440719,5.42573897 C3.31835864,4.26069463 4.260667,3.31837934 5.4257028,2.74442367 C5.60559803,1.47658129 6.68496943,0.5 8.00420113,0.5 C9.31486639,0.5 10.4028043,1.46801479 10.5826995,2.73585717 C11.7391689,3.30981284 12.6814771,4.25212812 13.2554286,5.41717247 C14.5232617,5.59706903 15.499946,6.67644836 15.499946,7.99568974 C15.5084022,9.32349763 14.5232617,10.4114435 13.2554286,10.5827735 Z M8.00420113,14.1978376 C8.72378206,14.1978376 9.30629996,13.6153155 9.30629996,12.8957292 C9.30629996,12.176143 8.72378206,11.5936208 8.00420113,11.5936208 C7.28462019,11.5936208 6.7021023,12.176143 6.7021023,12.8957292 C6.7021023,13.6153155 7.28462019,14.1978376 8.00420113,14.1978376 Z M3.1127641,6.69358137 C2.39318317,6.69358137 1.81066527,7.27610354 1.81066527,7.99568974 C1.81066527,8.71527594 2.39318317,9.29779814 3.1127641,9.29779814 C3.83234503,9.29779814 4.41486291,8.72384247 4.41486291,8.00425625 C4.41486291,7.28467003 3.83234502,6.69358137 3.1127641,6.69358137 Z M8.00420113,1.80210839 C7.28462019,1.80210839 6.7021023,2.38463056 6.7021023,3.11278329 C6.7021023,3.84093601 7.28462019,4.41489168 8.00420113,4.41489168 C8.72378206,4.41489168 9.30629996,3.83236951 9.30629996,3.11278329 C9.30629996,2.39319708 8.72378206,1.80210839 8.00420113,1.80210839 L8.00420113,1.80210839 Z M10.4113706,4.12363058 C10.0173144,5.05737936 9.08357252,5.71700006 8.00420113,5.71700006 C6.92482973,5.71700006 5.99108781,5.05737936 5.59703159,4.12363058 C4.99738081,4.4919902 4.49196088,4.99741384 4.12360397,5.59706903 C5.05734589,5.99112815 5.71696174,6.91631041 5.71696174,8.00425625 C5.71696174,9.08363557 5.05734589,10.0088178 4.12360397,10.4114435 C4.49196088,11.0110987 4.99738081,11.5165223 5.59703159,11.8848819 C5.99108781,10.9511331 6.91626329,10.2915124 8.00420113,10.2915124 C9.08357252,10.2915124 10.008748,10.9511331 10.4113706,11.8848819 C11.002455,11.5165223 11.5078749,11.0110987 11.8847983,10.4114435 C10.9510564,10.0173844 10.2914405,9.09220208 10.2914405,8.01282275 C10.2914405,6.93344343 10.9510564,6.00826116 11.8847983,5.60563553 C11.5078749,4.99741386 11.002455,4.50055671 10.4113706,4.12363058 Z M12.8956382,6.69358137 C12.1760573,6.69358137 11.5935393,7.27610354 11.5935393,7.99568974 C11.5935393,8.71527594 12.1760573,9.29779814 12.8956382,9.29779814 C13.6152191,9.29779814 14.197737,8.71527595 14.197737,7.99568974 C14.197737,7.27610352 13.6152191,6.69358137 12.8956382,6.69358137 L12.8956382,6.69358137 Z" id="形状"></path>
                        </g>
                    </g>
                </g>
            </g>
        </g>
    </g>
</svg>