<?xml version="1.0" encoding="UTF-8"?>
<svg width="16px" height="16px" viewBox="0 0 16 16" version="1.1" xmlns="http://www.w3.org/2000/svg" xmlns:xlink="http://www.w3.org/1999/xlink">
    <title>收费管理</title>
    <g id="空间外层页面优化" stroke="none" stroke-width="1" fill="none" fill-rule="evenodd">
        <g id="首页" transform="translate(-22, -406)" fill="#171719" fill-rule="nonzero" stroke="#171719" stroke-width="0.2">
            <g id="收费管理" transform="translate(12, 395)">
                <g transform="translate(10, 11)" id="形状">
                    <path d="M8,1 C11.8658311,1 15,4.13416894 15,8 C15,8.46234332 14.9549864,8.91896458 14.866485,9.36566757 C14.8342784,9.54955352 14.7050782,9.70161061 14.5288055,9.76308609 C14.3525327,9.82456158 14.1567938,9.78582773 14.0172193,9.66185078 C13.8776449,9.53787382 13.8160939,9.34806988 13.8563488,9.16577657 C13.9318801,8.78468665 13.9700272,8.39520437 13.9700272,8 C13.9700272,4.70294278 11.2970572,2.02997275 8,2.02997275 C4.70294278,2.02997275 2.02997275,4.70294278 2.02997275,8 C2.02997275,11.2970572 4.70294278,13.9700272 8,13.9700272 C8.39482289,13.9700272 8.78468665,13.9318801 9.16577657,13.8563488 C9.44482333,13.8011504 9.71578255,13.9826154 9.77098092,14.2616621 C9.8261793,14.5407089 9.64471433,14.8116681 9.36566757,14.8668665 C8.91896458,14.9549864 8.46234332,15 8,15 C4.13416894,15 1,11.8658311 1,8 C1,4.13416894 4.13416894,1 8,1 Z M14.4850136,11.4904632 C14.7694327,11.4904632 15,11.7210305 15,12.0054496 C15,12.2898687 14.7694327,12.520436 14.4850136,12.520436 L11.0494823,12.520436 L11.5885014,13.1281199 C11.7106142,13.2657694 11.7500159,13.4581091 11.6918644,13.6326866 C11.6337128,13.8072641 11.4868426,13.9375569 11.3065783,13.974485 C11.1263139,14.011413 10.9400419,13.9493661 10.8179291,13.8117166 L9.5186376,12.3468665 C9.22414169,12.0149864 9.45989101,11.4904632 9.90392371,11.4904632 L14.4850136,11.4904632 Z M5.50098092,4.78152589 C5.59577475,4.68317754 5.72575759,4.62651814 5.86232991,4.62401419 C5.99890223,4.62151025 6.13087463,4.67336691 6.22920982,4.76817439 L7.98207084,6.45809265 L9.70746594,4.77084468 C9.83861839,4.6402856 10.029738,4.59013451 10.2080975,4.63947554 C10.3864569,4.68881657 10.5246289,4.83006227 10.5700344,5.00946401 C10.6154398,5.18886575 10.5610966,5.37883585 10.4276839,5.50708448 L8.99029972,6.91280654 L10.8965123,6.91280654 C11.1617629,6.91275274 11.3836672,7.11418373 11.4092098,7.37820164 L11.4114986,7.42779292 C11.4114986,7.56437579 11.3572413,7.69536459 11.2606626,7.79194327 C11.1640839,7.88852195 11.0330951,7.94277929 10.8965123,7.94277929 L8.53024523,7.94277929 L8.52604905,8.82016349 L10.8965123,8.82016349 C11.1617629,8.82010969 11.3836672,9.02154067 11.4092098,9.28555858 L11.4114986,9.33514987 C11.4114986,9.61956899 11.1809314,9.85013624 10.8965123,9.85013624 L8.5214714,9.85013624 L8.51498638,11.3027793 C8.51374998,11.56795 8.31135535,11.7888342 8.04730245,11.813188 L7.99771117,11.8154768 C7.86112787,11.8148711 7.73037943,11.7600321 7.6342297,11.6630239 C7.53807997,11.5660156 7.48440524,11.4347849 7.48501362,11.2982016 L7.49149864,9.85013624 L5.13896458,9.85013624 C4.87371398,9.85019005 4.65180968,9.64875905 4.62626703,9.38474114 L4.6239782,9.33514987 C4.6239782,9.05057221 4.85438692,8.82016349 5.13896458,8.82016349 L7.4960763,8.82016349 L7.50027247,7.94277929 L5.13896458,7.94277929 C4.87371398,7.94283309 4.65180968,7.7414021 4.62626703,7.47738419 L4.6239782,7.42779292 C4.6239782,7.14321525 4.85438692,6.91280654 5.13896458,6.91280654 L6.96964578,6.91280654 L5.51433243,5.50975477 C5.32498039,5.3274737 5.30327716,5.0318494 5.4639782,4.82386922 L5.50098092,4.78152589 Z"></path>
                </g>
            </g>
        </g>
    </g>
</svg>