<?xml version="1.0" encoding="UTF-8"?>
<svg width="16px" height="16px" viewBox="0 0 16 16" version="1.1" xmlns="http://www.w3.org/2000/svg" xmlns:xlink="http://www.w3.org/1999/xlink">
    <title>设置-界面设置</title>
    <g id="空间里层页面优化" stroke="none" stroke-width="1" fill="none" fill-rule="evenodd">
        <g id="工作台-记忆看板-3" transform="translate(-1196, -176)">
            <g id="编组-22" transform="translate(1180, 57)">
                <g id="设置-界面设置" transform="translate(16, 119)">
                    <g id="编组-2" transform="translate(2, 2)">
                        <path d="M9.43360402,6.02003217 C9.70219942,5.98544974 9.97412053,5.98544974 10.2427159,6.02003217 C10.3615753,6.03694616 10.4495746,6.13920492 10.4485827,6.25925761 L10.4485827,6.97778158 C10.8355212,7.08416506 11.1878633,7.2900028 11.4705612,7.57481981 L12.0861381,7.21535276 C12.1886462,7.15532215 12.3197841,7.18070349 12.3924911,7.27464643 C12.5566377,7.49314267 12.6927553,7.73134853 12.7976622,7.98369599 C12.8417451,8.09509234 12.7980417,8.22199461 12.6947152,8.28262525 L12.0795484,8.64127201 C12.1812591,9.03280439 12.1812591,9.44382977 12.0795484,9.83536215 L12.6951253,10.1940089 C12.7984653,10.255883 12.8408681,10.3841328 12.7947775,10.4954127 C12.6902734,10.7470629 12.5545635,10.9845849 12.3908368,11.2023979 C12.3178817,11.29706 12.1858902,11.3226521 12.0828433,11.2621154 L11.4681003,10.9034823 C11.1853554,11.1882385 10.8330304,11.3940662 10.4461218,11.5005205 L10.4461218,12.2190308 C10.4472928,12.3391587 10.3591904,12.4415237 10.2402277,12.4582563 C9.97161477,12.49242 9.69975606,12.49242 9.43114314,12.4582563 C9.31227289,12.4413547 9.22425896,12.3390925 9.22524902,12.2190308 L9.22524902,11.5005069 C8.83966141,11.3929856 8.48863308,11.187108 8.20657902,10.9030585 L7.58893771,11.263756 C7.48646614,11.3234892 7.35562246,11.2983389 7.28259844,11.2048724 C7.11845115,10.9862292 6.98233473,10.7478877 6.87742727,10.4954127 C6.83256205,10.383776 6.87616574,10.2561165 6.9799505,10.195253 L7.59757815,9.83618245 C7.54895974,9.65227947 7.52310022,9.46310373 7.52057977,9.27289936 C7.51726668,9.06031128 7.54274952,8.8482532 7.59633403,8.64250245 L6.9807708,8.28344555 C6.87737248,8.2230699 6.83375833,8.09609457 6.87823389,7.98492643 C6.98279132,7.7324117 7.11893329,7.49416785 7.28340506,7.27589055 C7.35624204,7.18108729 7.48825303,7.15531561 7.59139859,7.2157629 L8.2061552,7.57481981 C8.48870496,7.29001094 8.84091669,7.08416484 9.22773725,6.97776791 L9.22773725,6.25925761 C9.22638248,6.13907231 9.31455943,6.03660714 9.43360402,6.02003217 Z M9.85567328,8.1381029 L9.83960916,8.1381029 C9.44388649,8.13394685 9.07614467,8.3416968 8.87546122,8.68278309 C8.67477776,9.02386937 8.67178651,9.44622602 8.86761874,9.79012055 C9.06345096,10.1340151 9.42821335,10.3469528 9.82395519,10.3484022 L9.85608342,10.3484022 C10.4510916,10.3389892 10.929189,9.8552216 10.9315862,9.26014377 C10.9437669,8.6534016 10.4623788,8.15138092 9.85567328,8.1381029 Z" id="形状结合" fill="#171719" fill-rule="nonzero"></path>
                        <path d="M5.99499898,12 L2,12 C0.8954305,12 4.4408921e-16,11.1045695 4.4408921e-16,10 L0,2 C0,0.8954305 0.8954305,2.22044605e-16 2,0 L10,0 C11.1045695,0 12,0.8954305 12,2 L12,4.98927875 L12,4.98927875" id="路径" stroke="#171719" stroke-width="1.2" stroke-linecap="round" stroke-linejoin="round"></path>
                        <line x1="0" y1="3.99424593" x2="12" y2="3.99424593" id="路径-2" stroke="#171719" stroke-width="1.2"></line>
                        <circle id="椭圆形" fill="#171719" cx="2.2" cy="2" r="1"></circle>
                        <circle id="椭圆形" fill="#171719" cx="4.4" cy="2" r="1"></circle>
                    </g>
                </g>
            </g>
        </g>
    </g>
</svg>