<?xml version="1.0" encoding="UTF-8"?>
<svg width="16px" height="16px" viewBox="0 0 16 16" version="1.1" xmlns="http://www.w3.org/2000/svg" xmlns:xlink="http://www.w3.org/1999/xlink">
    <title>skills-icon</title>
    <g id="空间外层页面优化" stroke="none" stroke-width="1" fill="none" fill-rule="evenodd">
        <g id="首页" transform="translate(-22, -360)" stroke="#171719" stroke-width="1.2">
            <g id="工具管理" transform="translate(12, 349)">
                <g id="skills-icon" transform="translate(10, 11)">
                    <g id="编组-38" transform="translate(2, 2)">
                        <path d="M9.49970122,0 C9.71415537,0 9.90389688,0.13886821 9.96865843,0.343220873 C10.3168573,1.39624746 10.6035658,1.68283064 11.6577934,2.03161792 C11.8616446,2.09672143 12,2.28609007 12,2.5 C12,2.71390993 11.8616446,2.90327857 11.6577934,2.96838208 C10.6043066,3.31642883 10.3168573,3.60301201 9.96865843,4.65677913 C9.90389688,4.86113179 9.73417982,5 9.49970122,5 C9.26522261,5 9.09550555,4.86113179 9.030744,4.65677913 C8.68254512,3.60301201 8.39509583,3.31642883 7.34086814,2.96838208 C7.13563491,2.90751652 6.99622897,2.71728025 7.00007774,2.50333237 C7.00007774,2.30190957 7.11639099,2.10863253 7.34086814,2.0308774 C8.39509583,1.68283064 8.68180427,1.39624746 9.030744,0.343220873 C9.09550555,0.13886821 9.28524707,0 9.49970122,0 Z" id="路径" fill-rule="nonzero"></path>
                        <rect id="矩形" x="0" y="0" width="5" height="5" rx="2"></rect>
                        <rect id="矩形备份-10" x="0" y="7" width="5" height="5" rx="2"></rect>
                        <rect id="矩形备份-11" x="7" y="7" width="5" height="5" rx="2"></rect>
                    </g>
                </g>
            </g>
        </g>
    </g>
</svg>