<?xml version="1.0" encoding="UTF-8"?>
<svg width="16px" height="16px" viewBox="0 0 16 16" version="1.1" xmlns="http://www.w3.org/2000/svg" xmlns:xlink="http://www.w3.org/1999/xlink">
    <title>模型管理</title>
    <g id="空间外层页面优化" stroke="none" stroke-width="1" fill="none" fill-rule="evenodd">
        <g id="首页" transform="translate(-22, -206)" stroke="#171719" stroke-width="1.2">
            <g id="空间管理" transform="translate(12, 195)">
                <g id="模型管理" transform="translate(10, 11)">
                    <path d="M7.3,1.59696551 C7.73316151,1.3468796 8.26683849,1.3468796 8.7,1.59696551 L13.1951905,4.19226497 C13.628352,4.44235089 13.8951905,4.90452871 13.8951905,5.40470054 L13.8951905,10.5952995 C13.8951905,10.8453854 13.8284809,11.0859728 13.7076261,11.2952995 C13.5867713,11.5046261 13.4117713,11.6826921 13.1951905,11.807735 L8.7,14.4030345 C8.26683849,14.6531204 7.73316151,14.6531204 7.3,14.4030345 L2.80480947,11.807735 C2.37164796,11.5576491 2.10480947,11.0954713 2.10480947,10.5952995 L2.10480947,5.40470054 C2.10480947,5.15461463 2.17151909,4.91402721 2.29237391,4.70470054 C2.41322872,4.49537386 2.58822872,4.31730793 2.80480947,4.19226497 Z" id="多边形"></path>
                    <polyline id="路径" stroke-linecap="round" stroke-linejoin="round" points="10.5 6 8 7.66666667 5.5 6"></polyline>
                    <line x1="8" y1="8.00532812" x2="8" y2="10.5053281" id="路径-19" stroke-linecap="round" stroke-linejoin="round"></line>
                </g>
            </g>
        </g>
    </g>
</svg>