<?xml version="1.0" encoding="UTF-8"?>
<svg width="16px" height="16px" viewBox="0 0 16 16" version="1.1" xmlns="http://www.w3.org/2000/svg" xmlns:xlink="http://www.w3.org/1999/xlink">
    <title>空间配置</title>
    <g id="空间里层页面优化" stroke="none" stroke-width="1" fill="none" fill-rule="evenodd">
        <g id="工作台-记忆看板" transform="translate(-22, -698)" stroke="#FFFFFF" stroke-width="1.2">
            <g id="编组-13" transform="translate(12, 566)">
                <g id="成员管理" transform="translate(0, 121)">
                    <g id="空间配置" transform="translate(10, 11)">
                        <g id="编组-48" transform="translate(1.5, 1)">
                            <path d="M7.07735028,0.147797937 L12.4226497,3.09620852 C12.7799153,3.29327243 13,3.65746157 13,4.0515894 L13,9.94841056 C13,10.3425384 12.7799153,10.7067275 12.4226497,10.9037914 L7.07735028,13.8522021 C6.72008469,14.049266 6.27991534,14.049266 5.92264974,13.8522021 L0.577350276,10.9037914 C0.220084682,10.7067275 0,10.3425384 0,9.94841056 L0,4.0515894 C0,3.65746157 0.220084682,3.29327243 0.577350276,3.09620852 L5.92264974,0.147797937 C6.27991534,-0.049265979 6.72008469,-0.049265979 7.07735028,0.147797937 Z" id="多边形"></path>
                            <polyline id="路径-15" points="0.0697311555 3.54588127 6.50000001 6.99293089 6.50000001 14"></polyline>
                            <line x1="6.50000001" y1="6.99015831" x2="12.9333316" y2="3.54588127" id="路径-16"></line>
                        </g>
                    </g>
                </g>
            </g>
        </g>
    </g>
</svg>