<?xml version="1.0" encoding="UTF-8"?>
<svg width="16px" height="16px" viewBox="0 0 16 16" version="1.1" xmlns="http://www.w3.org/2000/svg" xmlns:xlink="http://www.w3.org/1999/xlink">
    <title>工具管理 (2)</title>
    <g id="空间外层页面优化" stroke="none" stroke-width="1" fill="none" fill-rule="evenodd">
        <g id="首页" transform="translate(-111, -632)" stroke="#FFFFFF" stroke-width="1.2">
            <g id="工具管理-(2)" transform="translate(111, 632)">
                <g id="编组-16" transform="translate(1.5, 1.5)">
                    <path d="M6.53871664,3.72096974 C5.74639837,2.92910097 4.55792096,1.74129781 2.97328442,0.157560264 C2.77839597,-0.0372176242 2.46241936,-0.0372176242 2.2675309,0.157560264 L0.150270351,2.27361965 C-0.0446181011,2.46839754 -0.0446181011,2.78419489 0.150270351,2.97897278 C1.74336839,4.57116702 2.93819192,5.7653127 3.73474094,6.56140982 M6.49493751,9.32004048 C7.17394111,9.99865887 8.35256847,11.1766176 10.0308196,12.8539166 C10.225708,13.0486945 10.5416847,13.0486945 10.7365731,12.8539166 L12.8538337,10.7378572 C13.0487221,10.5430793 13.0487221,10.227282 12.8538337,10.0325041 C11.1745353,8.35415844 9.99495488,7.17524719 9.31509231,6.49577032" id="形状" stroke-linejoin="round"></path>
                    <path d="M10.7346374,0.146083428 L12.8456309,2.25587932 C13.0188651,2.42901522 13.0381134,2.69777144 12.9033757,2.8921563 L12.8374304,2.96924216 L3.34766234,12.0274937 L0.630896587,12.7713227 C0.365076784,12.8441021 0.0905544391,12.6877341 0.0177337684,12.4220651 C-0.00540442092,12.3376509 -0.00590902433,12.2486376 0.0162706466,12.1639668 L0.765809877,9.30260322 L10.0308302,0.144148887 C10.2043376,-0.0273627682 10.4720946,-0.0457366311 10.6657985,0.0885646877 L10.7346374,0.146083428 Z" id="矩形"></path>
                    <line x1="8.75416423" y1="1.32663119" x2="11.587046" y2="4.16317466" id="路径-4"></line>
                    <line x1="0.940624347" y1="9.30390286" x2="3.7270582" y2="12.0790587" id="路径-5"></line>
                </g>
            </g>
        </g>
    </g>
</svg>