<?xml version="1.0" encoding="UTF-8"?>
<svg width="16px" height="16px" viewBox="0 0 16 16" version="1.1" xmlns="http://www.w3.org/2000/svg" xmlns:xlink="http://www.w3.org/1999/xlink">
    <title>账户</title>
    <g id="空间里层页面优化" stroke="none" stroke-width="1" fill="none" fill-rule="evenodd">
        <g id="工作台-记忆看板-3" transform="translate(-1196, -140)" fill="#171719" fill-rule="nonzero" stroke="#171719" stroke-width="0.4">
            <g id="编组-22" transform="translate(1180, 57)">
                <g id="账户" transform="translate(16, 83)">
                    <path d="M8,1 C4.13400675,1 1,4.13400675 1,8 C1,11.8659932 4.13400675,15 8,15 C11.8659932,15 15,11.8659932 15,8 C14.9947583,4.13618002 11.86382,1.0052417 8,1 L8,1 Z M12.4014141,12.3271621 L12.2224629,12.517543 L12.1748711,12.2662539 C12.0428879,11.5485013 11.7289104,10.8766306 11.2629844,10.3149355 C11.1145387,10.1521744 10.8641988,10.135306 10.6952598,10.2766811 C10.5263208,10.4180561 10.4988,10.6674498 10.6328477,10.8422598 C11.1442401,11.4572317 11.4244051,12.2317168 11.4248047,13.0315371 C11.4257399,13.0442165 11.4257399,13.0569476 11.4248047,13.069627 L11.4248047,13.1419512 L11.3638828,13.1819414 C9.31720678,14.5169283 6.67517799,14.5169283 4.62850195,13.1819414 L4.56758008,13.1419648 L4.56758008,13.0334512 C4.56758008,11.1409267 6.10177432,9.60673242 7.99429883,9.60673242 C9.43633406,9.61053035 10.6698828,8.57151634 10.9112248,7.14981524 C11.1525669,5.72811413 10.3309981,4.34023189 8.96849203,3.8679425 C7.60598597,3.39565311 6.10170668,3.97731994 5.4113796,5.24338809 C4.72105252,6.50945624 5.046918,8.08901446 6.18194141,8.97850977 L6.35137695,9.10986914 L6.16099609,9.20315234 C4.9414843,9.79213158 4.07443441,10.9255913 3.82512891,12.2567383 L3.77753711,12.5080273 L3.59858594,12.3176602 C2.45876944,11.1700068 1.82010269,9.61749329 1.8223981,8 C1.81896848,5.20888419 3.68748546,2.76216731 6.38105315,2.03070823 C9.07462084,1.29924914 11.9240679,2.46476648 13.3328918,4.87423832 C14.7417157,7.28371017 14.3599179,10.338544 12.4014141,12.3271621 L12.4014141,12.3271621 Z M5.87924609,6.65787305 C5.88029543,5.48791052 6.82940261,4.5402209 7.9993654,4.54091991 C9.16932819,4.5416197 10.1173016,5.49044339 10.1169523,6.66040633 C10.1166027,7.83036928 9.16806261,8.77862695 7.99809961,8.77862695 C6.82758179,8.77757806 5.87924609,7.82839134 5.87924609,6.65787305 L5.87924609,6.65787305 Z" id="形状"></path>
                </g>
            </g>
        </g>
    </g>
</svg>