<?xml version="1.0" encoding="UTF-8"?>
<svg width="16px" height="16px" viewBox="0 0 16 16" version="1.1" xmlns="http://www.w3.org/2000/svg" xmlns:xlink="http://www.w3.org/1999/xlink">
    <title>用户管理</title>
    <g id="空间外层页面优化" stroke="none" stroke-width="1" fill="none" fill-rule="evenodd">
        <g id="首页" transform="translate(-207, -632)" fill="#FFFFFF" fill-rule="nonzero" stroke="#FFFFFF" stroke-width="0.2">
            <g id="用户管理" transform="translate(207, 632)">
                <path d="M12.88346,1.5 C14.0503076,1.5 15,2.4977971 15,3.72394204 L15,12.2764348 C15,13.5025797 14.0503076,14.5 12.88346,14.5 L3.11617806,14.5 C1.94933043,14.5 1,13.5025797 1,12.2764348 L1,3.72394204 C1,2.4977971 1.94933044,1.5 3.11617806,1.5 L12.88346,1.5 Z M12.88346,2.5264348 L3.11617806,2.5264348 C2.48787549,2.5264348 1.97683677,3.06376813 1.97683677,3.72394204 L1.97683677,12.2764348 C1.97683677,12.9366087 2.4878755,13.473942 3.11617806,13.473942 L12.88346,13.473942 C13.5117626,13.473942 14.0231632,12.9366087 14.0231632,12.2764348 L14.0231632,3.72394204 C14.0231632,3.06376813 13.5117626,2.5264348 12.88346,2.5264348 Z M5.16178068,5.43956522 C6.20608821,5.44081114 7.05236828,6.32189908 7.05356496,7.40915943 C7.05279201,8.11143138 6.69945088,8.72768835 6.16790571,9.07639454 C6.89355987,9.2359675 7.5582178,9.60998315 8.06188925,10.1542319 C8.24610929,10.3528116 8.22728917,10.6565217 8.02099167,10.8332464 C7.92942454,10.9116232 7.81107491,10.9549565 7.68802027,10.9545821 C7.55012667,10.9545821 7.41295692,10.9003188 7.31378936,10.7933044 C6.81541803,10.2552174 6.09989142,9.9466087 5.35106768,9.9466087 C4.60188202,9.9466087 3.88671733,10.2555942 3.38798407,10.7933044 C3.20376402,10.9918841 2.88780311,11.0092174 2.68114368,10.8332464 C2.47448426,10.6565217 2.45566413,10.3528116 2.63988418,10.1542319 C3.08193588,9.67706028 3.64756421,9.33056805 4.26968075,9.14369217 C3.67477508,8.8126858 3.27082289,8.16009728 3.26999637,7.40915943 C3.27119306,6.32189908 4.11747314,5.44081113 5.16178068,5.43956522 Z M12.2490047,9.53663769 C12.5139341,9.53663769 12.7292798,9.76573914 12.7292798,10.0487246 C12.7292798,10.3313333 12.5139341,10.5608116 12.2490047,10.5608116 L9.04741224,10.5608116 C8.78212089,10.5608116 8.56713716,10.3309565 8.56713716,10.0483478 C8.56713716,9.76573914 8.78212087,9.53663769 9.04741224,9.53663769 L12.2490047,9.53663769 Z M12.2490047,7.48791306 C12.5139341,7.48791306 12.7292798,7.71739132 12.7292798,8.00037682 C12.7292798,8.28298551 12.5139341,8.51208696 12.2490047,8.51208696 L9.04741224,8.51208696 C8.78212089,8.51208696 8.56713716,8.28298551 8.56713716,8.00000001 C8.56713716,7.71739132 8.78212087,7.48791306 9.04741224,7.48791306 L12.2490047,7.48791306 Z M5.16178068,6.40910145 C4.63167261,6.41010079 4.20202825,6.85724807 4.20123054,7.40915943 C4.2018289,7.96121796 4.63153153,8.40859444 5.16178068,8.4092174 C5.69202981,8.40859443 6.12173244,7.96121795 6.1223308,7.40915943 C6.12173245,6.85710091 5.69202982,6.40972442 5.16178068,6.40910145 Z M12.2490047,5.43956522 C12.5139341,5.43956522 12.7292798,5.66866667 12.7292798,5.95165217 C12.7292798,6.23426086 12.5139341,6.46373914 12.2490047,6.46373914 L9.04741224,6.46373914 C8.78212089,6.46373914 8.56713716,6.23463769 8.56713716,5.95127537 C8.56713716,5.66866669 8.78212087,5.43956522 9.04741224,5.43956522 L12.2490047,5.43956522 Z" id="形状结合"></path>
            </g>
        </g>
    </g>
</svg>