<?xml version="1.0" encoding="UTF-8"?>
<svg width="32px" height="32px" viewBox="0 0 32 32" version="1.1" xmlns="http://www.w3.org/2000/svg" xmlns:xlink="http://www.w3.org/1999/xlink">
    <title>编组 34</title>
    <g id="V1.1" stroke="none" stroke-width="1" fill="none" fill-rule="evenodd">
        <g id="首页" transform="translate(-1056, -232)">
            <g id="核心数据" transform="translate(256, 216)">
                <g id="编组-19备份-3" transform="translate(648, 0)">
                    <g id="编组-34" transform="translate(152, 16)">
                        <rect id="矩形" fill="#9C6FFF" x="0" y="0" width="32" height="32" rx="8"></rect>
                        <g id="icon-GIS_运行管理" transform="translate(7, 8)" fill="#FFFFFF" fill-rule="nonzero">
                            <path d="M7.16762406,14.1962904 C6.34809084,14.1646209 5.54326395,13.9741465 4.80020028,13.636004 C3.71131238,13.1260904 3.00897969,12.3104053 2.71316514,11.2234143 L2.87831314,11.2234143 C3.04376149,11.2238267 3.19695148,11.1385171 3.28050226,10.9994401 C3.36405304,10.8603631 3.3653563,10.6885064 3.28392388,10.5482427 L2.07888794,8.54040242 C1.99542259,8.40040876 1.84176478,8.31425552 1.67554571,8.31425552 C1.50932664,8.31425552 1.35566883,8.40040876 1.27220348,8.54040242 L0.0617231013,10.5500101 C-0.0210158141,10.6903056 -0.0205423886,10.8629501 0.0629647773,11.0028132 C0.146471943,11.1426763 0.300303569,11.2284717 0.466426438,11.227833 L0.804889093,11.227833 C1.23681463,13.5308399 2.77123916,14.6911806 3.98534917,15.2567694 C4.98325891,15.7122175 6.06611522,15.9645167 7.16762406,15.998225 C7.68009348,15.9996891 8.09703053,15.596793 8.09953973,15.0976976 C8.100628,14.8580057 8.00249628,14.627997 7.82730865,14.4596427 C7.65206093,14.2900046 7.4147074,14.1952508 7.16762406,14.1962904 L7.16762406,14.1962904 Z M17.9430772,5.00547242 C17.8606071,4.86230637 17.7051137,4.77374302 17.5365591,4.77393451 L17.1980964,4.77393451 C16.7661709,2.47092761 15.230839,1.31058684 14.0176364,0.742346841 C13.0197435,0.28685171 11.9368771,0.0345501233 10.8353615,0.000895273713 C10.4982732,-0.0093928287 10.18217,0.159876081 10.0105024,0.442595865 C9.83883478,0.725315649 9.83883478,1.076638 10.0105024,1.35935779 C10.18217,1.64207757 10.4982732,1.81134648 10.8353615,1.80105838 C11.6548676,1.83493183 12.4595539,2.02529996 13.2036927,2.36134478 C14.2925806,2.87214217 14.9949133,3.68694353 15.2907278,4.77393451 L15.1255798,4.77393451 C14.9574006,4.77106293 14.8007624,4.85694697 14.7160555,4.99847492 C14.6313487,5.14000288 14.6318043,5.3150681 14.7172468,5.456176 L15.9213754,7.46401624 C16.0048407,7.60400991 16.1584985,7.69016315 16.3247176,7.69016315 C16.4909367,7.69016315 16.6445945,7.60400991 16.7280598,7.46401624 L17.9303735,5.4588272 C18.018434,5.32105318 18.023291,5.14771891 17.9430772,5.00547242 L17.9430772,5.00547242 Z M16.1563937,7.99424995 L10.1375658,7.99424995 C9.50717772,7.99229725 8.99410285,8.48763753 8.99060389,9.10157256 L8.99060389,14.8926716 C8.99410285,15.5066067 9.50717772,16.0019469 10.1375658,15.9999942 L16.1563937,15.9999942 C16.7867818,16.0019469 17.2998566,15.5066067 17.3033556,14.8926716 L17.3033556,9.10157256 C17.2998566,8.48763753 16.7867818,7.99229725 16.1563937,7.99424995 L16.1563937,7.99424995 Z M15.4431721,9.79530257 L15.4431721,14.1962904 L10.854417,14.1962904 L10.854417,9.79530257 L15.4431721,9.79530257 Z M9.00058536,1.10732836 C8.99708639,0.493393328 8.48401152,-0.0019469461 7.85362344,5.75355807e-06 L1.83207335,5.75355807e-06 C1.20203901,-0.00145886726 0.689517223,0.493739212 0.686018831,1.10732836 L0.686018831,6.89842744 C0.686499539,7.19390032 0.807543503,7.47707233 1.02249671,7.68558868 C1.23744991,7.89410503 1.5286856,8.0108668 1.83207335,8.01018014 L7.85090122,8.01018014 C8.15491658,8.01180822 8.44708623,7.89546249 8.66282574,7.68684408 C8.87856526,7.47822567 9.00010748,7.1945153 9.00058536,6.89842744 L9.00058536,1.10732836 Z M7.13677223,1.80105838 L7.13677223,6.20558116 L2.54983195,6.20558116 L2.54983195,1.80105838 L7.13677223,1.80105838 Z" id="形状"></path>
                        </g>
                    </g>
                </g>
            </g>
        </g>
    </g>
</svg>