<?xml version="1.0" encoding="UTF-8"?>
<svg width="32px" height="32px" viewBox="0 0 32 32" version="1.1" xmlns="http://www.w3.org/2000/svg" xmlns:xlink="http://www.w3.org/1999/xlink">
    <title>编组 32</title>
    <defs>
        <linearGradient x1="50%" y1="0%" x2="50%" y2="96.5083812%" id="linearGradient-1">
            <stop stop-color="#369F21" offset="0%"></stop>
            <stop stop-color="#369F21" offset="100%"></stop>
        </linearGradient>
    </defs>
    <g id="V1.1" stroke="none" stroke-width="1" fill="none" fill-rule="evenodd">
        <g id="首页" transform="translate(-624, -232)">
            <g id="核心数据" transform="translate(256, 216)">
                <g id="编组-19备份" transform="translate(216, 0)">
                    <g id="编组-32" transform="translate(152, 16)">
                        <rect id="矩形" fill="url(#linearGradient-1)" x="0" y="0" width="32" height="32" rx="8"></rect>
                        <g id="空间-(1)" transform="translate(5, 7)" fill="#FFFFFF" fill-rule="nonzero">
                            <path d="M21.8430883,4.38834951 C21.4863174,3.55339806 20.6408194,3.19174757 19.9932559,3.03640777 C19.3676851,2.88592233 18.5954962,2.83495146 17.6937946,2.8907767 C17.6131546,2.80582524 17.5325146,2.72087379 17.449431,2.63834951 C16.6185948,1.8131068 15.6484713,1.16262136 14.5683843,0.708737864 C13.4516427,0.240291262 12.2640357,0 11.0397741,0 C9.81795616,0 8.63034912,0.237864078 7.51116389,0.708737864 C6.43107684,1.16262136 5.46339703,1.81067961 4.6301172,2.63834951 C3.79683737,3.46601942 3.14438659,4.42718447 2.68742668,5.5 C2.21580496,6.6092233 1.973885,7.78883495 1.973885,9.00485437 C1.973885,9.1723301 1.97877228,9.33737864 1.98854682,9.50242718 C1.30188514,10.1237864 0.788721607,10.723301 0.456387128,11.288835 C0.121609013,11.8592233 -0.200950922,12.7135922 0.155819916,13.5485437 C0.519921661,14.4004854 1.39718694,14.7621359 2.06674317,14.9150485 C2.51637217,15.0169903 3.03686661,15.0679612 3.62333922,15.0679612 C3.84571008,15.0679612 4.07785549,15.0606796 4.31977544,15.0461165 C4.46150632,15.2014563 4.60812448,15.3519417 4.7596299,15.4975728 C5.02354257,15.7475728 5.3045607,15.9854369 5.59535337,16.2038835 C7.18371668,17.3786408 9.06531631,18 11.0446614,18 C12.2664793,18 13.4540863,17.7621359 14.5732716,17.2912621 C15.6533586,16.8373786 16.6210384,16.1893204 17.4543183,15.3616505 C18.2851545,14.5364078 18.9400489,13.5728155 19.3970088,12.5 C19.8686305,11.3907767 20.1105505,10.211165 20.1105505,8.99514563 C20.1105505,8.78398058 20.1032195,8.57038835 20.0885577,8.36165049 C20.7165721,7.78398058 21.1955248,7.22572816 21.5131974,6.69660194 C21.865081,6.11650485 22.2096337,5.24029126 21.8430883,4.38834951 Z M5.88125876,3.87135922 C7.2594694,2.50242718 9.09463994,1.74757282 11.0446614,1.74757282 C12.9946828,1.74757282 14.8298533,2.50242718 16.208064,3.87135922 C17.261271,4.91747573 17.9552636,6.23058252 18.2216199,7.65533981 C16.6503621,8.91504854 14.4437589,10.1747573 11.9683557,11.2208738 C9.51494531,12.2572816 7.09330216,12.9587379 5.09929529,13.2135922 C4.92824077,12.9781553 4.77429171,12.7305825 4.63256083,12.4781553 C4.56169539,12.3470874 4.49082995,12.2135922 4.42729542,12.0776699 C4.40285906,12.0242718 4.37597907,11.9684466 4.35154271,11.9150485 C3.94345552,10.9951456 3.7381901,10.0145631 3.7381901,9 C3.74307738,7.0631068 4.50304813,5.24271845 5.88125876,3.87135922 Z M1.78328141,12.8616505 C1.7417396,12.7645631 1.77350686,12.5291262 1.98610318,12.1650485 C2.08629225,11.9951456 2.21580496,11.8131068 2.37464129,11.6237864 C2.47727399,11.961165 2.60189942,12.2936893 2.74607394,12.618932 C2.77539757,12.6868932 2.80716484,12.7548544 2.8389321,12.8228155 C2.91468482,12.9830097 2.9953248,13.1432039 3.08085205,13.2985437 C2.17670678,13.2257282 1.83459776,12.9805825 1.78328141,12.8616505 L1.78328141,12.8616505 Z M16.208064,14.1286408 C14.8298533,15.5 12.9946828,16.2524272 11.0446614,16.2524272 C9.44896714,16.2524272 7.9339129,15.75 6.66322224,14.8009709 C6.63634225,14.7815534 6.60946225,14.7597087 6.58258226,14.7402913 C8.44952007,14.3762136 10.5510469,13.7160194 12.657461,12.8276699 C14.7858679,11.9296117 16.7383329,10.8713592 18.3047035,9.77669903 C18.1312054,11.4223301 17.4005583,12.9441748 16.208064,14.1286408 L16.208064,14.1286408 Z M19.6780269,6.25728155 C19.5949433,6 19.4996415,5.74757282 19.3945651,5.49757282 C19.2699397,5.2038835 19.1282088,4.91747573 18.9742598,4.63834951 C19.1990743,4.65776699 19.401896,4.68932039 19.5802815,4.73300971 C19.9932559,4.83252427 20.1838595,4.97330097 20.227845,5.07281553 C20.2742741,5.1868932 20.2180704,5.58737864 19.6780269,6.25728155 L19.6780269,6.25728155 Z" id="形状"></path>
                            <path d="M6.83916403,8.87135922 C7.18127305,9.06796117 7.56981115,9.16504854 7.9681238,9.16504854 C8.28579646,9.16504854 8.61324367,9.10194175 8.9284727,8.97815534 C9.58092348,8.7184466 10.1502906,8.21601942 10.5290542,7.5631068 C10.9078178,6.91019417 11.0617668,6.16990291 10.9615777,5.47815534 C10.8516141,4.72087379 10.436196,4.08495146 9.82284343,3.73300971 C9.20949082,3.38106796 8.44707643,3.34223301 7.73109112,3.62621359 C7.07864034,3.88592233 6.50927318,4.38834951 6.13050962,5.04126214 C5.75174606,5.69417476 5.597797,6.43446602 5.69798607,7.12621359 C5.81039332,7.88349515 6.22581142,8.51941748 6.83916403,8.87135922 Z M7.65533841,5.91504854 C7.83616746,5.60436893 8.10252377,5.36165049 8.38598553,5.25 C8.51061096,5.20145631 8.74764364,5.13349515 8.94557815,5.24757282 C9.14106902,5.3592233 9.20460355,5.59708738 9.221709,5.73058252 C9.26569445,6.0315534 9.1874981,6.38106796 9.00666905,6.69174757 C8.82583999,7.00242718 8.55948368,7.24514563 8.27602192,7.35679612 C8.15139649,7.40533981 7.91436381,7.47330097 7.71642931,7.3592233 C7.39875664,7.17475728 7.2936803,6.53640777 7.65533841,5.91504854 Z" id="形状"></path>
                            <path d="M14.3929157,5.78130192 C14.6699504,6.12865804 15.0730899,6.3338495 15.4504584,6.31957402 C15.8278269,6.30529853 16.1220856,6.07372518 16.2223777,5.71209515 C16.3226697,5.35046513 16.2137563,4.91372597 15.9366687,4.56641148 C15.659634,4.21905536 15.2564945,4.0138639 14.879126,4.02813938 C14.5017575,4.04241487 14.2074988,4.27398822 14.1072067,4.63561824 C14.0069147,4.99724827 14.1158281,5.43398743 14.3929157,5.78130192 L14.3929157,5.78130192 Z" id="路径"></path>
                        </g>
                    </g>
                </g>
            </g>
        </g>
    </g>
</svg>