<?xml version="1.0" encoding="UTF-8"?>
<svg width="40px" height="40px" viewBox="0 0 40 40" version="1.1" xmlns="http://www.w3.org/2000/svg" xmlns:xlink="http://www.w3.org/1999/xlink">
    <title>编组 24</title>
    <g id="V1.1" stroke="none" stroke-width="1" fill="none" fill-rule="evenodd">
        <g id="首页" transform="translate(-1152, -664)">
            <g id="快捷操作" transform="translate(1120, 502)">
                <g id="编组-11" transform="translate(2, 38)">
                    <g id="编组-24" transform="translate(30, 124)">
                        <rect id="矩形" stroke="#DFE4ED" fill="#FFFFFF" x="0.5" y="0.5" width="39" height="39" rx="8"></rect>
                        <g id="用户管理" transform="translate(9, 10)" stroke="#212332" stroke-width="1.7">
                            <path d="M10.4752216,9.8347602 C12.0826337,9.8347602 13.5411901,10.4629457 14.5971671,11.4807313 C15.6415902,12.4873807 16.2916977,13.8763311 16.2916977,15.41013 L16.2916987,17.2469287 C16.292495,17.768016 16.0699552,18.2385306 15.715897,18.5800613 C15.3496472,18.9333521 14.8431448,19.15 14.2862956,19.15 L2.85772417,19.15 C2.30025073,19.15 1.79383233,18.9336648 1.42754075,18.5806207 C1.07279965,18.2387094 0.85,17.7674542 0.85,17.2456298 L0.85,15.41013 C0.85,13.8763309 1.50010692,12.4873802 2.54452956,11.4807307 C3.60050579,10.4629455 5.05906118,9.8347602 6.6664729,9.8347602 Z" id="路径" fill-rule="nonzero"></path>
                            <path d="M8.51095419,0.85 C9.31202689,0.85 10.0374296,1.17449643 10.5625442,1.69913767 C11.0873448,2.22346508 11.4120985,2.94775006 11.4120985,3.74776253 C11.4120985,4.54882217 11.0868662,5.27413048 10.5618329,5.79931671 C10.0365783,6.32472447 9.31123944,6.65 8.51095419,6.65 C7.71104886,6.65 6.98645948,6.32499629 6.46178132,5.80015797 C5.93701763,5.27523409 5.61209853,4.5502916 5.61209853,3.75 C5.61209853,2.94883778 5.93633819,2.22374798 6.46093583,1.69899021 C6.98544108,1.17432485 7.71016945,0.85 8.51095419,0.85 Z" id="路径" fill-rule="nonzero"></path>
                            <path d="M16.5,8 C17.8807119,8 19,6.88071187 19,5.5 C19,4.11928813 17.8807119,3 16.5,3" id="路径" stroke-linecap="round" stroke-linejoin="round"></path>
                            <path d="M18,11 C20.209139,11 22,12.790861 22,15 L22,16 C22,16.5522847 21.5522847,17 21,17 L20.4553443,17 L20.4553443,17" id="路径" stroke-linecap="round" stroke-linejoin="round"></path>
                            <line x1="8.57084884" y1="13.4113022" x2="8.57084884" y2="15.9113022" id="路径-21" stroke-linecap="round" stroke-linejoin="round"></line>
                        </g>
                    </g>
                </g>
            </g>
        </g>
    </g>
</svg>