<?xml version="1.0" encoding="UTF-8"?>
<svg width="32px" height="32px" viewBox="0 0 32 32" version="1.1" xmlns="http://www.w3.org/2000/svg" xmlns:xlink="http://www.w3.org/1999/xlink">
    <title>编组 33</title>
    <g id="V1.1" stroke="none" stroke-width="1" fill="none" fill-rule="evenodd">
        <g id="首页" transform="translate(-840, -232)">
            <g id="核心数据" transform="translate(256, 216)">
                <g id="编组-19备份-2" transform="translate(432, 0)">
                    <g id="编组-33" transform="translate(152, 16)">
                        <rect id="矩形" fill="#4DA8FF" x="0" y="0" width="32" height="32" rx="8"></rect>
                        <g id="用户总数总计" transform="translate(6, 8)" fill="#FFFFFF" fill-rule="nonzero">
                            <path d="M9.5,8.845 C10.9,7.95 11.9,6.45999999 11.9,4.77 C11.9,2.087 9.69999999,0 7,0 C4.30000001,0 2,2.087 2,4.77 C2,6.56 3,8.05 4.4,8.845 C1.8,9.839 0,12.224 0,15.105 C0,15.602 0.4,15.901 0.8,15.901 C1.2,15.901 1.6,15.503 1.6,15.106 C1.6,12.224 4,9.93799999 6.89999999,9.93799999 C9.79999998,9.93799999 12.2,12.224 12.2,15.106 C12.2,15.602 12.6,15.901 13,15.901 C13.4,15.901 13.8,15.503 13.8,15.106 C13.9,12.323 12,9.83899998 9.5,8.845 Z M6.89999999,7.95 C5.09999999,7.95 3.69999999,6.559 3.69999999,4.77 C3.69999999,2.98099999 5.19999999,1.59 6.89999999,1.59 C8.69999999,1.59 10.1,2.98100001 10.1,4.77 C10.1,6.559 8.69999999,7.95 6.89999999,7.95 Z M18.4,6.957 C18.4,4.77 16.6,2.98099999 14.4,2.98099999 C14,2.98099999 13.2,3.09957886 12.8,3.37899999 C12.5,3.57799999 12.3,3.87599999 12.3,4.17399999 C12.3,4.67099999 12.7,5.06799999 13.2,5.068 C13.4302275,5.068 13.6352352,4.87 14.2,4.87 C15.5,4.87 16.5,5.86300001 16.5,7.05599999 C16.5,8.34799999 15.5,9.34199999 14.3,9.34199999 C13.7,9.34199999 13.3,9.73899999 13.3,10.335 C13.3,10.832 13.8,11.329 14.3,11.329 L14.4,11.329 C16.5,11.329 18.2,13.019 18.2,15.106 C18.2,15.602 18.6,16 19.1,16 C19.6,16 20,15.602 20,15.106 C20,12.919 18.8,10.932 16.8,10.136 C17.8,9.34199999 18.4,8.14899999 18.4,6.957 Z" id="形状"></path>
                        </g>
                    </g>
                </g>
            </g>
        </g>
    </g>
</svg>