<?xml version="1.0" encoding="UTF-8"?>
<svg width="16px" height="16px" viewBox="0 0 16 16" version="1.1" xmlns="http://www.w3.org/2000/svg" xmlns:xlink="http://www.w3.org/1999/xlink">
    <title>时间戳</title>
    <g id="空间里层页面优化" stroke="none" stroke-width="1" fill="none" fill-rule="evenodd">
        <g id="记忆管理-记忆提取引擎" transform="translate(-1303, -376)" fill-rule="nonzero">
            <g id="编组-26" transform="translate(846, 102)">
                <g id="1" transform="translate(12, 262)">
                    <g id="编组-31" transform="translate(437, 8)">
                        <g id="时间戳" transform="translate(8, 4)">
                            <rect id="矩形" fill="#000000" opacity="0" x="0" y="0" width="16" height="16"></rect>
                            <path d="M8.33332812,1.5 C11.9233281,1.5 14.8333281,4.41 14.8333281,8 C14.8333281,11.59 11.9233281,14.5 8.33332812,14.5 C4.74332813,14.5 1.83332812,11.59 1.83332812,8 C1.83332812,4.41 4.74332813,1.5 8.33332812,1.5 Z M8.33332812,2.5 C5.29567188,2.5 2.83332812,4.96234375 2.83332812,8 C2.83332812,11.0376562 5.29567188,13.5 8.33332812,13.5 C11.3709844,13.5 13.8333281,11.0376562 13.8333281,8 C13.8333281,4.96234375 11.371,2.5 8.33332812,2.5 Z M8.83332812,4.322 L8.83332812,7.775 L11.3833281,10.0336719 L10.7206719,10.782 L7.83332812,8.22532813 L7.83332812,4.322 L8.83332812,4.322 Z" id="形状" fill="#FF5D34"></path>
                        </g>
                    </g>
                </g>
            </g>
        </g>
    </g>
</svg>