<?xml version="1.0" encoding="UTF-8"?>
<svg width="14px" height="14px" viewBox="0 0 14 14" version="1.1" xmlns="http://www.w3.org/2000/svg" xmlns:xlink="http://www.w3.org/1999/xlink">
    <title>配置管理</title>
    <g id="空间里层页面优化" stroke="none" stroke-width="1" fill="none" fill-rule="evenodd">
        <g id="记忆管理-记忆提取引擎" transform="translate(-1344, -122)" fill="#FFFFFF" fill-rule="nonzero" stroke="#FFFFFF" stroke-width="0.3">
            <g id="编组-26" transform="translate(846, 102)">
                <g id="副操作备份" transform="translate(490, 11)">
                    <g id="配置管理" transform="translate(8, 9)">
                        <path d="M7.42879146,7.0538149 L7.42879146,1.42856378 C7.42879146,1.19188803 7.23488102,1 6.99819188,1 C6.76150275,1 6.56757891,1.19188803 6.56757891,1.42856378 L6.56757891,7.0546319 C5.83214429,7.24550203 5.28435198,7.91628644 5.28435198,8.71456315 C5.28435198,9.51404527 5.83108621,10.1856467 6.57135586,10.3753516 C6.56898461,10.3931451 6.56772319,10.4110689 6.56757891,10.4290192 L6.56757891,12.5718916 C6.56757891,12.8085807 6.76150275,13.0004822 6.99817849,13.0004822 C7.23485423,13.0004822 7.42879146,12.8085807 7.42879146,12.5718916 L7.42879146,10.4290325 C7.42845218,10.411363 7.42702981,10.393731 7.42453235,10.3762355 C8.16639582,10.1875486 8.71563466,9.51502299 8.71563466,8.7146703 C8.71578195,7.91518818 8.16904773,7.24362695 7.42879146,7.0538283 L7.42879146,7.0538149 Z M7.60587973,9.32065717 C7.31671051,9.609836 6.8635355,9.65447605 6.52350043,9.42727705 C6.18346536,9.20007806 6.05127565,8.76431872 6.20777383,8.38649396 C6.36427201,8.0086692 6.76587074,7.79400949 7.1669665,7.87379309 C7.56806226,7.95357669 7.85694345,8.30558254 7.85694345,8.71453636 C7.85758337,8.9420223 7.76717752,9.16030816 7.60587973,9.32072414 L7.60587973,9.32065717 Z M3.13814456,2.76797625 C3.14055877,2.75020331 3.14186492,2.73229739 3.14205545,2.71436225 L3.14205545,1.42859056 C3.14205545,1.19210844 2.95034881,1.0004018 2.71386669,1.0004018 C2.47738457,1.0004018 2.28567793,1.19210844 2.28567793,1.42859056 L2.28567793,2.71436225 C2.28534183,2.73252066 2.28614702,2.75068225 2.28808875,2.76873968 C1.54783249,2.95840439 1,3.62996562 1,4.4295415 C1,5.22911737 1.54792625,5.90038395 2.28818251,6.09028975 C2.28629436,6.10780474 2.28547584,6.12541856 2.28573151,6.14303317 L2.28573151,12.5719184 C2.28573151,12.8084005 2.47743814,13.0001071 2.71392026,13.0001071 C2.95040239,13.0001071 3.14210902,12.8084005 3.14210902,12.5719184 L3.14210902,6.14305996 C3.14191505,6.12566525 3.14067166,6.1082981 3.13838564,6.09105317 C3.88019554,5.90235278 4.42884504,5.22982722 4.42884504,4.4295281 C4.42884504,3.62922898 3.88004822,2.9565561 3.13814456,2.76796286 L3.13814456,2.76797625 Z M3.31996071,5.03568909 C3.03078814,5.32485849 2.57761807,5.36949099 2.23758857,5.14229141 C1.89755906,4.91509182 1.76537191,4.47933761 1.92186671,4.10151611 C2.07836152,3.7236946 2.47995285,3.50903305 2.88104582,3.58880862 C3.28213879,3.6685842 3.57103772,4.02057858 3.57103772,4.4295281 C3.571667,4.65700012 3.48126198,4.87526953 3.31997411,5.0356757 L3.31996071,5.03568909 Z M13,4.4295415 C13,3.62894772 12.4502255,2.95656949 11.7081745,2.76797625 C11.710058,2.75017021 11.7108363,2.73226456 11.7105049,2.71436225 L11.7105049,1.42859056 C11.7105049,1.19210844 11.5187983,1.0004018 11.2823162,1.0004018 C11.0458341,1.0004018 10.8541274,1.19210844 10.8541274,1.42859056 L10.8541274,2.71436225 C10.8543217,2.73255453 10.8556637,2.75071642 10.8581455,2.76873968 C10.1178758,2.95840439 9.57080673,3.62996562 9.57080673,4.4295415 C9.57080673,5.22911737 10.1175276,5.90062503 10.8577972,6.09032993 C10.8554298,6.1080924 10.8541684,6.12598481 10.8540203,6.14390375 L10.8540203,12.5719184 C10.8540203,12.8084005 11.0457269,13.0001071 11.282209,13.0001071 C11.5186911,13.0001071 11.7103978,12.8084005 11.7103978,12.5719184 L11.7103978,6.14389035 C11.7107305,6.12626252 11.709988,6.1086308 11.7081745,6.09109335 C12.450279,5.90245993 13,5.2300817 13,4.4295281 L13,4.4295415 Z M11.8917452,5.03563552 C11.6025705,5.32476645 11.1494259,5.36936451 10.8094336,5.14215559 C10.4694413,4.91494666 10.3372926,4.47921076 10.4938036,4.10142382 C10.6503147,3.72363689 11.0518954,3.50901645 11.4529577,3.58881444 C11.85402,3.66861244 12.1428487,4.02060432 12.1428487,4.4295281 C12.1434533,4.65698737 12.0530346,4.87523566 11.8917452,5.03562213 L11.8917452,5.03563552 Z" id="形状"></path>
                    </g>
                </g>
            </g>
        </g>
    </g>
</svg>