<?xml version="1.0" encoding="UTF-8"?>
<svg width="24px" height="24px" viewBox="0 0 24 24" version="1.1" xmlns="http://www.w3.org/2000/svg" xmlns:xlink="http://www.w3.org/1999/xlink">
    <title>兴趣爱好</title>
    <g id="大脑分区结构图" stroke="none" stroke-width="1" fill="none" fill-rule="evenodd" stroke-linecap="round">
        <g id="记忆库-个人记忆-大脑分区" transform="translate(-40, -128)" stroke="#171719" stroke-width="1.5">
            <g id="编组" transform="translate(12, 12)">
                <g id="编组-11" transform="translate(16, 104)">
                    <g id="兴趣爱好" transform="translate(12, 12)">
                        <g id="编组" transform="translate(3, 3)">
                            <g id="编组-26">
                                <path d="M9,14.9340659 L9,3.06593407 C9,1.37266544 7.59648815,0 5.86516854,0 C4.13384893,0 2.73033708,1.37266544 2.73033708,3.06593407 C2.73033708,4.23066339 3.39440787,5.2436995 4.37245094,5.76263837" id="路径"></path>
                                <path d="M2.79430682,14.3148313 C2.75236537,14.5148318 2.73033708,14.7219329 2.73033708,14.9340659 C2.73033708,16.6273346 4.13384893,18 5.86516854,18 C7.59648815,18 9,16.6273346 9,14.9340659" id="路径"></path>
                                <path d="M2.58166705,14.8314311 C1.07096242,14.2578833 0,12.8223492 0,11.1421759 C0,9.81629694 0.666920089,8.64276208 1.69056851,7.92494565 C0.714623765,7.65515567 0,6.77766296 0,5.73692925 C0,4.48063317 1.04131524,3.46220398 2.3258427,3.46220398" id="路径" stroke-linejoin="round"></path>
                            </g>
                            <g id="编组-26" transform="translate(13.5, 9) scale(-1, 1) translate(-13.5, -9)translate(9, 0)">
                                <path d="M9,14.9340659 L9,3.06593407 C9,1.37266544 7.59648815,0 5.86516854,0 C4.13384893,0 2.73033708,1.37266544 2.73033708,3.06593407 C2.73033708,4.23066339 3.39440787,5.2436995 4.37245094,5.76263837" id="路径"></path>
                                <path d="M2.79430682,14.3148313 C2.75236537,14.5148318 2.73033708,14.7219329 2.73033708,14.9340659 C2.73033708,16.6273346 4.13384893,18 5.86516854,18 C7.59648815,18 9,16.6273346 9,14.9340659" id="路径"></path>
                                <path d="M2.58166705,14.8314311 C1.07096242,14.2578833 0,12.8223492 0,11.1421759 C0,9.81629694 0.666920089,8.64276208 1.69056851,7.92494565 C0.714623765,7.65515567 0,6.77766296 0,5.73692925 C0,4.48063317 1.04131524,3.46220398 2.3258427,3.46220398" id="路径" stroke-linejoin="round"></path>
                            </g>
                            <path d="M11.3500295,5.57604513 C10.9825623,4.65267947 10.0806603,4 9.02631694,4 C7.99757851,4 7.11396729,4.62136345 6.73031656,5.50925706" id="路径"></path>
                            <path d="M8.99999352,8.0052019 C8.99999352,9.35618612 7.88278622,11.7361391 5.03902851,10.3738374" id="路径-6" stroke-linejoin="round"></path>
                            <path d="M12.9999935,8.0052019 C12.9999935,9.35618612 11.8827862,11.7361391 9.03902851,10.3738374" id="路径-6" stroke-linejoin="round" transform="translate(11.0195, 9.3932) scale(-1, 1) translate(-11.0195, -9.3932)"></path>
                        </g>
                    </g>
                </g>
            </g>
        </g>
    </g>
</svg>