<?xml version="1.0" encoding="UTF-8"?>
<svg width="24px" height="24px" viewBox="0 0 24 24" version="1.1" xmlns="http://www.w3.org/2000/svg" xmlns:xlink="http://www.w3.org/1999/xlink">
    <title>编组 61</title>
    <g id="空间里层页面优化" stroke="none" stroke-width="1" fill="none" fill-rule="evenodd">
        <g id="记忆库-个人记忆-工作记忆" transform="translate(-36, -142)">
            <g id="编组-5" transform="translate(24, 130)">
                <g id="编组-61" transform="translate(12, 12)">
                    <circle id="椭圆形" stroke="#EBEBEB" fill="#FFFFFF" cx="12" cy="12" r="11.5"></circle>
                    <g id="035_对话" transform="translate(6, 6.5)" fill-rule="nonzero">
                        <path d="M6.00019956,0.45 C6.65602257,0.45 7.6379293,0.478261578 8.35330143,0.541814127 L8.93241521,0.593160508 C9.60230409,0.652530817 10.2010538,0.980940838 10.647217,1.47659265 C11.1069686,1.98734023 11.405593,2.6750499 11.4605457,3.44027409 L11.5069036,4.08418204 C11.5601551,4.82529937 11.5711134,6.33471049 11.5068345,6.8146241 L11.4605399,7.45725017 C11.405593,8.22239314 11.1069686,8.91010282 10.647217,9.42085039 C10.2010538,9.9165022 9.60230409,10.2449122 8.93230556,10.3042923 L8.35310013,10.3557685 C8.09495094,10.3785231 7.78816274,10.3980588 7.44204076,10.41369 L6.48874994,11.35846 L4.65494412,10.4164145 C4.26956394,10.4003324 3.92996074,10.3794382 3.64674928,10.3543567 L3.06697604,10.302843 C2.39708716,10.2434726 1.79833746,9.91506263 1.35217429,9.41941081 C0.892422602,8.90866324 0.593798236,8.22095356 0.538851493,7.45581274 L0.488323602,6.75215815 C0.436897895,6.03288369 0.436885459,4.86218919 0.488745594,4.14398425 L0.539283286,3.44019287 C0.594230184,2.6750499 0.89285455,1.98734023 1.35260624,1.47659265 C1.79876941,0.980940838 2.39751911,0.652530817 3.06738509,0.593162536 L3.64679192,0.541841132 C4.36206131,0.478914391 5.34426916,0.45 6.00019956,0.45 Z" id="路径" stroke="#5B6167" stroke-width="0.9"></path>
                        <path d="M2.6,5.53154258 C2.6,5.91814191 2.91340068,6.23154258 3.3,6.23154258 C3.68659932,6.23154258 4,5.91814191 4,5.53154258 C4,5.14494326 3.68659932,4.83154258 3.3,4.83154258 C2.91340068,4.83154258 2.6,5.14494326 2.6,5.53154258 L2.6,5.53154258 Z M5.32126865,5.53154258 C5.32126865,5.91814191 5.63466932,6.23154258 6.02126865,6.23154258 C6.40786797,6.23154258 6.72126865,5.91814191 6.72126865,5.53154258 C6.72126865,5.14494326 6.40786797,4.83154258 6.02126865,4.83154258 C5.63466932,4.83154258 5.32126865,5.14494326 5.32126865,5.53154258 L5.32126865,5.53154258 Z M8.0425373,5.53154258 C8.0425373,5.91814191 8.35593797,6.23154258 8.7425373,6.23154258 C9.12913662,6.23154258 9.4425373,5.91814191 9.4425373,5.53154258 C9.4425373,5.14494326 9.12913662,4.83154258 8.7425373,4.83154258 C8.35593797,4.83154258 8.0425373,5.14494326 8.0425373,5.53154258 Z" id="形状结合" fill="#5B6167"></path>
                    </g>
                </g>
            </g>
        </g>
    </g>
</svg>