<?xml version="1.0" encoding="UTF-8"?>
<svg width="200px" height="200px" viewBox="0 0 200 200" version="1.1" xmlns="http://www.w3.org/2000/svg" xmlns:xlink="http://www.w3.org/1999/xlink">
    <title>个人资料</title>
    <defs>
        <polygon id="path-1" points="0 0 200 0 200 200 0 200"></polygon>
    </defs>
    <g id="V1.0版" stroke="none" stroke-width="1" fill="none" fill-rule="evenodd">
        <g id="红熊空间-记忆库-用户记忆-详情" transform="translate(-936, -1115)">
            <g id="记忆详情" transform="translate(648, 1031)">
                <g id="个人资料" transform="translate(288, 84)">
                    <mask id="mask-2" fill="white">
                        <use xlink:href="#path-1"></use>
                    </mask>
                    <g id="路径"></g>
                    <g id="编组" mask="url(#mask-2)">
                        <g transform="translate(17.8359, 9.041)" id="路径">
                            <path d="M12.859375,96.0605469 L77.3867187,96.0605469 C79.5019531,96.0605469 81.2207031,97.7773438 81.2207031,99.8945313 L81.2207031,99.8945313 C81.2207031,102.009766 79.5039062,103.728516 77.3867187,103.728516 L12.859375,103.728516 C10.7441406,103.728516 9.02539062,102.011719 9.02539062,99.8945313 L9.02539062,99.8945313 C9.02539062,97.7792969 10.7421875,96.0605469 12.859375,96.0605469 Z" stroke="none" fill="#FBFDFF" fill-rule="nonzero"></path>
                            <path d="M12.859375,96.0605469 L77.3867187,96.0605469 C79.5019531,96.0605469 81.2207031,97.7773438 81.2207031,99.8945313 L81.2207031,99.8945313 C81.2207031,102.009766 79.5039062,103.728516 77.3867187,103.728516 L12.859375,103.728516 C10.7441406,103.728516 9.02539062,102.011719 9.02539062,99.8945313 L9.02539062,99.8945313 C9.02539062,97.7792969 10.7421875,96.0605469 12.859375,96.0605469 Z" stroke="#373435" stroke-width="0.4" fill="none" stroke-linecap="round"></path>
                            <path d="M12.859375,109.632813 L77.3867187,109.632813 C79.5019531,109.632813 81.2207031,111.349609 81.2207031,113.466797 L81.2207031,113.466797 C81.2207031,115.582031 79.5039062,117.300781 77.3867187,117.300781 L12.859375,117.300781 C10.7441406,117.300781 9.02539062,115.583984 9.02539062,113.466797 L9.02539062,113.466797 C9.02539062,111.351563 10.7421875,109.632813 12.859375,109.632813 Z" stroke="none" fill="#FBFDFF" fill-rule="nonzero"></path>
                            <path d="M12.859375,109.632813 L77.3867187,109.632813 C79.5019531,109.632813 81.2207031,111.349609 81.2207031,113.466797 L81.2207031,113.466797 C81.2207031,115.582031 79.5039062,117.300781 77.3867187,117.300781 L12.859375,117.300781 C10.7441406,117.300781 9.02539062,115.583984 9.02539062,113.466797 L9.02539062,113.466797 C9.02539062,111.351563 10.7421875,109.632813 12.859375,109.632813 Z" stroke="#373435" stroke-width="0.4" fill="none" stroke-linecap="round"></path>
                            <path d="M12.859375,122.994141 L46.8457031,122.994141 C48.9609375,122.994141 50.6796875,124.710938 50.6796875,126.828125 L50.6796875,126.828125 C50.6796875,128.943359 48.9628906,130.662109 46.8457031,130.662109 L12.859375,130.662109 C10.7441406,130.662109 9.02539062,128.945313 9.02539062,126.828125 L9.02539062,126.828125 C9.02539062,124.712891 10.7421875,122.994141 12.859375,122.994141 Z" stroke="none" fill="#FBFDFF" fill-rule="nonzero"></path>
                            <path d="M12.859375,122.994141 L46.8457031,122.994141 C48.9609375,122.994141 50.6796875,124.710938 50.6796875,126.828125 L50.6796875,126.828125 C50.6796875,128.943359 48.9628906,130.662109 46.8457031,130.662109 L12.859375,130.662109 C10.7441406,130.662109 9.02539062,128.945313 9.02539062,126.828125 L9.02539062,126.828125 C9.02539062,124.712891 10.7421875,122.994141 12.859375,122.994141 Z" stroke="#373435" stroke-width="0.4" fill="none" stroke-linecap="round"></path>
                            <path d="M69.8183594,122.994141 L77.3339844,122.994141 C79.4492188,122.994141 81.1679688,124.710938 81.1679688,126.828125 L81.1679688,126.828125 C81.1679688,128.943359 79.4511719,130.662109 77.3339844,130.662109 L69.8183594,130.662109 C67.703125,130.662109 65.984375,128.945313 65.984375,126.828125 L65.984375,126.828125 C65.984375,124.712891 67.7011719,122.994141 69.8183594,122.994141 Z" stroke="none" fill="#FBFDFF" fill-rule="nonzero"></path>
                            <path d="M69.8183594,122.994141 L77.3339844,122.994141 C79.4492188,122.994141 81.1679688,124.710938 81.1679688,126.828125 L81.1679688,126.828125 C81.1679688,128.943359 79.4511719,130.662109 77.3339844,130.662109 L69.8183594,130.662109 C67.703125,130.662109 65.984375,128.945313 65.984375,126.828125 L65.984375,126.828125 C65.984375,124.712891 67.7011719,122.994141 69.8183594,122.994141 Z" stroke="#373435" stroke-width="0.4" fill="none" stroke-linecap="round"></path>
                            <path d="M14.0058594,135.929687 L21.5214844,135.929687 C23.6367187,135.929687 25.3554687,137.646484 25.3554687,139.763672 L25.3554687,139.763672 C25.3554687,141.878906 23.6386719,143.597656 21.5214844,143.597656 L14.0058594,143.597656 C11.890625,143.597656 10.171875,141.880859 10.171875,139.763672 L10.171875,139.763672 C10.171875,137.648437 11.8886719,135.929687 14.0058594,135.929687 Z" stroke="none" fill="#FBFDFF" fill-rule="nonzero"></path>
                            <path d="M14.0058594,135.929687 L21.5214844,135.929687 C23.6367187,135.929687 25.3554687,137.646484 25.3554687,139.763672 L25.3554687,139.763672 C25.3554687,141.878906 23.6386719,143.597656 21.5214844,143.597656 L14.0058594,143.597656 C11.890625,143.597656 10.171875,141.880859 10.171875,139.763672 L10.171875,139.763672 C10.171875,137.648437 11.8886719,135.929687 14.0058594,135.929687 Z" stroke="#373435" stroke-width="0.4" fill="none" stroke-linecap="round"></path>
                            <path d="M85.4179687,38.1621094 C85.4179687,59.2382812 68.3320312,76.3242188 47.2558594,76.3242188 C26.1796875,76.3242188 9.09375,59.2382812 9.09375,38.1621094 C9.09375,17.0859375 26.1796875,0 47.2558594,0 C68.3320312,0 85.4179687,17.0859375 85.4179687,38.1621094 Z" stroke="none" fill="#D2D3D5" fill-rule="nonzero"></path>
                            <path d="M85.4179687,38.1621094 C85.4179687,59.2382812 68.3320312,76.3242188 47.2558594,76.3242188 C26.1796875,76.3242188 9.09375,59.2382812 9.09375,38.1621094 C9.09375,17.0859375 26.1796875,0 47.2558594,0 C68.3320312,0 85.4179687,17.0859375 85.4179687,38.1621094 Z" stroke="#373435" stroke-width="0.4" fill="none" stroke-linecap="round"></path>
                            <path d="M22.8339844,67.1074219 L30.8789062,20.796875 C32.3574219,10.4199219 45.2167969,7.25 53.0878906,17.6503906 C55.3789062,20.6777344 60.4609375,33.0839844 62.328125,37.2167969 C66.1210937,45.6210938 68.9824219,53.8417969 64.9257812,57.7167969 C62.5761719,59.9609375 57.8164062,62.1933594 48.7929687,57.5703125 L46.4316406,76.2929688 C36.0917969,75.4863281 28.6152344,72.3066406 22.8339844,67.1074219 Z" stroke="none" fill="#FBFDFF" fill-rule="evenodd"></path>
                            <path d="M22.8339844,67.1074219 L30.8789062,20.796875 C32.3574219,10.4199219 45.2167969,7.25 53.0878906,17.6503906 C55.3789062,20.6777344 60.4609375,33.0839844 62.328125,37.2167969 C66.1210937,45.6210938 68.9824219,53.8417969 64.9257812,57.7167969 C62.5761719,59.9609375 57.8164062,62.1933594 48.7929687,57.5703125 L46.4316406,76.2929688 C36.0917969,75.4863281 28.6152344,72.3066406 22.8339844,67.1074219 Z" stroke="#373435" stroke-width="0.4" fill="none" stroke-linecap="round"></path>
                            <path d="M56.1328125,45.1230469 C53.5253906,45.5488281 46.9902344,46.9414063 44.7421875,39.8398438" stroke="#373435" stroke-width="0.4" fill="none" stroke-linecap="round"></path>
                            <line x1="167.083984" y1="175.371094" x2="0" y2="175.371094" stroke="#373435" stroke-width="0.4" fill="none" stroke-linecap="round"></line>
                            <path d="M67.1953125,107.753906 L53.3046875,81.5351562 C50.8378906,82.2832031 46.0527344,82.4375 40.7226563,81.3066406 C38.2304688,80.7792969 35.6347656,79.5078125 33.0566406,79.3027344 C29.4140625,79.0136719 27.0175781,81.9921875 28.5800781,85.4257812 C30.1074219,88.78125 37.2226563,91.5488281 37.2226563,91.5488281 C36.3339844,91.8945312 35.9511719,92.1015625 31.9941406,94.1660156 C26.5566406,97.0058594 29.1855469,105.275391 36.0820313,103.724609 C37.3164063,103.447266 38.9101563,102.714844 39.0292969,102.666016 C39.1777344,102.605469 37.5820313,103.306641 36.5800781,103.771484 C30.5410156,106.572266 36.3652344,115.775391 43.4609375,112.316406 C46.34375,110.912109 45.890625,111.158203 45.5449219,111.269531 C45.0351563,111.433594 43.4179688,112.109375 42.3652344,113.546875 C39.6191406,117.298828 46.1191406,124.083984 53.2890625,118.054687 C54.5039063,117.033203 67.4082031,108.046875 67.1972656,107.753906 L67.1953125,107.753906 Z" stroke="none" fill="#FBFDFF" fill-rule="evenodd"></path>
                            <path d="M67.1953125,107.753906 L53.3046875,81.5351562 C50.8378906,82.2832031 46.0527344,82.4375 40.7226563,81.3066406 C38.2304688,80.7792969 35.6347656,79.5078125 33.0566406,79.3027344 C29.4140625,79.0136719 27.0175781,81.9921875 28.5800781,85.4257812 C30.1074219,88.78125 37.2226563,91.5488281 37.2226563,91.5488281 C36.3339844,91.8945312 35.9511719,92.1015625 31.9941406,94.1660156 C26.5566406,97.0058594 29.1855469,105.275391 36.0820313,103.724609 C37.3164063,103.447266 38.9101563,102.714844 39.0292969,102.666016 C39.1777344,102.605469 37.5820313,103.306641 36.5800781,103.771484 C30.5410156,106.572266 36.3652344,115.775391 43.4609375,112.316406 C46.34375,110.912109 45.890625,111.158203 45.5449219,111.269531 C45.0351563,111.433594 43.4179688,112.109375 42.3652344,113.546875 C39.6191406,117.298828 46.1191406,124.083984 53.2890625,118.054687 C54.5039063,117.033203 67.4082031,108.046875 67.1972656,107.753906 L67.1953125,107.753906 Z" stroke="#373435" stroke-width="0.4" fill="none" stroke-linecap="round"></path>
                            <path d="M110.449219,61.9394531 C110.652344,62.3730469 122.294922,99.6484375 123.863295,104.501953 C123.886719,104.574219 94.9277344,114.613281 94.9940266,114.146484 C96.5097656,103.589844 98.9902344,82.359375 99.7851563,69.4550781 C99.8222656,68.8417969 100.005859,65.9726563 102.400391,65.0449219 C104.033203,64.4140625 110.449219,61.9394531 110.449219,61.9394531 Z" stroke="none" fill="#373435" fill-rule="evenodd"></path>
                            <path d="M110.449219,61.9394531 C110.652344,62.3730469 122.294922,99.6484375 123.863295,104.501953 C123.886719,104.574219 94.9277344,114.613281 94.9940266,114.146484 C96.5097656,103.589844 98.9902344,82.359375 99.7851563,69.4550781 C99.8222656,68.8417969 100.005859,65.9726563 102.400391,65.0449219 C104.033203,64.4140625 110.449219,61.9394531 110.449219,61.9394531 Z" stroke="#373435" stroke-width="0.4" fill="none" stroke-linecap="round"></path>
                            <path d="M144.320312,159.935547 C144.490234,160.285156 124.689453,159.929687 124.515625,159.929687 C124.400391,159.900391 111.703125,139.121094 111.912109,139.121094 C112.121094,139.121094 108.125,159.914062 108.125,159.914062 L87.8691406,159.914062 L94.9902344,114.148437 L123.669922,104.044922 L144.320312,159.9375 L144.320312,159.935547 Z" stroke="none" fill="#FBFDFF" fill-rule="evenodd"></path>
                            <path d="M144.320312,159.935547 C144.490234,160.285156 124.689453,159.929687 124.515625,159.929687 C124.400391,159.900391 111.703125,139.121094 111.912109,139.121094 C112.121094,139.121094 108.125,159.914062 108.125,159.914062 L87.8691406,159.914062 L94.9902344,114.148437 L123.669922,104.044922 L144.320312,159.9375 L144.320312,159.935547 Z" stroke="#373435" stroke-width="0.4" fill="none" stroke-linecap="round"></path>
                            <path d="M144.320313,159.935547 C144.660156,160.525391 150.982422,175.089844 150.982422,175.089844 C150.982422,175.089844 113.585938,175.132813 113.578125,175.035156 C112.894531,166.287109 122.728516,169.123047 124.515625,159.927734 L144.320313,159.933594 L144.320313,159.935547 Z" stroke="none" fill="#D2D3D5" fill-rule="evenodd"></path>
                            <path d="M144.320313,159.935547 C144.660156,160.525391 150.982422,175.089844 150.982422,175.089844 C150.982422,175.089844 113.585938,175.132813 113.578125,175.035156 C112.894531,166.287109 122.728516,169.123047 124.515625,159.927734 L144.320313,159.933594 L144.320313,159.935547 Z" stroke="#373435" stroke-width="0.4" fill="none" stroke-linecap="round"></path>
                            <path d="M107.761719,159.914062 C107.951172,160.503906 110.251953,175.089844 110.251953,175.089844 C110.251953,175.089844 73.0429688,175.134766 73.0488281,175.035156 C73.6425781,166.042969 83.71875,169.123047 87.8691406,159.927734 L107.759766,159.912109 L107.761719,159.914062 Z" stroke="none" fill="#D2D3D5" fill-rule="evenodd"></path>
                            <path d="M107.761719,159.914062 C107.951172,160.503906 110.251953,175.089844 110.251953,175.089844 C110.251953,175.089844 73.0429688,175.134766 73.0488281,175.035156 C73.6425781,166.042969 83.71875,169.123047 87.8691406,159.927734 L107.759766,159.912109 L107.761719,159.914062 Z" stroke="#373435" stroke-width="0.4" fill="none" stroke-linecap="round"></path>
                            <path d="M100.275391,65.5585937 L97.8046875,57.6113281 C94.1269531,59.6191406 91.9960937,58.6484375 90.859375,57.6738281 C88.8945312,55.9902344 90.1113281,51.9609375 91.3222656,48.3085937 C91.9179687,46.5117187 93.4765625,41.1230469 94.3144531,39.8085937 C97.1914062,35.2910156 102.943359,36.6679687 104.126953,41.1757812 L110.089844,61.3320312 L100.275391,65.5585937 Z" stroke="none" fill="#FBFDFF" fill-rule="evenodd"></path>
                            <path d="M100.266357,65.6946072 L97.8046875,57.6113281 C94.1269531,59.6191406 91.9960937,58.6484375 90.859375,57.6738281 C88.8945312,55.9902344 90.1113281,51.9609375 91.3222656,48.3085938 C91.9179687,46.5117188 93.4765625,41.1230469 94.3144531,39.8085938 C97.1914062,35.2910156 102.943359,36.6679688 104.126953,41.1757813 L110.25269,61.6593009 L100.266357,65.6946072 Z" stroke="#373435" stroke-width="0.4" fill="none" stroke-linecap="round"></path>
                            <path d="M111.787109,140.21875 L113.667969,128.476562 C115.669922,126.814453 118.257813,123.816406 117.529297,118.435547" stroke="#373435" stroke-width="0.4" fill="none" stroke-linecap="round"></path>
                            <path d="M102.398437,65.0449219 C102.521484,65.8085938 52.7636719,81.5976563 52.7636719,81.5976563 L67.3691406,107.402344 C67.6835937,107.373047 101.591797,72.4335938 102.101562,70.6269531 C102.431641,69.4511719 102.273437,64.2597656 102.400391,65.0449219 L102.398437,65.0449219 Z" stroke="none" fill="#373435" fill-rule="evenodd"></path>
                            <path d="M102.398437,65.0449219 C102.521484,65.8085938 52.7636719,81.5976563 52.7636719,81.5976563 L67.3691406,107.402344 C67.6835937,107.373047 101.591797,72.4335938 102.101562,70.6269531 C102.431641,69.4511719 102.273437,64.2597656 102.400391,65.0449219 L102.398437,65.0449219 Z" stroke="#373435" stroke-width="0.4" fill="none" stroke-linecap="round"></path>
                            <line x1="97.7695313" y1="57.4101562" x2="96.4726563" y2="53.5820312" stroke="#373435" stroke-width="0.4" fill="none" stroke-linecap="round"></line>
                            <path d="M109.896484,62.9785156 C109.896484,62.9785156 117.785156,51.3925781 119.876953,48.5742187 C124.21875,42.7246094 125.570313,36.203125 116.996094,34.3046875 C116.011719,34.0859375 99.9121094,31.5527344 98.8808594,31.5195312 C98.7675781,30.5136719 98.2597656,4.40429687 99.0820313,4.43161916 C99.0820313,4.43161916 119.835938,13.9902344 122.410156,15.4609375 C136.177734,23.3300781 135.285156,21.9804687 135.808594,33.5253906 C135.910156,35.765625 135.794922,40.5273437 135.847656,43.40625 C136.003906,51.8632812 135.482422,51.7851562 130.367188,55.6386719 C126.148438,58.8183594 116.845703,65.3613281 111.777344,69.4882812 C110.923828,70.1835937 113.230469,65.71875 112.080078,65.2558594 L109.896484,62.9785156 Z" stroke="none" fill="#373435" fill-rule="evenodd"></path>
                            <path d="M109.896484,62.9785156 C109.896484,62.9785156 117.785156,51.3925781 119.876953,48.5742187 C124.21875,42.7246094 125.570313,36.203125 116.996094,34.3046875 C116.011719,34.0859375 99.9121094,31.5527344 98.8808594,31.5195312 C98.7675781,30.5136719 98.2597656,4.40429687 99.0820313,4.43161916 C99.0820313,4.43161916 119.835938,13.9902344 122.410156,15.4609375 C136.177734,23.3300781 135.285156,21.9804687 135.808594,33.5253906 C135.910156,35.765625 135.794922,40.5273437 135.847656,43.40625 C136.003906,51.8632812 135.482422,51.7851562 130.367188,55.6386719 C126.148438,58.8183594 116.845703,65.3613281 111.777344,69.4882812 C110.923828,70.1835937 113.230469,65.71875 112.080078,65.2558594 L109.896484,62.9785156 Z" stroke="#373435" stroke-width="0.4" fill="none" stroke-linecap="round"></path>
                            <path d="M98.8398437,4.4921875 L98.8808594,31.5214844 C94.2421875,30.953125 91.7109375,31.5253906 90.3066406,34.8925781 C89.1875,37.578125 89.4257812,40.5332031 86.59375,41.8261719 C81.9296875,43.9550781 77.3789062,37.3769531 80.3691406,29.5722656 C81.0820312,27.7109375 80.7109375,26.7304687 78.1328125,24.9726562 C74.2597656,22.3339844 67.2109375,19.1425781 64.7597656,17.7070312 C62.3300781,16.2832031 61.3945312,14.5917969 61.5800781,12.9433594 C61.7363281,11.5527344 62.6660156,10.1328125 64.4355469,9.5078125 C66.8417969,8.65625 69.5976562,9.91992187 69.5976562,9.91992187 C69.53125,9.76367187 68.921875,9.40039062 68.5546875,8.89257812 C67.5878906,7.55273437 68.0039062,6.13671875 68.8300781,5.08007812 C69.3984375,4.3515625 70.234375,3.82617187 71.1660156,3.47851562 C74.6777344,2.16796875 77.5175781,3.58984375 80.5683594,4.96679687 C80.6699219,5.01171875 80.6308594,4.75585937 80.6679687,4.65429687 C80.9433594,3.89648437 81.4082031,3.2734375 82.0351562,2.78710937 C84.9785156,0.5078125 91.5097656,1.17773437 98.8417969,4.4921875 L98.8398437,4.4921875 Z" stroke="none" fill="#FBFDFF" fill-rule="evenodd"></path>
                            <path d="M98.8398437,4.4921875 L98.8808594,31.5214844 C94.2421875,30.953125 91.7109375,31.5253906 90.3066406,34.8925781 C89.1875,37.578125 89.4257812,40.5332031 86.59375,41.8261719 C81.9296875,43.9550781 77.3789062,37.3769531 80.3691406,29.5722656 C81.0820312,27.7109375 80.7109375,26.7304687 78.1328125,24.9726562 C74.2597656,22.3339844 67.2109375,19.1425781 64.7597656,17.7070312 C62.3300781,16.2832031 61.3945312,14.5917969 61.5800781,12.9433594 C61.7363281,11.5527344 62.6660156,10.1328125 64.4355469,9.5078125 C66.8417969,8.65625 69.5976562,9.91992187 69.5976562,9.91992187 C69.53125,9.76367187 68.921875,9.40039062 68.5546875,8.89257812 C67.5878906,7.55273437 68.0039062,6.13671875 68.8300781,5.08007812 C69.3984375,4.3515625 70.234375,3.82617187 71.1660156,3.47851562 C74.6777344,2.16796875 77.5175781,3.58984375 80.5683594,4.96679687 C80.6699219,5.01171875 80.6308594,4.75585937 80.6679687,4.65429687 C80.9433594,3.89648437 81.4082031,3.2734375 82.0351562,2.78710937 C84.9785156,0.5078125 91.5097656,1.17773437 98.8417969,4.4921875 L98.8398437,4.4921875 Z" stroke="#373435" stroke-width="0.4" fill="none" stroke-linecap="round"></path>
                            <path d="M69.140625,9.73828125 C70.5117188,10.0527344 78.8242188,13.8945313 81.2148438,15.6367188" stroke="#373435" stroke-width="0.4" fill="none" stroke-linecap="round"></path>
                            <path d="M80.2636719,4.81054688 C82.4414063,5.91992188 84.8085938,7.24804688 85.1464844,7.54296875" stroke="#373435" stroke-width="0.4" fill="none" stroke-linecap="round"></path>
                        </g>
                    </g>
                </g>
            </g>
        </g>
    </g>
</svg>