<?xml version="1.0" encoding="UTF-8"?>
<svg width="28px" height="28px" viewBox="0 0 28 28" version="1.1" xmlns="http://www.w3.org/2000/svg" xmlns:xlink="http://www.w3.org/1999/xlink">
    <title>编组 13备份</title>
    <g id="V1.1" stroke="none" stroke-width="1" fill="none" fill-rule="evenodd">
        <g id="红熊空间-记忆管理" transform="translate(-947, -144)">
            <g id="1备份-2" transform="translate(651, 128)">
                <g id="编组-13备份" transform="translate(296, 16)">
                    <rect id="矩形" stroke="#DFE4ED" x="0.5" y="0.5" width="27" height="27" rx="6"></rect>
                    <g id="进入@2x" transform="translate(5.8333, 5.8333)">
                        <g id="编组-11" transform="translate(2.0417, 2.5521)">
                            <path d="M5.42385066,3.34516089 L8.15899029,5.47250014 C8.23746067,5.5335329 8.25159666,5.64662254 8.1905639,5.72509292 C8.1813906,5.73688711 8.17078448,5.74749323 8.15899029,5.75666652 L5.42385066,7.88400578 C5.34538028,7.94503854 5.23229064,7.93090256 5.17125788,7.85243218 C5.14668314,7.82083621 5.13334107,7.78195037 5.13334107,7.74192259 L5.13334107,6.2384308 L5.13334107,6.2384308 L0,6.2384308 L0,4.99073587 L5.13334107,4.99073587 L5.13334107,3.48724407 C5.13334107,3.38783282 5.21392981,3.30724407 5.31334107,3.30724407 C5.35336884,3.30724407 5.39225469,3.32058615 5.42385066,3.34516089 Z" id="路径" fill="#5B6167" fill-rule="nonzero"></path>
                            <path d="M1.60417096,2.83745334 L1.60417096,0.9 C1.60417096,0.402943725 2.00711469,0 2.50417096,-1.11022302e-16 L10.3291667,-1.11022302e-16 C10.8262229,-2.22044605e-16 11.2291667,0.402943725 11.2291667,0.9 L11.2291667,10.3291667 C11.2291667,10.8262229 10.8262229,11.2291667 10.3291667,11.2291667 L2.50417096,11.2291667 C2.00711469,11.2291667 1.60417096,10.8262229 1.60417096,10.3291667 L1.60417096,8.46506778 L1.60417096,8.46506778" id="路径" stroke="#5B6167" stroke-width="1.1" stroke-linejoin="round"></path>
                        </g>
                    </g>
                </g>
            </g>
        </g>
    </g>
</svg>