<?xml version="1.0" encoding="UTF-8"?>
<svg width="24px" height="24px" viewBox="0 0 24 24" version="1.1" xmlns="http://www.w3.org/2000/svg" xmlns:xlink="http://www.w3.org/1999/xlink">
    <title>退出 (1)</title>
    <g id="空间里层页面优化" stroke="none" stroke-width="1" fill="none" fill-rule="evenodd">
        <g id="个人记忆" transform="translate(-40, -736)" fill="#5B6167" fill-rule="nonzero" stroke="#5B6167" stroke-width="0.2">
            <g id="编组" transform="translate(12, 12)">
                <g id="退出-(1)" transform="translate(40, 736) scale(-1, 1) translate(-40, -736)translate(28, 724)">
                    <path d="M12.0000124,1.99999922 C14.4869031,1.99780433 16.8849637,2.92445609 18.7241874,4.59833967 C18.8877759,4.74683842 18.9856552,4.95425341 18.9962829,5.17493448 C19.0069106,5.39561555 18.9294157,5.61147632 18.7808541,5.77500779 C18.4716871,6.11667489 17.9450198,6.14084157 17.6033527,5.83167454 C16.0704965,4.43716931 14.0722794,3.66510389 12.0000124,3.66667186 C7.4050067,3.66667186 3.66666873,7.40500983 3.66666873,12.0000155 C3.66666873,16.5958545 7.4050067,20.3333592 12.0000124,20.3333592 C14.070015,20.3333592 16.0541841,19.5700249 17.586686,18.1833565 C17.750353,18.0348337 17.9663794,17.9575176 18.1871195,17.9684608 C18.4078595,17.979404 18.6151796,18.0777075 18.7633541,18.2416899 C18.9117091,18.4054357 18.9889139,18.6214239 18.9779734,18.8421097 C18.9670328,19.0627954 18.8688439,19.2700885 18.7050207,19.418358 C16.8658518,21.0833601 14.4841821,22.0000279 12.0000124,22.0000279 C6.4858389,22.0000279 2,17.5140223 2,12.0000155 C2,6.48667534 6.4858389,1.99999922 12.0000124,1.99999922 Z M18.6666873,8.07667732 L21.7566911,11.2558479 C21.9261281,11.425536 22.0140935,11.66009 21.9980248,11.8993487 C22.0006584,11.9375812 22.0006584,11.9759497 21.9980248,12.0141822 C22.0141425,12.2534975 21.9261734,12.4881223 21.7566911,12.6578497 L18.6666873,15.8370203 C18.3407782,16.1611482 17.8142617,16.1611482 17.4883525,15.8370203 C17.1642246,15.5111111 17.1642246,14.9845946 17.4883525,14.6586855 L19.3045214,12.7900165 L8.66667494,12.7901831 C8.20834103,12.7901831 7.83334058,12.4151827 7.83334058,11.9568488 C7.83334058,11.4985149 8.20834105,11.1235144 8.66667494,11.1235144 L19.3045214,11.1235144 L17.4883525,9.25501211 C17.1642246,8.92910296 17.1642246,8.40258647 17.4883525,8.07667732 C17.8142617,7.75254936 18.3407782,7.75254936 18.6666873,8.07667732 Z" id="形状结合"></path>
                </g>
            </g>
        </g>
    </g>
</svg>