<?xml version="1.0" encoding="UTF-8"?>
<svg width="18px" height="18px" viewBox="0 0 18 18" version="1.1" xmlns="http://www.w3.org/2000/svg" xmlns:xlink="http://www.w3.org/1999/xlink">
    <title>编组 26</title>
    <g id="空间里层页面优化" stroke="none" stroke-width="1" fill="none" fill-rule="evenodd" stroke-linecap="round">
        <g id="记忆库-个人记忆（RAG）" transform="translate(-268, -357)" stroke="#171719" stroke-width="1.2">
            <g id="编组-13" transform="translate(252, 64)">
                <g id="编组-31" transform="translate(12, 292)">
                    <g id="编组-26" transform="translate(4, 1)">
                        <g id="编组-24" transform="translate(2, 2)">
                            <g id="编组-23" transform="translate(7, 0)">
                                <path d="M3.80487741,4.75801529 C4.57304648,4.31981911 5.09090909,3.49311348 5.09090909,2.54545455 C5.09090909,1.13963882 3.95127027,0 2.54545455,0 C1.13963882,0 0,1.13963882 0,2.54545455 L0,11.4545455" id="路径" stroke-linejoin="round"></path>
                                <path d="M0,11.4545455 C0,12.8603612 1.13963882,14 2.54545455,14 C3.95127027,14 5.09090909,12.8603612 5.09090909,11.4545455" id="路径" stroke-linejoin="round"></path>
                                <path d="M5.43716946,6.89920585 C6.34272849,6.61654964 7,5.77139545 7,4.77272727 C7,3.65162269 6.17168669,2.72398105 5.09366357,2.56840585" id="路径" stroke-linejoin="round"></path>
                                <path d="M5.08556316,11.8284839 C6.21217524,11.3387175 7,10.2159074 7,8.90909091 C7,8.05692399 6.66499617,7.2830014 6.11950096,6.7118356" id="路径" stroke-linejoin="round"></path>
                                <path d="M6.05374225e-07,3.30502525 C0.598221325,3.16656842 1.19644204,3.53131423 1.79466276,4.39926267" id="路径-73"></path>
                                <path d="M0,6.36955959 C0,7.05675687 0.699825901,9.10572809 3.14599655,8.05286405" id="路径-74"></path>
                            </g>
                            <g id="编组-23" transform="translate(3.5, 7) scale(-1, 1) translate(-3.5, -7)">
                                <path d="M3.80487741,4.75801529 C4.57304648,4.31981911 5.09090909,3.49311348 5.09090909,2.54545455 C5.09090909,1.13963882 3.95127027,0 2.54545455,0 C1.13963882,0 0,1.13963882 0,2.54545455 L0,11.4545455" id="路径" stroke-linejoin="round"></path>
                                <path d="M0,11.4545455 C0,12.8603612 1.13963882,14 2.54545455,14 C3.95127027,14 5.09090909,12.8603612 5.09090909,11.4545455" id="路径" stroke-linejoin="round"></path>
                                <path d="M5.43716946,6.89920585 C6.34272849,6.61654964 7,5.77139545 7,4.77272727 C7,3.65162269 6.17168669,2.72398105 5.09366357,2.56840585" id="路径" stroke-linejoin="round"></path>
                                <path d="M5.08556316,11.8284839 C6.21217524,11.3387175 7,10.2159074 7,8.90909091 C7,8.05692399 6.66499617,7.2830014 6.11950096,6.7118356" id="路径" stroke-linejoin="round"></path>
                                <path d="M6.05374225e-07,3.30502525 C0.598221325,3.16656842 1.19644204,3.53131423 1.79466276,4.39926267" id="路径-73"></path>
                                <path d="M0,6.36955959 C0,7.05675687 0.699825901,9.10572809 3.14599655,8.05286405" id="路径-74"></path>
                            </g>
                        </g>
                    </g>
                </g>
            </g>
        </g>
    </g>
</svg>