<?xml version="1.0" encoding="UTF-8"?>
<svg width="16px" height="16px" viewBox="0 0 16 16" version="1.1" xmlns="http://www.w3.org/2000/svg" xmlns:xlink="http://www.w3.org/1999/xlink">
    <title>iconfont-PREV</title>
    <g id="空间里层页面优化" stroke="none" stroke-width="1" fill="none" fill-rule="evenodd">
        <g id="记忆库-个人记忆-感知记忆-文本" transform="translate(-480, -222)" fill="#171719" fill-rule="nonzero" stroke="#171719" stroke-width="0.16">
            <g id="编组-16" transform="translate(468, 187)">
                <g id="iconfont-PREV" transform="translate(12, 35)">
                    <path d="M8,14.5 C4.40963924,14.5 1.5,11.5903345 1.5,8 C1.5,4.40966553 4.40966553,1.5 8,1.5 C11.5903345,1.5 14.5,4.40966553 14.5,8 C14.5,11.5903345 11.5903345,14.5 8,14.5 Z M8,2.31317205 C4.85800711,2.31317205 2.31137116,4.85979485 2.31137116,8.00180089 C2.31137116,11.1438069 4.85799397,13.6886288 8,13.6886288 C11.142006,13.6886288 13.6886288,11.142006 13.6886288,8 C13.6886288,4.85799397 11.142006,2.31317205 8,2.31317205 Z M5.76556133,10.4377287 L5.35898188,10.4377287 C5.30503585,10.4378158 5.25327417,10.4164245 5.21512852,10.3782789 C5.17698287,10.3401332 5.15559159,10.2883716 5.15567874,10.2344255 L5.15567874,5.76554818 C5.15559159,5.71160216 5.17698287,5.65984047 5.21512852,5.62169483 C5.25327417,5.58354918 5.30503585,5.5621579 5.35898188,5.56224505 L5.76556133,5.56224505 C5.81950735,5.5621579 5.87126904,5.58354918 5.90941469,5.62169483 C5.94756034,5.65984047 5.96895161,5.71160216 5.96886447,5.76554818 L5.96886447,10.2344255 C5.96895161,10.2883716 5.94756034,10.3401332 5.90941469,10.3782789 C5.87126904,10.4164245 5.81950735,10.4378158 5.76556133,10.4377287 L5.76556133,10.4377287 Z M10.1709082,10.4449977 C10.0819681,10.4449977 9.99302802,10.4195881 9.91314495,10.3669418 L6.99078121,8.39568212 C6.86190617,8.30856922 6.78567745,8.16154073 6.78567745,8.0054158 C6.78567745,7.84929087 6.86193246,7.70228867 6.99078121,7.61514948 L6.99260838,7.6133223 L9.91134406,5.64388983 C10.0583594,5.54405243 10.2544062,5.53861034 10.4068767,5.63117847 C10.5484631,5.71647734 10.635576,5.8707751 10.635576,6.03597018 L10.635576,9.97299481 C10.635576,10.1381636 10.5484631,10.2942885 10.4068767,10.3777865 L10.4032618,10.3796137 C10.332462,10.4231767 10.2507912,10.4449977 10.1709213,10.4449977 L10.1709082,10.4449977 Z M7.84024701,8.00542895 L9.83870397,9.3522546 L9.83870397,6.65677612 L7.84024701,8.00542895 Z" id="形状"></path>
                </g>
            </g>
        </g>
    </g>
</svg>