<?xml version="1.0" encoding="UTF-8"?>
<svg width="20px" height="20px" viewBox="0 0 20 20" version="1.1" xmlns="http://www.w3.org/2000/svg" xmlns:xlink="http://www.w3.org/1999/xlink">
    <title>点击</title>
    <g id="V1.0版" stroke="none" stroke-width="1" fill="none" fill-rule="evenodd">
        <g id="红熊空间-记忆库-用户记忆-详情" transform="translate(-717, -981)" fill="#5B6167" fill-rule="nonzero" stroke="#5B6167" stroke-width="0.1">
            <g id="关系网络" transform="translate(648, 415)">
                <g id="编组-18" transform="translate(0, 552)">
                    <g id="点击" transform="translate(69, 14)">
                        <path d="M15.8426654,7.03352286 L15.7970658,7.03352286 C15.4612399,7.03352286 15.1857768,7.12921653 14.9205925,7.29251948 C14.688128,6.61954525 14.0973965,6.13475077 13.3364648,6.13475077 C13.0006389,6.13475077 12.6795762,6.23044444 12.414374,6.39372957 C12.1819274,5.72075535 11.5911779,5.23597868 10.8296184,5.23597868 C10.5329701,5.23597868 10.2568433,5.30998535 10.0128443,5.43948366 L10.0128443,3.7076242 C10.0128443,2.76419506 9.29431921,2 8.33819914,2 C7.38207906,2 6.60641993,2.76483658 6.60641993,3.7076242 L6.60641993,10.3377523 L5.55526188,9.29738212 C4.87908946,8.63016378 3.68219933,8.72521593 3.10621323,9.29738212 C2.53020918,9.86958396 2.15267629,11.0202959 2.97714599,11.8399826 L7.81360673,16.6126021 C7.91312932,16.7108441 8.02294859,16.7931371 8.13850817,16.8626531 C9.02014774,17.5770767 10.0308546,18 12.167182,18 C17.0479328,18 17.5,15.3840343 17.5,12.1576429 L17.5,8.74178858 C17.4993183,7.79835944 16.7994313,7.03354068 15.8426654,7.03354068 M16.5875242,12.1569835 C16.5875242,14.8871222 16.5746623,17.1005864 12.1665183,17.1005864 C10.2992319,17.1005864 9.17807797,16.6872503 8.32856618,15.8490664 L3.75023992,11.3309529 C3.3450818,10.9284692 3.44716959,10.4143073 3.778493,10.0845294 C4.10981641,9.75539307 4.71854021,9.74391696 5.03895704,10.0596526 C5.03895704,10.0596526 5.84225935,10.8525558 6.53446875,11.5363646 C6.86222733,11.860341 7.19013649,12.184167 7.51819612,12.5078425 L7.51819612,3.88751761 C7.51819612,3.4410006 7.88548615,3.07868332 8.33882698,3.07868332 C8.79214988,3.07868332 9.10166012,3.4410006 9.10166012,3.88751761 L9.10166012,9.37074727 L9.11066523,9.37074727 C9.10471265,9.40036225 9.10169653,9.43048553 9.10166012,9.46068507 C9.10166012,9.70881146 9.30587158,9.91037405 9.55756616,9.91037405 C9.80927867,9.91037405 10.0134722,9.70945298 10.0134722,9.46068507 C10.0134722,9.43007022 10.0102433,9.4000969 10.004485,9.37074727 L10.0134722,9.37074727 L10.0134722,7.12349629 C10.0134722,6.67697928 10.3409568,6.31464418 10.7942797,6.31464418 C10.7942797,6.31464418 11.5969183,6.30380959 11.5969183,7.12349629 L11.5969183,10.0896438 L11.6059234,10.0896438 C11.5999719,10.1192529 11.5969558,10.1493702 11.5969183,10.1795637 C11.5969183,10.4277258 11.8011297,10.6292705 12.0528243,10.6292705 C12.3045368,10.6292705 12.5087303,10.4283317 12.5087303,10.1795637 C12.5087303,10.1489489 12.5055193,10.1189756 12.4997432,10.0896438 L12.5087303,10.0896438 L12.5087303,8.02225056 C12.5087303,7.57575137 12.8310845,7.21343409 13.2843895,7.21343409 C13.2843895,7.21343409 14.1037467,7.26447072 14.1037467,8.02225056 L14.1037467,10.6292705 L14.1127518,10.6292705 C14.1067992,10.6588855 14.1037831,10.6890088 14.1037467,10.7192083 C14.1037467,10.9673347 14.3079402,11.1689151 14.5596527,11.1689151 C14.8113652,11.1689151 15.0039885,10.9679763 15.0039885,10.7192083 C15.0039885,10.6885935 15.0007775,10.6586202 14.9956471,10.6292705 L15.0039885,10.6292705 L15.0039885,8.84958206 C15.0039885,8.40306505 15.3417518,8.04076559 15.7950747,8.04076559 C15.7950747,8.04076559 16.5893898,8.0088677 16.5893898,8.84959988 L16.5893898,12.1570013 L16.5875242,12.1570013" id="形状"></path>
                    </g>
                </g>
            </g>
        </g>
    </g>
</svg>