<?xml version="1.0" encoding="UTF-8"?>
<svg width="24px" height="24px" viewBox="0 0 24 24" version="1.1" xmlns="http://www.w3.org/2000/svg" xmlns:xlink="http://www.w3.org/1999/xlink">
    <title>结构化反思1</title>
    <g id="大脑分区结构图" stroke="none" stroke-width="1" fill="none" fill-rule="evenodd">
        <g id="记忆库-个人记忆-大脑分区" transform="translate(-40, -448)">
            <g id="编组" transform="translate(12, 12)">
                <g id="编组-11" transform="translate(16, 104)">
                    <g id="结构化反思1" transform="translate(12, 332)">
                        <g id="编组-37" transform="translate(2, 3)">
                            <path d="M15.1612893,3.17122206 C13.588213,1.30268012 11.2218822,0.113859558 8.57559643,0.113859558 C3.8394253,0.113859558 0,3.92186537 0,8.61927859 C0,13.3166918 3.8394253,17.1246976 8.57559643,17.1246976 C10.5738079,17.1246976 12.4123955,16.44686 13.8703631,15.3103725" id="路径" stroke="#FFFFFF" stroke-width="1.5" stroke-linecap="round"></path>
                            <path d="M20,0 C16.6444162,0.5622427 14.7704768,2.94243414 14.3781818,7.14057433 C13.5866837,8.4095452 12.6855656,9.94472733 11.6748275,11.7461207 L11.6737168,11.7455036 C11.5261796,12.0110236 11.6218236,12.3458725 11.8873436,12.4934097 C11.956878,12.5320468 12.033966,12.5551407 12.1132904,12.5610985 L13.7593688,12.6876093 C14.0621743,12.7116277 14.2881759,12.9765709 14.2641575,13.2793765 C14.2629351,13.2947867 14.2610636,13.3101386 14.258548,13.3253913 C13.8647071,15.651373 14.6595687,16.9219515 16.6427595,17.1370651 C16.643193,17.1507336 16.643193,18.1050452 16.6427595,20" id="路径-15" stroke="#FFFFFF" stroke-width="1.5" stroke-linecap="round" stroke-linejoin="round"></path>
                            <path d="M9.51591681,2.90287327 C6.74687592,3.189458 5.2033311,5.06697992 4.88528233,8.53543905 C4.15919362,9.69954211 3.46894755,10.8299224 2.81454411,11.9265799 L2.8142249,11.9263884 C2.65792322,12.1868454 2.74235782,12.5246951 3.00281486,12.6809968 C3.07837479,12.7263407 3.1637239,12.7528651 3.25167524,12.7583364 L4.34976963,12.824268 C4.65295173,12.8429415 4.88359156,13.103857 4.86491811,13.407039 C4.86350256,13.430022 4.86064509,13.4528933 4.85636258,13.475518 C4.50344627,15.2829132 5.196845,16.1866644 6.93599214,16.1866644" id="路径-15备份" stroke="#FFFFFF" stroke-width="1.5" stroke-linecap="round" stroke-linejoin="round" transform="translate(5.9345, 9.5448) scale(-1, 1) translate(-5.9345, -9.5448)"></path>
                            <path d="M18.3285752,7.18548941 C18.9357766,7.18548941 19.4280106,6.69728354 19.4280106,6.09505107 C19.4280106,5.49281861 18.9357766,5.00461274 18.3285752,5.00461274 C17.7213738,5.00461274 17.2291397,5.49281861 17.2291397,6.09505107 C17.2291397,6.69728354 17.7213738,7.18548941 18.3285752,7.18548941 Z" id="椭圆形" fill="#FFFFFF"></path>
                            <path d="M2.93647902,8.27592775 C3.54368045,8.27592775 4.03591446,7.78772188 4.03591446,7.18548941 C4.03591446,6.58325695 3.54368045,6.09505107 2.93647902,6.09505107 C2.32927759,6.09505107 1.83704358,6.58325695 1.83704358,7.18548941 C1.83704358,7.78772188 2.32927759,8.27592775 2.93647902,8.27592775 Z" id="椭圆形备份" fill="#FFFFFF"></path>
                        </g>
                    </g>
                </g>
            </g>
        </g>
    </g>
</svg>