<?xml version="1.0" encoding="UTF-8"?>
<svg width="24px" height="24px" viewBox="0 0 24 24" version="1.1" xmlns="http://www.w3.org/2000/svg" xmlns:xlink="http://www.w3.org/1999/xlink">
    <title>重新生成</title>
    <defs>
        <rect id="path-1" x="0" y="0" width="24" height="24"></rect>
    </defs>
    <g id="空间里层页面优化" stroke="none" stroke-width="1" fill="none" fill-rule="evenodd">
        <g id="个人记忆-3" transform="translate(-40, -688)">
            <g id="编组" transform="translate(12, 12)">
                <g id="重新生成" transform="translate(28, 676)">
                    <mask id="mask-2" fill="white">
                        <use xlink:href="#path-1"></use>
                    </mask>
                    <g id="SyncOutlined-(Background/Mask)"></g>
                    <path d="M4.45008224,8.81421159 C4.86198248,7.8380318 5.45245234,6.96423088 6.20482506,6.20947721 C6.95719779,5.45472354 7.83337887,4.86425432 8.80955868,4.4523541 C9.81907152,4.0261683 10.8904877,3.80950399 11.9976184,3.80950399 C13.1047492,3.80950399 14.1761672,4.0261683 15.1832991,4.4523541 C16.1566801,4.86340884 17.0406105,5.46024363 17.7856511,6.20947721 C18.0213628,6.4451889 18.2427893,6.69518717 18.447549,6.95708907 L17.01423,8.07612443 C16.9858705,8.09806271 16.9642787,8.12755922 16.9519382,8.16122312 C16.9395978,8.19488702 16.9370113,8.23135092 16.9444729,8.26642042 C16.9519345,8.30148992 16.9691414,8.33374103 16.9941176,8.35946521 C17.0190939,8.38518939 17.0508236,8.4033412 17.0856578,8.41183404 L21.2689467,9.43563236 C21.387993,9.46420347 21.5046578,9.37372861 21.5046578,9.25230136 L21.5237055,4.94520572 C21.5237055,4.78568366 21.3403732,4.69520834 21.216565,4.79520723 L19.8737232,5.84519598 C18.0427909,3.50236454 15.1952025,2 11.9952377,2 C6.5405351,2 2.10248885,6.37138012 2.00004947,11.804654 C1.99947352,11.8300653 2.00393068,11.8553472 2.01321798,11.879009 C2.02250527,11.9026708 2.03643473,11.9242338 2.05418556,11.9424284 C2.0719364,11.960623 2.09314965,11.9750813 2.11657499,11.9849499 C2.14000032,11.9948185 2.16516392,11.9998984 2.19058312,11.9998905 L3.61913898,11.9998905 C3.72389975,11.9998905 3.80723217,11.9165586 3.80961309,11.8141787 C3.83342236,10.773714 4.0477057,9.76420124 4.45008224,8.81421159 Z M20.3808608,11.9998905 C20.2761001,11.9998905 20.1927677,12.0832224 20.1903867,12.1856022 C20.1665775,13.226067 19.9522931,14.2355797 19.5499165,15.1855694 C19.1380163,16.1617492 18.5475485,17.0379302 17.7951758,17.7903029 C17.0357754,18.5528385 16.1329305,19.1574959 15.1387074,19.5694059 C14.1444842,19.9813159 13.0785516,20.192329 12.0023799,20.190277 C10.9265682,20.1922896 9.86100731,19.9812496 8.86717648,19.5693329 C7.87334566,19.1574161 6.97092001,18.5527769 6.21196776,17.7903029 C5.97625606,17.5545912 5.75482999,17.3045946 5.55007031,17.0426927 L6.98338765,15.9236565 C7.01174708,15.9017183 7.03333891,15.8722209 7.04567937,15.838557 C7.05801984,15.8048931 7.06060793,15.7684305 7.05314634,15.733361 C7.04568474,15.6982915 7.0284762,15.6660404 7.00349997,15.6403162 C6.97852375,15.614592 6.94679399,15.5964398 6.91195986,15.5879469 L2.72867246,14.5641486 C2.60962614,14.5355775 2.49296068,14.6260532 2.49296068,14.7474804 L2.47629427,19.0569571 C2.47629427,19.2164791 2.65962572,19.306953 2.78343389,19.2069541 L4.12627642,18.1569649 C5.95720876,20.4974156 8.80479758,21.999781 12.0047624,21.999781 C17.4618457,21.999781 21.8975109,17.6260201 21.9999506,12.1951269 C22.0005263,12.1697157 21.9960694,12.1444338 21.9867821,12.120772 C21.9774948,12.0971102 21.9635642,12.0755464 21.9458134,12.0573518 C21.9280626,12.0391572 21.9068507,12.0246997 21.8834254,12.0148311 C21.86,12.0049624 21.8348359,11.9998825 21.8094167,11.9998905 L20.3808608,11.9998905 Z" id="Vector" fill="#5B6167" mask="url(#mask-2)"></path>
                </g>
            </g>
        </g>
    </g>
</svg>