<?xml version="1.0" encoding="UTF-8"?>
<svg width="20px" height="20px" viewBox="0 0 20 20" version="1.1" xmlns="http://www.w3.org/2000/svg" xmlns:xlink="http://www.w3.org/1999/xlink">
    <title>邮箱</title>
    <g id="V1.0版" stroke="none" stroke-width="1" fill="none" fill-rule="evenodd">
        <g id="登录页面-邮箱登录" transform="translate(-912, -352)" fill-rule="nonzero">
            <g id="编组-2" transform="translate(900, 232)">
                <g id="编组-7" transform="translate(0, 108)">
                    <g id="邮箱" transform="translate(12, 12)">
                        <rect id="矩形" fill="#000000" opacity="0" x="0" y="0" width="20" height="20"></rect>
                        <path d="M16.739707,3.04609375 C16.5717872,3.00907654 16.40035,2.99029297 16.2283984,2.99029297 L3.77160156,2.99029297 C3.59601562,2.99029297 3.425,3.00990234 3.26029297,3.04609375 C2.14660156,3.24140625 1.3,4.21269531 1.3,5.38240234 L1.3,14.6369922 C1.3,15.9474023 2.36230469,17.009707 3.67269531,17.009707 L16.3271875,17.009707 C17.6375977,17.009707 18.6999023,15.9474023 18.6999023,14.6369922 L18.6999023,5.38242187 C18.6999023,4.21271484 17.853418,3.24140625 16.739707,3.04611328 L16.739707,3.04609375 Z M16.128125,4.39369141 L10.9435937,9.22550781 C10.6865039,9.46509766 10.3514062,9.59699219 10,9.59699219 C9.64859375,9.59699219 9.31349609,9.465 9.05640625,9.22539062 L3.871875,4.39369141 L16.128125,4.39369141 L16.128125,4.39369141 Z M17.3158984,14.6368945 C17.3158984,15.1820117 16.8724023,15.6255078 16.3273047,15.6255078 L3.67269531,15.6255078 C3.12759766,15.6255078 2.68410156,15.1819922 2.68410156,14.6368945 L2.68410156,5.38242188 C2.68410156,5.31851562 2.69070312,5.25632812 2.70230469,5.19570312 L8.11269531,10.2380273 C8.64419922,10.733418 9.32210938,10.9811133 10,10.9811133 C10.6778906,10.9811133 11.3558008,10.733418 11.8873047,10.2380273 L17.2976953,5.19570312 C17.3092969,5.25619141 17.3158984,5.31849609 17.3158984,5.38240234 L17.3158984,14.6368945 Z" id="形状" fill="#A8A9AA"></path>
                    </g>
                </g>
            </g>
        </g>
    </g>
</svg>