<?xml version="1.0" encoding="UTF-8"?>
<svg width="20px" height="20px" viewBox="0 0 20 20" version="1.1" xmlns="http://www.w3.org/2000/svg" xmlns:xlink="http://www.w3.org/1999/xlink">
    <title>密码</title>
    <g id="V1.0版" stroke="none" stroke-width="1" fill="none" fill-rule="evenodd">
        <g id="登录页面-邮箱登录" transform="translate(-912, -416)" fill="#A8A9AA" fill-rule="nonzero">
            <g id="编组-2" transform="translate(900, 232)">
                <g id="编组-13" transform="translate(0, 172)">
                    <g id="密码" transform="translate(12, 12)">
                        <path d="M14.8530001,8.65 C15.5840034,8.65 16.1764913,9.25451172 16.1764913,10 L16.1764913,16.3 C16.1764913,17.0454883 15.5840034,17.65 14.8530001,17.65 L5.14699989,17.65 C4.41599655,17.65 3.82350873,17.0454883 3.82350873,16.3 L3.82350873,10 C3.82350873,9.25451172 4.41599655,8.65 5.14699989,8.65 L14.8530001,8.65 Z M14.8530001,7.3 L5.14699989,7.3 C3.68501079,7.3 2.5,8.50900586 2.5,10 L2.5,16.3 C2.5,17.7909941 3.68501079,19 5.14699989,19 L14.8530001,19 C16.3149892,19 17.5,17.7909941 17.5,16.3 L17.5,10 C17.5,8.50900586 16.3149892,7.3 14.8530001,7.3 Z M10,2.35 C11.7054987,2.35 13.0879995,3.75999414 13.0879995,5.5 L13.0879995,7.3 L6.91200046,7.3 L6.91200046,5.5 C6.91200046,3.75999414 8.29450133,2.35 10,2.35 Z M10,1 C7.563498,1 5.58799954,3.01499805 5.58799954,5.5 L5.58799954,8.65 L14.4120005,8.65 L14.4120005,5.5 C14.4120005,3.01499805 12.4369942,1 10,1 Z M10,15.175 C9.63449833,15.175 9.33800833,14.8730078 9.33800833,14.5 L9.33800833,11.8 C9.33800833,11.4269922 9.63449833,11.125 10,11.125 C10.3655017,11.125 10.6619917,11.4269922 10.6619917,11.8 L10.6619917,14.5 C10.6619917,14.8730078 10.3655017,15.175 10,15.175 Z" id="形状"></path>
                    </g>
                </g>
            </g>
        </g>
    </g>
</svg>