<?xml version="1.0" encoding="UTF-8"?>
<svg width="20px" height="20px" viewBox="0 0 20 20" version="1.1" xmlns="http://www.w3.org/2000/svg" xmlns:xlink="http://www.w3.org/1999/xlink">
    <title>告警实心</title>
    <g id="空间里层页面优化" stroke="none" stroke-width="1" fill="none" fill-rule="evenodd">
        <g id="应用管理-Agent-配置-5" transform="translate(-612, -546)" fill="#FF5D34" fill-rule="nonzero">
            <g id="编组-12" transform="translate(60, 60)">
                <g id="编组-4" transform="translate(552, 454)">
                    <g id="告警实心" transform="translate(0, 32)">
                        <path d="M10,18 C5.58186667,18 2,14.4181333 2,10 C2,5.58186667 5.58186667,2 10,2 C14.4181333,2 18,5.58186667 18,10 C18,14.4181333 14.4181333,18 10,18 Z M9.46666667,5.73333333 L9.46666667,11.6 C9.46666667,11.8945519 9.70544813,12.1333333 10,12.1333333 C10.2945519,12.1333333 10.5333333,11.8945519 10.5333333,11.6 L10.5333333,5.73333333 C10.5333333,5.43878147 10.2945519,5.2 10,5.2 C9.70544813,5.2 9.46666667,5.43878147 9.46666667,5.73333333 Z M9.2,14.5333333 C9.2,14.9751611 9.5581722,15.3333333 10,15.3333333 C10.4418278,15.3333333 10.8,14.9751611 10.8,14.5333333 C10.8,14.0915055 10.4418278,13.7333333 10,13.7333333 C9.5581722,13.7333333 9.2,14.0915055 9.2,14.5333333 Z" id="形状"></path>
                    </g>
                </g>
            </g>
        </g>
    </g>
</svg>