<svg width="16" height="16" viewBox="0 0 16 16" fill="none" xmlns="http://www.w3.org/2000/svg">
<path d="M8.90137 2C9.85953 2 10.4308 2.59117 10.2129 3.92188C10.0676 4.80879 9.92304 5.55487 9.7793 6.16016H12.7402C13.4373 6.16148 14.0013 6.72697 14 7.42285C14 7.43946 13.9997 7.45606 13.999 7.47266C13.8204 11.8241 12.5393 14 10.1562 14H5.10547V6.16016H5.50781C6.65254 6.16016 7.94324 2.00103 8.90137 2ZM4.10547 13.9629C2.91103 13.7636 2.00023 12.7295 2 11.4805V8.68066C2 7.43145 2.91087 6.39656 4.10547 6.19727V13.9629Z" fill="#5B6167"/>
</svg>
