<svg width="16" height="16" viewBox="0 0 16 16" fill="none" xmlns="http://www.w3.org/2000/svg">
<path fill-rule="evenodd" clip-rule="evenodd" d="M4.52418 6.16033C4.85218 6.16033 5.18017 6.16033 5.50816 6.16033C6.65304 6.16033 7.94356 2 8.90172 2C9.85989 2 10.431 2.59084 10.213 3.92154C10.0678 4.80868 9.92322 5.55494 9.77944 6.16033L12.7403 6.16034C13.4374 6.16167 14.0013 6.72686 14 7.42274C14 7.43946 13.9996 7.45618 13.9989 7.47289C13.8203 11.8243 12.5395 14 10.1564 14C8.27897 14 6.40158 14 4.52418 14C3.13011 14 2 12.8718 2 11.48V8.68033C2 7.28858 3.13011 6.16033 4.52418 6.16033Z" stroke="#171719" stroke-linejoin="round"/>
<path d="M4.60583 6.18509V13.9773" stroke="#171719"/>
</svg>
