<?xml version="1.0" encoding="UTF-8"?>
<svg width="32px" height="32px" viewBox="0 0 32 32" version="1.1" xmlns="http://www.w3.org/2000/svg" xmlns:xlink="http://www.w3.org/1999/xlink">
    <title>知识库</title>
    <g id="V1.0版" stroke="none" stroke-width="1" fill="none" fill-rule="evenodd">
        <g id="红熊空间-记忆看板" transform="translate(-1160, -1136)">
            <g id="快速操作" transform="translate(848, 1048)">
                <g id="1" transform="translate(296, 68)">
                    <g id="知识库" transform="translate(16, 20)">
                        <g id="编组-8" transform="translate(5.3333, 4)">
                            <path d="M20.3333333,1 L20.3333333,23 L2.5,23 C2.08578644,23 1.71078644,22.8321068 1.43933983,22.5606602 C1.16789322,22.2892136 1,21.9142136 1,21.5 L1,2.5 C1,2.08578644 1.16789322,1.71078644 1.43933983,1.43933983 C1.71078644,1.16789322 2.08578644,1 2.5,1 L20.3333333,1 Z" id="矩形" stroke="#212332" stroke-width="2"></path>
                            <path d="M20.3333333,18.3333333 L20.3333333,22.5 L3,23 C2.44771525,23 1.94771525,22.7761424 1.58578644,22.4142136 C1.22385763,22.0522847 1,21.5522847 1,21 L1,19.8333333 C1,19.4191198 1.16789322,19.0441198 1.43933983,18.7726732 C1.71078644,18.5012266 2.08578644,18.3333333 2.5,18.3333333 L20.3333333,18.3333333 Z" id="矩形" stroke="#212332" stroke-width="2"></path>
                            <path d="M10.6666667,1.33333333 L10.6666667,8.99888216 C10.6666667,9.10933911 10.7562097,9.19888216 10.8666667,9.19888216 C10.8996946,9.19888216 10.9322085,9.19070269 10.9613048,9.17507418 L13.096738,8.02806762 C13.244486,7.94870766 13.4221807,7.94870766 13.5699286,8.02806762 L15.7053619,9.17507418 C15.80267,9.22734137 15.9239248,9.19082845 15.976192,9.09352028 C15.9918205,9.06442398 16,9.03191011 16,8.99888216 L16,1.33333333 L16,1.33333333 L10.6666667,1.33333333 Z" id="路径-2" fill="#212332"></path>
                        </g>
                    </g>
                </g>
            </g>
        </g>
    </g>
</svg>