<?xml version="1.0" encoding="UTF-8"?>
<svg width="16px" height="16px" viewBox="0 0 16 16" version="1.1" xmlns="http://www.w3.org/2000/svg" xmlns:xlink="http://www.w3.org/1999/xlink">
    <title>本体管理</title>
    <g id="v0.2.0" stroke="none" stroke-width="1" fill="none" fill-rule="evenodd">
        <g id="红熊空间-记忆管理" transform="translate(-28, -600)" fill="#212332" fill-rule="nonzero">
            <g id="本体管理" transform="translate(28, 600)">
                <path d="M12.9051096,10.4106225 C12.3694196,11.4980012 11.4899287,12.3774986 10.4105534,12.9131925 C10.2426506,14.0965163 9.22723825,15 8.00394627,15 C6.77265892,15 5.75724661,14.0885208 5.59733917,12.905197 C4.50996851,12.3695032 3.63047754,11.4900057 3.09478759,10.4106225 C1.91147246,10.2427185 1,9.22729869 1,8.00399772 C1,6.77270132 1.91147246,5.76527699 3.09478759,5.59737293 C3.63047754,4.50999429 4.50996851,3.63049686 5.59733917,3.09480297 C5.76524199,1.91147915 6.77265892,1 8.00394627,1 C9.22723826,1 10.2426506,1.90348372 10.4105534,3.08680754 C11.4899287,3.62250143 12.3694196,4.50199886 12.9051096,5.5893775 C14.0884247,5.75728156 14.9999489,6.76470589 14.9999489,7.99600228 C15.0078925,9.23529411 14.0884247,10.2507139 12.9051096,10.4106225 Z M8.00394627,13.7846945 C8.67555756,13.7846945 9.21924289,13.2410052 9.21924289,12.5693889 C9.21924289,11.8977727 8.67555756,11.3540834 8.00394627,11.3540834 C7.33233498,11.3540834 6.78864966,11.8977727 6.78864966,12.5693889 C6.78864966,13.2410052 7.33233498,13.7846945 8.00394627,13.7846945 Z M3.43858861,6.78069676 C2.76697732,6.78069676 2.22329199,7.32438608 2.22329199,7.99600228 C2.22329199,8.66761849 2.76697732,9.21130783 3.43858861,9.21130783 C4.11019989,9.21130783 4.65388521,8.67561394 4.65388521,8.00399772 C4.65388521,7.3323815 4.11019988,6.78069676 3.43858861,6.78069676 Z M8.00394627,2.21530554 C7.33233498,2.21530554 6.78864966,2.75899486 6.78864966,3.43860652 C6.78864966,4.11821817 7.33233498,4.65391206 8.00394627,4.65391206 C8.67555756,4.65391206 9.21924289,4.11022274 9.21924289,3.43860652 C9.21924289,2.7669903 8.67555756,2.21530554 8.00394627,2.21530554 L8.00394627,2.21530554 Z M10.2506459,4.38206739 C9.8828588,5.25356939 9.0113632,5.86921759 8.00394627,5.86921759 C6.99652934,5.86921759 6.12503374,5.25356939 5.75724661,4.38206739 C5.19757054,4.72587094 4.72584357,5.19760137 4.38204255,5.75728156 C5.25353815,6.12507139 5.86918182,6.98857795 5.86918182,8.00399772 C5.86918182,9.01142205 5.25353815,9.87492861 4.38204255,10.2507139 C4.72584357,10.8103941 5.19757054,11.2821245 5.75724661,11.625928 C6.12503374,10.754426 6.98853397,10.1387778 8.00394627,10.1387778 C9.0113632,10.1387778 9.87486343,10.754426 10.2506459,11.625928 C10.8023266,11.2821245 11.2740536,10.8103941 11.62585,10.2507139 C10.7543544,9.88292405 10.1387107,9.01941748 10.1387107,8.01199315 C10.1387107,7.00456882 10.7543544,6.14106226 11.62585,5.76527699 C11.2740536,5.19760138 10.8023266,4.73386637 10.2506459,4.38206739 Z M12.569304,6.78069676 C11.8976927,6.78069676 11.3540073,7.32438608 11.3540073,7.99600228 C11.3540073,8.66761849 11.8976927,9.21130783 12.569304,9.21130783 C13.2409152,9.21130783 13.7846006,8.6676185 13.7846006,7.99600228 C13.7846006,7.32438606 13.2409152,6.78069676 12.569304,6.78069676 L12.569304,6.78069676 Z" id="形状"></path>
            </g>
        </g>
    </g>
</svg>