<?xml version="1.0" encoding="UTF-8"?>
<svg width="16px" height="16px" viewBox="0 0 16 16" version="1.1" xmlns="http://www.w3.org/2000/svg" xmlns:xlink="http://www.w3.org/1999/xlink">
    <title>模型 (1)</title>
    <g id="v0.2.0" stroke="none" stroke-width="1" fill="none" fill-rule="evenodd">
        <g id="红熊空间-记忆管理" transform="translate(-24, -409)" stroke="#5B6167">
            <g id="记忆对话备份-2" transform="translate(12, 401)">
                <g id="模型-(1)" transform="translate(12, 8)">
                    <g id="编组-21" transform="translate(1.5, 1.5)">
                        <path d="M7,0.288675135 L11.6291651,2.96132487 C11.9385662,3.13995766 12.1291651,3.47008468 12.1291651,3.82735027 L12.1291651,9.17264973 C12.1291651,9.52991532 11.9385662,9.86004234 11.6291651,10.0386751 L7,12.7113249 C6.69059892,12.8899577 6.30940108,12.8899577 6,12.7113249 L1.37083488,10.0386751 C1.0614338,9.86004234 0.870834875,9.52991532 0.870834875,9.17264973 L0.870834875,3.82735027 C0.870834875,3.47008468 1.0614338,3.13995766 1.37083488,2.96132487 L6,0.288675135 C6.30940108,0.11004234 6.69059892,0.11004234 7,0.288675135 Z" id="多边形"></path>
                        <polyline id="路径-15" points="0.931223827 3.37218958 6.5 6.5 6.5 12.8581283"></polyline>
                        <line x1="6.5" y1="6.49748419" x2="12.0714286" y2="3.37218958" id="路径-16"></line>
                    </g>
                </g>
            </g>
        </g>
    </g>
</svg>