<?xml version="1.0" encoding="UTF-8"?>
<svg width="16px" height="16px" viewBox="0 0 16 16" version="1.1" xmlns="http://www.w3.org/2000/svg" xmlns:xlink="http://www.w3.org/1999/xlink">
    <title>编组 29</title>
    <g id="V1.0版" stroke="none" stroke-width="1" fill="none" fill-rule="evenodd">
        <g id="红熊空间-应用管理" transform="translate(-24, -249)" stroke="#5B6167">
            <g id="记忆库" transform="translate(12, 241)">
                <g id="编组-29" transform="translate(12, 8)">
                    <g id="编组-30" transform="translate(1.5, 2)">
                        <path d="M5.15208739,12 L3.96504286,11.9873871 C3.14287934,11.9786512 2.48098017,11.3096817 2.48098017,10.4874718 L2.48098017,8.17573134 L2.48098017,8.17573134 L0.701703053,7.96314675 C0.482349244,7.93693878 0.325773604,7.73787163 0.351981572,7.51851782 C0.360586526,7.44649662 0.388612869,7.37817062 0.433061291,7.3208519 L1.79815052,5.56049306 L1.79815052,5.56049306 L1.79815052,5.43150782 C1.79815052,2.43176888 4.30576994,0 7.39907526,0 C10.4923806,0 13,2.43176888 13,5.43150782" id="路径" stroke-linecap="round"></path>
                        <path d="M8,6 L11,6 C11.5522847,6 12,6.44771525 12,7 L12,11 C12,11.5522847 11.5522847,12 11,12 L8,12 C7.44771525,12 7,11.5522847 7,11 L7,7 C7,6.44771525 7.44771525,6 8,6 Z" id="矩形"></path>
                        <line x1="7" y1="8" x2="12" y2="8" id="路径-26"></line>
                        <line x1="7" y1="10" x2="12" y2="10" id="路径-26备份"></line>
                    </g>
                </g>
            </g>
        </g>
    </g>
</svg>