<?xml version="1.0" encoding="UTF-8"?>
<svg width="16px" height="16px" viewBox="0 0 16 16" version="1.1" xmlns="http://www.w3.org/2000/svg" xmlns:xlink="http://www.w3.org/1999/xlink">
    <title>138设置、系统设置、功能设置、属性</title>
    <g id="V1.0版" stroke="none" stroke-width="1" fill="none" fill-rule="evenodd">
        <g id="红熊空间-记忆看板" transform="translate(-24, -248)" fill-rule="nonzero" stroke="#5B6167">
            <g id="系统设置" transform="translate(12, 240)">
                <g id="138设置、系统设置、功能设置、属性" transform="translate(12, 8)">
                    <path d="M6.47756301,2.10139537 C6.82472641,2.44666235 7.54200401,2.896875 7.94838547,2.896875 C8.35642944,2.896875 9.07123488,2.44541076 9.42025837,2.10034757 L11.8290583,2.8871092 C11.9806333,2.97251612 12.0939752,3.09398778 12.1501758,3.23471405 C12.1984918,3.35569736 12.2014109,3.48997165 12.1475877,3.61561641 C12.1441426,3.62379649 12.1429332,3.62683138 12.1417886,3.6297462 C12.0951396,3.74854349 11.9916207,4.08667577 11.9916207,4.3234375 C11.9916207,4.83953119 12.2015164,5.30882905 12.5413063,5.6487743 C12.8805134,5.98813645 13.3488806,6.1984375 13.8659922,6.1984375 C13.9862531,6.1984375 14.0908113,6.23337231 14.1704145,6.30507313 C14.2688502,6.3937369 14.3288418,6.52589071 14.3615158,6.67977685 C14.4161324,7.00883571 14.5027575,7.52092705 14.4999263,7.94375 C14.4999263,8.40049338 14.4109632,8.89918233 14.3734613,9.11132529 C14.3363501,9.31726262 14.2743874,9.48296806 14.1723698,9.59188224 C14.1089226,9.65961857 14.0275509,9.69375 13.9347108,9.69375 C13.3827328,9.69375 12.9040318,9.90006323 12.5595779,10.2261471 C12.1984978,10.5679706 11.9822499,11.0432003 11.9822499,11.56875 C11.9822499,11.5928398 11.9827043,11.6168239 11.9836306,11.6407277 C11.9889063,11.6600195 11.9942738,11.6797174 11.9997384,11.6998324 C12.1739241,12.3410064 12.218788,12.5668126 12.1639963,12.7674283 C12.1302616,12.8909454 12.0621989,13.0054761 11.957116,13.0752012 L10.2781093,14.0066985 C10.1690058,14.0601373 10.0755081,14.1015625 9.94747142,14.1015625 C9.75971122,14.1015625 9.5767828,14.0247377 9.44680873,13.8965274 C8.8649484,13.3144011 8.27656292,13.028125 7.94213833,13.028125 C7.49355309,13.028125 6.78132891,13.5616177 6.52111244,13.7894113 C6.51429891,13.7953758 6.50723664,13.8016198 6.49999157,13.8081479 C6.4955529,13.8130674 6.49104137,13.8179611 6.48645709,13.8228289 C6.35828486,13.9589266 6.20641694,14.0394678 6.03747413,14.0621197 L4.07256889,13.1133111 C3.94647876,13.0220509 3.8566678,12.894028 3.81088812,12.7555394 C3.76732029,12.6237419 3.76239339,12.4801325 3.81772787,12.3540121 L3.82297013,12.3416608 C3.87191171,12.2170815 3.97543065,11.8789492 3.97543065,11.6421875 C3.97543065,11.1260938 3.76553489,10.6567959 3.42574501,10.3168507 C3.08653795,9.97748855 2.61817067,9.7671875 2.10105906,9.7671875 C1.99588937,9.7671875 1.90338435,9.73103612 1.8314522,9.66379784 C1.73535578,9.57397212 1.67442564,9.44109154 1.64145225,9.28582164 C1.58700754,8.95776086 1.5,8.44166027 1.5,8.01875 C1.5,7.60281106 1.58586019,7.09612111 1.62261901,6.87399355 C1.66183251,6.6525909 1.72340809,6.48231716 1.82679019,6.37090499 C1.88997019,6.30281756 1.97105062,6.26875 2.0635762,6.26875 C2.61342926,6.26875 3.09152136,6.0622124 3.43568045,5.7353532 C3.79544418,5.39367376 4.01135173,4.91882871 4.01135173,4.39375 C4.01135173,4.08592256 3.87382481,3.7309595 3.82708055,3.62679989 C3.76421019,3.4864865 3.75860434,3.33026367 3.79680791,3.19038418 C3.83036284,3.06752535 3.89788083,2.95355729 4.00201132,2.88372979 L5.66973097,1.98021426 C6.11210813,1.92997058 6.33324033,1.95901743 6.47756301,2.10139537 Z M7.99836262,5.325 C7.25971916,5.325 6.5912057,5.62435998 6.10734543,6.10844149 C5.62356785,6.59244027 5.32435665,7.26113429 5.32435665,8 C5.32435665,8.73886571 5.62356785,9.40755973 6.10734543,9.89155851 C6.5912057,10.37564 7.25971916,10.675 7.99836262,10.675 C8.73700608,10.675 9.40551954,10.37564 9.88937981,9.89155851 C10.3731574,9.40755973 10.6723686,8.73886571 10.6723686,8 C10.6723686,7.26113429 10.3731574,6.59244027 9.88937981,6.10844149 C9.40551954,5.62435998 8.73700608,5.325 7.99836262,5.325 Z" id="形状"></path>
                </g>
            </g>
        </g>
    </g>
</svg>