<?xml version="1.0" encoding="UTF-8"?>
<svg width="16px" height="16px" viewBox="0 0 16 16" version="1.1" xmlns="http://www.w3.org/2000/svg" xmlns:xlink="http://www.w3.org/1999/xlink">
    <title>完成</title>
    <g id="空间里层页面优化" stroke="none" stroke-width="1" fill="none" fill-rule="evenodd">
        <g id="记忆管理-记忆提取引擎-2" transform="translate(-1288, -508)" fill-rule="nonzero">
            <g id="编组-26" transform="translate(846, 102)">
                <g id="编组-48" transform="translate(12, 362)">
                    <g id="1" transform="translate(0, 32)">
                        <g id="编组-31" transform="translate(422, 8)">
                            <g id="完成" transform="translate(8, 4)">
                                <rect id="矩形" opacity="0.205054874" x="0" y="0" width="16" height="16"></rect>
                                <path d="M8,1 C4.13401843,1 1,4.13399462 1,8 C1,11.8660054 4.13401843,15 8,15 C11.8660404,15 15,11.8660054 15,8 C15,4.13400935 11.8660697,1 8,1 L8,1 Z M11.8488905,6.3221368 L7.34274977,10.9336514 C7.13545231,11.145815 6.79915605,11.145815 6.59188798,10.9336514 L4.15112422,8.43567652 C3.9436945,8.22349821 3.9436945,7.87942608 4.15112422,7.66718889 C4.35840699,7.45493698 4.69471795,7.45493698 4.90198602,7.66718889 L6.96733357,9.78080221 L11.0978817,5.55359028 C11.3053114,5.34135309 11.6416371,5.34135309 11.8489052,5.55359028 C12.0563349,5.76581275 12.0563349,6.10989961 11.8489052,6.3221368 L11.8488905,6.3221368 Z" id="形状" fill="#369F21"></path>
                            </g>
                        </g>
                    </g>
                </g>
            </g>
        </g>
    </g>
</svg>