<?xml version="1.0" encoding="UTF-8"?>
<svg width="16px" height="16px" viewBox="0 0 16 16" version="1.1" xmlns="http://www.w3.org/2000/svg" xmlns:xlink="http://www.w3.org/1999/xlink">
    <title>link-outlined</title>
    <g id="空间里层页面优化" stroke="none" stroke-width="1" fill="none" fill-rule="evenodd">
        <g id="API-Key-管理" transform="translate(-1034, -161)" stroke="#171719">
            <g id="编组-16" transform="translate(1022, 126)">
                <g id="link-outlined" transform="translate(12, 35)">
                    <g id="编组-14" transform="translate(2.5, 4.15)">
                        <path d="M5.50029186,2.425 C5.92116821,2.425 6.30372933,2.58703648 6.58052274,2.85122056 C6.84862719,3.1071115 7.01717088,3.4597026 7.01717088,3.85 C7.01717088,4.24027468 6.84857286,4.5929387 6.58042003,4.84890344 C6.3036418,5.11310155 5.92112667,5.27520782 5.50029186,5.27520782 C5.07946329,5.27520782 4.69695201,5.11310096 4.42017607,4.84890315 C4.15202505,4.59293829 3.98342734,4.24027444 3.98342734,3.85 C3.98342734,3.45970284 4.15197072,3.10711191 4.42007337,2.85122085 C4.69686448,2.58703707 5.07942175,2.425 5.50029186,2.425 Z" id="路径" fill-rule="nonzero"></path>
                        <path d="M5.5,7.7 C8.53756612,7.7 11,5.39612383 11,3.85 C11,2.30387617 8.53756612,0 5.5,0 C2.46243388,0 0,2.26850164 0,3.85 C0,5.43149836 2.46243388,7.7 5.5,7.7 Z" id="椭圆形"></path>
                    </g>
                </g>
            </g>
        </g>
    </g>
</svg>