<?xml version="1.0" encoding="UTF-8"?>
<svg width="16px" height="16px" viewBox="0 0 16 16" version="1.1" xmlns="http://www.w3.org/2000/svg" xmlns:xlink="http://www.w3.org/1999/xlink">
    <title>link-outlined</title>
    <g id="空间外层页面优化" stroke="none" stroke-width="1" fill="none" fill-rule="evenodd">
        <g id="平台管理-工具管理--MCP服务" transform="translate(-1032, -161)" fill="#171719" fill-rule="nonzero">
            <g id="编组-16" transform="translate(1020, 126)">
                <g id="link-outlined" transform="translate(12, 35)">
                    <path d="M8.8887561,10.1978746 C8.84435493,10.1534734 8.77130783,10.1534734 8.72690666,10.1978746 L7.06257876,11.8622025 C6.29200354,12.6327777 4.99147881,12.7144186 4.14069502,11.8622025 C3.28847892,11.0099864 3.37011979,9.71089398 4.14069502,8.94031876 L5.80502291,7.27599086 C5.84942409,7.23158968 5.84942409,7.15854259 5.80502291,7.11414142 L5.23496912,6.54408763 C5.19056795,6.49968645 5.11752086,6.49968645 5.07311968,6.54408763 L3.40879178,8.20841552 C2.19706941,9.4201379 2.19706941,11.3809511 3.40879178,12.5912411 C4.62051416,13.8015312 6.58132732,13.8029635 7.7916174,12.5912411 L9.4559453,10.9269132 C9.50034647,10.8825121 9.50034647,10.809465 9.4559453,10.7650638 L8.8887561,10.1978746 Z M12.5926734,3.40879178 C11.3809511,2.19706941 9.4201379,2.19706941 8.20984782,3.40879178 L6.54408763,5.07311968 C6.49968645,5.11752086 6.49968645,5.19056795 6.54408763,5.23496912 L7.11270912,5.80359062 C7.15711029,5.84799179 7.23015739,5.84799179 7.27455856,5.80359062 L8.93888646,4.13926272 C9.70946168,3.3686875 11.0099864,3.28704663 11.8607702,4.13926272 C12.7129863,4.99147881 12.6313454,6.29057124 11.8607702,7.06114647 L10.1964423,8.72547436 C10.1520411,8.76987554 10.1520411,8.84292263 10.1964423,8.88732381 L10.7664961,9.4573776 C10.8108973,9.50177877 10.8839444,9.50177877 10.9283455,9.4573776 L12.5926734,7.7930497 C13.8029635,6.58132732 13.8029635,4.62051416 12.5926734,3.40879178 L12.5926734,3.40879178 Z M9.40581494,5.99981516 C9.36141377,5.95541399 9.28836667,5.95541399 9.2439655,5.99981516 L5.99981516,9.2425332 C5.95541399,9.28693438 5.95541399,9.35998147 5.99981516,9.40438265 L6.56700436,9.97157184 C6.61140554,10.015973 6.68445263,10.015973 6.7288538,9.97157184 L9.97157184,6.7288538 C10.015973,6.68445263 10.015973,6.61140554 9.97157184,6.56700436 L9.40581494,5.99981516 Z" id="形状"></path>
                </g>
            </g>
        </g>
    </g>
</svg>