<?xml version="1.0" encoding="UTF-8"?>
<svg width="24px" height="24px" viewBox="0 0 24 24" version="1.1" xmlns="http://www.w3.org/2000/svg" xmlns:xlink="http://www.w3.org/1999/xlink">
    <title>更多</title>
    <g id="空间里层页面优化" stroke="none" stroke-width="1" fill="none" fill-rule="evenodd">
        <g id="记忆库-个人记忆-感知记忆-文本" transform="translate(-440, -187)" fill-rule="nonzero">
            <g id="编组-8" transform="translate(12, 76)">
                <g id="编组-14" transform="translate(16, 92)">
                    <g id="更多" transform="translate(412, 19)">
                        <rect id="矩形" fill="#E4E4E4" x="0" y="0" width="24" height="24" rx="8"></rect>
                        <path d="M5.25,12 C5.25,12.8284271 5.92157288,13.5 6.75,13.5 C7.57842712,13.5 8.25,12.8284271 8.25,12 C8.25,11.1715729 7.57842712,10.5 6.75,10.5 C5.92157288,10.5 5.25,11.1715729 5.25,12 Z M10.5,12 C10.5,12.8284271 11.1715729,13.5 12,13.5 C12.8284271,13.5 13.5,12.8284271 13.5,12 C13.5,11.1715729 12.8284271,10.5 12,10.5 C11.1715729,10.5 10.5,11.1715729 10.5,12 Z M15.75,12 C15.75,12.8284271 16.4215729,13.5 17.25,13.5 C18.0784271,13.5 18.75,12.8284271 18.75,12 C18.75,11.1715729 18.0784271,10.5 17.25,10.5 C16.4215729,10.5 15.75,11.1715729 15.75,12 Z" id="形状" fill="#171719"></path>
                    </g>
                </g>
            </g>
        </g>
    </g>
</svg>