<?xml version="1.0" encoding="UTF-8"?>
<svg width="16px" height="16px" viewBox="0 0 16 16" version="1.1" xmlns="http://www.w3.org/2000/svg" xmlns:xlink="http://www.w3.org/1999/xlink">
    <title>编组</title>
    <g id="空间里层页面优化" stroke="none" stroke-width="1" fill="none" fill-rule="evenodd">
        <g id="工作台-记忆看板-3" transform="translate(-1196, -212)" fill="#171719" fill-rule="nonzero" stroke="#171719" stroke-width="0.28">
            <g id="编组-22" transform="translate(1180, 57)">
                <g id="编组-54" transform="translate(16, 153)">
                    <g id="编组" transform="translate(0, 2)">
                        <path d="M8,15 C4.13400675,15 1,11.8659932 1,8 C1,4.13400675 4.13400675,1 8,1 C11.8659932,1 15,4.13400675 15,8 C15,11.8659932 11.8659932,15 8,15 Z M7.99999991,2 C5.85640644,2 3.87564429,3.1435935 2.8038475,5 C1.73205071,6.85640645 1.73205071,9.14359355 2.8038475,11 C3.87564429,12.8564065 5.85640644,14 7.99999991,14 C11.3137085,14 13.9999999,11.3137085 13.9999999,8 C13.9999999,4.68629154 11.3137085,2 7.99999991,2 L7.99999991,2 Z M9.233,7.997 C8.489,8.436 8.278,8.764 8.278,9.38 L8.278,9.76 L7.253,9.76 L7.253,9.221 C7.247,8.448 7.622,7.921 8.424,7.44 C9.104,7.024 9.368,6.655 9.368,6.028 C9.368,5.301 8.805,4.768 7.932,4.768 C7.048,4.768 6.485,5.29 6.421,6.128 L5.419,6.128 C5.483,4.862 6.327,3.854 7.973,3.854 C9.45,3.854 10.458,4.768 10.458,5.975 C10.458,6.895 9.983,7.546 9.233,7.997 L9.233,7.997 Z M7.768,11.096 C8.149,11.096 8.436,11.383 8.436,11.764 C8.43900719,11.9420695 8.36959491,12.1137307 8.24366282,12.2396628 C8.11773073,12.3655949 7.94606948,12.4350072 7.768,12.432 C7.59017939,12.4341688 7.41900795,12.3644871 7.29326044,12.2387396 C7.16751293,12.112992 7.09783121,11.9418206 7.1,11.764 C7.1,11.383 7.393,11.096 7.768,11.096 L7.768,11.096 Z" id="形状"></path>
                    </g>
                </g>
            </g>
        </g>
    </g>
</svg>