<?xml version="1.0" encoding="UTF-8"?>
<svg width="48px" height="48px" viewBox="0 0 48 48" version="1.1" xmlns="http://www.w3.org/2000/svg" xmlns:xlink="http://www.w3.org/1999/xlink">
    <title>编组 12</title>
    <g id="空间里层页面优化" stroke="none" stroke-width="1" fill="none" fill-rule="evenodd">
        <g id="工作台-知识库-创建数据集-本地文件" transform="translate(-816, -184)">
            <g id="上传" transform="translate(252, 148)">
                <g id="编组-13" transform="translate(16, 16)">
                    <g id="编组-12" transform="translate(548, 20)">
                        <g id="编组-55" transform="translate(5, 2)">
                            <path d="M4,0 L18.9462071,0 L18.9462071,0 L29,10 L29,34 C29,36.209139 27.209139,38 25,38 L4,38 C1.790861,38 0,36.209139 0,34 L0,4 C0,1.790861 1.790861,4.4408921e-16 4,0 Z" id="矩形" fill="#EBEBEB"></path>
                            <path d="M19,0 L29,10 L21,10 C19.8954305,10 19,9.1045695 19,8 L19,0 L19,0 Z" id="矩形" fill="#A8A9AA"></path>
                            <g id="编组-56" transform="translate(18, 23)">
                                <circle id="椭圆形" fill="#171719" cx="11" cy="11" r="11"></circle>
                                <g id="编组-54" transform="translate(6, 6)" stroke="#FFFFFF" stroke-linecap="round">
                                    <path d="M10,6 L10,7.5 C10,8.88071187 8.88071187,10 7.5,10 L2.5,10 C1.11928813,10 0,8.88071187 0,7.5 L0,6 L0,6" id="路径"></path>
                                    <line x1="5" y1="0.08499952" x2="5" y2="6.99635859" id="路径-24"></line>
                                    <polyline id="路径-25" stroke-linejoin="round" points="2 3 4.98005548 6.08298138e-18 8 3"></polyline>
                                </g>
                            </g>
                        </g>
                    </g>
                </g>
            </g>
        </g>
    </g>
</svg>