<?xml version="1.0" encoding="UTF-8"?>
<svg width="16px" height="16px" viewBox="0 0 16 16" version="1.1" xmlns="http://www.w3.org/2000/svg" xmlns:xlink="http://www.w3.org/1999/xlink">
    <title>复制</title>
    <g id="V1.0版" stroke="none" stroke-width="1" fill="none" fill-rule="evenodd">
        <g id="应用管理-编排-操作状态-1" transform="translate(-262, -98)" fill="#155EEF" fill-rule="nonzero" stroke="#155EEF" stroke-width="0.2">
            <g id="添加变量备份" transform="translate(246, 44)">
                <g id="复制" transform="translate(24, 62) scale(-1, 1) translate(-24, -62)translate(16, 54)">
                    <path d="M12.457101,11.1647176 L10.4691352,11.1647176 L10.4691352,12.586712 C10.4691352,13.4145067 9.60465201,13.9995312 8.77685733,13.9995312 L3.50878856,13.9995312 C2.67802272,13.9972139 2.00512985,13.324321 2.0028125,12.4935552 L2.0028125,7.22548642 C2.0028125,6.39770345 2.58432174,5.52968145 3.41211643,5.52968145 L4.81504585,5.52968145 L4.81504585,3.54101264 C4.81504585,2.69558262 5.50874164,2.00328125 6.35629259,2.00328125 L12.4571127,2.00328125 C13.3053667,2.00328125 13.9990625,2.69558262 13.9990625,3.54101264 L13.9990625,9.62770103 C13.9951838,10.4768867 13.3063065,11.1635653 12.4571127,11.1647294 L12.457101,11.1647176 Z M4.86655745,10.0010195 C4.85318829,9.94543146 4.84305487,9.8891147 4.83620826,9.83235301 C4.83480212,9.80765181 4.82351784,9.78859861 4.82351784,9.76389742 L4.82351784,9.70956182 C4.8221117,9.68203663 4.81504585,9.65522622 4.81504585,9.62770103 L4.81504585,6.23538801 L3.41210471,6.23538801 C2.96046422,6.23538801 2.75580053,6.77384593 2.75580053,7.22548642 L2.75580053,12.4935552 C2.75580053,12.9452074 3.05713636,13.2465432 3.50878856,13.2465432 L8.77685733,13.2465432 C9.22850953,13.2465432 9.76342867,13.0383642 9.76342867,12.586712 L9.76342867,11.1752988 L6.23491926,11.1752988 C5.49322723,11.1752988 4.97241636,10.6940239 4.86655745,10.0010195 Z M13.2284274,3.54101264 C13.2284274,3.0794823 12.9200375,2.7725102 12.457101,2.7725102 L6.35630431,2.7725102 C5.89405918,2.7725102 5.58566922,3.0794823 5.58566922,3.54101264 L5.58566922,9.62770103 C5.58566922,10.0885283 5.89405918,10.3962152 6.35630431,10.3962152 L12.457101,10.3962152 C12.9200375,10.3962152 13.2284274,10.0885283 13.2284274,9.62770103 L13.2284274,3.54101264 L13.2284274,3.54101264 Z M9.75919853,8.35532 L9.05490982,8.35532 L9.05490982,6.94674258 L7.64632068,6.94674258 L7.64632068,6.24244215 L9.05490982,6.24244215 L9.05490982,4.83386473 L9.75919853,4.83386473 L9.75919853,6.24244215 L11.167776,6.24244215 L11.167776,6.94674258 L9.75919853,6.94674258 L9.75919853,8.35532 Z" id="形状"></path>
                </g>
            </g>
        </g>
    </g>
</svg>