<?xml version="1.0" encoding="UTF-8"?>
<svg width="16px" height="16px" viewBox="0 0 16 16" version="1.1" xmlns="http://www.w3.org/2000/svg" xmlns:xlink="http://www.w3.org/1999/xlink">
    <title>导出</title>
    <g id="V1.0版" stroke="none" stroke-width="1" fill="none" fill-rule="evenodd">
        <g id="应用管理-编排-操作状态-1" transform="translate(-262, -134)" fill="#5B6167" fill-rule="nonzero">
            <g id="添加变量备份" transform="translate(246, 44)">
                <g id="导出" transform="translate(16, 90)">
                    <path d="M3.57638835,13.9995313 C3.12621359,13.9995313 2.75106796,13.8476384 2.45095146,13.5438528 C2.15083495,13.2400672 2.0007767,12.8603352 2.0007767,12.4046568 L2.0007767,10.2022112 C2.0007767,10.0503184 2.07580583,9.89842563 2.15083495,9.82247923 C2.22586408,9.74653283 2.37592233,9.67058643 2.52598058,9.67058643 C2.67603883,9.67058643 2.82609709,9.74653283 2.90112621,9.82247923 C2.97615534,9.89842563 3.05118447,10.0503184 3.05118447,10.2022112 L3.05118447,12.4046568 C3.05118447,12.5565496 3.12621359,12.7843888 3.20124272,12.8603352 C3.27627184,12.9362816 3.4263301,13.012228 3.65141748,13.012228 L12.3547961,13.012228 C12.5048544,13.012228 12.7299417,12.9362816 12.8049709,12.8603352 C12.88,12.7843888 12.9550291,12.632496 12.9550291,12.4046568 L12.9550291,10.2022112 C12.9550291,10.0503184 13.0300583,9.89842563 13.1050874,9.82247923 C13.1801165,9.74653283 13.3301748,9.67058643 13.480233,9.67058643 C13.6302913,9.67058643 13.7803495,9.74653283 13.8553786,9.82247923 C13.9304078,9.89842563 14.0054369,10.0503184 14.0054369,10.2022112 L14.0054369,12.4046568 C14.0054369,12.8603352 13.8553786,13.2400672 13.5552621,13.5438528 C13.2551456,13.8476384 12.88,13.9995313 12.4298252,13.9995313 L3.57638835,13.9995313 Z M8.0031068,10.733836 C7.85304854,10.733836 7.70299029,10.6578896 7.62796117,10.5819432 C7.55293204,10.5059968 7.47790291,10.354104 7.47790291,10.2022112 L7.47790291,3.82271361 C7.47790291,3.82271361 7.47790291,3.74676721 7.40287379,3.74676721 L7.32784466,3.74676721 L5.60217476,5.64542722 C5.52714563,5.72137362 5.30205825,5.79732002 5.30205825,5.79732002 C5.152,5.79732002 5.00194175,5.72137362 4.92691262,5.64542722 C4.77685437,5.49353441 4.70182524,5.41758801 4.70182524,5.34164161 C4.70182524,5.18974881 4.77685437,5.03785601 4.8518835,4.96190961 L7.55293204,2.2278392 C7.70299029,2.0759464 7.85304854,2 8.0031068,2 C8.15316505,2 8.3032233,2.0759464 8.37825243,2.1518928 L11.0042718,4.96190961 C11.079301,5.03785601 11.1543301,5.18974881 11.1543301,5.34164161 C11.1543301,5.49353441 11.079301,5.64542722 11.0042718,5.72137362 C10.9292427,5.79732002 10.7791845,5.87326642 10.6291262,5.87326642 C10.479068,5.87326642 10.4040388,5.72137362 10.3290097,5.64542722 L8.52831068,3.74676721 L8.45328155,3.74676721 C8.45328155,3.74676721 8.37825243,3.74676721 8.37825243,3.82271361 L8.37825243,10.2781576 C8.37825243,10.4300504 8.3032233,10.5819432 8.22819417,10.6578896 C8.15316505,10.733836 8.07813592,10.733836 8.0031068,10.733836 L8.0031068,10.733836 Z" id="形状"></path>
                </g>
            </g>
        </g>
    </g>
</svg>