<?xml version="1.0" encoding="UTF-8"?>
<svg width="200px" height="200px" viewBox="0 0 200 200" version="1.1" xmlns="http://www.w3.org/2000/svg" xmlns:xlink="http://www.w3.org/1999/xlink">
    <title>定价</title>
    <g id="V1.0版" stroke="none" stroke-width="1" fill="none" fill-rule="evenodd">
        <g id="红熊空间-一般空状态" transform="translate(-1073, -106)">
            <g id="定价" transform="translate(1073, 106)">
                <g id="编组" transform="translate(12, 7)">
                    <path d="M10.210004,40.7181362 C13.3071681,40.7181362 15.8192668,42.8689882 15.8192668,45.5195123 C15.8192668,48.1700363 13.3092138,50.3208883 10.210004,50.3208883 C7.11079419,50.3208883 4.60074112,48.1700363 4.60074112,45.5195123 C4.60074112,42.8689882 7.11283988,40.7181362 10.210004,40.7181362 Z" id="路径" fill="#FEFEFE"></path>
                    <path d="M10.210004,40.7181362 C13.3071681,40.7181362 15.8192668,42.8689882 15.8192668,45.5195123 C15.8192668,48.1700363 13.3092138,50.3208883 10.210004,50.3208883 C7.11079419,50.3208883 4.60074112,48.1700363 4.60074112,45.5195123 C4.60074112,42.8689882 7.11283988,40.7181362 10.210004,40.7181362 Z" id="路径" stroke="#373435" stroke-width="0.4" stroke-linecap="round"></path>
                    <line x1="0" y1="184.897187" x2="175" y2="184.897187" id="路径" stroke="#373435" stroke-width="0.4" stroke-linecap="round"></line>
                    <path d="M41.420089,7.09158212 C50.8287045,16.5490601 50.8287045,31.8800655 41.420089,41.3375435 C32.0134982,50.7929863 16.7596765,50.7929863 7.35308567,41.3375435 C-2.05552984,31.8800655 -2.05552984,16.5490601 7.35308567,7.09158212 C16.7596765,-2.36386071 32.0134982,-2.36386071 41.420089,7.09158212 Z" id="路径" fill="#D2D3D5" fill-rule="nonzero"></path>
                    <path d="M41.420089,7.09158212 C50.8287045,16.5490601 50.8287045,31.8800655 41.420089,41.3375435 C32.0134982,50.7929863 16.7596765,50.7929863 7.35308567,41.3375435 C-2.05552984,31.8800655 -2.05552984,16.5490601 7.35308567,7.09158212 C16.7596765,-2.36386071 32.0134982,-2.36386071 41.420089,7.09158212 Z" id="路径" stroke="#373435" stroke-width="0.4" stroke-linecap="round"></path>
                    <path d="M24.3865873,45.2707044 C12.8177616,45.2707044 3.43879316,35.8432255 3.43879316,24.2145628 C3.43879316,12.5859001 12.8177616,3.15842123 24.3865873,3.15842123 C35.955413,3.15842123 45.3343815,12.5859001 45.3343815,24.2145628 C45.3343815,35.8432255 35.955413,45.2707044 24.3865873,45.2707044 Z" id="路径" fill="#D2D3D5"></path>
                    <path d="M24.3865873,45.2707044 C12.8177616,45.2707044 3.43879316,35.8432255 3.43879316,24.2145628 C3.43879316,12.5859001 12.8177616,3.15842123 24.3865873,3.15842123 C35.955413,3.15842123 45.3343815,12.5859001 45.3343815,24.2145628 C45.3343815,35.8432255 35.955413,45.2707044 24.3865873,45.2707044 Z" id="路径" stroke="#373435" stroke-width="0.4" stroke-linecap="round"></path>
                    <path d="M99.2442662,57.1744156 C99.2442662,57.1744156 85.8511795,92.9040558 83.9323288,98.0409381 C83.9036892,98.1166846 55.6794006,85.2177417 56.5917752,85.2115729 C56.5917752,85.2115729 80.4996727,59.9606531 82.5780866,57.4664051 C82.5780866,57.4664051 86.164169,53.4237904 89.5149978,54.4005157 C91.669102,55.0276762 98.5589624,56.7981194 99.2442662,57.1764719 L99.2442662,57.1744156 Z" id="路径" fill="#373435"></path>
                    <path d="M99.2442662,57.1744156 C99.2442662,57.1744156 85.8511795,92.9040558 83.9323288,98.0409381 C83.9036892,98.1166846 55.6794006,85.2177417 56.5917752,85.2115729 C56.5917752,85.2115729 80.4996727,59.9606531 82.5780866,57.4664051 C82.5780866,57.4664051 86.164169,53.4237904 89.5149978,54.4005157 C91.669102,55.0276762 98.5589624,56.7981194 99.2442662,57.1764719 L99.2442662,57.1744156 Z" id="路径" stroke="#373435" stroke-width="0.4" stroke-linecap="round"></path>
                    <path d="M88.3264559,54.2483522 L98.2316531,56.8988763 L100.250742,51.5443653 L106.191406,36.5295268 C108.185947,31.9502273 104.593727,26.7622737 99.426332,28.4936478 C97.922755,28.9974324 93.2197297,32.3779302 91.591366,33.4512999 C88.2855423,35.6350521 84.7280995,38.1251876 85.169967,40.9073125 C85.4256774,42.5173671 87.1133659,44.7607509 91.2804222,45.6799009 L88.3244103,54.2462959 L88.3264559,54.2483522 Z" id="路径" fill="#FBFDFF"></path>
                    <path d="M88.3264559,54.2483522 L98.2316531,56.8988763 L100.250742,51.5443653 L106.191406,36.5295268 C108.185947,31.9502273 104.593727,26.7622737 99.426332,28.4936478 C97.922755,28.9974324 93.2197297,32.3779302 91.591366,33.4512999 C88.2855423,35.6350521 84.7280995,38.1251876 85.169967,40.9073125 C85.4256774,42.5173671 87.1133659,44.7607509 91.2804222,45.6799009 L88.3244103,54.2462959 L88.3264559,54.2483522 Z" id="路径" stroke="#373435" stroke-width="0.4" stroke-linecap="round"></path>
                    <path d="M91.4072546,39.3630584 C92.1866598,40.1403261 94.0666425,42.2397715 96.5357819,39.5069969" id="路径" stroke="#373435" stroke-width="0.4" stroke-linecap="round"></path>
                    <path d="M93.2442779,65.9505496 L98.2316531,56.8988763 C100.371438,57.3553668 102.273923,58.4986495 103.982068,60.8510153 C105.798635,63.3534884 107.046501,66.9169936 108.627814,69.8060443 L125.983389,104.120261 L102.26015,107.386322 L93.2442779,65.9505496 Z" id="路径" fill="#373435"></path>
                    <path d="M93.2442779,65.9505496 L98.2316531,56.8988763 C100.371438,57.3553668 102.273923,58.4986495 103.982068,60.8510153 C105.798635,63.3534884 107.046501,66.9169936 108.627814,69.8060443 L125.983389,104.120261 L102.021558,106.826856 L93.2442779,65.9505496 Z" id="路径" stroke="#373435" stroke-width="0.4" stroke-linecap="round"></path>
                    <path d="M83.9323288,98.0385466 L56.5917752,85.2095166 L34.062668,108.766075 C26.5447829,115.917761 28.1895121,125.697351 33.3569074,133.120464 C35.8301382,136.673688 38.7800131,141.137836 41.6705632,145.606098 L41.6705632,167.219487 L54.4867674,167.219487 L53.9671639,165.177617 L76.580144,156.635897 L69.8478012,140.132323 L83.9343745,98.0364903 L83.9323288,98.0385466 Z" id="路径" fill="#FBFDFF"></path>
                    <path d="M69.7536998,140.138492 C76.3448905,120.782881 83.9323288,98.0406029 83.9323288,98.0406029 M41.6951114,145.26887 C41.5825988,147.29429 41.6296495,165.889084 41.7482992,167.219487 C41.7646646,167.332581 49.2089052,167.061154 54.7302036,166.84319" id="形状" stroke="#373435" stroke-width="0.4" stroke-linecap="round"></path>
                    <path d="M60.5788114,166.60672 C60.5604003,167.225656 57.5266523,184.956818 57.5266523,184.956818 C57.5266523,184.956818 19.5567297,185.012338 19.5833096,184.899243 C21.9113109,174.414354 34.6334136,177.677645 41.7503448,167.221543 L60.5788114,166.608776 L60.5788114,166.60672 Z" id="路径" fill="#D2D3D5"></path>
                    <path d="M60.5788114,166.60672 C60.5604003,167.225656 57.5266523,184.956818 57.5266523,184.956818 C57.5266523,184.956818 19.5567297,185.012338 19.5833096,184.899243 C21.9113109,174.414354 34.6334136,177.677645 41.7503448,167.221543 L60.5788114,166.608776 L60.5788114,166.60672 Z" id="路径" stroke="#373435" stroke-width="0.4" stroke-linecap="round"></path>
                    <path d="M63.6739298,184.907468 C63.4304935,184.907468 41.5335024,184.907468 41.5335024,184.907468 C41.187782,184.880737 43.1557291,177.539875 51.8539733,176.900377 C57.3139013,173.569229 53.9671639,165.177617 53.9671639,165.177617 L76.580144,156.635897 L85.3172562,177.881215 L63.6739298,184.907468 Z" id="路径" fill="#D2D3D5"></path>
                    <path d="M63.6739298,184.907468 C63.4304935,184.907468 41.5335024,184.907468 41.5335024,184.907468 C41.187782,184.880737 43.1557291,177.539875 51.8539733,176.900377 C57.3139013,173.569229 53.9671639,165.177617 53.9671639,165.177617 L76.580144,156.635897 L85.3172562,177.881215 L63.6739298,184.907468 Z" id="路径" stroke="#373435" stroke-width="0.4" stroke-linecap="round"></path>
                    <path d="M51.8519276,176.900377 C55.4195988,176.388367 58.3510626,177.825696 58.7029201,178.119741" id="路径" stroke="#373435" stroke-width="0.4" stroke-linecap="round"></path>
                    <path d="M56.5917752,85.2095166 L34.062668,108.766075 C26.5447829,115.917761 28.1895121,125.697351 33.3569074,133.120464 C40.774554,143.773967 52.4860894,162.631962 53.9651182,165.177617 L76.5780983,156.635897 L58.9954527,114.649046 L61.6671148,106.465116" id="路径" stroke="#373435" stroke-width="0.4" stroke-linecap="round"></path>
                    <path d="M100.846036,184.893979 C100.846036,166.864411 109.984105,158.144404 113.287682,154.697961 C115.72176,152.158618 117.656175,150.830163 117.656175,149.194724 C117.656175,146.985735 114.284562,145.380588 110.587607,140.824184 L110.134567,140.25849 C105.808842,134.784463 100.923291,126.444264 100.846036,113.703164 L151.120742,113.703164 C151.040776,126.891321 145.809171,135.364321 141.379171,140.824184 C137.682217,145.380588 134.310603,146.985735 134.310603,149.194724 C134.310603,150.773768 136.11391,152.066636 138.429136,154.439527 L139.60562,155.66926 C143.425792,159.728161 151.120742,168.349199 151.120742,184.893979 L100.846036,184.893979 Z" id="路径" stroke="#373435" stroke-width="0.4" fill="#FBFDFF"></path>
                    <path d="M109.282765,183.188432 C108.215564,174.018088 122.314148,171.263121 123.484417,170.763897 C124.384624,170.379879 124.478264,168.617575 124.473543,167.310462 L124.461858,166.306467 C124.461858,165.751201 124.64116,161.648386 124.789171,157.358727 L124.891022,154.158959 C124.984535,150.885283 125.026391,148.013675 124.914918,147.166619 C124.625823,144.96986 122.208863,144.083225 118.721646,140.542485 C115.234429,137.001744 112.012934,132.161031 110.243394,126.336849 L141.723384,126.336849 C139.953844,132.161031 136.732349,137.001744 133.245132,140.542485 C129.757915,144.083225 127.340955,144.96986 127.05186,147.166619 C126.772566,149.288912 127.45579,164.120339 127.502431,166.142068 L127.50492,166.306467 C127.50492,167.436146 127.312092,170.264674 128.482361,170.763897 C129.652631,171.263121 143.751214,174.018088 142.684013,183.188432 L109.282765,183.188432 Z" id="路径" fill="#373435"></path>
                    <path d="M101.440283,118.985359 C88.7176294,122.971888 85.7334246,110.36646 97.3421583,107.542829 C108.259358,104.888346 102.809599,110.318406 104.634698,112.392401 C106.041341,113.989704 105.558053,117.695599 101.440283,118.985359 Z" id="路径" fill="#FBFDFF"></path>
                    <path d="M101.440283,118.985359 C88.7176294,122.971888 85.7334246,110.36646 97.3421583,107.542829 C108.259358,104.888346 102.809599,110.318406 104.634698,112.392401 C106.041341,113.989704 105.558053,117.695599 101.440283,118.985359 Z" id="路径" stroke="#373435" stroke-width="0.399" stroke-linecap="round"></path>
                    <path d="M135.113272,113.272743 C134.708568,104.980609 125.862041,102.456833 118.657907,103.342942 C116.72672,103.579366 110.722948,104.242506 108.318296,104.455864 C98.1260277,105.361194 96.9688871,115.994501 102.013942,121.778235 C104.349833,124.455784 110.518631,125.851261 111.072644,120.42889 C111.072644,120.42889 111.076573,120.895971 113.090273,122.583614 C116.084301,125.090091 121.412256,124.997829 121.561564,120.480788 C121.573352,120.107891 124.256975,123.654249 128.294197,122.796972 C134.024892,121.580255 130.608479,113.351551 131.502365,113.288121 C132.578958,113.211235 135.113272,113.295809 135.113272,113.274666 L135.113272,113.272743 Z" id="路径" fill="#FBFDFF"></path>
                    <path d="M135.113272,113.272743 C134.708568,104.980609 125.862041,102.456833 118.657907,103.342942 C116.72672,103.579366 110.722948,104.242506 108.318296,104.455864 C98.1260277,105.361194 96.9688871,115.994501 102.013942,121.778235 C104.349833,124.455784 110.525024,125.936617 111.079037,120.514245 C113.757748,124.760024 121.412256,124.997829 121.561564,120.480788 C121.573352,120.107891 124.256975,123.654249 128.294197,122.796972 C134.024892,121.580255 131.640828,114.284353 131.502365,113.716619 C131.520113,113.715352 131.538258,113.714128 131.55678,113.712947 C132.661828,113.642493 135.113272,113.723959 135.113272,113.703164 L135.113272,113.272743 Z" id="路径" stroke="#373435" stroke-width="0.4" stroke-linecap="round" stroke-linejoin="round"></path>
                    <path d="M112.231309,121.853627 C110.899569,120.521168 107.336843,117.343912 108.734045,110.321771" id="路径" stroke="#373435" stroke-width="0.4" stroke-linecap="round"></path>
                    <path d="M121.650973,120.514245 C118.236728,117.69922 118.08725,112.601657 118.864609,109.613905" id="路径" stroke="#373435" stroke-width="0.4" stroke-linecap="round"></path>
                    <path d="M84.6565006,62.2410497 L87.6493349,54.2648023 L67.738702,54.2648023 C65.5170902,54.332659 62.7676922,53.8432682 61.2497954,52.3956585 L50.1826503,42.165746 L27.1421224,58.9900966 C32.3974821,63.365826 36.7036448,66.3001145 42.5072476,67.5338728 C45.7087415,68.2144961 51.97876,68.681268 55.1454773,67.8525937 L84.6585463,62.2410497 L84.6565006,62.2410497 Z" id="路径" fill="#373435"></path>
                    <path d="M84.6565006,62.2410497 L87.6493349,54.2648023 L67.738702,54.2648023 C65.5170902,54.332659 62.7676922,53.8432682 61.2497954,52.3956585 L50.1826503,42.165746 L27.1421224,58.9900966 C32.3974821,63.365826 36.7036448,66.3001145 42.5072476,67.5338728 C45.7087415,68.2144961 51.97876,68.681268 55.1454773,67.8525937 L84.6585463,62.2410497 L84.6565006,62.2410497 Z" id="路径" stroke="#373435" stroke-width="0.4" stroke-linecap="round"></path>
                    <path d="M26.6900264,58.56445 L49.7919248,41.9046005 C49.0984383,40.7654303 49.3786968,38.8592737 50.2992542,35.805722 C51.275045,32.5650502 49.687595,30.6630061 47.809658,30.3298914 C47.809658,30.3298914 46.3490403,34.886572 44.317677,37.9216174 C41.2900662,42.4433416 36.4786197,45.7457013 34.9423117,45.665507 C30.7568443,45.4434305 19.3378416,44.4852116 12.9819045,44.2281786 C7.63039768,44.0102146 5.42106001,51.7664418 12.5625395,54.1105825 C18.5911673,56.0907646 26.1520118,58.1079594 26.6900264,58.5665062 L26.6900264,58.56445 Z" id="路径" fill="#FBFDFF"></path>
                    <path d="M26.6900264,58.56445 L49.7919248,41.9046005 C49.0984383,40.7654303 49.3786968,38.8592737 50.2992542,35.805722 C51.275045,32.5650502 49.687595,30.6630061 47.809658,30.3298914 C47.809658,30.3298914 46.3490403,34.886572 44.317677,37.9216174 C41.2900662,42.4433416 36.4786197,45.7457013 34.9423117,45.665507 C30.7568443,45.4434305 19.3378416,44.4852116 12.9819045,44.2281786 C7.63039768,44.0102146 5.42106001,51.7664418 12.5625395,54.1105825 C18.5911673,56.0907646 26.1520118,58.1079594 26.6900264,58.5665062 L26.6900264,58.56445 Z" id="路径" stroke="#373435" stroke-width="0.4" stroke-linecap="round"></path>
                    <path d="M19.1148622,44.5715747 C17.8935894,44.4625927 16.3245505,44.5222243 14.9989479,45.1658349 C12.2781895,46.4859563 12.042936,50.5861463 13.6958478,52.6670853 C14.921212,54.2092832 15.9501905,55.1736709 17.8813153,55.7699874" id="路径" stroke="#373435" stroke-width="0.4" stroke-linecap="round"></path>
                    <line x1="29.5846679" y1="45.3077171" x2="39.4489514" y2="46.1507853" id="路径" stroke="#373435" stroke-width="0.4" stroke-linecap="round"></line>
                    <line x1="24.3865873" y1="3.15842123" x2="24.3865873" y2="8.42245662" id="路径-2" stroke="#373435" stroke-width="0.4"></line>
                    <line x1="24.3865873" y1="45.0435149" x2="24.3865873" y2="39.7794795" id="路径-3" stroke="#373435" stroke-width="0.4"></line>
                    <line x1="3.43879316" y1="24.2145628" x2="8.67574171" y2="24.2145628" id="路径-4" stroke="#373435" stroke-width="0.4"></line>
                    <line x1="45.3343815" y1="24.2145628" x2="40.097433" y2="24.2145628" id="路径-5" stroke="#373435" stroke-width="0.4"></line>
                    <polyline id="路径-59" stroke="#373435" stroke-width="0.4" points="24.3865873 11.6908899 24.3865873 24.2145628 33.8131806 33.6898265"></polyline>
                </g>
            </g>
        </g>
    </g>
</svg>