<?xml version="1.0" encoding="UTF-8"?>
<svg width="12px" height="12px" viewBox="0 0 12 12" version="1.1" xmlns="http://www.w3.org/2000/svg" xmlns:xlink="http://www.w3.org/1999/xlink">
    <title> 问号小</title>
    <g id="空间里层页面优化" stroke="none" stroke-width="1" fill="none" fill-rule="evenodd">
        <g id="应用管理-工作流-配置-工具" transform="translate(-1932, -357)" fill="#A8A9AA" fill-rule="nonzero">
            <g id="节点属性备份-2" transform="translate(1830, 74)">
                <g id="编组-30备份-2" transform="translate(12, 215)">
                    <g id="1" transform="translate(0, 65)">
                        <g id="-问号小" transform="translate(90, 3)">
                            <path d="M5.35714286,9.64757143 C5.35714286,10.0026161 5.64495536,10.2904286 6,10.2904286 C6.35504464,10.2904286 6.64285714,10.0026161 6.64285714,9.64757143 C6.64285714,9.29252679 6.35504464,9.00471429 6,9.00471429 C5.64495536,9.00471429 5.35714286,9.29252679 5.35714286,9.64757143 Z M6,12 C2.69142857,12 0,9.30857143 0,6 C0,2.69142857 2.69142857,0 6,0 C9.30857143,0 12,2.69142857 12,6 C12,9.30857143 9.30857143,12 6,12 Z M6,0.860986607 C3.16628571,0.860986607 0.860986607,3.16628571 0.860986607,6 C0.860986607,8.83328571 3.16628571,11.1390134 6,11.1390134 C8.83328571,11.1390134 11.1390134,8.83329911 11.1390134,6 C11.1390134,3.16628571 8.83328571,0.860986607 6,0.860986607 Z M6,8.16555804 C5.76341518,8.16555804 5.57142857,7.97355804 5.57142857,7.737 L5.57142857,7.01228571 C5.57142857,6.31112946 6.10712946,5.77542857 6.58027232,5.30271429 C6.92697321,4.95557143 7.28570089,4.59728571 7.28570089,4.31142857 C7.28570089,3.597 6.70884375,3.01585714 6,3.01585714 C5.27915625,3.01585714 4.71428571,3.57214286 4.71428571,4.28228571 C4.71428571,4.51885714 4.52229911,4.71084375 4.28571429,4.71084375 C4.04912946,4.71084375 3.85714286,4.51884375 3.85714286,4.28227232 C3.85714286,3.11142857 4.81840179,2.15871429 6,2.15871429 C7.18159821,2.15871429 8.14285714,3.12428571 8.14285714,4.31142857 C8.14285714,4.953 7.65642857,5.43898661 7.18628571,5.90914286 C6.81342857,6.28114286 6.42858482,6.666 6.42858482,7.01184375 L6.42858482,7.73655804 C6.42858482,7.97314286 6.23658482,8.16555804 6,8.16555804 Z" id="形状"></path>
                        </g>
                    </g>
                </g>
            </g>
        </g>
    </g>
</svg>