<?xml version="1.0" encoding="UTF-8"?>
<svg width="18px" height="18px" viewBox="0 0 18 18" version="1.1" xmlns="http://www.w3.org/2000/svg" xmlns:xlink="http://www.w3.org/1999/xlink">
    <title>编组 28</title>
    <g id="空间里层页面优化" stroke="none" stroke-width="1" fill="none" fill-rule="evenodd">
        <g id="应用管理-工作流-配置-代码执行" transform="translate(-1300, -260)">
            <g id="节点属性" transform="translate(1070, 74)">
                <g id="编组-3备份-9" transform="translate(12, 186)">
                    <g id="编组-28" transform="translate(218, 0)">
                        <rect id="矩形" stroke="#EBEBEB" x="0.5" y="0.5" width="17" height="17" rx="4"></rect>
                        <g id="刷新" transform="translate(4, 4)" fill-rule="nonzero">
                            <rect id="矩形" fill="#000000" opacity="0" x="0" y="0" width="10" height="10"></rect>
                            <path d="M9.375,4.0625 L9.375,1.875 L8.6615625,2.5884375 C7.85247094,1.36257923 6.48191961,0.624888045 5.013125,0.6246875 C2.596875,0.6246875 0.6378125,2.5834375 0.6378125,5 C0.6378125,7.4165625 2.596875,9.37531259 5.013125,9.37531259 C6.79432997,9.37566739 8.39797877,8.29626938 9.068125,6.6459375 C9.11853294,6.52184353 9.09890846,6.38028366 9.0166439,6.27458211 C8.93437934,6.16888057 8.80197265,6.11509594 8.66930015,6.13348836 C8.53662765,6.15188079 8.42384544,6.23965603 8.3734375,6.36375 C7.817904,7.73116445 6.48907883,8.62549233 5.013125,8.6253125 C3.0109375,8.6253125 1.3878125,7.0021875 1.3878125,5 C1.3878125,2.9978125 3.0109375,1.3746875 5.013125,1.3746875 C6.3065625,1.3746875 7.4734375,2.0590625 8.11875,3.1309375 L7.1875,4.0625 L9.375,4.0625 Z" id="路径" stroke="#171719" stroke-width="0.1" fill="#171719"></path>
                        </g>
                    </g>
                </g>
            </g>
        </g>
    </g>
</svg>